<svg id="Layer_1" data-name="Layer 1" xmlns="http://www.w3.org/2000/svg" xmlns:xlink="http://www.w3.org/1999/xlink" viewBox="0 0 1232 1215"><defs><style>.cls-1{fill:none;}.cls-2{fill:#fff0e3;}.cls-3{fill:#333;}.cls-4{fill:#eff9cf;}.cls-5{fill:#daeab0;}.cls-6{fill:#111;}.cls-7{fill:#f2c538;}.cls-8{fill:#ffd744;}.cls-9{fill:#ffe7ce;}.cls-10{fill:#4d4d4d;}.cls-11{fill:url(#New_Pattern_15);}</style><pattern id="New_Pattern_15" data-name="New Pattern 15" width="462.24" height="285" patternTransform="translate(192 -100)" patternUnits="userSpaceOnUse" viewBox="0 0 462.24 285"><rect class="cls-1" width="462.24" height="285"/><path class="cls-2" d="M368.45,348.52c-1.92-4.55-7.29-18.3-6.36-31.83,1.4-20.51-1.62-31.16-4.07-36.49a2.58,2.58,0,0,0-4.38-.48,32.59,32.59,0,0,1-3,3.39c-2.27-.8-8.63-6.72-12.48-10.47a.85.85,0,0,0-1.38.93,104.3,104.3,0,0,1,5.4,16.84c2.47,12.73.6,21.6,2.08,35,.55,5,1.47,11.08,3.83,16.24a1.47,1.47,0,0,1,.1.22C354.59,349,361.59,350,368.45,348.52Z"/><path class="cls-3" d="M389.39,160a21,21,0,0,1-5.34-2.53A21,21,0,0,0,389.39,160Z"/><path class="cls-4" d="M443.11,312.77c1.28.15,1.78-1.21,2-2.24a68,68,0,0,1,3.23-8.67q1.81-4.67,3.77-9.26A168.21,168.21,0,0,1,461,274.68l.1-.17c5.63-9.71,9.36-20.54,5.85-26.19l-.1-.17-.06-.09h0c-1.49-2.2-4.15-3.56-8.32-3.66a20.17,20.17,0,0,1-1.17,3.51A168.75,168.75,0,0,0,444.32,279a83.59,83.59,0,0,0-3.44,17.28,49.74,49.74,0,0,0,.09,8.8c.17,1.65-.21,7.24,2,7.66Z"/><path class="cls-5" d="M466.75,248.06c-1-1.59-6.3-10-9.85-12.51-1.9-1.89-5.46-2.94-11.78-2-9.7,1.44-22.76,5.87-31.67,6.54a18.49,18.49,0,0,1-5.71-.28,5.72,5.72,0,0,1-3.3-1.93c2.28,3.53,8.75,10.86,9.57,11.79l.09.1c3,3.82,11.12,4.34,26.87-1.51,7.57-2.81,13.27-4,17.46-3.86S465.26,245.86,466.75,248.06Z"/><path class="cls-4" d="M413.45,240.09a45.89,45.89,0,0,1,6.43-12.36c7.17-10.21,17.67-24.52,15.71-34.72h0v0c-.73-3.75-3.15-6.95-8-9.17-2.27,9-9.67,21.08-18.7,36.51-5.59,9.54-6.47,14.86-4.42,17.54h0a5.72,5.72,0,0,0,3.3,1.93A18.49,18.49,0,0,0,413.45,240.09Z"/><path class="cls-5" d="M435.58,193c-.06-.56-1.1-8.94-9.08-20.69l-.11-.15c-2.29-3.35-6.84-5.74-14.27-7.25-9.05-1.84-16.76-2.93-22.38-4.77h0l-.35-.12a21,21,0,0,1-5.34-2.53,10.55,10.55,0,0,1-2.4-2.25,8.75,8.75,0,0,1-.71-1.08l8.8,16.9.28.54c3.08,5.43,12.17,7.1,28.47,9.69a35,35,0,0,1,9.05,2.54C432.43,186,434.85,189.23,435.58,193Z"/><path class="cls-3" d="M380.92,154.1l-.06-.12,0,.08Z"/><path class="cls-4" d="M394.61,146.34a3.14,3.14,0,0,0-2.36-4.3c-3.91-.68-4.06-1.11-4.09-1a28.21,28.21,0,0,1-1.16-7.2,1.36,1.36,0,0,0-2.59-.52c-4.84,10.3-5.72,16.58-3.55,20.7l.07.13v0a8.75,8.75,0,0,0,.71,1.08,10.55,10.55,0,0,0,2.4,2.25,21,21,0,0,0,5.34,2.53l.35.12c.44-1.75,1-3.68,1.79-5.81C392.37,151.92,393.4,149.27,394.61,146.34Z"/><polygon class="cls-3" points="380.93 154.11 380.86 153.98 380.92 154.1 380.94 154.14 380.94 154.14 380.93 154.11"/><path class="cls-3" d="M435.59,193h0v0Z"/><path class="cls-6" d="M404.94,238.61c1,2.35,2.91,2.54,5.29,2.25,4.83-.59,9.63-1.58,14.43-2.36.37-.07.22-.63-.15-.57l-8.34,1.37c-2.79.46-9.18,2.66-10.72-1-.15-.35-.65,0-.51.29Z"/><path class="cls-6" d="M435.4,189.36c-11.74-12.94-31.82-7.13-45.22-17.13-.31-.23-.6.28-.3.5,13.38,10,33.41,4.15,45.11,17.05.25.28.66-.14.41-.42Z"/><path class="cls-6" d="M408.11,221.84a104.77,104.77,0,0,0,10.64-19.61c.14-.35-.43-.5-.57-.16a103.57,103.57,0,0,1-10.57,19.47c-.22.31.29.61.5.3Z"/><path class="cls-6" d="M468.83,257.59c-1.35-7.68-3.41-15.8-9.52-21.14a15.44,15.44,0,0,0-16.51-2.92c-.35.14-.05.65.29.5,15.56-6.58,23.11,11.94,25.18,23.71.06.37.63.22.56-.15Z"/><path class="cls-4" d="M163.49,288.84a3.14,3.14,0,0,0-2.36-4.3c-3.91-.68-4.06-1.11-4.09-1a28.21,28.21,0,0,1-1.16-7.2,1.36,1.36,0,0,0-2.59-.52c-4.84,10.3-5.72,16.58-3.55,20.7l.07.13v0a8.75,8.75,0,0,0,.71,1.08,10.55,10.55,0,0,0,2.4,2.25,21,21,0,0,0,5.34,2.53l.35.12c.44-1.75,1-3.68,1.79-5.81C161.25,294.42,162.28,291.77,163.49,288.84Z"/><path class="cls-7" d="M73.51,215q.92-2.88,2.08-5.67a80.38,80.38,0,0,1,4.94-9.81c.83-1.39,1.7-2.77,2.6-4.12.69-1,1.76-2.55.12-3.41a2.45,2.45,0,0,0-1.53-.22c-1.32.22-2.29,1.12-3.43,1.69a3.32,3.32,0,0,1-2.6.32A2.85,2.85,0,0,1,74,191.49a7.18,7.18,0,0,1,.37-2.94,8.6,8.6,0,0,0,.58-3.92,2.92,2.92,0,0,0-.94-1.73c-1.28-1.1-2.47-.25-3.39.77-1.17,1.29-2.32,2.62-3.4,4-3.75,4.76-12.49,17.84-15,41.63A107,107,0,0,0,55.73,270a91.3,91.3,0,0,1,24.93,3.71C69.78,251.34,69.8,226.78,73.51,215Z"/><path class="cls-8" d="M125.07,310.37A17.72,17.72,0,0,0,118,291.78c-13.31-9.43-25.76-15.15-37-18.4a90.6,90.6,0,0,0-24.94-3.71,80.5,80.5,0,0,0-13.48,1.06,34.3,34.3,0,0,0-27.19,23.75c-.88,2.85-1.37,4.88-1.51,5.53,0,.14-.06.24-.06.24a121.55,121.55,0,0,1,17.34-3.34,104.76,104.76,0,0,1,39.17,2.65c28.6,7.56,45.13,25.21,46.77,27l.14.16A48.69,48.69,0,0,0,125.07,310.37Z"/><path class="cls-6" d="M63.54,191.52a96.48,96.48,0,0,0-12.93,47.63.48.48,0,0,0,1,0A95.54,95.54,0,0,1,64.37,192a.48.48,0,0,0-.83-.49Z"/><path class="cls-6" d="M72.23,236.35c-.13-7.11-.11-14.17,2.1-21,.19-.59-.74-.84-.92-.26-2.24,6.94-2.27,14-2.14,21.27a.48.48,0,0,0,1,0Z"/><path class="cls-6" d="M36.1,272.87a91,91,0,0,1,60.21,6.77c.55.26,1-.56.48-.83a92.15,92.15,0,0,0-60.95-6.87c-.6.14-.35,1.06.26.93Z"/><path class="cls-4" d="M-19.13,312.77c1.28.15,1.78-1.21,2-2.24a68,68,0,0,1,3.23-8.67q1.82-4.67,3.77-9.26a168.21,168.21,0,0,1,8.83-17.92l.1-.17C4.45,264.8,8.18,254,4.67,248.32l-.1-.17-.06-.09h0C3,245.86.36,244.5-3.81,244.4A20.17,20.17,0,0,1-5,247.91,168.75,168.75,0,0,0-17.92,279a83.59,83.59,0,0,0-3.44,17.28,49.74,49.74,0,0,0,.09,8.8c.17,1.65-.21,7.24,2,7.66Z"/><path class="cls-5" d="M4.51,248.06c-1-1.59-6.3-10-9.85-12.51-1.9-1.89-5.46-2.94-11.78-2-9.7,1.44-22.76,5.87-31.67,6.54a18.49,18.49,0,0,1-5.71-.28,5.72,5.72,0,0,1-3.3-1.93c2.28,3.53,8.75,10.86,9.57,11.79l.09.1c3,3.82,11.12,4.34,26.87-1.51,7.57-2.81,13.27-4,17.46-3.86S3,245.86,4.51,248.06Z"/><path class="cls-6" d="M6.59,257.59c-1.35-7.68-3.41-15.8-9.52-21.14a15.44,15.44,0,0,0-16.51-2.92c-.35.14,0,.65.29.5C-3.59,227.45,4,246,6,257.74c.06.37.63.22.56-.15Z"/><path class="cls-2" d="M468,152.26a.76.76,0,0,0,1.24-.86c-2.13-4.63-2.66-9.9-3.45-14.56-3.75-24.17.5-48.48-8.78-72.73a17.41,17.41,0,0,0-3.61-4.36c.75.82,1.47,1.64,2.15,2.45-5.3-2.45-10.56-1.25-15.41,0,5.09,10.66,6,23.77,6.52,32.82.54,14.17-1.85,32.84,3.77,46.37a.69.69,0,0,0,1.32-.19,19.46,19.46,0,0,1,.45-2.64,10.1,10.1,0,0,1,1.83-3.84C455.78,138.17,462.74,146.82,468,152.26Z"/><path class="cls-2" d="M368.45,63.52c-1.92-4.55-7.29-18.3-6.36-31.83C363.49,11.18,360.47.53,358-4.8a2.58,2.58,0,0,0-4.38-.48,32.59,32.59,0,0,1-3,3.39c-2.27-.8-8.63-6.72-12.48-10.47a.85.85,0,0,0-1.38.93,104.3,104.3,0,0,1,5.4,16.84c2.47,12.73.6,21.6,2.08,35,.55,5,1.47,11.08,3.83,16.24a1.47,1.47,0,0,1,.1.22C354.59,64,361.59,65,368.45,63.52Z"/><path class="cls-9" d="M440.16,62.23c-1,.28-2,.56-3,.8C416,68.74,397.91,82.78,374.53,82.77c-9.2-1.55-21.21-17.59-26.3-25.77a1,1,0,0,1-.07-.15h0c6.43,7.13,13.43,8.14,20.29,6.66,8.38-1.8,16.57-7.33,23.25-10,9-3.86,18.14-8.18,28.07-10.26a25.8,25.8,0,0,1,20.9,4.8,96.37,96.37,0,0,1,12.75,11.69c.75.82,1.47,1.64,2.15,2.45C450.27,59.75,445,61,440.16,62.23Zm-61.35-2.35h0Zm43.13-6.82h0Z"/><polygon class="cls-10" points="378.8 59.88 378.81 59.88 378.8 59.87 378.8 59.88"/><path class="cls-10" d="M421.94,53.06Z"/><path class="cls-10" d="M421.93,53.06h0Z"/><path class="cls-6" d="M348.23,57c9,11.24,24.06,6.86,35.14,1.67,16.75-7.85,34.14-18.66,53.36-13.34a.59.59,0,0,0,.32-1.14c-14.4-4-28.52,1-41.49,7.19-13.15,6.31-34.3,20-46.49,4.78-.47-.6-1.31.25-.84.84Z"/><path class="cls-6" d="M373.34,83.54c14.71,1.12,28.15-4.75,41.15-10.92.69-.33.08-1.36-.6-1-12.83,6.1-26,11.87-40.55,10.76-.76,0-.76,1.13,0,1.19Z"/><path class="cls-6" d="M454.57,62.5c5,6.27,5.65,15.15,7.13,22.76.15.75,1.29.43,1.15-.32-1.54-7.92-2.24-16.76-7.44-23.28-.47-.6-1.31.24-.84.84Z"/><path class="cls-4" d="M443.11,27.77c1.28.15,1.78-1.21,2-2.24a68,68,0,0,1,3.23-8.67q1.81-4.66,3.77-9.26A168.21,168.21,0,0,1,461-10.32l.1-.17c5.63-9.71,9.36-20.54,5.85-26.19l-.1-.17-.06-.09h0c-1.49-2.2-4.15-3.56-8.32-3.66a20.17,20.17,0,0,1-1.17,3.51A168.75,168.75,0,0,0,444.32-6a83.59,83.59,0,0,0-3.44,17.28,49.74,49.74,0,0,0,.09,8.8c.17,1.65-.21,7.24,2,7.66Z"/><path class="cls-2" d="M236.9,294.76a.76.76,0,0,0,1.24-.86c-2.13-4.63-2.66-9.9-3.45-14.56-3.75-24.17.5-48.48-8.78-72.73a17.41,17.41,0,0,0-3.61-4.36c.75.82,1.47,1.64,2.15,2.45-5.3-2.45-10.56-1.25-15.41,0,5.09,10.66,6,23.77,6.52,32.82.54,14.17-1.85,32.84,3.77,46.37a.69.69,0,0,0,1.32-.19,19.46,19.46,0,0,1,.45-2.64,10.1,10.1,0,0,1,1.83-3.84C224.66,280.67,231.62,289.32,236.9,294.76Z"/><path class="cls-2" d="M137.33,206c-1.92-4.55-7.29-18.3-6.36-31.83,1.4-20.51-1.62-31.16-4.07-36.49a2.58,2.58,0,0,0-4.38-.48,32.59,32.59,0,0,1-3,3.39c-2.27-.8-8.63-6.72-12.48-10.47a.85.85,0,0,0-1.38.93,104.3,104.3,0,0,1,5.4,16.84c2.47,12.73.59,21.6,2.08,35,.55,5,1.47,11.08,3.83,16.24a1.47,1.47,0,0,1,.1.22C123.47,206.49,130.47,207.5,137.33,206Z"/><path class="cls-9" d="M209,204.73c-1,.28-2,.56-3,.8-21.13,5.71-39.21,19.75-62.59,19.74-9.2-1.55-21.21-17.59-26.3-25.77a1,1,0,0,1-.07-.15h0c6.43,7.13,13.43,8.14,20.29,6.66,8.38-1.8,16.57-7.33,23.25-10,9-3.86,18.14-8.18,28.07-10.26a25.8,25.8,0,0,1,20.9,4.8,96.37,96.37,0,0,1,12.75,11.69c.75.82,1.47,1.64,2.15,2.45C219.15,202.25,213.89,203.45,209,204.73Zm-61.35-2.35h0Zm43.13-6.82h0Z"/><polygon class="cls-10" points="147.68 202.38 147.69 202.38 147.68 202.37 147.68 202.38"/><path class="cls-10" d="M190.82,195.56Z"/><path class="cls-10" d="M190.81,195.56h0Z"/><path class="cls-6" d="M117.11,199.51c9,11.24,24.06,6.86,35.14,1.67,16.75-7.85,34.14-18.66,53.36-13.34a.59.59,0,0,0,.32-1.14c-14.4-4-28.52,1-41.49,7.19-13.15,6.31-34.3,20-46.49,4.78-.47-.6-1.31.25-.84.84Z"/><path class="cls-6" d="M142.22,226c14.71,1.12,28.15-4.75,41.15-10.92.69-.33.08-1.36-.6-1-12.83,6.1-26,11.87-40.55,10.76-.76,0-.76,1.13,0,1.19Z"/><path class="cls-6" d="M223.45,205c5,6.27,5.65,15.15,7.13,22.76.15.75,1.29.43,1.15-.32-1.54-7.92-2.24-16.76-7.44-23.28-.47-.6-1.31.24-.84.84Z"/><path class="cls-6" d="M231.54,237.44a68.93,68.93,0,0,0,.68,11.31c.11.76,1.26.44,1.15-.31a67.42,67.42,0,0,1-.65-11,.59.59,0,0,0-1.18,0Z"/><path class="cls-7" d="M304.63,72.52q.92-2.88,2.08-5.67A80.38,80.38,0,0,1,311.65,57c.83-1.39,1.7-2.77,2.6-4.12.69-1.05,1.76-2.55.12-3.41a2.45,2.45,0,0,0-1.53-.22c-1.32.22-2.29,1.12-3.43,1.69a3.32,3.32,0,0,1-2.6.32A2.85,2.85,0,0,1,305.16,49a7.18,7.18,0,0,1,.37-2.94,8.6,8.6,0,0,0,.58-3.92,2.92,2.92,0,0,0-.94-1.73c-1.27-1.1-2.47-.25-3.39.77-1.17,1.29-2.32,2.62-3.4,4-3.75,4.76-12.49,17.84-15,41.63a107,107,0,0,0,3.46,40.74,91.3,91.3,0,0,1,24.93,3.71C300.9,108.84,300.92,84.28,304.63,72.52Z"/><path class="cls-7" d="M245,157.51a24.76,24.76,0,0,0,.09,17.68c4.89,12.34,9.39,20.32,16.52,31.5l0,0c21.88,31.06,12.17,48,6.45,54.16a2.16,2.16,0,0,0,1.18,3.59l4.23.81a4.51,4.51,0,0,1,3.66,4.8c-.12,1.49-.26,3.22-.4,4.82a1.87,1.87,0,0,0,3.28,1.37,53.6,53.6,0,0,0,12.44-28.08c1.46-13.53,0-23.78-7.53-39.8-5.77-12.29-12.19-22.66-17.46-35.13a80.73,80.73,0,0,1-4.86-16.85c-.13-.69-.24-1.35-.34-2A121.55,121.55,0,0,0,245,157.75S245,157.65,245,157.51Z"/><path class="cls-7" d="M301.48,157.06l.14.18.22.27.5.59.39.46.22.25c.7.82,1.43,1.61,2.16,2.39l.29.31.31.34c.5.52,1,1,1.53,1.56l1.09,1.06,1.15,1.08.74.68c.22.21.45.41.69.62.67.61,1.36,1.2,2,1.8.93.78,1.86,1.55,2.82,2.31l.22.18.77.6.45.35.68.53.81.62,1.15.85,0,0,.67.5a2.48,2.48,0,0,1,.26.19l.67.47.39.28.36.26.11.07.61.43.4.27.7.47c.42.27.84.55,1.28.82s1.14.72,1.73,1.06,1.17.68,1.77,1l1,.55.35.18a44.67,44.67,0,0,0,5.07,2.17c.52.19,1,.36,1.59.53l.59.19.66.21.32.11.33.11.58.18.76.24,1.33.38,1.08.25.3.07.16,0,.08,0c1.76.32,3.38.38,4.3-.29a5.71,5.71,0,0,0,.88-.79C346.61,182.27,330.08,164.62,301.48,157.06Z"/><path class="cls-8" d="M356.19,167.87a17.72,17.72,0,0,0-7.06-18.59c-13.31-9.43-25.76-15.15-37-18.4a90.6,90.6,0,0,0-24.94-3.71,80.5,80.5,0,0,0-13.48,1.06A34.3,34.3,0,0,0,246.54,152c-.88,2.85-1.37,4.88-1.51,5.53,0,.14-.06.24-.06.24a121.55,121.55,0,0,1,17.34-3.34,104.76,104.76,0,0,1,39.17,2.65c28.6,7.56,45.13,25.21,46.77,27l.14.16A48.69,48.69,0,0,0,356.19,167.87Z"/><path class="cls-6" d="M294.66,49a96.48,96.48,0,0,0-12.93,47.63.48.48,0,0,0,.95,0,95.54,95.54,0,0,1,12.81-47.14.48.48,0,0,0-.83-.49Z"/><path class="cls-6" d="M303.35,93.85c-.13-7.11-.11-14.17,2.1-21,.19-.59-.74-.84-.92-.26-2.24,6.94-2.27,14-2.14,21.27a.48.48,0,0,0,1,0Z"/><path class="cls-6" d="M267.22,130.37a91,91,0,0,1,60.21,6.77c.55.26,1-.56.48-.83a92.15,92.15,0,0,0-61-6.87c-.6.14-.35,1.06.26.93Z"/><path class="cls-6" d="M301.05,157.35a115.22,115.22,0,0,1,46.67,26.48c.45.42,1.13-.26.67-.68a116.39,116.39,0,0,0-47.09-26.73.48.48,0,0,0-.25.93Z"/><path class="cls-6" d="M244.77,159l17.89-4.52a.48.48,0,0,0-.26-.92l-17.89,4.52a.48.48,0,0,0,.26.92Z"/><path class="cls-3" d="M158.27,17.5A21,21,0,0,1,152.93,15,21,21,0,0,0,158.27,17.5Z"/><path class="cls-4" d="M212,170.27c1.28.15,1.78-1.21,2-2.24a68,68,0,0,1,3.23-8.67q1.81-4.67,3.77-9.26a168.21,168.21,0,0,1,8.83-17.92l.1-.17c5.63-9.71,9.36-20.54,5.85-26.19l-.1-.17-.06-.09h0c-1.49-2.2-4.15-3.56-8.32-3.66a20.17,20.17,0,0,1-1.17,3.51,168.75,168.75,0,0,0-12.94,31.1,83.59,83.59,0,0,0-3.44,17.28,49.74,49.74,0,0,0,.09,8.8c.17,1.65-.21,7.24,2,7.66Z"/><path class="cls-5" d="M235.63,105.56c-1-1.59-6.3-10-9.85-12.51-1.9-1.89-5.46-2.94-11.78-2-9.7,1.44-22.76,5.87-31.67,6.54a18.49,18.49,0,0,1-5.71-.28,5.72,5.72,0,0,1-3.3-1.93c2.28,3.53,8.75,10.86,9.57,11.79l.09.1c3,3.82,11.12,4.34,26.87-1.51,7.57-2.81,13.27-4,17.46-3.86S234.14,103.36,235.63,105.56Z"/><path class="cls-4" d="M182.33,97.59a45.89,45.89,0,0,1,6.43-12.36c7.17-10.21,17.67-24.52,15.71-34.72h0v0c-.73-3.75-3.15-6.95-8-9.17-2.27,9-9.67,21.08-18.7,36.51-5.59,9.54-6.47,14.86-4.42,17.54h0a5.72,5.72,0,0,0,3.3,1.93A18.49,18.49,0,0,0,182.33,97.59Z"/><path class="cls-5" d="M204.46,50.48c-.06-.56-1.1-8.94-9.08-20.69l-.11-.15C193,26.29,188.43,23.9,181,22.39c-9.05-1.84-16.76-2.93-22.38-4.77h0l-.35-.12A21,21,0,0,1,152.93,15a10.55,10.55,0,0,1-2.4-2.25,8.75,8.75,0,0,1-.71-1.08l8.8,16.9.28.54c3.08,5.43,12.17,7.1,28.47,9.69a35,35,0,0,1,9,2.54C201.31,43.53,203.73,46.73,204.46,50.48Z"/><path class="cls-3" d="M149.8,11.6l-.06-.12,0,.08S149.79,11.59,149.8,11.6Z"/><path class="cls-4" d="M163.49,3.84a3.14,3.14,0,0,0-2.36-4.3c-3.91-.68-4.06-1.11-4.09-1a28.21,28.21,0,0,1-1.16-7.2,1.36,1.36,0,0,0-2.59-.52c-4.84,10.3-5.72,16.58-3.55,20.7l.07.13v0a8.75,8.75,0,0,0,.71,1.08,10.55,10.55,0,0,0,2.4,2.25,21,21,0,0,0,5.34,2.53l.35.12c.44-1.75,1-3.68,1.79-5.81C161.25,9.42,162.28,6.77,163.49,3.84Z"/><polygon class="cls-3" points="149.81 11.61 149.74 11.48 149.8 11.6 149.82 11.64 149.82 11.64 149.81 11.61"/><path class="cls-3" d="M204.47,50.51h0v0Z"/><path class="cls-6" d="M173.82,96.11c1,2.35,2.91,2.54,5.29,2.25,4.83-.59,9.63-1.58,14.43-2.36.37-.07.22-.63-.15-.57l-8.34,1.37c-2.79.46-9.18,2.66-10.72-1-.15-.35-.65,0-.51.29Z"/><path class="cls-6" d="M204.28,46.86c-11.74-12.94-31.82-7.13-45.22-17.13-.31-.23-.6.28-.3.5,13.38,10,33.41,4.15,45.11,17.05.25.28.66-.14.41-.42Z"/><path class="cls-6" d="M177,79.34a104.77,104.77,0,0,0,10.64-19.61c.14-.35-.43-.5-.57-.16A103.57,103.57,0,0,1,176.49,79c-.22.31.29.61.5.3Z"/><path class="cls-6" d="M237.71,115.09c-1.35-7.68-3.41-15.8-9.52-21.14A15.44,15.44,0,0,0,211.68,91c-.35.14-.05.65.29.5,15.56-6.58,23.11,11.94,25.18,23.71.06.37.63.22.56-.15Z"/><path class="cls-2" d="M5.78,152.26A.76.76,0,0,0,7,151.4c-2.13-4.63-2.66-9.9-3.45-14.56-3.75-24.17.5-48.48-8.78-72.73a17.41,17.41,0,0,0-3.61-4.36c.75.82,1.47,1.64,2.15,2.45-5.3-2.45-10.56-1.25-15.41,0,5.09,10.66,6,23.77,6.52,32.82.54,14.17-1.85,32.84,3.77,46.37a.69.69,0,0,0,1.32-.19,19.46,19.46,0,0,1,.45-2.64,10.1,10.1,0,0,1,1.83-3.84C-6.46,138.17.5,146.82,5.78,152.26Z"/><path class="cls-6" d="M-7.67,62.5c5,6.27,5.65,15.15,7.13,22.76.15.75,1.29.43,1.15-.32C-.93,77-1.63,68.18-6.83,61.66c-.47-.6-1.31.24-.84.84Z"/><path class="cls-6" d="M.42,94.94a68.93,68.93,0,0,0,.68,11.31c.11.76,1.26.44,1.15-.31a67.42,67.42,0,0,1-.65-11,.59.59,0,0,0-1.18,0Z"/><path class="cls-7" d="M13.91,15A24.76,24.76,0,0,0,14,32.69C18.89,45,23.39,53,30.52,64.19c0,0,0,0,0,0,21.88,31.06,12.17,48,6.45,54.16A2.16,2.16,0,0,0,38.17,122l4.23.81a4.51,4.51,0,0,1,3.66,4.8c-.12,1.49-.26,3.22-.4,4.82a1.87,1.87,0,0,0,3.28,1.37,53.6,53.6,0,0,0,12.44-28.08c1.46-13.53,0-23.78-7.53-39.8C48.08,53.6,41.66,43.23,36.39,30.76a80.73,80.73,0,0,1-4.86-16.85c-.13-.69-.24-1.35-.34-2a121.55,121.55,0,0,0-17.34,3.34S13.87,15.15,13.91,15Z"/><path class="cls-7" d="M70.36,14.56l.14.18.22.27.5.59.39.46.22.25c.7.82,1.43,1.61,2.16,2.39l.29.31.31.34c.5.52,1,1,1.53,1.56L77.21,22l1.15,1.08.74.68c.22.21.45.41.69.62.67.61,1.36,1.2,2,1.8.93.78,1.86,1.55,2.82,2.31l.22.18.77.6.45.35.68.53.81.62,1.15.85a0,0,0,0,0,0,0l.67.5a2.48,2.48,0,0,1,.26.19l.67.47.39.28.36.26.11.07.61.43.4.27.7.47c.42.27.84.55,1.28.82s1.14.72,1.73,1.06,1.17.68,1.77,1l1,.55.35.18a44.67,44.67,0,0,0,5.07,2.17c.52.19,1,.36,1.59.53l.59.19.66.21.32.11.33.11.58.18.76.24,1.33.38,1.08.25.3.07.16,0,.08,0c1.76.32,3.38.38,4.3-.29a5.71,5.71,0,0,0,.88-.79C115.49,39.77,99,22.12,70.36,14.56Z"/><path class="cls-8" d="M125.07,25.37A17.72,17.72,0,0,0,118,6.78C104.7-2.65,92.25-8.37,81-11.62a90.6,90.6,0,0,0-24.94-3.71,80.5,80.5,0,0,0-13.48,1.06A34.3,34.3,0,0,0,15.42,9.48c-.88,2.85-1.37,4.88-1.51,5.53,0,.14-.06.24-.06.24a121.55,121.55,0,0,1,17.34-3.34,104.76,104.76,0,0,1,39.17,2.65c28.6,7.56,45.13,25.21,46.77,27l.14.16A48.69,48.69,0,0,0,125.07,25.37Z"/><path class="cls-6" d="M69.93,14.85A115.22,115.22,0,0,1,116.6,41.33c.45.42,1.13-.26.67-.68A116.39,116.39,0,0,0,70.18,13.92a.48.48,0,0,0-.25.93Z"/><path class="cls-6" d="M13.65,16.54,31.54,12a.48.48,0,0,0-.26-.92L13.39,15.62a.48.48,0,0,0,.26.92Z"/><path class="cls-4" d="M-19.13,27.77c1.28.15,1.78-1.21,2-2.24a68,68,0,0,1,3.23-8.67q1.82-4.66,3.77-9.26A168.21,168.21,0,0,1-1.28-10.32l.1-.17C4.45-20.2,8.18-31,4.67-36.68l-.1-.17-.06-.09h0C3-39.14.36-40.5-3.81-40.6A20.17,20.17,0,0,1-5-37.09,168.75,168.75,0,0,0-17.92-6a83.59,83.59,0,0,0-3.44,17.28,49.74,49.74,0,0,0,.09,8.8c.17,1.65-.21,7.24,2,7.66Z"/><path class="cls-2" d="M236.9,9.76a.76.76,0,0,0,1.24-.86C236,4.27,235.48-1,234.69-5.66c-3.75-24.17.5-48.48-8.78-72.73a17.41,17.41,0,0,0-3.61-4.36c.75.82,1.47,1.64,2.15,2.45-5.3-2.45-10.56-1.25-15.41,0,5.09,10.66,6,23.77,6.52,32.82.54,14.17-1.85,32.84,3.77,46.37a.69.69,0,0,0,1.32-.19,19.46,19.46,0,0,1,.45-2.64,10.1,10.1,0,0,1,1.83-3.84C224.66-4.33,231.62,4.32,236.9,9.76Z"/></pattern></defs><title>Artboard 1 copy 12</title><rect class="cls-11" x="-61" y="-38" width="1337" height="1293"/></svg>