<svg id="Layer_1" data-name="Layer 1" xmlns="http://www.w3.org/2000/svg" viewBox="0 0 1232 1215"><defs><style>.cls-1{fill:#dd4040;}</style></defs><title>Artboard 1</title><path class="cls-1" d="M662.34,464.68c-26.85,13.39-46,43.61-53.45,72.51-5.76,22.43-6.79,45.78-7,68.93-4.32-20.73-8.85-42-20.36-59.78s-31.69-31.58-52.75-29.29c-18.91,2.05-34.24,16.18-45.78,31.29a192.21,192.21,0,0,0-35.33,77.83c-5,24.71-11.85,68.37,22.49,76,4.32,1,8.84.46,13.17-.49,15.29-3.37,27.7-12.28,41.32-19.41l31.69-16.58c7.6-4,15.38-7.64,22.77-12,4.15-2.42,11.18-8,16.35-7,7.21,1.37.07,30.7-1.87,36.45a81.81,81.81,0,0,1-20,32.21c-9.61,9.41-21.48,16.39-30.52,26.34s-15,24.61-9.54,36.89c5.83,13,22.89,18.07,36.54,14s24.13-15.12,32-27a132.17,132.17,0,0,0,17.41-104c20.16,18.66,40.76,37.62,65.63,49.29,17.82,8.35,38.32,12.59,57.92,9.37,17.18-2.82,36.77-13.81,37.46-33.48a29.43,29.43,0,0,0-14.71-26.15c-9.37-5.25-20.92-4.87-31.37-2.45s-20.45,6.69-31,8.86c-30.62,6.31-64.42-7.39-82-33.25,28.33-4.87,57.24.18,85.22,5,21.45,3.67,50.13,13.21,69.57-1.77,16.1-12.41,11.34-37.22,6.73-54.06-12.39-45.18-20.47-111-75.74-123.58A65.54,65.54,0,0,0,662.34,464.68ZM592.06,622.8a4.25,4.25,0,0,1-1.3,2.15c-3,2.62-10.38,2.74-14.13,3.42-10.5,1.91-21.11,3.25-31.75,4.19-12.15,1.07-26.62,2.53-38.57-.44-15.52-3.86-14.58-22.23-10.2-34.23,5.08-13.92,18.31-23.55,32.29-27.25,16.45-4.36,31.33.3,43.84,11.77,9.24,8.45,13.71,19.55,18.14,30.91C591.36,615.84,592.86,619.89,592.06,622.8ZM697.42,514.08c.37.14.74.26,1.11.41,13.53,5,24.43,18.1,24.38,32.54,0,8.39-3.61,16.5-8.78,23.12-7.32,9.36-17.55,16.86-28.1,22a360,360,0,0,1-37.13,15.66c-6.73,2.41-13.46,4.66-20.3,6.76-3,.92-7.67,1.82-10.55-.05-3.82-2.48-3.44-9.62-3.4-13.62.17-18.68,1.39-37.71,10.86-54.34a71,71,0,0,1,27.91-27.55,62.87,62.87,0,0,1,22.1-7A49.7,49.7,0,0,1,697.42,514.08Z"/></svg>