<svg id="Layer_1" data-name="Layer 1" xmlns="http://www.w3.org/2000/svg" xmlns:xlink="http://www.w3.org/1999/xlink" viewBox="0 0 1232 1215"><defs><style>.cls-1{fill:none;}.cls-2{fill:#dd4040;}.cls-3{fill:url(#New_Pattern_4);}</style><pattern id="New_Pattern_4" data-name="New Pattern 4" width="346.48" height="234.09" patternUnits="userSpaceOnUse" viewBox="0 0 346.48 234.09"><rect class="cls-1" width="346.48" height="234.09"/><path class="cls-2" d="M368.25,145.53c11.22,2.56,12.86,15.92,15.38,25.09.93,3.41,1.9,8.45-1.37,11-3.94,3-9.77,1.1-14.12.36-5.68-1-11.55-2-17.3-1a16.58,16.58,0,0,0,16.64,6.75c2.14-.44,4.16-1.31,6.29-1.8a8.92,8.92,0,0,1,6.36.5,5.94,5.94,0,0,1,3,5.3c-.14,4-4.11,6.23-7.6,6.8a20.42,20.42,0,0,1-11.76-1.9c-5.05-2.37-9.23-6.22-13.32-10a26.86,26.86,0,0,1-3.53,21.11c-1.59,2.42-3.72,4.66-6.49,5.49s-6.23-.2-7.41-2.84.09-5.47,1.93-7.49,4.24-3.43,6.2-5.35A16.59,16.59,0,0,0,345.2,191c.39-1.17,1.84-7.12.38-7.4-1.05-.2-2.48.93-3.32,1.42-1.5.88-3.08,1.62-4.63,2.43l-6.43,3.36c-2.76,1.45-5.28,3.26-8.38,3.94a6.07,6.07,0,0,1-2.68.1c-7-1.55-5.59-10.41-4.56-15.42a39,39,0,0,1,7.17-15.8c2.34-3.07,5.45-5.93,9.29-6.35,4.28-.46,8.37,2.33,10.71,5.94s3.25,7.93,4.13,12.14a58.58,58.58,0,0,1,1.43-14c1.5-5.87,5.39-12,10.84-14.72A13.34,13.34,0,0,1,368.25,145.53Zm-23.7,31.26c-.9-2.31-1.81-4.56-3.68-6.28a9.17,9.17,0,0,0-8.9-2.38,9.44,9.44,0,0,0-6.56,5.53c-.88,2.43-1.08,6.16,2.07,7,2.43.6,5.37.3,7.83.08,2.16-.19,4.32-.46,6.45-.85.76-.13,2.27-.16,2.87-.69a.94.94,0,0,0,.26-.44A3.51,3.51,0,0,0,344.55,176.79Zm17.28-20.56a13,13,0,0,0-4.49,1.42,14.44,14.44,0,0,0-5.66,5.6c-1.92,3.37-2.17,7.24-2.21,11,0,.81-.08,2.26.69,2.76a2.81,2.81,0,0,0,2.15,0c1.38-.42,2.75-.88,4.12-1.37A73.17,73.17,0,0,0,364,172.5a16.58,16.58,0,0,0,5.71-4.47,7.86,7.86,0,0,0,1.78-4.7,7.41,7.41,0,0,0-4.95-6.6l-.23-.08A10,10,0,0,0,361.83,156.23Z"/><path class="cls-2" d="M346.64,232.86l-.79-.05-.06.93.8,0Zm.22-3.83-.79,0-.19,3.26.8.05Z"/><path class="cls-2" d="M345.25,229l-.79-.09-.19,1.74a1,1,0,0,1-.29.62.67.67,0,0,1-.55.21c-.41-.05-.61-.38-.55-.92l.19-1.8-.79-.08-.21,1.93c-.09.84.18,1.43.92,1.51a1.2,1.2,0,0,0,1.23-.62l-.07.67.75.08Z"/><path class="cls-2" d="M339.69,231.59c.84.15,1.45-.19,1.57-.88a1,1,0,0,0-.28-.94.66.66,0,0,0,.66-.54.61.61,0,0,0-.4-.72.82.82,0,0,0,.7-.69c.11-.62-.34-1.1-1.25-1.26-1.08-.19-1.78.19-1.91.94s.37,1.25,1.25,1.4l.61.11c.25,0,.37.15.34.33a.28.28,0,0,1-.28.21,2.12,2.12,0,0,0-.6-.2,1.2,1.2,0,0,0-1.56.89,1,1,0,0,0,.14.75.91.91,0,0,1-.68.11l-.11.67a1.1,1.1,0,0,0,1.09-.45A1.84,1.84,0,0,0,339.69,231.59Zm.31-1.71a.6.6,0,0,1,.56.71.61.61,0,0,1-.77.49.62.62,0,0,1-.55-.72A.6.6,0,0,1,340,229.88Zm-.44-2.26c.07-.37.42-.5.95-.41s.8.33.73.69-.41.48-.92.39S339.5,228,339.56,227.62Z"/><path class="cls-2" d="M335.88,227.35l-.57-.16L334,228.93l-.18-2.17-.58-.16-2.14,2.77.77.23,1.33-1.91.17,2.34.52.15,1.34-1.92.14,2.35.84.25Z"/><path class="cls-2" d="M330.41,229.66l-.75-.27-.31.87.75.27Zm1.31-3.6-.75-.27-1.11,3.07.74.27Z"/><path class="cls-2" d="M328.34,229.53c.33-.81.5-1.05.83-.91l.14,0,.25-.61-.37-.15.5-1.23a1.62,1.62,0,0,0,.15-.94,1,1,0,0,0-.69-.74c-.67-.27-1.21.11-1.51.84l.58.23c.15-.37.38-.55.61-.45s.29.34.12.76l-.5,1.23-1.19-.48-.25.61,1.19.48-.43,1.07Z"/><path class="cls-2" d="M327.68,224.47l-.72-.35-.76,1.58a.92.92,0,0,1-.48.49.65.65,0,0,1-.59,0c-.37-.18-.44-.56-.21-1l.78-1.63-.72-.34-.84,1.75c-.36.76-.3,1.41.36,1.73a1.19,1.19,0,0,0,1.3-.12l-1,2.11.72.34Z"/><path class="cls-2" d="M322.4,223.6a1.57,1.57,0,0,0,.22-1.32,1.93,1.93,0,0,0-.9-1.06,1.84,1.84,0,0,0-1.29-.3,1.35,1.35,0,0,0-.94.66c-.9,1.49,1.51,2.35,1,3.21a.63.63,0,0,1-.93.12.72.72,0,0,1-.31-1l-.68-.41a1.31,1.31,0,0,0-.17,1.1,1.61,1.61,0,0,0,.78,1,1.85,1.85,0,0,0,1.19.29,1.25,1.25,0,0,0,.92-.63,1.13,1.13,0,0,0,.18-.65,2,2,0,0,0-.57-1.11c-.42-.51-.88-1-.6-1.42s.61-.4,1-.15a.87.87,0,0,1,.34,1.28Z"/><path class="cls-2" d="M317.89,222.28a1.89,1.89,0,0,0,1.42-2,1.61,1.61,0,0,0-1.89-1.34,1.72,1.72,0,0,0-1.07.74,1.77,1.77,0,0,0-.35,1.26,1.51,1.51,0,0,0,.67,1.07A1.45,1.45,0,0,0,317.89,222.28Zm-1.14-1.38a1.4,1.4,0,0,1,.27-.73,1.21,1.21,0,0,1,.6-.49.69.69,0,0,1,.64.08.71.71,0,0,1,.3.57,1.31,1.31,0,0,1-.26.74,1.27,1.27,0,0,1-.61.49.67.67,0,0,1-.64-.09A.7.7,0,0,1,316.75,220.9Z"/><path class="cls-2" d="M314.15,217.88c.37-.46.84-.62,1.2-.33s.33.63,0,1.06L314.17,220l.62.5L316,219c.53-.65.6-1.31,0-1.81a1.1,1.1,0,0,0-1.28-.14l.39-.47-.59-.48-2.06,2.53.62.51Z"/><path class="cls-2" d="M310,218.78l.59.53,3.36-3.73-.6-.53Z"/><path class="cls-2" d="M312.77,214.51l-.57-.55-.65.67.58.55Z"/><path class="cls-2" d="M306.22,211.5l1.33,1.49.52-.47-.8-.9.06-.06a1.08,1.08,0,0,1,1.61,0,1.16,1.16,0,0,1,.28,1,1.92,1.92,0,0,1-.68,1.1,2,2,0,0,1-1.18.56,1.1,1.1,0,0,1-1-.37.91.91,0,0,1-.25-.73,1.09,1.09,0,0,1,.32-.64l-.55-.62a1.79,1.79,0,0,0-.6,1.2,1.74,1.74,0,0,0,.49,1.3,1.94,1.94,0,0,0,1.59.7,2.86,2.86,0,0,0,1.8-.79,2.49,2.49,0,0,0,.92-1.64,2,2,0,0,0-.5-1.53,1.52,1.52,0,0,0-1.49-.56l.49-.43-.38-.44Z"/><path class="cls-2" d="M304.72,211.44l-.49-.63-.73.58.5.62Zm3-2.38-.5-.63-2.56,2,.5.63Z"/><path class="cls-2" d="M306.16,207l-2.11,1.55-.65-.9-.54.39.66.9-.46.33q-.46.33-.66.06c-.13-.18,0-.38.26-.6l-.37-.51c-.62.45-.81,1-.41,1.57s1,.61,1.69.1l.42-.31.23.32.54-.39-.24-.32,2.11-1.54Z"/><path class="cls-2" d="M301.42,208c.73-.48,1-.58,1.2-.29l.08.13.55-.36-.22-.33,1.11-.74a1.65,1.65,0,0,0,.66-.68,1,1,0,0,0-.16-1c-.39-.59-1.05-.59-1.71-.16l.34.52c.34-.22.63-.23.77,0s0,.45-.33.7l-1.11.73-.71-1.07-.55.36.7,1.07-1,.64Z"/><path class="cls-2" d="M300.46,205.38l-.42-.69-.79.48.41.68Zm3.28-2-.41-.69-2.8,1.69.41.68Z"/><path class="cls-2" d="M302.91,202l-.37-.7-1.55.83a1,1,0,0,1-.67.11.65.65,0,0,1-.48-.34c-.2-.37,0-.72.44-1l1.6-.86-.38-.7-1.72.92c-.74.4-1.07,1-.73,1.61a1.23,1.23,0,0,0,1.21.67l-.58.31.35.67Z"/><path class="cls-2" d="M297.6,198.94c.34.77,1,1.09,1.61.79a1,1,0,0,0,.62-.75.67.67,0,0,0,.82.24.62.62,0,0,0,.36-.74.84.84,0,0,0,1,.19c.57-.26.72-.9.34-1.75s-1.17-1.36-1.86-1-.82,1-.45,1.82l.26.56c.1.24.07.39-.09.47a.26.26,0,0,1-.33-.11,2.07,2.07,0,0,0-.17-.61,1.2,1.2,0,0,0-1.62-.78,1,1,0,0,0-.54.53.9.9,0,0,1-.47-.49l-.62.28a1.12,1.12,0,0,0,1,.65A1.71,1.71,0,0,0,297.6,198.94Zm1.59-.71a.61.61,0,1,1-.83-.36A.61.61,0,0,1,299.19,198.23Zm1.61-1.64c.34-.15.66.07.88.56s.18.84-.16,1-.63-.07-.84-.54S300.49,196.74,300.8,196.59Z"/><path class="cls-2" d="M299,193.39l-.19-.56-2.16-.08,1.69-1.37-.19-.57-3.5-.21.25.77,2.33,0-1.85,1.46.17.52,2.35,0L296,194.83l.27.83Z"/><path class="cls-2" d="M294,190.17l-.2-.77-.9.23.2.77Zm3.71-1-.2-.77-3.16.81.19.78Z"/><path class="cls-2" d="M292.9,188.38c.86-.18,1.15-.18,1.22.17l0,.15.65-.14-.08-.39,1.3-.28a1.68,1.68,0,0,0,.86-.4,1,1,0,0,0,.22-1c-.15-.7-.77-.94-1.54-.77l.13.6c.39-.08.67,0,.72.25s-.11.44-.56.54l-1.3.27-.27-1.26-.64.14.27,1.26-1.14.24Z"/><path class="cls-2" d="M296.71,185l-.12-.79-1.73.27a1,1,0,0,1-.67-.13.66.66,0,0,1-.34-.48c-.07-.41.21-.69.74-.77l1.79-.27-.12-.79-1.92.3c-.84.12-1.34.54-1.23,1.26a1.18,1.18,0,0,0,.83,1l-2.31.35.12.79Z"/><path class="cls-2" d="M294.46,180.13a1.57,1.57,0,0,0,1.21-.56,2,2,0,0,0,.37-1.33,1.85,1.85,0,0,0-.48-1.25,1.34,1.34,0,0,0-1.08-.4c-1.73.09-1.09,2.57-2.1,2.62-.36,0-.6-.27-.63-.7a.72.72,0,0,1,.68-.83l0-.81a1.42,1.42,0,0,0-1,.49,1.64,1.64,0,0,0-.35,1.18,1.78,1.78,0,0,0,.44,1.15,1.25,1.25,0,0,0,1,.4,1.07,1.07,0,0,0,.64-.22,2,2,0,0,0,.6-1.09c.18-.63.29-1.26.84-1.29s.67.28.7.76a.88.88,0,0,1-.87,1Z"/><path class="cls-2" d="M293,175.67a1.74,1.74,0,0,0,1.23.47,1.7,1.7,0,0,0,1.23-.43,1.62,1.62,0,0,0,0-2.32,1.71,1.71,0,0,0-1.22-.46,1.75,1.75,0,0,0-1.24.42,1.47,1.47,0,0,0-.5,1.15A1.52,1.52,0,0,0,293,175.67Zm.5-1.72a1.28,1.28,0,0,1,.76-.19,1.24,1.24,0,0,1,.74.21.71.71,0,0,1,.29.58.68.68,0,0,1-.3.57,1.43,1.43,0,0,1-1.51,0,.71.71,0,0,1,0-1.14Z"/><path class="cls-2" d="M294.52,170.09c.59,0,1,.35,1,.81s-.33.63-.89.58l-1.83-.15-.06.79,1.94.17c.84.07,1.42-.25,1.49-1a1.1,1.1,0,0,0-.6-1.13l.61.05.06-.75-3.26-.27-.06.79Z"/><path class="cls-2" d="M291.43,167.18l-.11.79,5,.66.11-.79Z"/><path class="cls-2" d="M296.52,167.06l.13-.78-.92-.15-.13.78Z"/><path class="cls-2" d="M295.3,159.94l-.48,1.94.69.17.29-1.18.09,0a1.07,1.07,0,0,1,.87,1.35,1.13,1.13,0,0,1-.67.79,1.86,1.86,0,0,1-1.29.06,2,2,0,0,1-1.13-.65,1.11,1.11,0,0,1-.24-1,.91.91,0,0,1,.46-.62,1,1,0,0,1,.71-.09l.2-.81a1.81,1.81,0,0,0-1.33.18,1.73,1.73,0,0,0-.8,1.15,1.94,1.94,0,0,0,.33,1.7,2.8,2.8,0,0,0,1.66,1,2.48,2.48,0,0,0,1.87-.17,2,2,0,0,0,1-1.28,1.54,1.54,0,0,0-.38-1.54l.63.16.14-.56Z"/><path class="cls-2" d="M294.52,158.68l.23-.76-.88-.27-.24.76Zm3.66,1.14.23-.76-3.12-1-.23.76Z"/><path class="cls-2" d="M299,157.37l-2.46-.88.37-1-.62-.22-.37,1-.54-.19c-.35-.12-.5-.3-.42-.51s.29-.25.65-.12l.21-.59c-.72-.26-1.3-.1-1.53.54s.05,1.16.87,1.45l.49.17-.13.38.62.22.13-.38,2.46.88Z"/><path class="cls-2" d="M295.52,154c.81.33,1.05.51.91.83l-.06.14.62.25.15-.36,1.22.5a1.72,1.72,0,0,0,.94.16,1,1,0,0,0,.74-.7c.27-.66-.1-1.2-.83-1.5l-.23.57c.37.15.54.39.45.61s-.34.3-.76.12l-1.23-.5.49-1.19-.61-.25-.49,1.19-1.07-.44Z"/><path class="cls-2" d="M297.12,151.74l.34-.73-.84-.38-.34.72Zm3.49,1.6.33-.73-3-1.36-.33.72Z"/><path class="cls-2" d="M301.27,151.88l.37-.71-1.55-.81a1,1,0,0,1-.47-.5.68.68,0,0,1,0-.59c.19-.37.58-.43,1.05-.18l1.61.84.37-.7-1.73-.91c-.75-.39-1.39-.35-1.74.3a1.23,1.23,0,0,0,.13,1.38l-.59-.31-.35.67Z"/><path class="cls-2" d="M300.85,145.74a1.19,1.19,0,0,0,.25,1.78,1,1,0,0,0,1,.08.67.67,0,0,0,.26.81.61.61,0,0,0,.82-.11.82.82,0,0,0,.38.91c.54.32,1.15.09,1.64-.7s.47-1.74-.18-2.13-1.3-.11-1.76.65l-.33.53c-.13.22-.27.29-.42.19a.25.25,0,0,1-.1-.33,1.89,1.89,0,0,0,.4-.48,1.2,1.2,0,0,0-.26-1.78,1,1,0,0,0-.74-.15.93.93,0,0,1,.14-.67l-.58-.35a1.11,1.11,0,0,0,0,1.19A1.63,1.63,0,0,0,300.85,145.74Zm1.48.91a.61.61,0,1,1-.17-.88A.61.61,0,0,1,302.33,146.65Zm2.26.42c.32.19.32.57,0,1s-.59.62-.91.43-.29-.56,0-1S304.29,146.89,304.59,147.07Z"/><path class="cls-2" d="M306.19,143.73l.36-.46-1.15-1.84,2.08.63.37-.48-1.8-3-.49.64,1.29,1.93-2.25-.7-.33.43,1.3,2-2.24-.74-.53.7Z"/><path class="cls-2" d="M306,137.8l.52-.6-.69-.61-.53.6Zm2.88,2.53.53-.6L307,137.57l-.53.6Z"/><path class="cls-2" d="M306.93,135.92c.63.6.79.84.54,1.1l-.1.11.48.45.27-.28,1,.91a1.7,1.7,0,0,0,.82.49,1,1,0,0,0,.94-.38c.5-.52.35-1.16-.23-1.7l-.42.44c.29.28.37.56.2.74s-.43.15-.76-.16l-1-.92.89-.93-.48-.46-.89.94-.84-.8Z"/><path class="cls-2" d="M311.87,137.15l.58-.54-1.19-1.28a1,1,0,0,1-.28-.63.66.66,0,0,1,.2-.55c.31-.29.69-.21,1.06.18l1.23,1.32.59-.54-1.33-1.42c-.58-.62-1.2-.8-1.74-.3a1.19,1.19,0,0,0-.36,1.26l-1.6-1.71-.58.54Z"/><path class="cls-2" d="M314.6,132.55a1.56,1.56,0,0,0,1.15.68,1.92,1.92,0,0,0,1.31-.45,1.78,1.78,0,0,0,.75-1.1,1.31,1.31,0,0,0-.27-1.11c-1.06-1.38-2.74.55-3.35-.25a.64.64,0,0,1,.22-.92.74.74,0,0,1,1.08.09l.63-.49a1.38,1.38,0,0,0-1-.56,1.63,1.63,0,0,0-1.17.39,1.77,1.77,0,0,0-.7,1,1.25,1.25,0,0,0,.25,1.08,1.12,1.12,0,0,0,.54.41,1.92,1.92,0,0,0,1.24-.13c.63-.2,1.21-.47,1.54,0a.7.7,0,0,1-.23,1,.89.89,0,0,1-1.32-.15Z"/><path class="cls-2" d="M317.46,128.83a1.78,1.78,0,0,0,.3,1.28,1.76,1.76,0,0,0,1.05.77,1.5,1.5,0,0,0,1.24-.23,1.49,1.49,0,0,0,.7-1.05,1.69,1.69,0,0,0-.31-1.26,1.75,1.75,0,0,0-1-.79,1.55,1.55,0,0,0-1.24.24A1.49,1.49,0,0,0,317.46,128.83Zm1.7-.56a1.31,1.31,0,0,1,.59.52,1.35,1.35,0,0,1,.24.73.67.67,0,0,1-.32.56.62.62,0,0,1-.63.07,1.21,1.21,0,0,1-.59-.5,1.28,1.28,0,0,1-.24-.75.7.7,0,0,1,1-.63Z"/><path class="cls-2" d="M322.94,126.93c.29.52.26,1-.14,1.24s-.7.08-1-.4l-.9-1.6-.7.39,1,1.69c.42.74,1,1.05,1.69.66a1.09,1.09,0,0,0,.59-1.13l.3.53.66-.37-1.61-2.85-.69.4Z"/><path class="cls-2" d="M323.59,122.75l-.71.35,2.25,4.49.71-.36Z"/><path class="cls-2" d="M326.55,126.88l.73-.33-.4-.85-.72.34Z"/><path class="cls-2" d="M331.74,121.87l-1.87.69.25.67,1.14-.42,0,.08a1.08,1.08,0,0,1-.62,1.48,1.17,1.17,0,0,1-1-.1,2.35,2.35,0,0,1-.87-2.34,1.11,1.11,0,0,1,.7-.77.9.9,0,0,1,.77,0,1,1,0,0,1,.48.53l.78-.29a1.76,1.76,0,0,0-.9-1,1.68,1.68,0,0,0-1.39,0,1.92,1.92,0,0,0-1.23,1.22,2.78,2.78,0,0,0,.08,2,2.48,2.48,0,0,0,1.19,1.46,2,2,0,0,0,1.61.09,1.51,1.51,0,0,0,1.06-1.18l.23.61.54-.2Z"/><path class="cls-2" d="M332.36,120.5l.76-.23-.27-.88-.76.23Zm1.12,3.67.76-.24-1-3.12-.76.23Z"/><path class="cls-2" d="M336,123.46l-.67-2.52,1.08-.29-.17-.63-1.07.28-.15-.55c-.09-.37,0-.58.19-.64s.37.1.46.47l.61-.16c-.2-.74-.65-1.13-1.31-1s-.93.7-.71,1.53l.14.51-.39.1.17.64.38-.1.67,2.52Z"/><path class="cls-2" d="M336.79,118.7c.18.85.17,1.14-.17,1.22l-.15,0,.14.64.38-.08.28,1.3a1.68,1.68,0,0,0,.4.86,1,1,0,0,0,1,.22c.7-.14.94-.76.77-1.53l-.6.13c.08.39,0,.67-.25.72s-.44-.12-.53-.56l-.28-1.3,1.26-.27-.14-.64-1.25.26-.24-1.13Z"/><path class="cls-2" d="M339.57,118.75l.79-.14-.16-.91-.78.13Zm.64,3.78.79-.14-.55-3.22-.78.13Z"/><path class="cls-2" d="M341.77,122.26l.79-.09-.2-1.74a1,1,0,0,1,.14-.67.71.71,0,0,1,.49-.33c.42,0,.68.24.75.77L344,122l.79-.09-.23-1.93c-.1-.84-.49-1.36-1.22-1.27a1.21,1.21,0,0,0-1.07.88l-.08-.67-.75.09Z"/><path class="cls-2" d="M346.6,118.44c-.85,0-1.37.51-1.33,1.22a1,1,0,0,0,.48.85.67.67,0,0,0-.53.67.62.62,0,0,0,.56.61.84.84,0,0,0-.54.83c0,.63.58,1,1.5,1,1.1-.06,1.7-.59,1.66-1.35s-.64-1.13-1.53-1.09l-.62,0c-.26,0-.39-.06-.4-.24s.06-.22.22-.27a2.11,2.11,0,0,0,.63.06c.83,0,1.35-.52,1.32-1.22a1.07,1.07,0,0,0-.3-.7,1,1,0,0,1,.63-.25l0-.68a1.1,1.1,0,0,0-1,.69A1.85,1.85,0,0,0,346.6,118.44Zm1,3.85c0,.37-.3.58-.84.61s-.84-.14-.86-.52.29-.55.81-.57S347.59,121.94,347.61,122.29Zm-.93-2.11a.61.61,0,1,1-.06-1.21.62.62,0,0,1,.69.58A.6.6,0,0,1,346.68,120.18Z"/><path class="cls-2" d="M21.77,145.53c11.22,2.56,12.86,15.92,15.37,25.09.94,3.41,1.9,8.45-1.36,11-4,3-9.77,1.1-14.13.36-5.67-1-11.54-2-17.29-1A16.57,16.57,0,0,0,21,187.69c2.13-.44,4.16-1.31,6.28-1.8a8.94,8.94,0,0,1,6.37.5,6,6,0,0,1,3,5.3c-.14,4-4.12,6.23-7.61,6.8a20.38,20.38,0,0,1-11.75-1.9c-5.05-2.37-9.23-6.22-13.32-10A26.82,26.82,0,0,1,.42,207.69c-1.59,2.42-3.71,4.66-6.48,5.49s-6.24-.2-7.42-2.84.1-5.47,1.94-7.49,4.24-3.43,6.19-5.35A16.59,16.59,0,0,0-1.29,191c.39-1.17,1.84-7.12.38-7.4-1-.2-2.48.93-3.32,1.42-1.5.88-3.08,1.62-4.62,2.43l-6.43,3.36c-2.76,1.45-5.28,3.26-8.39,3.94a6,6,0,0,1-2.67.1c-7-1.55-5.59-10.41-4.57-15.42a39,39,0,0,1,7.17-15.8c2.35-3.07,5.46-5.93,9.3-6.35,4.27-.46,8.37,2.33,10.7,5.94S-.48,171.12.4,175.33a58.06,58.06,0,0,1,1.42-14c1.51-5.87,5.4-12,10.85-14.72A13.33,13.33,0,0,1,21.77,145.53ZM-1.94,176.79c-.9-2.31-1.8-4.56-3.68-6.28a9.17,9.17,0,0,0-8.9-2.38,9.42,9.42,0,0,0-6.55,5.53c-.89,2.43-1.08,6.16,2.07,7,2.43.6,5.36.3,7.83.08,2.16-.19,4.31-.46,6.44-.85.76-.13,2.27-.16,2.87-.69a.88.88,0,0,0,.27-.44A3.51,3.51,0,0,0-1.94,176.79Zm17.28-20.56a12.9,12.9,0,0,0-4.48,1.42,14.4,14.4,0,0,0-5.67,5.6c-1.92,3.37-2.17,7.24-2.2,11,0,.81-.09,2.26.69,2.76a2.78,2.78,0,0,0,2.14,0c1.39-.42,2.76-.88,4.12-1.37a73.33,73.33,0,0,0,7.54-3.18,16.45,16.45,0,0,0,5.7-4.47,7.8,7.8,0,0,0,1.78-4.7,7.39,7.39,0,0,0-4.95-6.6l-.22-.08A10,10,0,0,0,15.34,156.23Z"/><path class="cls-2" d="M10.42,119.46l-2-.18-.07.7,1.21.11v.09a1.08,1.08,0,0,1-1.2,1.07,1.16,1.16,0,0,1-.89-.55,1.93,1.93,0,0,1-.25-1.27,2.05,2.05,0,0,1,.48-1.22,1.13,1.13,0,0,1,1-.38.89.89,0,0,1,.67.37,1.08,1.08,0,0,1,.21.69l.82.08a1.79,1.79,0,0,0-.38-1.29,1.74,1.74,0,0,0-1.24-.63,2,2,0,0,0-1.64.57,2.83,2.83,0,0,0-.78,1.81,2.44,2.44,0,0,0,.44,1.82,2,2,0,0,0,1.41.79,1.52,1.52,0,0,0,1.47-.6l-.07.65.58,0Z"/><path class="cls-2" d="M11,122.29l.79.12.5-3.23-.79-.12Zm.59-3.79.78.13.15-.92-.79-.12Z"/><path class="cls-2" d="M13.52,122.73l.5-2.56,1.09.21.13-.65-1.09-.21.11-.56c.07-.37.22-.53.44-.49s.29.25.22.62l.61.12c.15-.75-.09-1.3-.76-1.43s-1.14.22-1.3,1.07l-.1.52-.39-.08-.13.65.39.08-.5,2.56Z"/><path class="cls-2" d="M16.35,118.81c-.21.84-.34,1.1-.69,1l-.14,0-.16.64.38.1-.32,1.29a1.71,1.71,0,0,0,0,1,1,1,0,0,0,.79.63c.7.17,1.18-.28,1.37-1l-.6-.15c-.1.39-.3.6-.54.54s-.34-.3-.23-.74l.32-1.29,1.25.31.15-.64-1.24-.31L17,119Z"/><path class="cls-2" d="M17.74,123.74l.76.22.92-3.14-.76-.22Zm1.07-3.68.77.22.26-.89-.77-.22Z"/><path class="cls-2" d="M19.28,124.18l.75.26.57-1.65a1,1,0,0,1,.43-.54.64.64,0,0,1,.58-.08c.39.14.51.51.33,1l-.59,1.71.75.26.64-1.84c.28-.8.14-1.44-.55-1.68a1.23,1.23,0,0,0-1.35.33l.22-.63-.71-.25Z"/><path class="cls-2" d="M25.29,122.85a1.2,1.2,0,0,0-1.73.51,1,1,0,0,0,.06,1,.66.66,0,0,0-.76.37.61.61,0,0,0,.23.79.84.84,0,0,0-.84.52c-.24.58.08,1.15.94,1.51s1.78.21,2.08-.49-.09-1.3-.91-1.64l-.57-.24c-.24-.11-.33-.24-.26-.4a.27.27,0,0,1,.32-.15,1.82,1.82,0,0,0,.54.33,1.2,1.2,0,0,0,1.72-.52,1,1,0,0,0,0-.76.9.9,0,0,1,.68,0l.27-.63a1.11,1.11,0,0,0-1.17.2A1.9,1.9,0,0,0,25.29,122.85Zm-.77,3.9c-.14.34-.52.4-1,.19s-.7-.5-.56-.84.51-.37,1-.17S24.66,126.43,24.52,126.75Zm.08-2.3a.61.61,0,1,1,.48-1.12.61.61,0,1,1-.48,1.12Z"/><path class="cls-2" d="M28.06,127.85l.51.29,1.65-1.41-.32,2.15.53.29L33.15,127l-.71-.39-1.72,1.56.36-2.32-.47-.27-1.74,1.57.4-2.32-.77-.43Z"/><path class="cls-2" d="M31.83,130.05l.66.43,1.78-2.75-.67-.43Zm2.07-3.23.67.44.51-.78-.67-.43Z"/><path class="cls-2" d="M35.9,127.43c-.5.71-.72.91-1,.71l-.12-.09-.38.54.32.23L34,129.9a1.61,1.61,0,0,0-.36.88,1,1,0,0,0,.51.88c.58.41,1.19.17,1.65-.48l-.51-.36c-.23.33-.5.45-.7.31s-.21-.4.06-.77l.76-1.09,1,.75.38-.54-1-.75.67-.94Z"/><path class="cls-2" d="M35.39,132.5,36,133l1.09-1.36a1,1,0,0,1,.58-.37.63.63,0,0,1,.57.12c.33.26.31.65,0,1.07l-1.13,1.41.62.5,1.21-1.52c.53-.66.62-1.3,0-1.76a1.19,1.19,0,0,0-1.29-.18l1.46-1.83-.62-.49Z"/><path class="cls-2" d="M40.36,134.54a1.55,1.55,0,0,0-.51,1.23,1.93,1.93,0,0,0,.64,1.23,1.83,1.83,0,0,0,1.19.59,1.36,1.36,0,0,0,1.07-.44c1.2-1.24-1-2.62-.25-3.34a.64.64,0,0,1,.94.08.72.72,0,0,1,.07,1.07l.58.56a1.33,1.33,0,0,0,.41-1,1.62,1.62,0,0,0-.55-1.1,1.81,1.81,0,0,0-1.1-.55,1.26,1.26,0,0,0-1,.41,1.19,1.19,0,0,0-.32.59,1.93,1.93,0,0,0,.31,1.21c.29.59.64,1.13.26,1.52a.68.68,0,0,1-1-.09.87.87,0,0,1,0-1.32Z"/><path class="cls-2" d="M44.45,136.82a1.72,1.72,0,0,0-1.22.48,1.69,1.69,0,0,0-.61,1.16,1.61,1.61,0,0,0,1.55,1.72,1.71,1.71,0,0,0,1.2-.48,1.8,1.8,0,0,0,.63-1.15,1.54,1.54,0,0,0-.42-1.19A1.47,1.47,0,0,0,44.45,136.82Zm.8,1.6a1.24,1.24,0,0,1-.43.65,1.28,1.28,0,0,1-.68.35.69.69,0,0,1-.61-.23.67.67,0,0,1-.16-.62,1.28,1.28,0,0,1,.41-.66,1.27,1.27,0,0,1,.71-.34.7.7,0,0,1,.76.85Z"/><path class="cls-2" d="M47.13,142c-.47.36-1,.41-1.25,0s-.18-.69.26-1l1.45-1.13-.49-.63-1.54,1.2c-.66.51-.88,1.14-.4,1.76a1.1,1.1,0,0,0,1.21.42l-.48.38.46.59,2.57-2-.49-.62Z"/><path class="cls-2" d="M51.37,142l-.46-.65-4.11,2.89.46.65Z"/><path class="cls-2" d="M47.71,145.54l.44.66.78-.51-.44-.66Z"/><path class="cls-2" d="M53.43,149.93l-1-1.75-.62.34.58,1.06-.07,0a1.08,1.08,0,0,1-1.56-.4,1.13,1.13,0,0,1,0-1,1.88,1.88,0,0,1,.91-.92,2,2,0,0,1,1.27-.3,1.13,1.13,0,0,1,.86.59.87.87,0,0,1,.08.76,1.05,1.05,0,0,1-.45.56l.4.72a1.83,1.83,0,0,0,.85-1,1.72,1.72,0,0,0-.19-1.38,2,2,0,0,0-1.39-1,2.86,2.86,0,0,0-1.93.37,2.49,2.49,0,0,0-1.26,1.4,1.94,1.94,0,0,0,.15,1.6,1.51,1.51,0,0,0,1.32.87l-.57.32.28.51Z"/><path class="cls-2" d="M51.42,152l.34.72,3-1.41-.34-.72Zm3.46-1.65.34.72.84-.4-.35-.72Z"/><path class="cls-2" d="M52.48,154.33l2.39-1,.44,1,.61-.26-.44-1,.52-.23c.35-.15.57-.11.66.09s0,.38-.4.53l.25.58c.71-.3,1-.81.76-1.43s-.83-.82-1.62-.48l-.48.21-.16-.37-.61.26.16.37-2.39,1Z"/><path class="cls-2" d="M57.32,154.47c-.82.3-1.11.34-1.23,0l-.05-.14-.62.23.13.37-1.24.46a1.72,1.72,0,0,0-.8.52,1,1,0,0,0-.07,1c.25.67.89.82,1.63.55l-.21-.59c-.38.14-.67.09-.75-.14s0-.45.48-.61l1.24-.46.45,1.21.62-.23-.45-1.21,1.09-.4Z"/><path class="cls-2" d="M54,158.39l.24.76,3.11-1-.25-.76Zm3.64-1.18.24.75.88-.28-.24-.76Z"/><path class="cls-2" d="M54.52,159.9l.21.77,1.69-.46a1,1,0,0,1,.69,0,.66.66,0,0,1,.39.43c.11.41-.13.71-.65.85L55.1,162l.21.77,1.88-.51c.81-.23,1.26-.69,1.07-1.4a1.2,1.2,0,0,0-1-.93l.65-.18-.2-.73Z"/><path class="cls-2" d="M59,164.11c-.17-.82-.7-1.27-1.4-1.14a1,1,0,0,0-.77.6.68.68,0,0,0-.74-.42.61.61,0,0,0-.52.64.82.82,0,0,0-.9-.4c-.62.12-.91.71-.73,1.62.22,1.08.83,1.59,1.58,1.44s1-.8.85-1.67l-.13-.61c0-.25,0-.4.19-.43a.26.26,0,0,1,.3.17,2,2,0,0,0,0,.64c.16.82.71,1.26,1.4,1.13a1,1,0,0,0,.64-.4.91.91,0,0,1,.35.59l.67-.14a1.11,1.11,0,0,0-.82-.85A2,2,0,0,0,59,164.11Zm-3.66,1.56c-.36.08-.62-.2-.73-.73s0-.86.39-.93.59.21.69.71S55.69,165.61,55.35,165.67Zm1.95-1.22A.61.61,0,1,1,58,165,.61.61,0,0,1,57.3,164.45Z"/><path class="cls-2" d="M56.44,169.22l.05.59,2.1.56-2,1,0,.59,3.37,1-.07-.8-2.26-.54,2.12-1-.05-.54-2.28-.56,2.14-1-.07-.88Z"/><path class="cls-2" d="M56.75,173.58l0,.8,3.27-.09,0-.8Zm3.83-.1,0,.8.93,0,0-.8Z"/><path class="cls-2" d="M61.21,175.47c-.87,0-1.16-.09-1.15-.45v-.15H59.4v.4l-1.32,0a1.67,1.67,0,0,0-.93.19,1,1,0,0,0-.44.92c0,.72.53,1.09,1.32,1.1v-.62c-.4,0-.65-.16-.64-.41s.21-.4.66-.39l1.33,0,0,1.29H60l0-1.28H61.2Z"/><path class="cls-2" d="M56.74,177.91l-.06.8,1.75.13a1,1,0,0,1,.62.27.67.67,0,0,1,.23.54c0,.42-.36.62-.9.58l-1.8-.13-.06.8,1.94.14c.84.06,1.42-.23,1.48-1a1.18,1.18,0,0,0-.59-1.17l2.33.17.06-.8Z"/><path class="cls-2" d="M57.86,183.17a1.53,1.53,0,0,0-1.31.27,1.94,1.94,0,0,0-.65,1.22,1.84,1.84,0,0,0,.18,1.32,1.35,1.35,0,0,0,1,.63c1.71.3,1.64-2.26,2.63-2.09.36.06.53.41.46.83a.73.73,0,0,1-.85.66l-.13.79a1.36,1.36,0,0,0,1.09-.25,1.62,1.62,0,0,0,.6-1.07,1.77,1.77,0,0,0-.17-1.22,1.27,1.27,0,0,0-.91-.62,1.18,1.18,0,0,0-.68.07,1.92,1.92,0,0,0-.82.93c-.33.58-.57,1.17-1.11,1.08s-.6-.43-.51-.91a.87.87,0,0,1,1.07-.78Z"/><path class="cls-2" d="M58.29,187.82a1.77,1.77,0,0,0-1.09-.73,1.74,1.74,0,0,0-1.3.14,1.63,1.63,0,0,0-.55,2.26,1.91,1.91,0,0,0,2.38.58,1.63,1.63,0,0,0,.56-2.25Zm-.87,1.57a1.36,1.36,0,0,1-.78,0A1.32,1.32,0,0,1,56,189a.69.69,0,0,1-.15-.63.66.66,0,0,1,.42-.48,1.28,1.28,0,0,1,.78,0,1.21,1.21,0,0,1,.68.39.64.64,0,0,1,.15.62A.69.69,0,0,1,57.42,189.39Z"/><path class="cls-2" d="M55.55,192.94c-.56-.19-.88-.57-.74-1s.46-.54,1-.37l1.76.57.24-.76-1.86-.6c-.8-.26-1.44-.08-1.68.66a1.08,1.08,0,0,0,.33,1.24l-.58-.19-.23.72,3.11,1,.24-.76Z"/><path class="cls-2" d="M57.91,196.47l.28-.75L53.49,194l-.28.75Z"/><path class="cls-2" d="M52.92,195.42l-.3.74.86.36.3-.74Z"/><path class="cls-2" d="M52.52,202.62l.9-1.78-.63-.32-.55,1.08-.08,0a1.08,1.08,0,0,1-.55-1.51,1.17,1.17,0,0,1,.83-.63,1.91,1.91,0,0,1,1.27.24,2,2,0,0,1,1,.89,1.12,1.12,0,0,1,0,1,.87.87,0,0,1-.59.49,1.07,1.07,0,0,1-.71-.06l-.38.74a1.84,1.84,0,0,0,1.34.12,1.78,1.78,0,0,0,1-.93,2,2,0,0,0,.07-1.74,2.82,2.82,0,0,0-1.39-1.38,2.49,2.49,0,0,0-1.86-.26,1.93,1.93,0,0,0-1.25,1,1.52,1.52,0,0,0,0,1.58l-.58-.3-.26.52Z"/><path class="cls-2" d="M49.68,202.1l-.4.69,2.82,1.65.4-.69ZM53,204l-.4.69.79.46.41-.68Z"/><path class="cls-2" d="M48.33,204.32l2.2,1.4-.59.94.55.35.6-.93.48.3q.48.31.3.6c-.12.19-.34.17-.67,0l-.33.53c.65.41,1.24.39,1.61-.19s.21-1.14-.52-1.6l-.44-.29.21-.33-.55-.35-.22.33-2.2-1.4Z"/><path class="cls-2" d="M51,208.38c-.71-.5-.9-.72-.7-1l.09-.12-.54-.38-.23.32-1.08-.77a1.69,1.69,0,0,0-.88-.36,1,1,0,0,0-.88.51c-.41.58-.17,1.19.47,1.65l.36-.5c-.33-.24-.45-.5-.3-.7s.39-.21.77,0l1.08.77-.75,1,.54.38.75-1.05.94.67Z"/><path class="cls-2" d="M45.85,207.87l-.48.63,2.58,2,.49-.63Zm3,2.35-.49.63.73.57.49-.64Z"/><path class="cls-2" d="M44.88,209.14l-.52.61,1.33,1.14a1,1,0,0,1,.35.59.67.67,0,0,1-.14.57c-.27.31-.66.29-1.07-.06l-1.37-1.18-.52.61,1.48,1.26c.64.55,1.28.66,1.76.1a1.21,1.21,0,0,0,.19-1.37l.5.43.49-.57Z"/><path class="cls-2" d="M43.93,215.22a1.19,1.19,0,0,0,.15-1.79,1,1,0,0,0-.93-.3.67.67,0,0,0-.07-.85.61.61,0,0,0-.82-.07.83.83,0,0,0-.18-1c-.45-.44-1.1-.35-1.75.32s-.84,1.58-.3,2.12,1.24.39,1.87-.25l.43-.45c.18-.18.33-.21.46-.09a.27.27,0,0,1,0,.35,2,2,0,0,0-.5.38,1.2,1.2,0,0,0-.15,1.79,1,1,0,0,0,.7.31.9.9,0,0,1-.29.62l.49.48a1.12,1.12,0,0,0,.24-1.17A1.69,1.69,0,0,0,43.93,215.22Zm-3.35-2.13c-.27-.26-.18-.63.19-1s.72-.47,1-.21.16.61-.2,1S40.83,213.33,40.58,213.09Zm2.11.91a.61.61,0,1,1,.87.85.61.61,0,1,1-.87-.85Z"/><path class="cls-2" d="M38.27,216l-.45.38.71,2-1.89-1.08-.46.38,1.09,3.34.61-.51-.83-2.17,2,1.18.42-.35L38.68,217l2,1.21.68-.56Z"/><path class="cls-2" d="M34.85,218.7l-.64.47,1.91,2.64.65-.46Zm2.25,3.1-.65.47L37,223l.64-.47Z"/><path class="cls-2" d="M35.81,223.45c-.48-.73-.58-1-.29-1.2l.13-.08-.37-.55-.33.21-.73-1.1a1.73,1.73,0,0,0-.69-.66,1,1,0,0,0-1,.16c-.59.4-.59,1.06-.15,1.72l.52-.35c-.23-.33-.24-.62,0-.76s.45-.05.7.33l.74,1.11-1.07.71.36.55,1.07-.71.65,1Z"/><path class="cls-2" d="M31.26,221.14l-.69.4.88,1.52a.93.93,0,0,1,.13.67.63.63,0,0,1-.32.49c-.36.21-.71.05-1-.41l-.91-1.57-.69.4,1,1.69c.43.73,1,1,1.63.67a1.19,1.19,0,0,0,.64-1.14l1.17,2,.69-.4Z"/><path class="cls-2" d="M27.57,225a1.54,1.54,0,0,0-1-.92,2.21,2.21,0,0,0-2.36,1,1.33,1.33,0,0,0,0,1.15c.72,1.58,2.79.08,3.21,1a.64.64,0,0,1-.42.85.74.74,0,0,1-1-.33l-.73.34a1.39,1.39,0,0,0,.82.76,1.63,1.63,0,0,0,1.23-.11,1.77,1.77,0,0,0,.91-.83,1.25,1.25,0,0,0,0-1.1,1.14,1.14,0,0,0-.44-.52,2,2,0,0,0-1.24-.16c-.65.06-1.28.19-1.51-.3s0-.74.46-.94a.87.87,0,0,1,1.25.44Z"/><path class="cls-2" d="M23.94,228a1.9,1.9,0,0,0-.86-2.3,1.63,1.63,0,0,0-2.17.81,1.8,1.8,0,0,0,0,1.31,1.84,1.84,0,0,0,.85,1,1.53,1.53,0,0,0,1.26,0A1.49,1.49,0,0,0,23.94,228Zm-1.78.17a1.31,1.31,0,0,1-.46-.64,1.36,1.36,0,0,1-.07-.76.67.67,0,0,1,.43-.48.66.66,0,0,1,.64.07,1.19,1.19,0,0,1,.46.63,1.26,1.26,0,0,1,.07.78.68.68,0,0,1-.43.47A.66.66,0,0,1,22.16,228.17Z"/><path class="cls-2" d="M18.19,228.62c-.16-.57,0-1.05.41-1.18s.71.08.87.62l.52,1.76.76-.23-.55-1.87c-.24-.8-.74-1.24-1.49-1a1.09,1.09,0,0,0-.84,1l-.17-.59-.73.21.93,3.14.77-.23Z"/><path class="cls-2" d="M16.6,232.55l.77-.18-1.18-4.88-.78.19Z"/><path class="cls-2" d="M14.65,227.85l-.78.16.19.92.78-.17Z"/><path class="cls-2" d="M8.47,231.57l2-.26-.09-.7-1.2.15v-.08a1.07,1.07,0,0,1,.93-1.31,1.17,1.17,0,0,1,1,.34,1.91,1.91,0,0,1,.52,1.18,2,2,0,0,1-.19,1.29,1.14,1.14,0,0,1-.86.59.86.86,0,0,1-.74-.21,1,1,0,0,1-.35-.62l-.83.1a1.78,1.78,0,0,0,.66,1.17,1.71,1.71,0,0,0,1.35.34,2,2,0,0,0,1.48-.92,2.91,2.91,0,0,0,.36-1.93,2.47,2.47,0,0,0-.84-1.68,2,2,0,0,0-1.55-.46,1.55,1.55,0,0,0-1.3.91l-.08-.64-.57.07Z"/><path class="cls-2" d="M7.29,228.94,6.5,229l.23,3.26.79-.06Zm.27,3.82-.79.05.06.93.79-.06Z"/><path class="cls-2" d="M4.71,229.07l.08,2.61-1.11,0,0,.66,1.11,0,0,.57c0,.38-.1.57-.32.58s-.34-.18-.36-.56l-.62,0c0,.77.38,1.25,1.06,1.23s1.06-.47,1-1.34v-.52l.39,0,0-.66-.39,0-.09-2.61Z"/><path class="cls-2" d="M2.83,233.53c0-.87.09-1.16.44-1.15h.15v-.66H3l0-1.33a1.65,1.65,0,0,0-.19-.92A1,1,0,0,0,2,229c-.72,0-1.09.53-1.1,1.32h.62c0-.4.16-.65.4-.65s.4.22.39.67l0,1.33-1.28,0,0,.66,1.29,0,0,1.16Z"/><path class="cls-2" d="M.16,232.86l-.8-.05,0,.93.8,0ZM.38,229l-.8,0-.18,3.26.79.05Z"/><path class="cls-2" d="M.11,118.44c-.84,0-1.36.51-1.33,1.22a1,1,0,0,0,.48.85.66.66,0,0,0-.52.67.61.61,0,0,0,.55.61.83.83,0,0,0-.53.83c0,.63.57,1,1.5,1,1.09-.06,1.69-.59,1.66-1.35s-.65-1.13-1.54-1.09l-.62,0c-.25,0-.39-.06-.4-.24a.27.27,0,0,1,.22-.27,2.18,2.18,0,0,0,.63.06c.84,0,1.36-.52,1.33-1.22a1,1,0,0,0-.31-.7,1,1,0,0,1,.64-.25l0-.68a1.1,1.1,0,0,0-1,.69A1.87,1.87,0,0,0,.11,118.44Zm1,3.85c0,.37-.3.58-.83.61s-.85-.14-.87-.52.3-.55.81-.57S1.1,121.94,1.12,122.29Zm-.93-2.11a.59.59,0,0,1-.69-.57A.6.6,0,0,1,.13,119a.62.62,0,0,1,.7.58A.6.6,0,0,1,.19,120.18Z"/><path class="cls-2" d="M336.9,105.38a1,1,0,0,0,.66-.33,1.12,1.12,0,0,0,.33-.83,1.45,1.45,0,0,0-.15-.68,1.31,1.31,0,0,0-.55-.65v0c-1.16-.91-2-3.55-2.44-7.9-.2-2.22-.29-4.48-.29-6.78l0-1.5V84.75h5.46a1.21,1.21,0,0,0,.7-.44,1.19,1.19,0,0,0,.27-.77,1.2,1.2,0,0,0-.27-.79,1.23,1.23,0,0,0-.7-.42h-5.48l0-2c0-.67,0-1.49.07-2.47A9.36,9.36,0,0,1,335.1,75a2.31,2.31,0,0,1,1.84-1.65l.29,0a1.05,1.05,0,0,1,.73.24.82.82,0,0,1,.26.65,1.88,1.88,0,0,1-.27.78,8,8,0,0,0-.52,1.17,5,5,0,0,0-.29,1.41,3.51,3.51,0,0,0,.89,2.26,3,3,0,0,0,2.47,1.1h.14A3.2,3.2,0,0,0,343,79.6a4,4,0,0,0,.77-2.49v-.26a5.88,5.88,0,0,0-2-4.3,7.41,7.41,0,0,0-4.73-1.69l-.82,0a12.18,12.18,0,0,0-4.91.94,5.9,5.9,0,0,0-3.09,3.39,10.61,10.61,0,0,0-.6,3.79l0,.77a8,8,0,0,1,.1,1c.08.81.12,1.32.12,1.55l-3.09,0a1.32,1.32,0,0,0-.72.42,1.2,1.2,0,0,0-.27.79,1.19,1.19,0,0,0,.27.77,1.29,1.29,0,0,0,.72.44H328c0,.69.05,1.66.05,2.89,0,.42,0,1.22,0,2.38s-.11,2.79-.31,4.85l0,.6c-.41,4.08-1.12,6.48-2.13,7.23a2,2,0,0,0-.87,1.57,1.1,1.1,0,0,0,.41.84.92.92,0,0,0,.65.27Z"/><path class="cls-2" d="M303.73,62.93a11,11,0,0,0,3.49-.55,25.14,25.14,0,0,0,4.12-1.91,3.58,3.58,0,0,0,2.61,2.2,7.39,7.39,0,0,0,1.33.12,15.09,15.09,0,0,0,5.29-1.33,1.47,1.47,0,0,0,1-1.4,1.76,1.76,0,0,0-.2-.75.86.86,0,0,0-.84-.41,1.94,1.94,0,0,1-1.4-.47,2.94,2.94,0,0,1-.65-1.7c-.11-1.36-.17-2.74-.17-4.16q0-1.43.06-2.85t.06-2.49a8.64,8.64,0,0,0-2.75-6.45q-2.85-2.73-8-2.73-7.44,0-9.32,5.17a3.84,3.84,0,0,0-.19,1.19,4.11,4.11,0,0,0,.56,1.9A3,3,0,0,0,301,47.69a4.46,4.46,0,0,0,.63.05,4.79,4.79,0,0,0,2.55-.8,3,3,0,0,0,1.41-2.41,6.78,6.78,0,0,0-.1-1.2,7.12,7.12,0,0,1-.09-1.07c0-.13,0-.34,0-.62a1.25,1.25,0,0,1,.59-.83,3,3,0,0,1,1.65-.34H308a3.12,3.12,0,0,1,2.33,1,4,4,0,0,1,.81,2.2c0,.54.07,1.12.07,1.71l0,1.09a35.08,35.08,0,0,1-3.72,1.3,40.36,40.36,0,0,0-4.82,1.74,10.89,10.89,0,0,0-3.92,2.85,6.82,6.82,0,0,0-1.43,4.5v.36a6.3,6.3,0,0,0,1.6,3.79,5.45,5.45,0,0,0,3.4,1.86C302.78,62.91,303.27,62.93,303.73,62.93Zm5-4.13a2.39,2.39,0,0,1-1.71-.75,4.41,4.41,0,0,1-.87-3,5,5,0,0,1,1.41-3.38,14.31,14.31,0,0,1,3.61-2.83l0,4.21,0,1.42a12.65,12.65,0,0,1-.29,2.74,1.92,1.92,0,0,1-1.72,1.54Z"/><path class="cls-2" d="M326.39,62.38l5.19.07a3,3,0,0,0,2.51-.75,2.17,2.17,0,0,0,.1-2.22,14.62,14.62,0,0,0-1.29-1.95,9,9,0,0,1-.48-8.43c1.08-2.5,3.14-4.2,5-6,2.42-2.35,5.89-5.12,9.47-4.08,1.37.4,2.57,1.52,3.95,1.78a5.12,5.12,0,0,0,3.8-.45,4.42,4.42,0,0,0,1.71-4.82,5.39,5.39,0,0,0-2.31-3.3,8.93,8.93,0,0,0-5.25-1.3,12.22,12.22,0,0,0-6.23,2.36c-3.52,2.44-6.17,5.92-8.84,9.21-.47.59-1.06,1.06-1.49,1.69-.19-1.53,1.8-3.26.79-4.86-.68-1.08-2.41-1.17-3.54-1l-4.51.57A3.14,3.14,0,0,0,322.49,40c-.55,1,0,2.15.53,3.15a17.19,17.19,0,0,1,1.73,6.9,17.94,17.94,0,0,1-1.63,8.29c-.42.92-1.36,2.17-.65,3.19a1.34,1.34,0,0,0,.38.37C323.76,62.53,325.42,62.37,326.39,62.38Z"/><path class="cls-2" d="M346.3,62.89a9.84,9.84,0,0,0,4.88-1.27,10.46,10.46,0,0,0,3.15-2.91,1.27,1.27,0,0,0,.28-.75s0-.11,0-.26a.81.81,0,0,0-.31-.48,1,1,0,0,0-.66-.26h-.25a.91.91,0,0,0-.51.35A8.41,8.41,0,0,1,350,59.59a5.22,5.22,0,0,1-2.23.53,4,4,0,0,1-.91-.1,4.43,4.43,0,0,1-2.45-1.59A7.29,7.29,0,0,1,343,55.77l.74-.26c1.11-.35,2.37-.82,3.76-1.4A16.85,16.85,0,0,0,351.37,52a6.26,6.26,0,0,0,2.3-3.11,3.75,3.75,0,0,0,.12-.92,3.92,3.92,0,0,0-.82-2.24,6.69,6.69,0,0,0-2.81-2.06,11.16,11.16,0,0,0-4.57-.88,11.65,11.65,0,0,0-7,2.22,9.26,9.26,0,0,0-3.33,5,10.24,10.24,0,0,0-.34,2.62,13.09,13.09,0,0,0,.77,4,9.06,9.06,0,0,0,3.5,4.29A11.83,11.83,0,0,0,346.3,62.89Zm-2.63-10.21a5.84,5.84,0,0,1-1.06.79c0-.51-.13-1-.18-1.51-.21-2.23.17-4.93,2.11-6.34a2.1,2.1,0,0,1,1.59-.5,1.81,1.81,0,0,1,1.31.86,2.38,2.38,0,0,1,.31,1.19,2.79,2.79,0,0,1-.18.95,10.21,10.21,0,0,1-2.45,3.29C344.65,51.84,344.17,52.27,343.67,52.68Z"/><path class="cls-2" d="M301.83,105.24a7.91,7.91,0,0,1,1.66-.32l.71,0a11.74,11.74,0,0,1,2.68.41,3.13,3.13,0,0,0,.82.12,1.93,1.93,0,0,0,1.24-.41,2.19,2.19,0,0,0,.7-1.84v-.33c-.08-1-.12-2-.12-3.17l0-1.67a33.31,33.31,0,0,0-.22-3.89,8.07,8.07,0,0,0-1.42-4.07A4.71,4.71,0,0,0,304,88.38l-2.56,0h-4.52a1.16,1.16,0,0,0-.82.34,1.31,1.31,0,0,0-.36,1l0,5.22q0,.48.36.48a.71.71,0,0,0,.66-.46,6.15,6.15,0,0,1,1.58-2,3.47,3.47,0,0,1,2.28-1h0a1.69,1.69,0,0,1,1.28,1.62,15.81,15.81,0,0,1,.19,2.1,12,12,0,0,1-.31,2.7c-.42,1.84-1.22,2.76-2.39,2.76a5.8,5.8,0,0,1-2.22-.58,13,13,0,0,1-5.05-4.17,19,19,0,0,1-3.07-6,20.7,20.7,0,0,1-.94-5.9,11.67,11.67,0,0,1,2.22-7.27,8.81,8.81,0,0,1,5.58-3.19c1.92,0,3.23.52,3.94,1.5A5.53,5.53,0,0,1,300.94,79a11.43,11.43,0,0,1-.48,3.48,2.16,2.16,0,0,0-.1.63q0,1.39,2.34,2a5.1,5.1,0,0,0,1.11.12,6.55,6.55,0,0,0,2.4-.49,5.15,5.15,0,0,0,2.71-2.06,5,5,0,0,0,.81-2.55,7.12,7.12,0,0,0-.43-2.32,9.09,9.09,0,0,0-5.49-5.39,19.16,19.16,0,0,0-6.47-1.13h-.82a17.54,17.54,0,0,0-8.6,2.12,16.35,16.35,0,0,0-6.26,6A16.64,16.64,0,0,0,279.39,88v.31A19.06,19.06,0,0,0,281.65,97a16.25,16.25,0,0,0,6.27,6.29,17.9,17.9,0,0,0,9.2,2.54A19,19,0,0,0,301.83,105.24Z"/><path class="cls-2" d="M322.46,105.39a1,1,0,0,0,.67-.33,1.16,1.16,0,0,0,.32-.83,1.45,1.45,0,0,0-.14-.68,1.24,1.24,0,0,0-.56-.65v0q-1.71-1.32-2.39-7.49a23.23,23.23,0,0,1-.19-3.18q0-1,.12-3.24A27.55,27.55,0,0,1,321.5,83a4.66,4.66,0,0,0,.19-1.16q0-.7-.48-.72l-.29,0q-.32,0-9.81,1.47a.61.61,0,0,0-.27.13,1.36,1.36,0,0,0-.38.38,1.31,1.31,0,0,0-.2.77,1.21,1.21,0,0,0,.24.74,1.28,1.28,0,0,0,.63.45c.86.18,1.5,1.07,1.94,2.68a15.06,15.06,0,0,1,.41,3.91c0,1.12-.07,2.39-.2,3.82q-.6,6.17-2.15,7.22a4.06,4.06,0,0,0-.6.7,1.37,1.37,0,0,0-.27.83,1.11,1.11,0,0,0,.41.89,1,1,0,0,0,.68.27Zm-7-24.38a5.83,5.83,0,0,0,2.34-.53,5.31,5.31,0,0,0,2.64-2.56,4.1,4.1,0,0,0,.41-1.74,3.76,3.76,0,0,0-2.9-3.67,4.66,4.66,0,0,0-1.33-.2,5.83,5.83,0,0,0-2.34.53,5.33,5.33,0,0,0-2.64,2.57,4.09,4.09,0,0,0-.41,1.73,3.84,3.84,0,0,0,.34,1.58,4,4,0,0,0,2.54,2.1A4.64,4.64,0,0,0,315.41,81Z"/><path class="cls-2" d="M355.28,105.43a10.94,10.94,0,0,0,3.62-.62,7.29,7.29,0,0,0,3.07-2,1.24,1.24,0,0,0,.29-.82,1.61,1.61,0,0,0-.27-.9,1.23,1.23,0,0,0-1.11-.6,1.53,1.53,0,0,0-.84.28,4.78,4.78,0,0,0-.85.68,3.66,3.66,0,0,1-1.5,1,3.73,3.73,0,0,1-.72.07,2.56,2.56,0,0,1-2.2-1.35q-1.47-2.3-1.47-8.31l0-2.22q.07-2.61.66-7.35a29.29,29.29,0,0,0,8.33-1.46,32.08,32.08,0,0,0,8.79-4.19,14.83,14.83,0,0,0,5.61-6.55,7.53,7.53,0,0,0,.46-2.34q0-3.72-2.08-5.1a3.82,3.82,0,0,0-2.22-.63,4.46,4.46,0,0,0-3.34,1.45,4.21,4.21,0,0,0-1.2,2.37q-.86,6.84-4.79,10.53a12.48,12.48,0,0,1-8.79,3.51h-.53c.11-1.15.23-2.23.36-3.27s.22-2,.27-2.77a.75.75,0,0,0-.29-.51,1.52,1.52,0,0,0-1-.31,1.78,1.78,0,0,0-1.19.43,22.16,22.16,0,0,0-2.63,2.71,21.1,21.1,0,0,1-2,2.16A7.83,7.83,0,0,1,345,80.84a16.3,16.3,0,0,1-2.59.32,1.39,1.39,0,0,0-.41.12,1.09,1.09,0,0,0-.65,1.06,1.2,1.2,0,0,0,.24.77,1,1,0,0,0,.46.35,1.13,1.13,0,0,0,.34.09,7.51,7.51,0,0,1,2.1.3A2.41,2.41,0,0,1,346,85.21a9.14,9.14,0,0,1,.61,3.22c0,1.38,0,2.63-.11,3.73s-.11,2.23-.11,3.39a11.64,11.64,0,0,0,.27,2.59,10.72,10.72,0,0,0,2.67,5A8.17,8.17,0,0,0,355.28,105.43Zm20.58-.14a.92.92,0,0,0,.66-.33,1.1,1.1,0,0,0,.33-.83,1.62,1.62,0,0,0-.14-.68,1.88,1.88,0,0,0-.33-.46,1.16,1.16,0,0,0-.22-.18,0,0,0,0,1,0,0,5.46,5.46,0,0,1-1.47-2.68,28.39,28.39,0,0,1-.9-4.81,23.37,23.37,0,0,1-.2-3.19c0-.69,0-1.77.13-3.24a28.17,28.17,0,0,1,1.2-5.92,4.75,4.75,0,0,0,.2-1.16,1.72,1.72,0,0,0-.09-.46c-.05-.19-.28-.28-.69-.28-.21,0-3.48.49-9.83,1.47l-.24.1a1.31,1.31,0,0,0,.29,2.36c.85.18,1.5,1.07,1.93,2.68a15.81,15.81,0,0,1,.39,3.94c0,1.11-.06,2.38-.17,3.79-.44,4.08-1.15,6.49-2.15,7.23a3.13,3.13,0,0,0-.6.7,1.32,1.32,0,0,0-.27.82,1.1,1.1,0,0,0,.41.89,1,1,0,0,0,.68.27Z"/><path class="cls-2" d="M295.82,57.11c-3.14,6.26-11.27,5.3-17.05,5.46-2.15.06-5.27-.1-6.28-2.39-1.23-2.77.76-5.93,1.83-8.4,1.39-3.21,2.84-6.53,3.09-10.07A10.07,10.07,0,0,0,271,50.57c0,1.32.17,2.64.15,4A5.44,5.44,0,0,1,270,58.23a3.65,3.65,0,0,1-3.57,1c-2.34-.66-3.08-3.33-2.92-5.48a12.35,12.35,0,0,1,2.83-6.67c2.13-2.64,5-4.55,7.83-6.42a16.36,16.36,0,0,1-12-5.14,7.63,7.63,0,0,1-2.3-4.63,3.8,3.8,0,0,1,2.75-4c1.63-.3,3.21.85,4.14,2.23s1.42,3,2.27,4.43a10,10,0,0,0,3.27,3.34c.63.4,3.94,2.12,4.32,1.3.27-.59-.19-1.6-.36-2.17-.3-1-.52-2-.77-3.08l-1.06-4.29c-.45-1.84-1.16-3.59-1.11-5.52a3.78,3.78,0,0,1,.32-1.6c1.93-3.89,7-1.8,9.78-.46a23.65,23.65,0,0,1,8.3,6.52c1.47,1.82,2.71,4.08,2.41,6.4-.35,2.6-2.59,4.61-5.06,5.47a21.34,21.34,0,0,1-7.77.69A35.63,35.63,0,0,1,289.36,43c3.25,1.74,6.31,4.93,7.13,8.54A8.13,8.13,0,0,1,295.82,57.11ZM280.77,38.59A9.56,9.56,0,0,0,285,37.32a5.58,5.58,0,0,0,2.7-4.91,5.73,5.73,0,0,0-2.32-4.67c-1.31-.88-3.49-1.53-4.41.22a15.42,15.42,0,0,0-1.18,4.61c-.2,1.3-.35,2.61-.43,3.93a4.16,4.16,0,0,0,0,1.79.47.47,0,0,0,.22.22A2.16,2.16,0,0,0,280.77,38.59Zm9.65,13.18a7.61,7.61,0,0,0-.19-2.85,8.77,8.77,0,0,0-2.49-4.16,13.5,13.5,0,0,0-6.2-2.9c-.47-.12-1.32-.37-1.73,0a1.68,1.68,0,0,0-.31,1.27c.05.88.12,1.75.21,2.63a45.21,45.21,0,0,0,.79,4.91,10,10,0,0,0,1.82,4,4.78,4.78,0,0,0,2.51,1.73,4.51,4.51,0,0,0,4.62-2,.83.83,0,0,0,.08-.12A6,6,0,0,0,290.42,51.77Z"/><path class="cls-2" d="M195.78,179.45a.92.92,0,0,0,.66-.33,1.1,1.1,0,0,0,.33-.83,1.62,1.62,0,0,0-.14-.68,1.32,1.32,0,0,0-.56-.65v0q-1.74-1.38-2.44-7.9-.28-3.34-.29-6.79l0-1.5v-1.93h5.46a1.24,1.24,0,0,0,1-1.21,1.2,1.2,0,0,0-.27-.79,1.26,1.26,0,0,0-.7-.42h-5.48l-.05-2c0-.66,0-1.48.07-2.47A9.66,9.66,0,0,1,194,149a2.33,2.33,0,0,1,1.85-1.65l.29,0a1,1,0,0,1,.72.24.85.85,0,0,1,.27.66,1.8,1.8,0,0,1-.28.77,9.27,9.27,0,0,0-.52,1.17,5.05,5.05,0,0,0-.29,1.41,3.52,3.52,0,0,0,.9,2.26,3,3,0,0,0,2.46,1.1h.14a3.19,3.19,0,0,0,2.4-1.28,4,4,0,0,0,.77-2.49v-.26a5.89,5.89,0,0,0-2-4.3,7.46,7.46,0,0,0-4.74-1.69l-.82,0a12,12,0,0,0-4.9.95,5.79,5.79,0,0,0-3.09,3.38,10.38,10.38,0,0,0-.61,3.79l0,.77a8.88,8.88,0,0,1,.09,1c.08.81.12,1.32.12,1.55l-3.09,0a1.32,1.32,0,0,0-.71.42,1.16,1.16,0,0,0-.28.79,1.14,1.14,0,0,0,.28.77,1.24,1.24,0,0,0,.71.44h3.21c0,.69.05,1.66.05,2.9,0,.42,0,1.21,0,2.38s-.11,2.78-.3,4.84l-.05.6q-.6,6.12-2.13,7.23a2,2,0,0,0-.87,1.57,1.08,1.08,0,0,0,.42.84.92.92,0,0,0,.65.27Z"/><path class="cls-2" d="M163.65,222.42a1,1,0,0,0,.67-.33,1.09,1.09,0,0,0,.32-.83,1.48,1.48,0,0,0-.14-.68,1.32,1.32,0,0,0-.56-.65v0q-1.74-1.38-2.44-7.9c-.19-2.22-.29-4.49-.29-6.79l0-1.5v-1.93h5.46a1.16,1.16,0,0,0,.7-.44,1.29,1.29,0,0,0,0-1.55,1.25,1.25,0,0,0-.7-.43h-5.49l0-2c0-.66,0-1.48.07-2.47a9.64,9.64,0,0,1,.61-2.91,2.36,2.36,0,0,1,1.85-1.65l.29,0a1.06,1.06,0,0,1,.73.25.84.84,0,0,1,.26.65,1.76,1.76,0,0,1-.28.77,11,11,0,0,0-.52,1.17,5.11,5.11,0,0,0-.28,1.42,3.5,3.5,0,0,0,.89,2.25,3,3,0,0,0,2.46,1.1h.15a3.17,3.17,0,0,0,2.39-1.28,4,4,0,0,0,.77-2.48v-.27a5.89,5.89,0,0,0-2-4.3,7.43,7.43,0,0,0-4.73-1.69l-.82,0a12,12,0,0,0-4.91.95A5.79,5.79,0,0,0,155,192.2a10.65,10.65,0,0,0-.6,3.79l0,.77c0,.13.06.48.1,1,.08.81.12,1.32.12,1.55l-3.1,0a1.31,1.31,0,0,0-.71.43,1.18,1.18,0,0,0-.28.78,1.2,1.2,0,0,0,.28.77,1.22,1.22,0,0,0,.71.44h3.22c0,.69.05,1.66.05,2.9,0,.42,0,1.21,0,2.38s-.1,2.78-.3,4.84l-.05.61q-.6,6.1-2.12,7.22a2,2,0,0,0-.87,1.57,1.07,1.07,0,0,0,.41.84.92.92,0,0,0,.65.27Z"/><path class="cls-2" d="M197,168.69c0,6.86,4.45,11.14,11.14,11.14s11.09-4.28,11.09-11.14-4.45-11.17-11.09-11.17S197,161.8,197,168.69Zm8.23,1.29c-3.08-5.9-3.08-8.8-1.54-9.63s4.15,1,7.35,7.14c2.95,5.73,3,8.68,1.5,9.51S208.35,176,205.19,170Z"/><path class="cls-2" d="M220.14,168.69c0,6.86,4.45,11.14,11.14,11.14s11.09-4.28,11.09-11.14-4.45-11.17-11.09-11.17S220.14,161.8,220.14,168.69Zm8.23,1.29c-3.08-5.9-3.08-8.8-1.54-9.63s4.16,1,7.35,7.14c2.95,5.73,3,8.68,1.5,9.51S231.53,176,228.37,170Z"/><path class="cls-2" d="M130.49,180a11,11,0,0,0,3.49-.56,24.69,24.69,0,0,0,4.12-1.91,3.58,3.58,0,0,0,2.61,2.2,7.39,7.39,0,0,0,1.33.12,15.14,15.14,0,0,0,5.29-1.33,1.46,1.46,0,0,0,1-1.4,1.71,1.71,0,0,0-.21-.75.83.83,0,0,0-.83-.41,1.9,1.9,0,0,1-1.4-.47,2.91,2.91,0,0,1-.65-1.7c-.12-1.35-.17-2.74-.17-4.16q0-1.43.06-2.85t.06-2.49a8.65,8.65,0,0,0-2.76-6.45c-1.9-1.82-4.55-2.73-8-2.73q-7.44,0-9.32,5.17a3.91,3.91,0,0,0-.2,1.19,4,4,0,0,0,.57,1.91,3.06,3.06,0,0,0,2.24,1.37,3.31,3.31,0,0,0,.62.05A4.73,4.73,0,0,0,131,164a3,3,0,0,0,1.42-2.42,8.09,8.09,0,0,0-.1-1.2,7.22,7.22,0,0,1-.1-1.07c0-.13,0-.34,0-.62a1.22,1.22,0,0,1,.59-.83,2.92,2.92,0,0,1,1.64-.34h.29a3.13,3.13,0,0,1,2.34,1,4.1,4.1,0,0,1,.8,2.2c.05.55.08,1.12.08,1.71l0,1.09a35,35,0,0,1-3.72,1.31,37.14,37.14,0,0,0-4.82,1.74,10.66,10.66,0,0,0-3.92,2.85,6.79,6.79,0,0,0-1.43,4.49v.36a6.22,6.22,0,0,0,1.6,3.79,5.42,5.42,0,0,0,3.4,1.87C129.54,180,130,180,130.49,180Zm5-4.13a2.43,2.43,0,0,1-1.72-.75,4.54,4.54,0,0,1-.87-3,5,5,0,0,1,1.42-3.39,14.51,14.51,0,0,1,3.61-2.82l0,4.2,0,1.43a12.12,12.12,0,0,1-.29,2.74,1.9,1.9,0,0,1-1.71,1.53Z"/><path class="cls-2" d="M153.14,179.43l5.2.06a3.05,3.05,0,0,0,2.51-.75,2.17,2.17,0,0,0,.1-2.22,15.66,15.66,0,0,0-1.29-2,9,9,0,0,1-.48-8.43c1.08-2.5,3.14-4.2,5-6,2.42-2.35,5.89-5.13,9.47-4.09,1.36.4,2.57,1.53,3.95,1.79a5.17,5.17,0,0,0,3.8-.46,4.4,4.4,0,0,0,1.7-4.82,5.36,5.36,0,0,0-2.3-3.29,9,9,0,0,0-5.25-1.31,12.19,12.19,0,0,0-6.23,2.36c-3.52,2.45-6.17,5.92-8.84,9.22-.48.58-1.06,1.05-1.49,1.68-.19-1.53,1.8-3.26.79-4.86-.68-1.08-2.42-1.17-3.54-1l-4.51.57a3.17,3.17,0,0,0-2.52,1.16c-.56,1,0,2.15.53,3.15a17.19,17.19,0,0,1,1.73,6.9,17.94,17.94,0,0,1-1.63,8.29c-.42.92-1.36,2.17-.65,3.19a1.52,1.52,0,0,0,.38.38C150.52,179.57,152.18,179.42,153.14,179.43Z"/><path class="cls-2" d="M173.06,179.93a10,10,0,0,0,4.88-1.26,11,11,0,0,0,3.15-2.91,1.4,1.4,0,0,0,.28-.76s0-.11,0-.26a.85.85,0,0,0-.31-.47.94.94,0,0,0-.67-.26h-.25c-.13,0-.3.12-.5.35a8.39,8.39,0,0,1-2.88,2.26,5.24,5.24,0,0,1-2.23.54,4.7,4.7,0,0,1-.91-.1,4.47,4.47,0,0,1-2.46-1.6,7.3,7.3,0,0,1-1.34-2.65l.74-.26c1.11-.36,2.37-.83,3.76-1.4a17.27,17.27,0,0,0,3.83-2.17,6.22,6.22,0,0,0,2.3-3.11,3.74,3.74,0,0,0,.12-.91,3.92,3.92,0,0,0-.82-2.25,6.68,6.68,0,0,0-2.81-2.05,11.16,11.16,0,0,0-4.57-.89,11.63,11.63,0,0,0-7,2.23,9.3,9.3,0,0,0-3.34,5,10.77,10.77,0,0,0-.33,2.63,12.74,12.74,0,0,0,.77,4,9.06,9.06,0,0,0,3.5,4.29A11.83,11.83,0,0,0,173.06,179.93Zm-2.63-10.21a5.31,5.31,0,0,1-1.06.79c0-.51-.13-1-.18-1.51-.21-2.23.16-4.92,2.11-6.34a2.15,2.15,0,0,1,1.59-.5,1.82,1.82,0,0,1,1.3.86,2.29,2.29,0,0,1,.32,1.19,2.8,2.8,0,0,1-.18,1,10.17,10.17,0,0,1-2.45,3.28C171.41,168.89,170.93,169.31,170.43,169.72Z"/><path class="cls-2" d="M253,179.86a10.42,10.42,0,0,0,3.51-.63,7.22,7.22,0,0,0,3-2,1.19,1.19,0,0,0,.29-.82,1.78,1.78,0,0,0-.24-.92,1.26,1.26,0,0,0-1.09-.6,1.56,1.56,0,0,0-.88.29,5,5,0,0,0-.86.7,3.61,3.61,0,0,1-1.49,1,4.85,4.85,0,0,1-.73.07,2.57,2.57,0,0,1-2.2-1.33q-1.47-2.27-1.47-8.31a60.54,60.54,0,0,1,.36-6.26c.15-1.54.27-2.65.37-3.31h4.73a1.24,1.24,0,0,0,1-1.23,1.14,1.14,0,0,0-.31-.83,1,1,0,0,0-.68-.35h-4.49c.09-1.15.21-2.23.33-3.26s.24-2.05.27-2.81a.84.84,0,0,0-.31-.52,1.29,1.29,0,0,0-.92-.3q-1.34,0-3.87,3.17a19.63,19.63,0,0,1-2.05,2.12,7,7,0,0,1-4.52,1.82,4.32,4.32,0,0,0-1.18.16,1.08,1.08,0,0,0-.65,1.09,1.13,1.13,0,0,0,.67,1.11,1,1,0,0,0,.34.1,7.88,7.88,0,0,1,2.1.29q2.1.63,2.15,4.56l0,.92q0,1.38-.12,2.85Q244,168.27,244,170a11.34,11.34,0,0,0,2.93,7.65c1.33,1.41,3.31,2.15,6,2.23Z"/><path class="cls-2" d="M128.59,222.28a7.76,7.76,0,0,1,1.66-.31l.71,0a11.74,11.74,0,0,1,2.68.41,3.07,3.07,0,0,0,.82.12,1.83,1.83,0,0,0,1.23-.41,2.14,2.14,0,0,0,.7-1.83v-.34c-.08-1-.12-2-.12-3.17l0-1.66a33.19,33.19,0,0,0-.22-3.89,8.13,8.13,0,0,0-1.42-4.07,4.76,4.76,0,0,0-3.94-1.68l-2.56,0h-4.52a1.18,1.18,0,0,0-.82.34,1.33,1.33,0,0,0-.36,1l0,5.21c0,.33.12.49.36.49a.7.7,0,0,0,.65-.46,6.22,6.22,0,0,1,1.59-2,3.47,3.47,0,0,1,2.28-.95h0a1.69,1.69,0,0,1,1.28,1.62,16.09,16.09,0,0,1,.19,2.1,12.12,12.12,0,0,1-.31,2.71c-.42,1.83-1.22,2.75-2.39,2.75a5.62,5.62,0,0,1-2.23-.58,12.92,12.92,0,0,1-5-4.17,19,19,0,0,1-3.06-6,20.67,20.67,0,0,1-1-5.89,11.64,11.64,0,0,1,2.23-7.28,8.75,8.75,0,0,1,5.58-3.18c1.91,0,3.23.51,3.93,1.49A5.59,5.59,0,0,1,127.7,196a11.12,11.12,0,0,1-.49,3.48,2.38,2.38,0,0,0-.09.62q0,1.41,2.34,2a5.1,5.1,0,0,0,1.11.12,6.65,6.65,0,0,0,2.39-.48,5.2,5.2,0,0,0,2.72-2.07,4.94,4.94,0,0,0,.81-2.55,7.12,7.12,0,0,0-.43-2.32,9.08,9.08,0,0,0-5.49-5.38,19,19,0,0,0-6.47-1.14h-.82a17.41,17.41,0,0,0-8.6,2.13,16.18,16.18,0,0,0-6.26,6,16.69,16.69,0,0,0-2.27,8.64v.31a19,19,0,0,0,2.26,8.64,16.19,16.19,0,0,0,6.27,6.29,17.9,17.9,0,0,0,9.2,2.54A18.64,18.64,0,0,0,128.59,222.28Z"/><path class="cls-2" d="M149.22,222.43a1,1,0,0,0,.67-.33,1.13,1.13,0,0,0,.32-.83,1.62,1.62,0,0,0-.14-.68,1.28,1.28,0,0,0-.56-.65v0q-1.71-1.33-2.39-7.49a23.49,23.49,0,0,1-.19-3.19q0-1,.12-3.24a28.17,28.17,0,0,1,1.2-5.92,4.75,4.75,0,0,0,.2-1.16c0-.46-.16-.71-.49-.72l-.29,0c-.2,0-3.47.5-9.8,1.48a.67.67,0,0,0-.27.12,1.43,1.43,0,0,0-.39.39,1.34,1.34,0,0,0-.19.77,1.22,1.22,0,0,0,.87,1.18c.85.18,1.5,1.07,1.93,2.68a14.67,14.67,0,0,1,.41,3.92c0,1.11-.06,2.38-.19,3.81q-.6,6.16-2.15,7.23a3.42,3.42,0,0,0-.6.7,1.32,1.32,0,0,0-.27.82,1.1,1.1,0,0,0,.41.89,1,1,0,0,0,.68.27Zm-7.05-24.38a5.73,5.73,0,0,0,2.34-.53,5.25,5.25,0,0,0,2.63-2.56,3.9,3.9,0,0,0,.08-3.31,4,4,0,0,0-2.56-2.1,4.65,4.65,0,0,0-1.33-.19,5.74,5.74,0,0,0-2.35.53,5.29,5.29,0,0,0-2.63,2.56,4.1,4.1,0,0,0-.41,1.74,3.83,3.83,0,0,0,.34,1.57,4,4,0,0,0,2.53,2.1A4.75,4.75,0,0,0,142.17,198.05Z"/><path class="cls-2" d="M182,222.48a11,11,0,0,0,3.62-.63,7.29,7.29,0,0,0,3.07-2A1.23,1.23,0,0,0,189,219a1.58,1.58,0,0,0-.27-.89,1.24,1.24,0,0,0-1.11-.61,1.56,1.56,0,0,0-.85.28,4.39,4.39,0,0,0-.84.69,3.73,3.73,0,0,1-1.5,1,3.8,3.8,0,0,1-.72.07,2.56,2.56,0,0,1-2.2-1.35c-1-1.53-1.48-4.3-1.48-8.31l0-2.22q.08-2.61.65-7.34a29,29,0,0,0,8.34-1.47,32.08,32.08,0,0,0,8.79-4.19,14.93,14.93,0,0,0,5.61-6.54,7.9,7.9,0,0,0,.46-2.35c0-2.48-.7-4.18-2.08-5.1a3.89,3.89,0,0,0-2.22-.62,4.42,4.42,0,0,0-3.34,1.45,4.24,4.24,0,0,0-1.21,2.36q-.84,6.84-4.78,10.54a12.52,12.52,0,0,1-8.79,3.5H181c.11-1.14.23-2.23.36-3.26s.22-2,.26-2.78a.72.72,0,0,0-.29-.51,1.49,1.49,0,0,0-1-.31,1.75,1.75,0,0,0-1.18.43,22.16,22.16,0,0,0-2.63,2.71,19.25,19.25,0,0,1-2.06,2.16,7.82,7.82,0,0,1-2.73,1.54,17.57,17.57,0,0,1-2.58.31,2.48,2.48,0,0,0-.41.12,1.08,1.08,0,0,0-.65,1.06,1.25,1.25,0,0,0,.24.78,1.13,1.13,0,0,0,.46.35,1.45,1.45,0,0,0,.33.08,7.63,7.63,0,0,1,2.11.3,2.42,2.42,0,0,1,1.54,1.37,9.5,9.5,0,0,1,.61,3.21c0,1.39,0,2.63-.11,3.73s-.11,2.24-.11,3.4a11.61,11.61,0,0,0,.27,2.58,10.79,10.79,0,0,0,2.66,5A8.24,8.24,0,0,0,182,222.48Zm20.58-.15a1,1,0,0,0,.66-.32,1.14,1.14,0,0,0,.33-.84,1.44,1.44,0,0,0-.15-.67,1.38,1.38,0,0,0-.32-.46,1.65,1.65,0,0,0-.22-.18s0,0,0,0a5.46,5.46,0,0,1-1.46-2.68,28.2,28.2,0,0,1-.9-4.81,23.27,23.27,0,0,1-.2-3.19c0-.69,0-1.77.12-3.23a28.18,28.18,0,0,1,1.21-5.92,4.72,4.72,0,0,0,.19-1.16,1.53,1.53,0,0,0-.08-.46c-.06-.19-.29-.29-.69-.29q-.31,0-9.83,1.47l-.24.1a1.24,1.24,0,0,0-.58,1.18,1.21,1.21,0,0,0,.24.74,1.19,1.19,0,0,0,.63.45c.85.17,1.5,1.07,1.93,2.68a15.75,15.75,0,0,1,.39,3.94c0,1.11-.06,2.37-.17,3.79-.44,4.07-1.15,6.48-2.15,7.22a3.39,3.39,0,0,0-.61.7,1.4,1.4,0,0,0-.26.82,1.1,1.1,0,0,0,.41.9,1.05,1.05,0,0,0,.68.26Z"/><path class="cls-2" d="M231.92,222.43a.9.9,0,0,0,.69-.35,1.08,1.08,0,0,0,.3-.71,1.75,1.75,0,0,0-.72-1.53q-1.47-1.11-1.47-5.14c0-1.11,0-2.3.14-3.58.06-.83.1-1.53.1-2.07a16.62,16.62,0,0,0-1.13-6.76,7.09,7.09,0,0,0-2.91-3.46,6.26,6.26,0,0,0-3.11-.82c-.26,0-.81,0-1.66.13a8.76,8.76,0,0,0-3.28,1.33,13.51,13.51,0,0,0-3.59,3.1l-.1.12a2.3,2.3,0,0,1-.22.27l.66-2.27A8.91,8.91,0,0,0,216,199a1.48,1.48,0,0,0-.1-.45c-.06-.2-.29-.3-.67-.3l-9.81,1.38a.69.69,0,0,0-.27.1,1.29,1.29,0,0,0-.38.39,1.38,1.38,0,0,0-.2.79,1.18,1.18,0,0,0,.24.73,1.14,1.14,0,0,0,.63.43,3.12,3.12,0,0,1,1.77,2.48,19.5,19.5,0,0,1,.5,4.35c0,1.55-.05,2.77-.14,3.67q-.6,6.16-2.13,7.23a3.42,3.42,0,0,0-.6.7,1.32,1.32,0,0,0-.27.82,1.1,1.1,0,0,0,.41.89,1,1,0,0,0,.68.27h11.09a.9.9,0,0,0,.66-.32,1.2,1.2,0,0,0,.35-.72,1.72,1.72,0,0,0-.48-1.26.88.88,0,0,0-.24-.19v0a5.63,5.63,0,0,1-1.52-2.81,23.19,23.19,0,0,1-1-6.64c0-.31,0-.58,0-.82a7.69,7.69,0,0,1,1.53-4,5,5,0,0,1,2.79-1.9,3.9,3.9,0,0,1,.66-.07,3.15,3.15,0,0,1,2.22,1.07Q223,206,223,209.82a26.9,26.9,0,0,1-.74,6.22c-.49,2.07-1.14,3.39-1.94,4,0,0-.07.06-.17.18a2.88,2.88,0,0,0-.29.48,1.32,1.32,0,0,0-.15.62,1.1,1.1,0,0,0,.32.81,1,1,0,0,0,.72.33Z"/><path class="cls-2" d="M232.46,206.89c0,5.41,3.85,9.07,11,9.07a14.16,14.16,0,0,0,1.51-.05c-5,3.17-12.72,3.41-12.72,9.94,0,5.26,4.93,8.24,11.55,8.24,7,0,11.65-3.37,11.65-8.68,0-4.29-3.07-8.09-8.19-6.67-2.82.73-4.19,2.48-4.14,4.82.05,3.8,3.9,5.07,6.39,2.68,1.6-1.51,3.94-1.75,3.94.34s-2.77,3.9-5.94,3.9c-3.71,0-6.68-2.29-6.68-6.63s3.07-5.55,8.68-9.06a8.2,8.2,0,0,0,4.92-7.9,8.35,8.35,0,0,0-6.43-8.48c.29-.87,1.07-1.46,2.72-.92,3.66,1.12,5.32-2.15,4.34-4.39s-3.9-1.75-5.65-.63a7.42,7.42,0,0,0-3,5.6,19.13,19.13,0,0,0-3-.24C236.31,197.83,232.46,201.44,232.46,206.89Zm8.63,1.22c-2.44-4.63-2.44-6.92-1.22-7.55s3.31.73,5.8,5.55c2.29,4.49,2.34,6.83,1.17,7.46S243.52,212.74,241.09,208.11Z"/><path class="cls-2" d="M122.57,174.16c-3.13,6.26-11.26,5.29-17,5.45-2.16.06-5.27-.09-6.29-2.39-1.22-2.77.76-5.93,1.83-8.39,1.4-3.22,2.85-6.54,3.1-10.08a10.07,10.07,0,0,0-6.39,8.86c0,1.32.17,2.65.15,4a5.48,5.48,0,0,1-1.21,3.69,3.65,3.65,0,0,1-3.57,1c-2.34-.66-3.08-3.33-2.92-5.47a12.38,12.38,0,0,1,2.83-6.68c2.12-2.64,5-4.55,7.83-6.42a16.32,16.32,0,0,1-12-5.14,7.63,7.63,0,0,1-2.3-4.62,3.79,3.79,0,0,1,2.74-4c1.64-.29,3.22.85,4.15,2.23s1.42,3,2.26,4.43A10.2,10.2,0,0,0,99.06,154c.63.4,3.94,2.11,4.32,1.29.26-.59-.2-1.6-.37-2.17-.3-1-.51-2.05-.76-3.08l-1.06-4.28a21.07,21.07,0,0,1-1.12-5.53,3.9,3.9,0,0,1,.33-1.59c1.92-3.9,7-1.8,9.78-.47a23.64,23.64,0,0,1,8.29,6.52c1.48,1.83,2.72,4.08,2.41,6.41-.34,2.59-2.59,4.61-5.06,5.46a21.28,21.28,0,0,1-7.76.69,35.66,35.66,0,0,1,8.06,2.87c3.24,1.74,6.31,4.92,7.13,8.53A8.11,8.11,0,0,1,122.57,174.16Zm-15-18.53a9.72,9.72,0,0,0,4.24-1.26,5.61,5.61,0,0,0,2.7-4.92,5.76,5.76,0,0,0-2.32-4.67c-1.31-.88-3.49-1.53-4.41.22a15.2,15.2,0,0,0-1.18,4.61c-.2,1.31-.35,2.62-.43,3.93a4.37,4.37,0,0,0,0,1.8.58.58,0,0,0,.22.22A2.11,2.11,0,0,0,107.53,155.63Zm9.65,13.19A7.86,7.86,0,0,0,117,166a8.82,8.82,0,0,0-2.49-4.16,13.53,13.53,0,0,0-6.2-2.89c-.48-.13-1.32-.38-1.73,0a1.7,1.7,0,0,0-.32,1.26c0,.88.13,1.75.22,2.63a42.9,42.9,0,0,0,.79,4.91,10,10,0,0,0,1.82,4,4.72,4.72,0,0,0,2.51,1.73,4.5,4.5,0,0,0,4.62-2l.08-.12A6.17,6.17,0,0,0,117.18,168.82Z"/><path class="cls-2" d="M195,28.49c11.22,2.56,12.86,15.91,15.37,25.08.94,3.42,1.91,8.46-1.36,11-4,3-9.77,1.1-14.12.35-5.68-1-11.55-2-17.3-1a16.59,16.59,0,0,0,16.64,6.74c2.14-.44,4.16-1.3,6.29-1.79a8.92,8.92,0,0,1,6.36.49,6,6,0,0,1,3,5.31c-.14,4-4.12,6.22-7.61,6.8a20.33,20.33,0,0,1-11.75-1.91c-5.05-2.36-9.23-6.21-13.32-10a26.86,26.86,0,0,1-3.53,21.11c-1.59,2.41-3.72,4.66-6.49,5.48s-6.23-.2-7.42-2.83.1-5.47,1.94-7.49,4.24-3.44,6.19-5.35A16.52,16.52,0,0,0,172,73.92c.4-1.16,1.85-7.12.38-7.39-1.05-.2-2.47.93-3.32,1.42-1.5.88-3.07,1.62-4.62,2.43L158,73.74c-2.76,1.45-5.28,3.26-8.39,3.94a6.17,6.17,0,0,1-2.67.1c-7-1.55-5.59-10.41-4.56-15.43a38.85,38.85,0,0,1,7.17-15.79c2.34-3.07,5.45-5.94,9.29-6.35,4.27-.47,8.37,2.33,10.71,5.94s3.25,7.93,4.13,12.14a58.2,58.2,0,0,1,1.42-14c1.51-5.86,5.4-12,10.85-14.71A13.33,13.33,0,0,1,195,28.49Zm-23.7,31.26c-.9-2.31-1.81-4.56-3.69-6.28a9.17,9.17,0,0,0-8.9-2.39,9.47,9.47,0,0,0-6.55,5.53c-.89,2.44-1.08,6.17,2.07,7,2.43.6,5.36.31,7.83.09,2.16-.19,4.31-.46,6.45-.85.76-.14,2.26-.16,2.86-.69a.88.88,0,0,0,.27-.44A3.51,3.51,0,0,0,171.31,59.75Zm17.28-20.56a12.88,12.88,0,0,0-4.49,1.42,14.48,14.48,0,0,0-5.66,5.59c-1.93,3.38-2.17,7.24-2.21,11,0,.82-.08,2.26.69,2.77a2.78,2.78,0,0,0,2.14,0c1.39-.43,2.76-.89,4.12-1.37a73.33,73.33,0,0,0,7.54-3.18,16.48,16.48,0,0,0,5.7-4.48,7.84,7.84,0,0,0,1.79-4.69,7.4,7.4,0,0,0-5-6.6L193,39.6A10.11,10.11,0,0,0,188.59,39.19Z"/><path class="cls-2" d="M183.67,2.42l-2-.19-.07.71,1.21.11v.09a1.07,1.07,0,0,1-1.2,1.06,1.14,1.14,0,0,1-.89-.54,1.94,1.94,0,0,1-.25-1.27A2.05,2.05,0,0,1,181,1.17a1.14,1.14,0,0,1,1-.38.9.9,0,0,1,.68.37,1.07,1.07,0,0,1,.2.69l.82.07a1.79,1.79,0,0,0-.37-1.28A1.71,1.71,0,0,0,182,0a2,2,0,0,0-1.64.57,2.8,2.8,0,0,0-.78,1.8A2.48,2.48,0,0,0,180,4.21a2,2,0,0,0,1.41.78,1.52,1.52,0,0,0,1.47-.6l-.06.65.57.06Z"/><path class="cls-2" d="M184.21,5.25l.79.12.5-3.23L184.71,2Zm.59-3.79.79.12.14-.91-.79-.12Z"/><path class="cls-2" d="M186.76,5.69l.5-2.57,1.09.22.13-.65-1.09-.21.11-.57c.07-.36.22-.53.44-.49s.29.26.22.63l.61.12c.15-.76-.09-1.3-.76-1.43s-1.14.22-1.3,1.07l-.1.51-.39-.07-.13.65.39.07L186,5.53Z"/><path class="cls-2" d="M189.59,1.76c-.21.85-.34,1.11-.68,1l-.15,0-.16.64.39.1-.32,1.28a1.63,1.63,0,0,0,0,1,1,1,0,0,0,.8.64c.69.17,1.17-.28,1.36-1.05l-.6-.15c-.09.39-.3.6-.54.54s-.34-.29-.23-.73l.32-1.29L191,4l.16-.65L189.92,3l.27-1.13Z"/><path class="cls-2" d="M191,6.7l.77.22.91-3.14-.76-.22ZM192.06,3l.76.22.26-.89-.77-.22Z"/><path class="cls-2" d="M192.52,7.14l.75.26.58-1.66a1,1,0,0,1,.42-.53.64.64,0,0,1,.58-.08c.4.13.51.51.34,1l-.6,1.71.76.26L196,6.28c.28-.8.15-1.44-.55-1.68a1.2,1.2,0,0,0-1.34.33l.22-.63-.72-.25Z"/><path class="cls-2" d="M198.53,5.8c-.78-.32-1.45-.14-1.73.52a1,1,0,0,0,.06,1,.65.65,0,0,0-.76.37.62.62,0,0,0,.23.79.83.83,0,0,0-.84.52c-.24.57.09,1.15.94,1.51,1,.43,1.78.21,2.08-.49s-.09-1.3-.91-1.65L197,8.11c-.24-.1-.32-.23-.26-.39a.26.26,0,0,1,.32-.15,2.05,2.05,0,0,0,.54.33,1.2,1.2,0,0,0,1.72-.52,1,1,0,0,0,0-.76,1,1,0,0,1,.69,0l.26-.63a1.11,1.11,0,0,0-1.17.2A1.8,1.8,0,0,0,198.53,5.8Zm-.76,3.9c-.15.35-.53.4-1,.19s-.7-.49-.56-.84.51-.37,1-.17S197.9,9.38,197.77,9.7Zm.07-2.29a.6.6,0,0,1-.37-.82.67.67,0,1,1,.37.82Z"/><path class="cls-2" d="M201.3,10.8l.52.29,1.64-1.41-.31,2.16.52.29,2.72-2.22-.7-.4L204,11.08l.37-2.33-.48-.26-1.74,1.56.4-2.31-.77-.43Z"/><path class="cls-2" d="M205.07,13l.67.43,1.77-2.74-.67-.43Zm2.08-3.22.67.43.5-.78L207.65,9Z"/><path class="cls-2" d="M209.14,10.39c-.5.71-.72.91-1,.7L208,11l-.38.54.32.22-.76,1.09a1.58,1.58,0,0,0-.36.88,1,1,0,0,0,.51.87c.58.41,1.2.17,1.65-.47l-.5-.36c-.24.33-.5.45-.7.31s-.21-.4.05-.77l.76-1.09,1.05.74.38-.54L209,11.69l.67-.94Z"/><path class="cls-2" d="M208.64,15.45l.62.5,1.09-1.37a1,1,0,0,1,.58-.36.63.63,0,0,1,.57.12c.33.26.31.65,0,1.07l-1.13,1.41.62.5,1.22-1.52c.52-.66.61-1.31,0-1.76a1.19,1.19,0,0,0-1.3-.18L212.39,12l-.62-.5Z"/><path class="cls-2" d="M213.6,17.5a1.58,1.58,0,0,0-.51,1.23,2,2,0,0,0,.64,1.23,1.9,1.9,0,0,0,1.2.59,1.36,1.36,0,0,0,1.06-.44c1.21-1.25-1-2.63-.24-3.35a.64.64,0,0,1,.94.09.73.73,0,0,1,.06,1.07l.58.56a1.36,1.36,0,0,0,.41-1,1.6,1.6,0,0,0-.55-1.1,1.71,1.71,0,0,0-1.1-.55,1.28,1.28,0,0,0-1,.4,1.22,1.22,0,0,0-.32.6,2,2,0,0,0,.31,1.21c.29.59.64,1.13.26,1.52s-.68.25-1-.09a.87.87,0,0,1,0-1.32Z"/><path class="cls-2" d="M217.69,19.77a1.79,1.79,0,0,0-1.22.49,1.73,1.73,0,0,0-.61,1.15,1.46,1.46,0,0,0,.41,1.19,1.45,1.45,0,0,0,1.14.54,1.7,1.7,0,0,0,1.21-.49,1.77,1.77,0,0,0,.62-1.15,1.64,1.64,0,0,0-1.55-1.73Zm.8,1.6a1.26,1.26,0,0,1-.42.66,1.28,1.28,0,0,1-.69.34.68.68,0,0,1-.61-.22.67.67,0,0,1-.16-.62,1.21,1.21,0,0,1,.42-.66,1.23,1.23,0,0,1,.7-.35.71.71,0,0,1,.6.23A.67.67,0,0,1,218.49,21.37Z"/><path class="cls-2" d="M220.37,24.91c-.47.37-1,.42-1.25.05s-.18-.68.26-1l1.45-1.13-.49-.62-1.54,1.19c-.66.52-.88,1.15-.4,1.77a1.1,1.1,0,0,0,1.21.42l-.48.37.46.6,2.58-2-.49-.63Z"/><path class="cls-2" d="M224.61,25l-.46-.65-4.1,2.88.45.66Z"/><path class="cls-2" d="M221,28.5l.44.66.78-.51-.44-.67Z"/><path class="cls-2" d="M226.67,32.89l-1-1.75-.62.34.58,1.06-.07,0a1.07,1.07,0,0,1-1.56-.39,1.15,1.15,0,0,1,0-1,2,2,0,0,1,.91-.92,2.1,2.1,0,0,1,1.28-.29,1.11,1.11,0,0,1,.85.59.87.87,0,0,1,.08.76,1,1,0,0,1-.45.55l.4.73a1.79,1.79,0,0,0,.85-1,1.69,1.69,0,0,0-.19-1.38,2,2,0,0,0-1.39-1,2.81,2.81,0,0,0-1.93.37,2.48,2.48,0,0,0-1.26,1.39,2,2,0,0,0,.15,1.61,1.51,1.51,0,0,0,1.32.87l-.57.32.28.5Z"/><path class="cls-2" d="M224.66,35l.34.72L228,34.26l-.34-.72Zm3.46-1.65.34.72.84-.4L229,32.9Z"/><path class="cls-2" d="M225.72,37.28l2.4-1,.43,1,.61-.26-.44-1,.53-.22c.34-.15.56-.12.65.09s0,.38-.39.53l.24.58c.71-.31,1-.81.76-1.44s-.83-.81-1.62-.47l-.48.2-.16-.36-.6.26.15.36-2.39,1Z"/><path class="cls-2" d="M230.56,37.43c-.81.3-1.11.33-1.23,0l-.05-.14-.62.23.14.37-1.25.46a1.79,1.79,0,0,0-.79.52,1,1,0,0,0-.08,1c.25.67.9.82,1.64.54l-.22-.58c-.38.14-.67.09-.75-.14s.05-.45.48-.61l1.24-.46.45,1.21.62-.23-.45-1.21,1.09-.4Z"/><path class="cls-2" d="M227.27,41.35l.24.76,3.11-1-.25-.76Zm3.64-1.19.25.76.88-.29-.25-.75Z"/><path class="cls-2" d="M227.77,42.86l.21.77,1.68-.46a1,1,0,0,1,.69,0,.65.65,0,0,1,.39.44c.11.4-.13.71-.65.85l-1.75.47.21.77,1.88-.51c.82-.22,1.27-.69,1.07-1.4a1.18,1.18,0,0,0-1-.92l.64-.18-.2-.73Z"/><path class="cls-2" d="M232.25,47.07c-.17-.83-.7-1.28-1.39-1.14a1,1,0,0,0-.78.6.67.67,0,0,0-.74-.42.61.61,0,0,0-.52.64.83.83,0,0,0-.9-.41c-.62.13-.91.72-.73,1.63.22,1.07.83,1.59,1.58,1.44s1-.8.85-1.68l-.12-.6c-.05-.26,0-.4.18-.44a.26.26,0,0,1,.3.18,2.26,2.26,0,0,0,0,.63c.16.82.71,1.27,1.4,1.13a1,1,0,0,0,.65-.4.93.93,0,0,1,.34.59l.67-.13a1.11,1.11,0,0,0-.82-.86A1.94,1.94,0,0,0,232.25,47.07Zm-3.65,1.56c-.37.07-.63-.21-.73-.73s0-.86.38-.94.59.21.69.72S228.94,48.56,228.6,48.63Zm1.94-1.23a.61.61,0,1,1,.72.54A.61.61,0,0,1,230.54,47.4Z"/><path class="cls-2" d="M229.68,52.17l0,.59,2.1.57-2,1,0,.6,3.37,1-.07-.8L231,54.53l2.12-1L233,53l-2.27-.55,2.14-1-.08-.87Z"/><path class="cls-2" d="M230,56.54l0,.79,3.27-.08,0-.8Zm3.83-.1,0,.79.93,0,0-.8Z"/><path class="cls-2" d="M234.45,58.42c-.87,0-1.16-.09-1.15-.44v-.15h-.66v.39l-1.33,0a1.78,1.78,0,0,0-.93.2,1,1,0,0,0-.44.92c0,.71.53,1.08,1.32,1.1v-.62c-.4,0-.65-.17-.64-.41s.21-.4.66-.39l1.33,0,0,1.29h.66l0-1.29,1.16,0Z"/><path class="cls-2" d="M230,60.87l-.06.8,1.75.12a1,1,0,0,1,.63.28.63.63,0,0,1,.22.54c0,.41-.36.62-.89.58l-1.81-.13-.06.79,1.94.15c.84.06,1.43-.23,1.48-1a1.2,1.2,0,0,0-.59-1.17l2.34.17.06-.79Z"/><path class="cls-2" d="M231.1,66.12a1.57,1.57,0,0,0-1.31.28,1.92,1.92,0,0,0-.65,1.22,1.89,1.89,0,0,0,.18,1.32,1.38,1.38,0,0,0,1,.63c1.71.29,1.63-2.26,2.62-2.09.36.06.53.4.46.82a.74.74,0,0,1-.85.67l-.13.79a1.35,1.35,0,0,0,1.09-.25,1.62,1.62,0,0,0,.6-1.08,1.74,1.74,0,0,0-.17-1.21,1.2,1.2,0,0,0-.91-.62,1.1,1.1,0,0,0-.68.07,1.93,1.93,0,0,0-.82.93c-.32.57-.57,1.17-1.11,1.07s-.59-.42-.51-.9A.87.87,0,0,1,231,67Z"/><path class="cls-2" d="M231.53,70.78a1.77,1.77,0,0,0-1.09-.73,1.74,1.74,0,0,0-1.3.14,1.62,1.62,0,0,0-.55,2.25A1.9,1.9,0,0,0,231,73a1.63,1.63,0,0,0,.56-2.25Zm-.87,1.56a1.28,1.28,0,0,1-.78,0,1.22,1.22,0,0,1-.67-.37.67.67,0,0,1-.16-.63.71.71,0,0,1,.42-.49,1.47,1.47,0,0,1,1.46.36.67.67,0,0,1,.15.63A.66.66,0,0,1,230.66,72.34Z"/><path class="cls-2" d="M228.79,75.89c-.56-.18-.88-.56-.74-1s.46-.54,1-.37l1.75.56.24-.76-1.85-.59c-.81-.26-1.45-.09-1.69.66a1.08,1.08,0,0,0,.33,1.24l-.58-.19-.23.72,3.11,1,.25-.76Z"/><path class="cls-2" d="M231.15,79.42l.28-.74-4.7-1.77-.28.75Z"/><path class="cls-2" d="M226.16,78.38l-.3.74.86.35.31-.73Z"/><path class="cls-2" d="M225.76,85.57l.9-1.78-.63-.32-.55,1.08-.08,0a1.07,1.07,0,0,1-.55-1.5,1.15,1.15,0,0,1,.83-.63,2,2,0,0,1,1.27.23,2,2,0,0,1,1,.89,1.1,1.1,0,0,1,0,1,.87.87,0,0,1-.58.5,1,1,0,0,1-.72-.07l-.37.74a1.71,1.71,0,0,0,2.37-.81,2,2,0,0,0,.07-1.73,2.88,2.88,0,0,0-1.39-1.39,2.47,2.47,0,0,0-1.86-.25,1.94,1.94,0,0,0-1.25,1,1.51,1.51,0,0,0,0,1.59l-.59-.3-.26.52Z"/><path class="cls-2" d="M222.92,85.06l-.4.69,2.82,1.65.4-.69ZM226.23,87l-.4.69.8.47.4-.69Z"/><path class="cls-2" d="M221.58,87.27l2.2,1.41-.6.93.56.36.59-.94.48.31c.32.2.42.4.3.59s-.34.18-.66,0l-.34.52c.65.42,1.24.39,1.61-.18s.21-1.14-.52-1.61l-.44-.28L225,88l-.55-.36-.22.34L222,86.6Z"/><path class="cls-2" d="M224.19,91.34c-.71-.5-.9-.72-.7-1l.09-.13-.54-.38-.23.32-1.08-.76a1.71,1.71,0,0,0-.88-.37,1,1,0,0,0-.88.51c-.41.59-.17,1.2.47,1.66l.36-.51c-.33-.23-.44-.5-.3-.7s.4-.21.77.06l1.08.76-.74,1,.54.39.74-1,.94.67Z"/><path class="cls-2" d="M219.09,90.83l-.48.63,2.59,2,.48-.63Zm3,2.34-.49.64.74.56.48-.63Z"/><path class="cls-2" d="M218.12,92.1l-.52.61,1.33,1.13a1,1,0,0,1,.35.59.66.66,0,0,1-.14.57c-.27.32-.66.29-1.06-.06l-1.38-1.17-.52.6,1.48,1.27c.64.55,1.28.65,1.76.1a1.23,1.23,0,0,0,.19-1.38l.51.44.49-.58Z"/><path class="cls-2" d="M217.17,98.18a1.19,1.19,0,0,0,.15-1.79,1,1,0,0,0-.93-.31.65.65,0,0,0-.07-.84.6.6,0,0,0-.82-.07.84.84,0,0,0-.18-1c-.44-.43-1.1-.34-1.75.32s-.84,1.59-.29,2.12,1.23.39,1.86-.25l.43-.44c.18-.19.34-.22.46-.09a.26.26,0,0,1,0,.34,2.31,2.31,0,0,0-.51.39,1.19,1.19,0,0,0-.14,1.79,1,1,0,0,0,.69.31.9.9,0,0,1-.29.62l.49.48a1.12,1.12,0,0,0,.24-1.17A1.73,1.73,0,0,0,217.17,98.18Zm-3.35-2.13c-.27-.26-.18-.64.19-1s.72-.47,1-.21.16.6-.2,1S214.07,96.29,213.82,96.05Zm2.11.91a.6.6,0,0,1,.9-.06.67.67,0,1,1-.9.06Z"/><path class="cls-2" d="M211.51,98.94l-.45.38.72,2-1.9-1.07-.46.38,1.09,3.34.62-.51-.84-2.18,2,1.18.42-.34-.83-2.19,2,1.21.67-.56Z"/><path class="cls-2" d="M208.09,101.66l-.64.46,1.91,2.65.65-.47Zm2.25,3.1-.64.47.54.75.64-.47Z"/><path class="cls-2" d="M209.05,106.4c-.48-.72-.58-1-.29-1.19l.13-.09-.37-.55-.33.22-.73-1.11a1.64,1.64,0,0,0-.69-.65,1,1,0,0,0-1,.16c-.6.4-.6,1.06-.16,1.71l.52-.34c-.22-.33-.24-.63,0-.76s.44,0,.7.33l.73,1.1-1.07.71.36.55,1.08-.71.64,1Z"/><path class="cls-2" d="M204.51,104.1l-.69.4.87,1.51a1,1,0,0,1,.13.67.63.63,0,0,1-.32.5c-.36.21-.71,0-1-.41l-.91-1.57-.69.4,1,1.68c.42.73,1,1,1.63.68a1.21,1.21,0,0,0,.63-1.15l1.18,2,.68-.4Z"/><path class="cls-2" d="M200.81,108a1.57,1.57,0,0,0-1-.92,2,2,0,0,0-1.37.15,1.88,1.88,0,0,0-1,.9,1.36,1.36,0,0,0,0,1.15c.72,1.58,2.78.07,3.2,1a.64.64,0,0,1-.42.85.74.74,0,0,1-1-.33l-.73.33a1.41,1.41,0,0,0,.82.77,1.63,1.63,0,0,0,1.23-.12,1.72,1.72,0,0,0,.91-.82,1.24,1.24,0,0,0,0-1.11,1.13,1.13,0,0,0-.44-.52,2,2,0,0,0-1.24-.15c-.65.06-1.28.19-1.51-.31s0-.73.46-.93a.87.87,0,0,1,1.25.44Z"/><path class="cls-2" d="M197.18,111a1.7,1.7,0,0,0,0-1.31,1.66,1.66,0,0,0-.85-1,1.47,1.47,0,0,0-1.25,0,1.48,1.48,0,0,0-.92.86,1.91,1.91,0,0,0,.86,2.3,1.62,1.62,0,0,0,2.17-.81Zm-1.78.17a1.31,1.31,0,0,1-.46-.64,1.3,1.3,0,0,1-.06-.77.67.67,0,0,1,.43-.48.65.65,0,0,1,.63.08,1.15,1.15,0,0,1,.46.62,1.23,1.23,0,0,1,.07.79.66.66,0,0,1-.43.47A.69.69,0,0,1,195.4,111.13Z"/><path class="cls-2" d="M191.44,111.57c-.17-.56,0-1,.41-1.18s.7.09.86.62l.52,1.76.77-.22-.56-1.87c-.24-.81-.74-1.24-1.49-1a1.11,1.11,0,0,0-.84,1l-.17-.58-.72.21.93,3.13.76-.22Z"/><path class="cls-2" d="M189.84,115.51l.77-.19-1.18-4.88-.77.19Z"/><path class="cls-2" d="M187.89,110.81l-.78.16.19.91.78-.16Z"/><path class="cls-2" d="M181.71,114.52l2-.25-.09-.7-1.2.15v-.09a1.07,1.07,0,0,1,.93-1.3,1.15,1.15,0,0,1,1,.33,1.88,1.88,0,0,1,.52,1.18,2.08,2.08,0,0,1-.19,1.3,1.14,1.14,0,0,1-.86.59.93.93,0,0,1-.74-.21,1,1,0,0,1-.35-.63l-.82.11a1.82,1.82,0,0,0,.65,1.17,1.71,1.71,0,0,0,1.35.33,2,2,0,0,0,1.48-.92,2.9,2.9,0,0,0,.36-1.92,2.5,2.5,0,0,0-.84-1.69,2,2,0,0,0-1.55-.45,1.5,1.5,0,0,0-1.29.91l-.09-.65-.57.08Z"/><path class="cls-2" d="M180.54,111.89l-.8.06.23,3.26.79-.06Zm.26,3.82-.79.06.06.92.8,0Z"/><path class="cls-2" d="M178,112l.08,2.61-1.11,0,0,.66,1.11,0,0,.57c0,.38-.1.57-.32.58s-.34-.18-.35-.56l-.63,0c0,.76.38,1.24,1.06,1.22s1.06-.47,1-1.33l0-.53h.39l0-.66h-.39l-.09-2.61Z"/><path class="cls-2" d="M176.07,116.48c0-.87.09-1.15.45-1.15h.15v-.66h-.4l0-1.33a1.69,1.69,0,0,0-.19-.93,1,1,0,0,0-.92-.44c-.72,0-1.09.54-1.1,1.33h.62c0-.4.16-.65.41-.65s.39.21.39.67l0,1.33-1.29,0v.67l1.28,0,0,1.15Z"/><path class="cls-2" d="M173.4,115.82l-.79,0-.06.93.8,0Zm.22-3.83-.8,0-.18,3.27.79,0Z"/><path class="cls-2" d="M172,111.9l-.79-.08-.19,1.74a1,1,0,0,1-.29.62.67.67,0,0,1-.55.21c-.41,0-.61-.39-.55-.92l.19-1.8-.79-.09-.21,1.94c-.09.84.18,1.43.91,1.51a1.2,1.2,0,0,0,1.24-.62l-.07.66.75.08Z"/><path class="cls-2" d="M166.45,114.55c.83.15,1.45-.19,1.57-.89a1,1,0,0,0-.28-.94.65.65,0,0,0,.66-.53.62.62,0,0,0-.4-.72.83.83,0,0,0,.7-.69c.11-.62-.34-1.11-1.25-1.27-1.08-.19-1.78.2-1.92.95s.38,1.24,1.26,1.4l.61.1q.38.08.33.33a.26.26,0,0,1-.27.22,1.7,1.7,0,0,0-.6-.2,1.2,1.2,0,0,0-1.56.89,1,1,0,0,0,.14.75,1,1,0,0,1-.68.11l-.12.67a1.12,1.12,0,0,0,1.1-.46A1.79,1.79,0,0,0,166.45,114.55Zm.31-1.72a.61.61,0,1,1-.21,1.2.61.61,0,0,1-.55-.71A.62.62,0,0,1,166.76,112.83Zm-.44-2.25c.07-.37.42-.51,1-.41s.79.32.73.69-.41.48-.92.39S166.26,110.92,166.32,110.58Z"/><path class="cls-2" d="M162.64,110.31l-.57-.17-1.29,1.75-.17-2.17-.58-.17-2.14,2.78.77.22,1.32-1.91.17,2.35.53.15,1.34-1.92.13,2.35.85.24Z"/><path class="cls-2" d="M157.17,112.62l-.75-.27-.31.87.75.27Zm1.3-3.61-.75-.27-1.11,3.08.75.27Z"/><path class="cls-2" d="M155.1,112.49c.33-.81.5-1,.83-.92l.13.06.25-.61-.36-.15.5-1.23a1.62,1.62,0,0,0,.15-.94,1,1,0,0,0-.7-.74c-.66-.27-1.2.1-1.5.84l.58.23c.15-.37.38-.55.61-.46s.29.34.12.77l-.5,1.23-1.19-.49-.25.61,1.19.49-.44,1.07Z"/><path class="cls-2" d="M154.44,107.43l-.72-.35-.76,1.58a1,1,0,0,1-.48.48.65.65,0,0,1-.59,0c-.37-.18-.45-.57-.21-1l.78-1.63-.72-.35-.84,1.76c-.37.76-.31,1.41.36,1.72a1.19,1.19,0,0,0,1.3-.12l-1,2.11.72.35Z"/><path class="cls-2" d="M149.16,106.55a1.55,1.55,0,0,0,.22-1.31,1.91,1.91,0,0,0-.9-1.06,1.85,1.85,0,0,0-1.29-.31,1.36,1.36,0,0,0-.94.67c-.9,1.48,1.5,2.35,1,3.21a.64.64,0,0,1-.93.12.73.73,0,0,1-.31-1l-.69-.42a1.42,1.42,0,0,0-.17,1.11,1.61,1.61,0,0,0,.79,1,1.73,1.73,0,0,0,1.19.29,1.22,1.22,0,0,0,.91-.62,1.28,1.28,0,0,0,.19-.66,2.09,2.09,0,0,0-.57-1.11c-.42-.5-.88-.95-.6-1.42a.69.69,0,0,1,1-.14.87.87,0,0,1,.34,1.28Z"/><path class="cls-2" d="M144.65,105.24a1.72,1.72,0,0,0,1.08-.75,1.69,1.69,0,0,0,.34-1.26,1.5,1.5,0,0,0-.66-1.07,1.55,1.55,0,0,0-1.24-.27,1.7,1.7,0,0,0-1.06.75,1.75,1.75,0,0,0-.35,1.26,1.54,1.54,0,0,0,.67,1.07A1.52,1.52,0,0,0,144.65,105.24Zm-1.14-1.38a1.27,1.27,0,0,1,.27-.74,1.32,1.32,0,0,1,.6-.49.7.7,0,0,1,.64.09.68.68,0,0,1,.29.57,1.17,1.17,0,0,1-.26.73,1.23,1.23,0,0,1-.6.5.69.69,0,0,1-.64-.09A.66.66,0,0,1,143.51,103.86Z"/><path class="cls-2" d="M140.91,100.83c.37-.46.84-.62,1.2-.32s.33.63,0,1.06L140.93,103l.62.51,1.23-1.51c.53-.66.6-1.32,0-1.81a1.09,1.09,0,0,0-1.27-.14l.39-.48-.59-.47-2.06,2.53.62.5Z"/><path class="cls-2" d="M136.76,101.73l.59.54,3.35-3.73-.59-.54Z"/><path class="cls-2" d="M139.53,97.46l-.57-.55-.65.68.58.55Z"/><path class="cls-2" d="M133,94.46,134.3,96l.53-.47-.8-.91.06-.06a1.08,1.08,0,0,1,1.61,0,1.2,1.2,0,0,1,.28,1,1.92,1.92,0,0,1-.68,1.1,2,2,0,0,1-1.18.57,1.12,1.12,0,0,1-1-.38.89.89,0,0,1-.25-.72,1.09,1.09,0,0,1,.32-.65l-.55-.62a1.81,1.81,0,0,0-.6,1.2,1.77,1.77,0,0,0,.49,1.31,2,2,0,0,0,1.59.7,2.86,2.86,0,0,0,1.8-.79,2.46,2.46,0,0,0,.91-1.64,1.93,1.93,0,0,0-.5-1.54,1.51,1.51,0,0,0-1.48-.55l.49-.44-.39-.43Z"/><path class="cls-2" d="M131.48,94.39l-.49-.62-.73.58.5.62Zm3-2.38-.5-.62-2.56,2,.49.62Z"/><path class="cls-2" d="M132.91,90l-2.1,1.54-.66-.89-.53.39.66.89-.47.34c-.3.22-.52.24-.65.06s0-.38.26-.61l-.37-.5c-.62.45-.81,1-.41,1.56s1,.62,1.68.1l.43-.31.23.32.53-.39-.23-.32,2.11-1.54Z"/><path class="cls-2" d="M128.18,90.93c.73-.48,1-.58,1.2-.29l.08.13.55-.37-.22-.33,1.11-.73a1.71,1.71,0,0,0,.66-.68,1,1,0,0,0-.16-1c-.39-.6-1.05-.59-1.71-.16L130,88c.34-.22.63-.24.76,0s.05.45-.33.7l-1.11.73-.7-1.08-.56.37.71,1.07-1,.64Z"/><path class="cls-2" d="M127.21,88.33l-.41-.68-.79.48.41.68Zm3.29-2-.41-.68-2.8,1.69.41.68Z"/><path class="cls-2" d="M129.67,85l-.38-.7-1.54.83a1,1,0,0,1-.67.1.65.65,0,0,1-.49-.33c-.19-.37,0-.72.45-1l1.59-.86-.37-.7-1.72.92c-.74.4-1.08,1-.73,1.6a1.2,1.2,0,0,0,1.21.67l-.59.32.36.67Z"/><path class="cls-2" d="M124.35,81.9c.35.77,1,1.08,1.62.79a1,1,0,0,0,.62-.76.67.67,0,0,0,.81.25.62.62,0,0,0,.37-.74.84.84,0,0,0,1,.19c.57-.26.72-.9.34-1.75s-1.17-1.36-1.87-1-.81,1-.44,1.83l.25.56c.11.24.08.39-.08.46a.25.25,0,0,1-.33-.1,2,2,0,0,0-.17-.61,1.21,1.21,0,0,0-1.62-.79,1,1,0,0,0-.54.54.89.89,0,0,1-.47-.5l-.62.28a1.1,1.1,0,0,0,1,.65A1.89,1.89,0,0,0,124.35,81.9Zm1.6-.72a.61.61,0,1,1-.83-.35A.61.61,0,0,1,126,81.18Zm1.61-1.63c.34-.15.66.06.88.55s.18.84-.17,1-.62-.07-.83-.55S127.24,79.69,127.56,79.55Z"/><path class="cls-2" d="M125.71,76.35l-.19-.56-2.16-.08,1.69-1.37-.19-.57-3.5-.21.25.76,2.32,0-1.84,1.47.17.51,2.35,0-1.87,1.44.27.83Z"/><path class="cls-2" d="M120.72,73.12l-.2-.77-.9.23.2.78Zm3.71-1-.2-.77-3.17.81.2.77Z"/><path class="cls-2" d="M119.66,71.34c.85-.19,1.15-.18,1.22.17l0,.14.65-.13-.08-.39,1.29-.28a1.72,1.72,0,0,0,.87-.4,1,1,0,0,0,.21-1c-.15-.7-.76-.94-1.53-.77l.13.6c.39-.08.67,0,.72.25s-.12.44-.56.53l-1.3.28L121,69.09l-.65.14.27,1.26-1.13.24Z"/><path class="cls-2" d="M123.47,67.94l-.12-.79-1.73.26a1,1,0,0,1-.68-.12.68.68,0,0,1-.34-.48c-.06-.41.22-.69.75-.77l1.79-.27L123,65l-1.93.29c-.83.13-1.33.54-1.22,1.27a1.18,1.18,0,0,0,.83,1l-2.31.35.12.79Z"/><path class="cls-2" d="M121.22,63.09a1.57,1.57,0,0,0,1.21-.56,1.94,1.94,0,0,0,.36-1.34,1.82,1.82,0,0,0-.47-1.24,1.34,1.34,0,0,0-1.08-.4c-1.73.09-1.09,2.57-2.1,2.62-.36,0-.61-.28-.63-.7a.74.74,0,0,1,.68-.84l0-.8a1.34,1.34,0,0,0-1,.48,1.66,1.66,0,0,0-.35,1.19,1.82,1.82,0,0,0,.44,1.15,1.24,1.24,0,0,0,1,.4,1.15,1.15,0,0,0,.64-.22,2,2,0,0,0,.6-1.09c.18-.63.29-1.27.84-1.3s.67.28.7.77a.87.87,0,0,1-.87,1Z"/><path class="cls-2" d="M119.76,58.63a1.78,1.78,0,0,0,1.22.47,1.8,1.8,0,0,0,1.24-.43,1.62,1.62,0,0,0,0-2.32,1.92,1.92,0,0,0-2.46-.05,1.63,1.63,0,0,0,0,2.33Zm.5-1.72a1.29,1.29,0,0,1,.76-.2,1.32,1.32,0,0,1,.74.22.71.71,0,0,1,.29.58.68.68,0,0,1-.31.56,1.19,1.19,0,0,1-.75.2,1.17,1.17,0,0,1-.75-.22.65.65,0,0,1-.28-.58A.63.63,0,0,1,120.26,56.91Z"/><path class="cls-2" d="M121.28,53.05c.59.05,1,.35,1,.81s-.33.63-.89.58l-1.83-.15-.07.79,1.94.16c.85.07,1.43-.24,1.5-1a1.09,1.09,0,0,0-.61-1.13l.61,0,.07-.75-3.26-.27-.06.79Z"/><path class="cls-2" d="M118.19,50.14l-.11.79,5,.66.1-.79Z"/><path class="cls-2" d="M123.28,50l.13-.78-.92-.15-.13.78Z"/><path class="cls-2" d="M122.06,42.9l-.48,1.94.69.17.29-1.18.08,0a1.07,1.07,0,0,1,.88,1.34,1.13,1.13,0,0,1-.67.8,1.86,1.86,0,0,1-1.29.06,2.09,2.09,0,0,1-1.14-.65,1.14,1.14,0,0,1-.23-1,.91.91,0,0,1,.46-.62,1,1,0,0,1,.71-.1l.2-.8a1.8,1.8,0,0,0-1.33.18,1.71,1.71,0,0,0-.8,1.14,2,2,0,0,0,.32,1.71,2.89,2.89,0,0,0,1.67,1,2.44,2.44,0,0,0,1.87-.16,2,2,0,0,0,1-1.28A1.51,1.51,0,0,0,123.9,44l.63.16.14-.57Z"/><path class="cls-2" d="M121.27,41.64l.24-.76-.88-.28-.24.76Zm3.66,1.14.24-.76-3.12-1-.24.76Z"/><path class="cls-2" d="M125.74,40.32l-2.45-.87.37-1-.62-.23-.37,1-.54-.19q-.54-.2-.42-.51c.07-.21.29-.25.65-.12l.21-.59c-.73-.26-1.3-.1-1.53.54s0,1.16.87,1.44l.49.18-.13.37.62.22.13-.37,2.46.87Z"/><path class="cls-2" d="M122.28,37c.8.33,1,.5.91.83l-.06.14.61.25.15-.37,1.23.51a1.62,1.62,0,0,0,.94.15,1,1,0,0,0,.74-.69c.27-.66-.1-1.21-.83-1.51l-.24.58c.37.15.55.38.46.61s-.34.29-.77.12l-1.22-.5.48-1.19-.61-.25-.49,1.19-1.07-.44Z"/><path class="cls-2" d="M123.88,34.69l.34-.72-.85-.39-.33.73Zm3.48,1.61.34-.73-3-1.36-.33.72Z"/><path class="cls-2" d="M128,34.83l.37-.7-1.55-.81a1,1,0,0,1-.47-.5.64.64,0,0,1,0-.59c.19-.37.58-.43,1-.18l1.61.84.37-.71-1.73-.9c-.75-.39-1.4-.35-1.74.3a1.21,1.21,0,0,0,.13,1.38l-.59-.31-.35.67Z"/><path class="cls-2" d="M127.6,28.69a1.19,1.19,0,0,0,.26,1.78,1,1,0,0,0,1,.09.66.66,0,0,0,.26.81.62.62,0,0,0,.82-.11.8.8,0,0,0,.38.9c.54.33,1.15.09,1.64-.7s.46-1.73-.19-2.13-1.29-.1-1.75.66l-.33.53c-.13.22-.28.28-.43.19a.27.27,0,0,1-.1-.33,1.81,1.81,0,0,0,.41-.49,1.2,1.2,0,0,0-.26-1.78,1.05,1.05,0,0,0-.75-.14.93.93,0,0,1,.15-.67l-.58-.36a1.11,1.11,0,0,0,0,1.19A1.88,1.88,0,0,0,127.6,28.69Zm1.49.92a.61.61,0,1,1-.17-.89A.62.62,0,0,1,129.09,29.61Zm2.26.41c.32.2.31.58,0,1s-.59.62-.91.42-.29-.55,0-1S131.05,29.84,131.35,30Z"/><path class="cls-2" d="M133,26.69l.36-.47-1.16-1.83,2.09.62.37-.47-1.81-3-.49.63,1.3,1.94-2.25-.7-.33.43,1.3,2-2.24-.73-.54.69Z"/><path class="cls-2" d="M132.8,20.76l.52-.6-.69-.61-.53.6Zm2.88,2.52.52-.6-2.45-2.15-.53.6Z"/><path class="cls-2" d="M133.69,18.87c.63.6.79.85.54,1.11l-.1.1.48.46.27-.29,1,.92a1.6,1.6,0,0,0,.82.48,1,1,0,0,0,.94-.37c.49-.52.34-1.16-.23-1.71l-.43.45c.29.28.37.56.2.74s-.42.15-.75-.17l-1-.91.89-.93-.48-.46-.89.93-.84-.8Z"/><path class="cls-2" d="M138.63,20.11l.58-.55L138,18.28a1,1,0,0,1-.28-.62.65.65,0,0,1,.2-.56c.31-.28.69-.21,1.06.19l1.23,1.32.58-.54-1.33-1.43c-.57-.62-1.2-.8-1.73-.29a1.19,1.19,0,0,0-.36,1.26l-1.6-1.72-.59.55Z"/><path class="cls-2" d="M141.36,15.51a1.59,1.59,0,0,0,1.15.68,2,2,0,0,0,1.31-.46,1.8,1.8,0,0,0,.75-1.09,1.27,1.27,0,0,0-.28-1.11c-1-1.38-2.73.55-3.34-.25a.64.64,0,0,1,.22-.92.72.72,0,0,1,1.07.09l.64-.49a1.36,1.36,0,0,0-1-.56,1.63,1.63,0,0,0-1.17.38,1.79,1.79,0,0,0-.7,1,1.25,1.25,0,0,0,.25,1.08,1.19,1.19,0,0,0,.54.41,2.06,2.06,0,0,0,1.24-.13c.62-.21,1.21-.47,1.54,0s.15.71-.24,1a.87.87,0,0,1-1.31-.15Z"/><path class="cls-2" d="M144.22,11.79a1.91,1.91,0,0,0,1.35,2.05,1.62,1.62,0,0,0,1.94-1.28,1.82,1.82,0,0,0-.31-1.27,1.76,1.76,0,0,0-1-.78,1.52,1.52,0,0,0-1.23.24A1.49,1.49,0,0,0,144.22,11.79Zm1.7-.56a1.27,1.27,0,0,1,.58.51,1.23,1.23,0,0,1,.24.74.7.7,0,0,1-1,.63,1.16,1.16,0,0,1-.58-.51,1.16,1.16,0,0,1-.24-.74.65.65,0,0,1,.31-.56A.66.66,0,0,1,145.92,11.23Z"/><path class="cls-2" d="M149.69,9.89c.3.51.27,1-.13,1.24s-.71.08-1-.41l-.91-1.6-.69.4,1,1.69c.42.73,1,1,1.69.66a1.1,1.1,0,0,0,.59-1.14l.3.54.66-.38-1.61-2.84-.69.39Z"/><path class="cls-2" d="M150.34,5.7l-.71.36,2.26,4.48.71-.36Z"/><path class="cls-2" d="M153.31,9.84,154,9.5l-.39-.84-.72.34Z"/><path class="cls-2" d="M158.5,4.83l-1.87.69.25.66L158,5.76l0,.09a1.07,1.07,0,0,1-.62,1.48,1.15,1.15,0,0,1-1-.11,1.94,1.94,0,0,1-.78-1,2.09,2.09,0,0,1-.1-1.31,1.15,1.15,0,0,1,.71-.76.9.9,0,0,1,.77,0,1,1,0,0,1,.48.54l.78-.29a1.81,1.81,0,0,0-.9-1,1.74,1.74,0,0,0-1.4,0,2,2,0,0,0-1.23,1.23,2.84,2.84,0,0,0,.08,2A2.5,2.5,0,0,0,156,8a1.93,1.93,0,0,0,1.61.09,1.51,1.51,0,0,0,1.06-1.17l.22.61.55-.2Z"/><path class="cls-2" d="M159.11,3.46l.77-.23-.27-.89-.77.24Zm1.13,3.66.76-.23-1-3.12-.76.23Z"/><path class="cls-2" d="M162.71,6.41l-.66-2.52,1.08-.28L163,3l-1.08.28-.14-.55c-.1-.36,0-.57.18-.63s.38.1.47.47l.61-.16c-.2-.75-.65-1.13-1.31-1s-.93.69-.71,1.53l.13.51-.38.1.17.64.38-.1.66,2.52Z"/><path class="cls-2" d="M163.55,1.65c.18.86.17,1.15-.17,1.22l-.15,0,.14.65.38-.08.28,1.3a1.76,1.76,0,0,0,.39.86,1,1,0,0,0,1,.22c.7-.15.93-.76.77-1.53l-.6.12c.08.4,0,.67-.26.72s-.43-.11-.53-.56l-.27-1.3L165.79,3l-.14-.65-1.26.27-.24-1.13Z"/><path class="cls-2" d="M166.33,1.7l.79-.13L167,.66l-.78.13ZM167,5.48l.78-.13-.54-3.22-.78.13Z"/><path class="cls-2" d="M168.53,5.21l.79-.09-.21-1.74a1,1,0,0,1,.15-.66.64.64,0,0,1,.49-.33c.41-.05.68.24.74.77L170.7,5l.8-.09-.23-1.94c-.1-.84-.5-1.35-1.23-1.27a1.23,1.23,0,0,0-1.07.88l-.07-.66-.75.09Z"/><path class="cls-2" d="M173.35,1.4c-.84,0-1.36.5-1.33,1.21a1,1,0,0,0,.48.86.65.65,0,0,0-.52.66.61.61,0,0,0,.55.62.81.81,0,0,0-.53.83c0,.62.58,1,1.5,1,1.1,0,1.7-.59,1.66-1.35s-.64-1.12-1.53-1.08l-.62,0c-.26,0-.4-.07-.4-.25a.24.24,0,0,1,.21-.26,2.18,2.18,0,0,0,.63.06c.84,0,1.36-.52,1.33-1.22a1.07,1.07,0,0,0-.3-.7,1,1,0,0,1,.63-.26l0-.68a1.11,1.11,0,0,0-1,.69A1.87,1.87,0,0,0,173.35,1.4Zm1,3.84c0,.38-.29.59-.83.62s-.85-.15-.86-.52.29-.55.8-.58S174.35,4.9,174.36,5.24Zm-.93-2.1a.6.6,0,0,1-.69-.57.61.61,0,0,1,.63-.65.61.61,0,1,1,.06,1.22Z"/><path class="cls-2" d="M22.54,62.41a.93.93,0,0,0,.66-.33,1.13,1.13,0,0,0,.33-.83,1.45,1.45,0,0,0-.15-.68,1.23,1.23,0,0,0-.55-.65v0q-1.74-1.38-2.44-7.9-.29-3.33-.29-6.79l0-1.49V41.77h5.46a1.12,1.12,0,0,0,.7-.43,1.26,1.26,0,0,0,0-1.56,1.15,1.15,0,0,0-.7-.42H20.1l-.05-2c0-.66,0-1.48.07-2.46A9.66,9.66,0,0,1,20.74,32a2.36,2.36,0,0,1,1.85-1.66l.29,0a1,1,0,0,1,.72.24.83.83,0,0,1,.27.65,1.94,1.94,0,0,1-.28.78,7.57,7.57,0,0,0-.52,1.17,5,5,0,0,0-.29,1.41,3.58,3.58,0,0,0,.89,2.26,3,3,0,0,0,2.47,1.1h.14a3.2,3.2,0,0,0,2.39-1.28,4,4,0,0,0,.78-2.49v-.27a6,6,0,0,0-2-4.3,7.52,7.52,0,0,0-4.74-1.69l-.82,0a11.93,11.93,0,0,0-4.9.94,5.9,5.9,0,0,0-3.1,3.38,10.67,10.67,0,0,0-.6,3.8l0,.77a6.31,6.31,0,0,1,.1,1c.08.8.12,1.32.12,1.54l-3.09,0a1.21,1.21,0,0,0-.71.42,1.23,1.23,0,0,0,0,1.56,1.17,1.17,0,0,0,.71.43h3.21c0,.7.05,1.66.05,2.9,0,.42,0,1.22,0,2.38s-.11,2.79-.3,4.85l-.05.6c-.4,4.08-1.11,6.48-2.13,7.22a2,2,0,0,0-.87,1.57,1.1,1.1,0,0,0,.41.85,1,1,0,0,0,.66.27Z"/><path class="cls-2" d="M23.72,51.65c0,6.86,4.45,11.13,11.13,11.13S46,58.51,46,51.65,41.5,40.48,34.85,40.48,23.72,44.76,23.72,51.65ZM32,52.94c-3.08-5.9-3.08-8.81-1.54-9.64s4.15,1,7.35,7.15c3,5.73,3,8.68,1.5,9.51S35.1,58.92,32,52.94Z"/><path class="cls-2" d="M46.9,51.65c0,6.86,4.45,11.13,11.13,11.13s11.1-4.27,11.1-11.13S64.68,40.48,58,40.48,46.9,44.76,46.9,51.65Zm8.23,1.29c-3.08-5.9-3.08-8.81-1.54-9.64s4.15,1,7.35,7.15c3,5.73,3,8.68,1.5,9.51S58.28,58.92,55.13,52.94Z"/><path class="cls-2" d="M-20.1,62.38l5.19.07a3.06,3.06,0,0,0,2.52-.75,2.17,2.17,0,0,0,.09-2.22,14.55,14.55,0,0,0-1.28-1.95,9,9,0,0,1-.49-8.43c1.09-2.5,3.15-4.2,5.05-6C-6.6,40.71-3.13,37.94.45,39c1.36.4,2.57,1.52,4,1.78a5.12,5.12,0,0,0,3.8-.45,4.4,4.4,0,0,0,1.7-4.82,5.38,5.38,0,0,0-2.3-3.3,9,9,0,0,0-5.25-1.3,12.19,12.19,0,0,0-6.23,2.36c-3.52,2.44-6.17,5.92-8.84,9.21-.48.59-1.07,1.06-1.49,1.69-.2-1.53,1.79-3.26.79-4.86-.68-1.08-2.42-1.17-3.54-1l-4.51.57A3.18,3.18,0,0,0-24,40c-.55,1,0,2.15.54,3.15A17.18,17.18,0,0,1-21.74,50a17.93,17.93,0,0,1-1.62,8.29c-.43.92-1.36,2.17-.65,3.19a1.45,1.45,0,0,0,.37.37C-22.72,62.53-21.06,62.37-20.1,62.38Z"/><path class="cls-2" d="M-.18,62.89A9.87,9.87,0,0,0,4.7,61.62a10.7,10.7,0,0,0,3.15-2.91A1.33,1.33,0,0,0,8.12,58a1.86,1.86,0,0,0,0-.26.79.79,0,0,0-.3-.48A1,1,0,0,0,7.13,57H6.88a.86.86,0,0,0-.5.35,8.36,8.36,0,0,1-2.89,2.27,5.18,5.18,0,0,1-2.22.53A4,4,0,0,1,.36,60,4.42,4.42,0,0,1-2.1,58.43a7.27,7.27,0,0,1-1.34-2.66l.74-.26c1.11-.35,2.36-.82,3.76-1.4A17.06,17.06,0,0,0,4.89,52a6.26,6.26,0,0,0,2.3-3.11,3.75,3.75,0,0,0,.12-.92,4,4,0,0,0-.82-2.24,6.66,6.66,0,0,0-2.82-2.06A11.09,11.09,0,0,0-.9,42.74a11.62,11.62,0,0,0-7,2.22,9.27,9.27,0,0,0-3.34,5,10.7,10.7,0,0,0-.34,2.62,12.84,12.84,0,0,0,.78,4,9.06,9.06,0,0,0,3.5,4.29A11.83,11.83,0,0,0-.18,62.89ZM-2.81,52.68a6.29,6.29,0,0,1-1.07.79C-3.9,53-4,52.47-4,52c-.21-2.23.16-4.93,2.11-6.34a2.09,2.09,0,0,1,1.58-.5A1.79,1.79,0,0,1,1,46a2.39,2.39,0,0,1,.32,1.19,2.79,2.79,0,0,1-.18.95,10.21,10.21,0,0,1-2.45,3.29C-1.84,51.84-2.32,52.27-2.81,52.68Z"/><path class="cls-2" d="M79.78,62.82a10.47,10.47,0,0,0,3.52-.63,7.48,7.48,0,0,0,3-2,1.25,1.25,0,0,0,.29-.83,1.77,1.77,0,0,0-.24-.91,1.25,1.25,0,0,0-1.09-.61,1.64,1.64,0,0,0-.88.29,6.14,6.14,0,0,0-.86.7,3.43,3.43,0,0,1-1.49,1,3.88,3.88,0,0,1-.73.08,2.58,2.58,0,0,1-2.2-1.33q-1.47-2.28-1.47-8.31A60.39,60.39,0,0,1,78,44c.15-1.55.27-2.65.36-3.31h4.74a1.26,1.26,0,0,0,1-1.23,1.17,1.17,0,0,0-.32-.84,1.05,1.05,0,0,0-.67-.35h-4.5c.1-1.14.21-2.23.34-3.26s.24-2,.27-2.8a.84.84,0,0,0-.32-.52,1.25,1.25,0,0,0-.91-.3q-1.34,0-3.87,3.16a18.85,18.85,0,0,1-2,2.13,7,7,0,0,1-4.52,1.81,4.14,4.14,0,0,0-1.18.17,1.08,1.08,0,0,0-.66,1.09,1.17,1.17,0,0,0,.68,1.11,1.25,1.25,0,0,0,.34.1,7.5,7.5,0,0,1,2.1.29c1.4.41,2.12,1.94,2.15,4.56l0,.92q0,1.38-.12,2.85c-.08,1.1-.12,2.21-.12,3.36a11,11,0,0,0,.29,2.58,10.53,10.53,0,0,0,2.65,5.06,8.16,8.16,0,0,0,6,2.24Z"/><path class="cls-2" d="M8.79,105.43a11,11,0,0,0,3.63-.62,7.26,7.26,0,0,0,3.06-2,1.19,1.19,0,0,0,.29-.82,1.6,1.6,0,0,0-.26-.9,1.25,1.25,0,0,0-1.11-.6,1.53,1.53,0,0,0-.85.28,4.73,4.73,0,0,0-.84.68,3.66,3.66,0,0,1-1.5,1,3.83,3.83,0,0,1-.73.07,2.55,2.55,0,0,1-2.19-1.35q-1.48-2.3-1.48-8.31l.05-2.22q.08-2.61.65-7.35a29.29,29.29,0,0,0,8.34-1.46,32.08,32.08,0,0,0,8.79-4.19,15,15,0,0,0,5.61-6.55,7.54,7.54,0,0,0,.45-2.34q0-3.72-2.07-5.1A3.87,3.87,0,0,0,26.4,63a4.45,4.45,0,0,0-3.33,1.45,4.3,4.3,0,0,0-1.21,2.37Q21,73.67,17.08,77.36a12.48,12.48,0,0,1-8.79,3.51H7.75c.12-1.15.24-2.23.37-3.27s.21-2,.26-2.77a.72.72,0,0,0-.29-.51,1.52,1.52,0,0,0-1-.31,1.75,1.75,0,0,0-1.18.43,21.45,21.45,0,0,0-2.63,2.71,20.14,20.14,0,0,1-2.06,2.16A7.66,7.66,0,0,1-1.5,80.84a16.13,16.13,0,0,1-2.58.32,1.31,1.31,0,0,0-.41.12,1.09,1.09,0,0,0-.66,1.06,1.26,1.26,0,0,0,.25.77,1,1,0,0,0,.45.35,1.29,1.29,0,0,0,.34.09,7.51,7.51,0,0,1,2.1.3A2.43,2.43,0,0,1-.46,85.21a9.37,9.37,0,0,1,.6,3.22c0,1.38,0,2.63-.1,3.73s-.11,2.23-.11,3.39a12.28,12.28,0,0,0,.26,2.59,10.72,10.72,0,0,0,2.67,5A8.19,8.19,0,0,0,8.79,105.43Zm20.59-.14A1,1,0,0,0,30,105a1.1,1.1,0,0,0,.33-.83,1.48,1.48,0,0,0-.15-.68,1.86,1.86,0,0,0-.32-.46l-.22-.18s0,0,0,0a5.39,5.39,0,0,1-1.46-2.68,28.31,28.31,0,0,1-.91-4.81,25.22,25.22,0,0,1-.19-3.19q0-1,.12-3.24a27.67,27.67,0,0,1,1.21-5.92,4.66,4.66,0,0,0,.19-1.16,2.1,2.1,0,0,0-.08-.46c-.06-.19-.29-.28-.69-.28q-.31,0-9.83,1.47l-.24.1A1.31,1.31,0,0,0,18.05,85c.85.18,1.49,1.07,1.93,2.68a15.88,15.88,0,0,1,.38,3.94c0,1.11-.05,2.38-.16,3.79q-.66,6.12-2.15,7.23a3.15,3.15,0,0,0-.61.7,1.32,1.32,0,0,0-.26.82,1.07,1.07,0,0,0,.41.89,1,1,0,0,0,.67.27Z"/><path class="cls-2" d="M58.68,105.39a.9.9,0,0,0,.69-.35,1.13,1.13,0,0,0,.3-.72A1.75,1.75,0,0,0,59,102.8q-1.48-1.11-1.48-5.15,0-1.66.15-3.57c.06-.84.1-1.53.1-2.08a16.6,16.6,0,0,0-1.13-6.75,7.17,7.17,0,0,0-2.91-3.47A6.38,6.38,0,0,0,50.56,81c-.25,0-.8.05-1.65.13a9,9,0,0,0-3.29,1.33A13.69,13.69,0,0,0,42,85.53l-.1.12a1.56,1.56,0,0,1-.22.26l.65-2.27a8.2,8.2,0,0,0,.37-1.74,1.92,1.92,0,0,0-.1-.44c-.06-.2-.29-.3-.68-.3l-9.8,1.37a.77.77,0,0,0-.27.11,1.2,1.2,0,0,0-.39.39,1.32,1.32,0,0,0-.19.78,1.21,1.21,0,0,0,.24.74,1,1,0,0,0,.63.42,3.15,3.15,0,0,1,1.76,2.49,19.35,19.35,0,0,1,.51,4.35c0,1.54-.05,2.77-.14,3.67q-.62,6.17-2.13,7.22a4.06,4.06,0,0,0-.6.7,1.37,1.37,0,0,0-.27.83,1.11,1.11,0,0,0,.41.89,1,1,0,0,0,.68.27H43.49a.9.9,0,0,0,.66-.32,1.23,1.23,0,0,0,.35-.72,1.7,1.7,0,0,0-.48-1.26,1,1,0,0,0-.24-.19v0a5.67,5.67,0,0,1-1.53-2.8,23.24,23.24,0,0,1-1-6.64c0-.31,0-.58,0-.82a7.69,7.69,0,0,1,1.53-4,5,5,0,0,1,2.79-1.9,3,3,0,0,1,.65-.07,3.14,3.14,0,0,1,2.23,1.06q1.27,1.29,1.28,5.08A27,27,0,0,1,49,99c-.49,2.07-1.14,3.39-1.94,4,0,0-.08.06-.17.18a2.24,2.24,0,0,0-.29.47,1.36,1.36,0,0,0-.15.63,1.13,1.13,0,0,0,.32.81,1,1,0,0,0,.72.33Z"/><path class="cls-2" d="M59.22,89.85c0,5.41,3.85,9.07,11,9.07a14.26,14.26,0,0,0,1.51,0C66.72,102,59,102.28,59,108.81c0,5.26,4.92,8.23,11.55,8.23,7,0,11.65-3.36,11.65-8.67,0-4.29-3.07-8.09-8.19-6.68-2.82.73-4.19,2.49-4.14,4.83,0,3.8,3.9,5.07,6.38,2.68,1.61-1.51,4-1.76,4,.34s-2.78,3.9-5.94,3.9c-3.71,0-6.68-2.29-6.68-6.63s3.07-5.56,8.67-9.06a8.2,8.2,0,0,0,4.93-7.9c0-4.14-2.2-7.21-6.44-8.48.3-.88,1.08-1.46,2.73-.92,3.66,1.12,5.31-2.15,4.34-4.39s-3.9-1.75-5.65-.63a7.43,7.43,0,0,0-3,5.6,17.86,17.86,0,0,0-3-.24C63.07,80.79,59.22,84.39,59.22,89.85Zm8.62,1.22c-2.43-4.63-2.43-6.92-1.22-7.55s3.32.73,5.8,5.55c2.29,4.48,2.34,6.82,1.17,7.46S70.28,95.7,67.84,91.07Z"/><path class="cls-2" d="M4.71-5l.08,2.6-1.11,0,0,.66,1.11,0,0,.57c0,.37-.1.57-.32.57s-.34-.18-.36-.56l-.62,0c0,.77.38,1.25,1.06,1.23s1.06-.47,1-1.34v-.52H6l0-.66H5.59L5.5-5Z"/></pattern></defs><title>Artboard 1 copy 15</title><rect class="cls-3" x="-68" y="-29" width="1368" height="1328"/></svg>