<svg id="Layer_1" data-name="Layer 1" xmlns="http://www.w3.org/2000/svg" viewBox="0 0 1232 1215"><defs><style>.cls-1{fill:#ffe9d0;}</style></defs><title>Artboard 1 copy 10</title><path class="cls-1" d="M647.09,566.94a3.47,3.47,0,0,1-2.43-1,4.09,4.09,0,0,1-1.53-3.15,7.34,7.34,0,0,1,3.24-5.86q5.68-4.14,7.93-26.93l.18-2.26q1.08-11.52,1.13-18.06t0-8.87c0-4.63-.06-8.23-.18-10.82h-12a4.6,4.6,0,0,1-2.66-1.62,4.61,4.61,0,0,1,0-5.81,4.74,4.74,0,0,1,2.66-1.57L655,480.9q0-1.27-.45-5.77a30.34,30.34,0,0,0-.36-3.87l-.09-2.89a39.49,39.49,0,0,1,2.25-14.14q3.6-9.11,11.53-12.62a44.84,44.84,0,0,1,18.29-3.51l3.07.09q10.89.45,17.66,6.31t7.38,16v1a14.85,14.85,0,0,1-2.88,9.27,11.94,11.94,0,0,1-8.92,4.78H702a11.21,11.21,0,0,1-9.19-4.1,13.25,13.25,0,0,1-3.33-8.42,18.92,18.92,0,0,1,1.08-5.27,30,30,0,0,1,1.94-4.37,6.78,6.78,0,0,0,1-2.89,3.12,3.12,0,0,0-1-2.43,3.86,3.86,0,0,0-2.7-.9l-1.08.09c-3.25.54-5.54,2.6-6.9,6.17a35.57,35.57,0,0,0-2.29,10.86c-.18,3.66-.27,6.73-.27,9.19l.18,7.48h20.45a4.63,4.63,0,0,1,2.61,7.38,4.39,4.39,0,0,1-2.61,1.62H679.53v7.21l-.09,5.59q0,12.88,1.08,25.31,2.61,24.33,9.1,29.47v.09a4.77,4.77,0,0,1,2.07,2.43,5.57,5.57,0,0,1,.54,2.52,4.22,4.22,0,0,1-1.22,3.11,3.53,3.53,0,0,1-2.47,1.22Z"/><path class="cls-1" d="M527.28,727.19a3.5,3.5,0,0,1-2.43-1,4.09,4.09,0,0,1-1.53-3.15,7.32,7.32,0,0,1,3.24-5.86q5.67-4.14,7.93-26.94l.18-2.25q1.08-11.54,1.12-18.06c0-4.36.05-7.31.05-8.88,0-4.62-.06-8.23-.18-10.81h-12a4.65,4.65,0,0,1-2.66-1.62,4.58,4.58,0,0,1,0-5.81,4.76,4.76,0,0,1,2.66-1.58l11.53-.09q0-1.26-.45-5.76a30.36,30.36,0,0,0-.36-3.88l-.09-2.88a39.55,39.55,0,0,1,2.25-14.15q3.6-9.09,11.53-12.61a44.8,44.8,0,0,1,18.29-3.51l3.06.09q10.9.45,17.66,6.3t7.39,16v1a14.86,14.86,0,0,1-2.88,9.28,12,12,0,0,1-8.92,4.78h-.54a11.2,11.2,0,0,1-9.19-4.1,13.24,13.24,0,0,1-3.34-8.43,18.65,18.65,0,0,1,1.09-5.27,30.52,30.52,0,0,1,1.93-4.37,6.84,6.84,0,0,0,1-2.88,3.12,3.12,0,0,0-1-2.43,3.89,3.89,0,0,0-2.71-.9l-1.08.09q-4.86.81-6.89,6.17a35.46,35.46,0,0,0-2.3,10.85q-.27,5.5-.27,9.19l.18,7.48h20.45a4.64,4.64,0,0,1,2.62,7.39,4.43,4.43,0,0,1-2.62,1.62H559.71v7.21l-.09,5.59q0,12.87,1.08,25.31,2.63,24.33,9.1,29.46v.09a4.78,4.78,0,0,1,2.08,2.43,5.64,5.64,0,0,1,.54,2.53A4.24,4.24,0,0,1,571.2,726a3.54,3.54,0,0,1-2.48,1.21Z"/><path class="cls-1" d="M734.46,485.16c24.79,0,41.37,15.95,41.37,41.67,0,25.56-16.58,41.52-41.37,41.52-24.94,0-41.51-16-41.51-41.52C693,501.11,709.52,485.16,734.46,485.16Zm16.43,72.65c5.73-3.09,5.42-14.09-5.58-35.47-11.93-23.09-21.54-29.9-27.42-26.65s-5.73,13.94,5.73,35.94C735.39,553.94,745,561.07,750.89,557.81Z"/><path class="cls-1" d="M820.91,485.16c24.79,0,41.37,15.95,41.37,41.67,0,25.56-16.58,41.52-41.37,41.52s-41.52-16-41.52-41.52C779.39,501.11,796,485.16,820.91,485.16Zm16.42,72.65c5.74-3.09,5.43-14.09-5.57-35.47-11.93-23.09-21.54-29.9-27.42-26.65s-5.74,13.94,5.73,35.94C821.84,553.94,831.45,561.07,837.33,557.81Z"/><path class="cls-1" d="M439.65,568.64a20.31,20.31,0,0,1-12.71-6.94A23.32,23.32,0,0,1,421,547.56V546.2q0-10.35,5.31-16.75A40,40,0,0,1,441,518.81a144.91,144.91,0,0,1,18-6.48,128.26,128.26,0,0,0,13.87-4.87l.09-4c0-2.22-.09-4.36-.27-6.4a15.14,15.14,0,0,0-3-8.2q-2.57-3.24-8.69-3.69h-1.08q-4.33,0-6.13,1.26a4.66,4.66,0,0,0-2.21,3.11c-.09,1.05-.13,1.82-.13,2.3a25.11,25.11,0,0,0,.36,4,27.57,27.57,0,0,1,.36,4.46,11.22,11.22,0,0,1-5.27,9,17.72,17.72,0,0,1-9.51,3,15.37,15.37,0,0,1-2.34-.18q-6.21-1.26-8.33-5.14a15,15,0,0,1-2.12-7.11,14.44,14.44,0,0,1,.72-4.42q7-19.27,34.78-19.28,19.1,0,29.73,10.18A32.19,32.19,0,0,1,500,510.35q0,4-.23,9.28t-.22,10.63q0,7.92.63,15.49c.42,3.07,1.23,5.18,2.43,6.35a7.15,7.15,0,0,0,5.23,1.76,3.14,3.14,0,0,1,3.11,1.53,6.38,6.38,0,0,1,.76,2.8q0,3.6-3.87,5.22-12.35,5-19.73,5a27.16,27.16,0,0,1-5-.45q-6.39-1.17-9.73-8.2a95.63,95.63,0,0,1-15.36,7.12,41.17,41.17,0,0,1-13,2.07Q442.44,568.91,439.65,568.64Zm25.49-15.23q5.33-.9,6.4-5.72a46.65,46.65,0,0,0,1.08-10.23l-.09-5.31.18-15.68A54.15,54.15,0,0,0,459.24,527Q454,532.88,454,539.63q.36,8.28,3.24,11.08a9,9,0,0,0,6.4,2.79Z"/><path class="cls-1" d="M516.34,565a5.48,5.48,0,0,1-1.41-1.39c-2.64-3.8.85-8.46,2.44-11.89a67.39,67.39,0,0,0,6-30.94A64.34,64.34,0,0,0,517,495.08c-1.84-3.72-4-8.14-2-11.74,1.78-3.12,5.85-3.89,9.4-4.34l16.83-2.11c4.2-.53,10.66-.19,13.21,3.84,3.75,6-3.67,12.42-3,18.12,1.6-2.34,3.79-4.1,5.56-6.29,10-12.29,19.84-25.24,33-34.36,6.88-4.78,14.78-8.36,23.25-8.8a33.26,33.26,0,0,1,19.56,4.86,20.06,20.06,0,0,1,8.6,12.28c1.54,6.72-.31,14.15-6.35,18-4.29,2.73-9.37,2.6-14.19,1.69-5.12-1-9.63-5.16-14.72-6.65-13.35-3.89-26.28,6.47-35.32,15.23-7.07,6.85-14.76,13.19-18.8,22.5-4.37,10-4.24,22.32,1.8,31.45,1.6,2.43,3.59,4.62,4.8,7.27s1.45,6-.35,8.28c-2.11,2.65-6,2.84-9.39,2.8l-19.36-.24C525.94,566.81,519.75,567.4,516.34,565Z"/><path class="cls-1" d="M577.2,561.35q-10.14-7.36-13-16a48.28,48.28,0,0,1-2.89-14.86,39.06,39.06,0,0,1,1.26-9.78A34.62,34.62,0,0,1,575,501.89q9.63-7.71,26.16-8.3a41.51,41.51,0,0,1,17,3.3q7.41,3.28,10.49,7.66a14.7,14.7,0,0,1,3.07,8.38,13.88,13.88,0,0,1-.44,3.41,23.27,23.27,0,0,1-8.6,11.59A64.13,64.13,0,0,1,608.44,536q-7.82,3.22-14,5.23l-2.75,1a26.93,26.93,0,0,0,5,9.89,15.53,15.53,0,0,0,12.56,6.34,19.73,19.73,0,0,0,8.3-2A31.12,31.12,0,0,0,628.26,548a3.2,3.2,0,0,1,1.89-1.3l.93,0a3.63,3.63,0,0,1,2.48,1,3,3,0,0,1,1.15,1.78c0,.54.07.86.07,1a4.92,4.92,0,0,1-1,2.82A39.88,39.88,0,0,1,622,564q-7.08,4.34-18.19,4.71Q587.36,568.73,577.2,561.35Zm22.2-35.42a38.12,38.12,0,0,0,9.15-12.26,10.59,10.59,0,0,0,.67-3.56,8.8,8.8,0,0,0-1.19-4.44,6.7,6.7,0,0,0-4.87-3.19,7.81,7.81,0,0,0-5.93,1.85c-7.25,5.28-8.65,15.32-7.86,23.65.18,1.9.59,3.72.65,5.63a21,21,0,0,0,4-3C595.84,529.14,597.63,527.55,599.4,525.93Z"/><path class="cls-1" d="M901.58,568.48q-14.77-.45-22.21-8.34a39.26,39.26,0,0,1-9.87-18.87,40.53,40.53,0,0,1-1.08-9.64q0-6.4.45-12.52c.3-3.67.45-7.21.45-10.64l-.09-3.42q-.18-14.69-8-17a29,29,0,0,0-7.83-1.08,4.05,4.05,0,0,1-1.26-.36q-2.36-1-2.53-4.14a4,4,0,0,1,2.43-4.06,16.17,16.17,0,0,1,4.42-.63A26,26,0,0,0,873.29,471a74.73,74.73,0,0,0,7.65-7.93q9.46-11.81,14.42-11.81a4.75,4.75,0,0,1,3.42,1.13,3.08,3.08,0,0,1,1.18,1.94q-.19,4.23-1,10.45-.72,5.76-1.26,12.16h16.76a3.85,3.85,0,0,1,2.52,1.31,4.29,4.29,0,0,1,1.17,3.11q0,3.33-3.69,4.59H896.8q-.54,3.69-1.35,12.34a224,224,0,0,0-1.35,23.34q0,22.51,5.49,31,3.25,4.95,8.2,5a14.88,14.88,0,0,0,2.71-.27,13.3,13.3,0,0,0,5.58-3.7,19.69,19.69,0,0,1,3.2-2.61,6,6,0,0,1,3.29-1.08,4.69,4.69,0,0,1,4,2.25,6.62,6.62,0,0,1,.9,3.42,4.55,4.55,0,0,1-1.08,3.07,27.45,27.45,0,0,1-11.3,7.47A39,39,0,0,1,902,568.48Z"/><path class="cls-1" d="M420.4,728.83a66.71,66.71,0,0,1-34.33-9.46,60.5,60.5,0,0,1-23.38-23.47,70.71,70.71,0,0,1-8.42-32.2v-1.18a61.87,61.87,0,0,1,8.47-32.2,60.54,60.54,0,0,1,23.33-22.48,65.05,65.05,0,0,1,32.07-7.93h3.07a71,71,0,0,1,24.14,4.23,33.88,33.88,0,0,1,20.45,20.09,26.7,26.7,0,0,1,1.63,8.65,18.53,18.53,0,0,1-3,9.51c-2,3.33-5.39,5.9-10.14,7.7a24.87,24.87,0,0,1-8.92,1.8,18.63,18.63,0,0,1-4.14-.45q-8.74-2.25-8.74-7.47a8.57,8.57,0,0,1,.36-2.35,42.33,42.33,0,0,0,1.8-13,20.71,20.71,0,0,0-4-12.43q-4-5.51-14.69-5.59-13.87,2.7-20.81,11.89-8.3,10.9-8.29,27.12a77.33,77.33,0,0,0,3.51,22A71,71,0,0,0,401.84,694a48.43,48.43,0,0,0,18.83,15.54,21,21,0,0,0,8.29,2.17q6.57,0,8.91-10.27a45.44,45.44,0,0,0,1.18-10.1,62.92,62.92,0,0,0-.72-7.83q-.74-5.14-4.78-6h-.18a12.89,12.89,0,0,0-8.51,3.56,22.61,22.61,0,0,0-5.9,7.43,2.62,2.62,0,0,1-2.44,1.71q-1.35,0-1.35-1.8l-.09-19.46a4.93,4.93,0,0,1,1.35-3.78,4.37,4.37,0,0,1,3.07-1.26h16.84l9.55-.09q10.28.27,14.69,6.26t5.31,15.18a128.1,128.1,0,0,1,.81,14.5l-.09,6.22q0,6.4.45,11.8V719q0,4.88-2.61,6.85a7.06,7.06,0,0,1-4.59,1.53,11.58,11.58,0,0,1-3.07-.45,43.09,43.09,0,0,0-10-1.53c-.3,0-1.18,0-2.65.09a30,30,0,0,0-6.18,1.17A70,70,0,0,1,420.4,728.83Z"/><path class="cls-1" d="M473.46,727.22a3.84,3.84,0,0,1-2.53-1,4.1,4.1,0,0,1-1.53-3.33,5,5,0,0,1,1-3.06,12.92,12.92,0,0,1,2.25-2.62q5.78-4,8-26.93.72-8,.72-14.24a55.51,55.51,0,0,0-1.53-14.59q-2.43-9-7.21-10A4.62,4.62,0,0,1,469.4,647a4.86,4.86,0,0,1,.72-2.88,5.43,5.43,0,0,1,1.44-1.44,2.48,2.48,0,0,1,1-.45q35.42-5.5,36.58-5.5l1.08.09c1.2.06,1.81,1,1.81,2.7a17.91,17.91,0,0,1-.73,4.33q-4.05,13.88-4.5,22.07T506.34,678a88,88,0,0,0,.72,11.9q2.52,23,8.92,27.92v.09a4.8,4.8,0,0,1,2.07,2.44,5.57,5.57,0,0,1,.54,2.52,4.21,4.21,0,0,1-1.21,3.11,3.54,3.54,0,0,1-2.48,1.21Zm10.09-91.62a14.73,14.73,0,0,1-9.46-7.84,14.33,14.33,0,0,1-1.27-5.86,14.93,14.93,0,0,1,1.54-6.48,19.7,19.7,0,0,1,9.82-9.55,21.62,21.62,0,0,1,8.74-2,17.34,17.34,0,0,1,4.95.72,14.76,14.76,0,0,1,9.55,7.83,14.55,14.55,0,0,1,1.26,5.86,15.14,15.14,0,0,1-1.53,6.49,19.74,19.74,0,0,1-9.82,9.55,21.66,21.66,0,0,1-8.74,2A17.65,17.65,0,0,1,483.55,635.6Z"/><path class="cls-1" d="M615.16,719a39.9,39.9,0,0,1-10-18.78,44.06,44.06,0,0,1-1-9.64c0-4.33.14-8.54.41-12.66s.4-8.75.4-13.92a34.91,34.91,0,0,0-2.25-12,9,9,0,0,0-5.77-5.09,27.92,27.92,0,0,0-7.83-1.13,4.5,4.5,0,0,1-1.27-.31,4,4,0,0,1-1.71-1.31,4.83,4.83,0,0,1-.9-2.88,4.08,4.08,0,0,1,2.43-4,6.81,6.81,0,0,1,1.54-.45,62,62,0,0,0,9.64-1.17A28.89,28.89,0,0,0,609.08,630a72.48,72.48,0,0,0,7.65-8.06,81.2,81.2,0,0,1,9.82-10.09,6.62,6.62,0,0,1,4.42-1.63,5.67,5.67,0,0,1,3.69,1.18,2.72,2.72,0,0,1,1.08,1.89c-.18,2.82-.51,6.28-1,10.36q-.72,5.76-1.35,12.16h2a46.65,46.65,0,0,0,32.8-13.06q14.69-13.79,17.84-39.28a15.63,15.63,0,0,1,4.5-8.83A16.5,16.5,0,0,1,703,569.2a14.32,14.32,0,0,1,8.29,2.34q7.75,5.15,7.75,19a28.19,28.19,0,0,1-1.71,8.74q-6,14.24-20.9,24.42a120.17,120.17,0,0,1-32.8,15.63q-17.83,5.45-31.08,5.45-2.16,17.65-2.43,27.39l-.18,8.29q0,22.42,5.49,31,3.25,5,8.2,5a14.69,14.69,0,0,0,2.7-.27,14.1,14.1,0,0,0,5.59-3.79,19.31,19.31,0,0,1,3.15-2.57,5.88,5.88,0,0,1,3.16-1,4.63,4.63,0,0,1,4.14,2.25,6,6,0,0,1,1,3.33,4.55,4.55,0,0,1-1.08,3.07,27,27,0,0,1-11.44,7.56,40.85,40.85,0,0,1-13.51,2.35Q622.58,726.87,615.16,719Zm57.43,7.89a3.83,3.83,0,0,1-2.52-1,4.12,4.12,0,0,1-1.53-3.34,5,5,0,0,1,1-3.06,12.82,12.82,0,0,1,2.25-2.61q5.58-4.15,8-26.94.63-7.93.63-14.15A59.36,59.36,0,0,0,679,661.1q-2.43-9-7.21-10a4.62,4.62,0,0,1-3.24-4.42q0-3.15,2.16-4.41l.9-.36q35.49-5.49,36.67-5.5c1.5,0,2.36.36,2.57,1.08a6.53,6.53,0,0,1,.31,1.72,17.75,17.75,0,0,1-.72,4.32q-4,13.88-4.5,22.07t-.45,12.08a88,88,0,0,0,.72,11.89,102.78,102.78,0,0,0,3.38,17.93q2.2,7.38,5.45,10c0,.06,0,.1.13.13a4.79,4.79,0,0,1,.81.68,6,6,0,0,1,1.22,1.71,5.57,5.57,0,0,1,.54,2.52,4.22,4.22,0,0,1-1.22,3.11,3.53,3.53,0,0,1-2.47,1.22Z"/><path class="cls-1" d="M781.7,727.22A3.64,3.64,0,0,1,779,726a4.19,4.19,0,0,1-1.17-3,5.16,5.16,0,0,1,.54-2.34,10,10,0,0,1,1.08-1.76c.36-.45.57-.68.63-.68q4.51-3.24,7.25-14.82a99.65,99.65,0,0,0,2.75-23.2q0-14.13-4.77-18.91-4-4-8.29-4a11.59,11.59,0,0,0-2.43.27q-5.77,1.26-10.41,7.07t-5.72,14.91c-.06.91-.09,1.93-.09,3.07a86.67,86.67,0,0,0,3.69,24.77q2.18,7.49,5.68,10.45v.09a3.26,3.26,0,0,1,.9.73,6.33,6.33,0,0,1,1.8,4.68,4.58,4.58,0,0,1-1.3,2.7,3.41,3.41,0,0,1-2.48,1.17H725.31a3.84,3.84,0,0,1-2.53-1,4.1,4.1,0,0,1-1.53-3.33,5,5,0,0,1,1-3.06,12.92,12.92,0,0,1,2.25-2.62q5.68-4,7.93-26.93a135.69,135.69,0,0,0,.54-13.7,73.36,73.36,0,0,0-1.89-16.22q-1.8-7.56-6.58-9.28a4,4,0,0,1-2.34-1.57,4.51,4.51,0,0,1-.9-2.75,5.09,5.09,0,0,1,.72-2.93,4.66,4.66,0,0,1,1.44-1.44,2.59,2.59,0,0,1,1-.4L761,636.86c1.44,0,2.28.38,2.53,1.13a6.55,6.55,0,0,1,.36,1.66,32.91,32.91,0,0,1-1.36,6.49l-2.43,8.47a8,8,0,0,0,.81-1l.36-.45a50.9,50.9,0,0,1,13.38-11.58q7.53-4.46,12.25-5c3.16-.32,5.21-.49,6.18-.49a23.56,23.56,0,0,1,11.62,3.06q6.66,3.7,10.85,12.93t4.19,25.18c0,2-.12,4.63-.36,7.75q-.54,7.13-.54,13.33,0,15.06,5.5,19.19a6.49,6.49,0,0,1,2.7,5.68,4.06,4.06,0,0,1-1.12,2.66,3.34,3.34,0,0,1-2.57,1.3Z"/><path class="cls-1" d="M866.4,635.49a69.15,69.15,0,0,1,11.09.9c.72-7.81,4-16.17,11.08-20.9,6.54-4.17,17.45-6.17,21.08,2.37,3.64,8.36-2.54,20.53-16.17,16.35-6.18-2-9.09.19-10.18,3.46,15.81,4.72,24,16.17,24,31.62,0,13.45-6.36,24-18.35,29.44-20.91,13.09-32.35,17.45-32.35,33.81,0,16.17,11.08,24.71,24.89,24.71,11.82,0,22.18-6.18,22.18-14.54,0-7.81-8.73-6.9-14.72-1.27-9.27,8.91-23.63,4.18-23.81-10-.18-8.72,4.9-15.26,15.44-18,19.09-5.27,30.54,8.91,30.54,24.9,0,19.81-17.45,32.35-43.44,32.35C843,770.7,824.6,759.61,824.6,740c0-24.36,28.71-25.27,47.43-37.08a55.07,55.07,0,0,1-5.63.18c-26.72,0-41.07-13.63-41.07-33.8C825.33,648.94,839.68,635.49,866.4,635.49Zm12.54,58.7c4.36-2.36,4.18-11.09-4.36-27.81-9.27-18-16.9-23.26-21.63-20.72-4.54,2.37-4.54,10.91,4.54,28.17S874.21,696.73,878.94,694.19Z"/><path class="cls-1" d="M418,526.56c-3.06-13.47-14.48-25.35-26.59-31.83-9.4-5-19.73-8.05-30.06-10.69,9.74.34,19.76.64,29-2.56s17.59-10.72,18.87-20.39c1.15-8.68-3.49-17.09-9-23.9a88.5,88.5,0,0,0-30.94-24.31c-10.51-5-29.29-12.78-36.46,1.74a14.17,14.17,0,0,0-1.22,5.94c-.16,7.21,2.46,13.74,4.16,20.61l4,16c.95,3.84,1.73,7.72,2.86,11.5.63,2.12,2.35,5.87,1.35,8.08-1.41,3.07-13.74-3.33-16.1-4.83a37.55,37.55,0,0,1-12.22-12.47c-3.16-5.33-5-11.39-8.44-16.53s-9.37-9.42-15.46-8.3c-6.45,1.18-10.59,8.26-10.25,14.81s4.12,12.45,8.59,17.25a60.85,60.85,0,0,0,44.61,19.16c-10.55,7-21.28,14.12-29.22,24-5.69,7.06-9.83,15.77-10.53,24.88-.62,8,2.15,18,10.87,20.42a13.54,13.54,0,0,0,13.31-3.72c3.37-3.61,4.46-8.82,4.53-13.76s-.76-9.87-.58-14.81a37.63,37.63,0,0,1,23.84-33c-.92,13.21-6.34,25.58-11.54,37.57-4,9.2-11.4,21-6.82,31.31,3.79,8.56,15.4,9.15,23.44,8.93,21.56-.6,51.88,3,63.56-20.36A30.26,30.26,0,0,0,418,526.56Zm-63-48.73a2,2,0,0,1-.82-.81c-.85-1.61-.08-4.95,0-6.7.3-4.91.85-9.8,1.6-14.65.85-5.56,1.78-12.19,4.42-17.21,3.42-6.52,11.53-4.09,16.42-.82,5.67,3.8,8.53,10.77,8.66,17.42.15,7.84-3.57,14-10.06,18.33-4.8,3.2-10.25,4-15.81,4.73C358.18,478.28,356.21,478.51,355,477.83Zm37.1,59c-.1.15-.19.3-.3.45-3.73,5.5-10.77,9-17.22,7.35a17.76,17.76,0,0,1-9.38-6.46,37.55,37.55,0,0,1-6.79-15,166.34,166.34,0,0,1-2.94-18.32c-.34-3.27-.61-6.53-.8-9.82-.08-1.45,0-3.63,1.18-4.71,1.52-1.44,4.67-.49,6.46,0,8.34,2.12,16.71,4.75,23.11,10.8a32.77,32.77,0,0,1,9.28,15.5,29,29,0,0,1,.71,10.65A22.71,22.71,0,0,1,392.09,536.85Z"/><path class="cls-1" d="M815.15,783.08l-1.37-1.36,1.54-1.55a5.05,5.05,0,0,1-5.05-1.58,6.52,6.52,0,0,1-2-5,8.26,8.26,0,0,1,2.75-5.66,9.44,9.44,0,0,1,5.85-3,6.5,6.5,0,0,1,5.44,2,5.77,5.77,0,0,1,1.89,4.26,6,6,0,0,1-1.77,4.13l-2-2a3.41,3.41,0,0,0,1-2.2,3,3,0,0,0-1-2.39,3.79,3.79,0,0,0-3.31-1.08,6.9,6.9,0,0,0-3.83,2.13,6.4,6.4,0,0,0-2.06,3.81,3.83,3.83,0,0,0,1.13,3.28,3.58,3.58,0,0,0,5.36-.18l.21-.2-2.87-2.87,1.68-1.68,4.72,4.72Z"/><path class="cls-1" d="M825.22,776.88l2.14,1.59-6.5,8.78-2.14-1.59Zm3-4,2.14,1.58L828.48,777l-2.14-1.58Z"/><path class="cls-1" d="M824.47,789.73l4.49-7.47-1.13-.68,1.14-1.89,1.13.68.9-1.5c1.49-2.48,3.28-3.1,5.32-1.87s2.08,3.16.76,5.37l-1.79-1.08c.65-1.1.67-1.83,0-2.22s-1.31,0-2,1l-1,1.64,3.18,1.92-1.14,1.88-3.18-1.91-4.49,7.47Z"/><path class="cls-1" d="M841.19,782l-1.58,3.54,3.94,1.75-.9,2-3.93-1.74-1.81,4.06c-.62,1.39-.6,2.15.33,2.56.75.33,1.55-.23,2.1-1.46l1.89.84c-1.07,2.41-2.92,3.61-5.11,2.64a3.28,3.28,0,0,1-2.25-2.55,5.61,5.61,0,0,1,.61-3.11l1.8-4.07-1.21-.53.9-2,.46.21c1.08.47,1.68-.31,2.86-3Z"/><path class="cls-1" d="M845.55,787.89l2.53.83-3.4,10.38-2.53-.83Zm1.55-4.74,2.53.83-1,2.94-2.53-.83Z"/><path class="cls-1" d="M850.62,789.61l2.48.48-.43,2.19a4,4,0,0,1,4.3-1.71c2.41.47,3.15,2.51,2.62,5.28l-1.24,6.39-2.62-.5,1.15-6c.35-1.76-.21-2.94-1.58-3.21a2.2,2.2,0,0,0-1.89.54,3.33,3.33,0,0,0-1.15,2l-1.11,5.75-2.62-.51Z"/><path class="cls-1" d="M869.73,792.14a3.72,3.72,0,0,1,3.4-2.06l-.06,2.28a3.1,3.1,0,0,0-2.17.7,3.36,3.36,0,0,1,.82,2.41c-.05,2.34-1.91,3.8-4.71,3.73a6.86,6.86,0,0,1-2.08-.37c-.53.12-.79.41-.8.85,0,.59.41.89,1.27.92l2.07,0c3,.07,4.91,1.41,4.85,4s-2.2,4.18-5.86,4.08c-3.1-.07-4.82-1.46-4.76-3.55a2.75,2.75,0,0,1,2-2.64,2.07,2.07,0,0,1-1.7-2.18,2.22,2.22,0,0,1,1.92-2.09,3.36,3.36,0,0,1-1.38-3c.06-2.37,1.91-3.78,4.73-3.71A5.84,5.84,0,0,1,869.73,792.14Zm-2.92,10.68c-1.73-.05-2.82.54-2.85,1.72s.89,1.89,2.76,1.94,2.9-.59,2.93-1.84S868.74,802.86,866.81,802.82Zm2.55-7.39a2.07,2.07,0,0,0-2.18-2.1,2,2,0,0,0-2.28,2,2,2,0,0,0,2.18,2.08A2,2,0,0,0,869.36,795.43Z"/><path class="cls-1" d="M878,791.86l2.85-.72,4.35,6.57.65-7.82,1.76-.44,4.45,6.49.61-7.76,2.61-.66-1.52,11.65-1.94.49-4.18-6-.77,7.21-1.92.49Z"/><path class="cls-1" d="M894.26,782l2.45-1,1.21,2.84-2.44,1.05Zm2,4.59,2.45-1.05L903,795.59l-2.45,1Z"/><path class="cls-1" d="M901.73,779.68l1.87,3.39,3.77-2.08,1.07,1.93L904.67,785l2.15,3.88c.73,1.34,1.35,1.78,2.24,1.28.72-.39.75-1.37.1-2.55l1.81-1c1.28,2.31,1.12,4.51-1,5.66a3.3,3.3,0,0,1-3.39.27,5.56,5.56,0,0,1-2.11-2.37l-2.15-3.89-1.16.64L900.12,785l.43-.25c1-.57.78-1.51-.63-4.07Z"/><path class="cls-1" d="M905.56,775.29l2.1-1.63,4.79,6.2a4,4,0,0,1,1.6-4.08c1.94-1.5,4-.71,5.7,1.53l4,5.15-2.11,1.63-3.7-4.79c-1.1-1.43-2.36-1.78-3.46-.93a2.18,2.18,0,0,0-.84,1.77,3.26,3.26,0,0,0,.73,2.17l3.58,4.63-2.11,1.63Z"/><path class="cls-1" d="M928.11,770.32a2.92,2.92,0,0,0,4.39-.59c1-1.29,1-2.62-.07-3.48-1.43-1.13-3.1.22-5,1.39-1.3.81-2.46,1.54-3.92,1.43a3.79,3.79,0,0,1-2.09-.87,4.14,4.14,0,0,1-1.7-3.29,5.89,5.89,0,0,1,1.44-3.84,5.5,5.5,0,0,1,3.49-2.21,4.56,4.56,0,0,1,3.6,1L926.63,762a2.43,2.43,0,0,0-3.55.59c-.89,1.13-.92,2.41,0,3.16,2.65,2.09,6.5-5.54,11.06-1.94a4.44,4.44,0,0,1,1.82,3.38,6.13,6.13,0,0,1-1.56,4.17,6.38,6.38,0,0,1-3.86,2.54,5.2,5.2,0,0,1-4.28-1.26Z"/><path class="cls-1" d="M932.14,754a5.15,5.15,0,0,1,3.27-2.66,6,6,0,0,1,4.33.65,5.83,5.83,0,0,1,2.9,3.25,5,5,0,0,1-.4,4.2,5,5,0,0,1-3.28,2.63,5.76,5.76,0,0,1-4.32-.62,5.84,5.84,0,0,1-2.91-3.28A5,5,0,0,1,932.14,754Zm1.94,1a2.23,2.23,0,0,0,0,2.14,4.19,4.19,0,0,0,1.89,1.83,4.14,4.14,0,0,0,2.54.56,2.19,2.19,0,0,0,1.76-1.22,2.25,2.25,0,0,0,0-2.15,4.18,4.18,0,0,0-1.86-1.78,4.31,4.31,0,0,0-2.55-.6A2.26,2.26,0,0,0,934.08,755Z"/><path class="cls-1" d="M938,740.77l.85-2.53,10.36,3.49-.8,2.39-2-.65a3.65,3.65,0,0,1,1.06,4.15c-.84,2.48-3,3-5.67,2.13l-6.17-2.08.85-2.52,5.82,2c1.77.6,2.89.2,3.36-1.18s-.56-2.76-2.44-3.39Z"/><path class="cls-1" d="M950.56,735.14l-.53,2.61-16.44-3.35.53-2.61Z"/></svg>