<svg id="Layer_1" data-name="Layer 1" xmlns="http://www.w3.org/2000/svg" xmlns:xlink="http://www.w3.org/1999/xlink" viewBox="0 0 1232 1215"><defs><style>.cls-1{fill:none;}.cls-2{fill:#ffe9d0;}.cls-3{fill:url(#New_Pattern_6);}</style><pattern id="New_Pattern_6" data-name="New Pattern 6" width="257.79" height="155" patternTransform="translate(34.21)" patternUnits="userSpaceOnUse" viewBox="0 0 257.79 155"><rect class="cls-1" width="257.79" height="155"/><path class="cls-2" d="M250.65,141.52a.71.71,0,0,0,.5-.24.84.84,0,0,0,.24-.62,1.12,1.12,0,0,0-.11-.5,1,1,0,0,0-.41-.49v0q-1.29-1-1.82-5.87c-.14-1.66-.21-3.34-.21-5.05l0-1.12v-1.44h4.06a.84.84,0,0,0,.52-.32.94.94,0,0,0,0-1.16.88.88,0,0,0-.52-.31h-4.08l0-1.5q0-.73.06-1.83a6.83,6.83,0,0,1,.45-2.16,1.75,1.75,0,0,1,1.38-1.24h.21a.77.77,0,0,1,.54.18.59.59,0,0,1,.2.48,1.51,1.51,0,0,1-.2.58,5.94,5.94,0,0,0-.39.87,4,4,0,0,0-.22,1,2.61,2.61,0,0,0,.67,1.68,2.21,2.21,0,0,0,1.83.82h.11a2.38,2.38,0,0,0,1.78-1,3,3,0,0,0,.57-1.86v-.19a4.37,4.37,0,0,0-1.47-3.2,5.54,5.54,0,0,0-3.52-1.26l-.61,0a8.87,8.87,0,0,0-3.65.7,4.35,4.35,0,0,0-2.3,2.52,7.87,7.87,0,0,0-.45,2.82l0,.58c0,.09,0,.35.07.77.06.6.09,1,.09,1.15l-2.3,0a.91.91,0,0,0-.53,1.47.84.84,0,0,0,.53.32h2.39q0,.78,0,2.16c0,.31,0,.9,0,1.77s-.08,2.07-.22,3.6l0,.45c-.3,3-.82,4.83-1.58,5.38a1.45,1.45,0,0,0-.65,1.17.84.84,0,0,0,.31.63.7.7,0,0,0,.49.19Z"/><path class="cls-2" d="M226,110a8.09,8.09,0,0,0,2.6-.42,18.49,18.49,0,0,0,3.06-1.42,2.67,2.67,0,0,0,1.94,1.64,5.52,5.52,0,0,0,1,.09,11.32,11.32,0,0,0,3.94-1,1.09,1.09,0,0,0,.77-1,1.27,1.27,0,0,0-.15-.56.63.63,0,0,0-.62-.31,1.39,1.39,0,0,1-1-.35,2.12,2.12,0,0,1-.49-1.26c-.08-1-.13-2-.13-3.1,0-.7,0-1.41.05-2.12s0-1.32,0-1.85a6.44,6.44,0,0,0-2-4.8,8.28,8.28,0,0,0-5.94-2q-5.53,0-6.93,3.85a2.76,2.76,0,0,0-.15.88,2.94,2.94,0,0,0,.43,1.42,2.22,2.22,0,0,0,1.66,1,2.42,2.42,0,0,0,.47,0,3.57,3.57,0,0,0,1.89-.59,2.24,2.24,0,0,0,1-1.8,5.26,5.26,0,0,0-.07-.89,4.73,4.73,0,0,1-.07-.8c0-.1,0-.25,0-.46a.9.9,0,0,1,.44-.62,2.18,2.18,0,0,1,1.22-.25h.21a2.33,2.33,0,0,1,1.74.74,3,3,0,0,1,.6,1.63c0,.41.05.84.05,1.28v.81a27.31,27.31,0,0,1-2.77,1,30.21,30.21,0,0,0-3.59,1.29,8,8,0,0,0-2.92,2.12,5.11,5.11,0,0,0-1.06,3.35v.27a4.67,4.67,0,0,0,1.19,2.82,4,4,0,0,0,2.53,1.38A10,10,0,0,0,226,110Zm3.7-3.08a1.76,1.76,0,0,1-1.27-.56,3.28,3.28,0,0,1-.65-2.21,3.71,3.71,0,0,1,1.05-2.51,10.9,10.9,0,0,1,2.69-2.11l0,3.13,0,1.06a9.53,9.53,0,0,1-.21,2,1.43,1.43,0,0,1-1.28,1.14Z"/><path class="cls-2" d="M242.83,109.54l3.87,0a2.26,2.26,0,0,0,1.87-.55,1.64,1.64,0,0,0,.07-1.66,11.27,11.27,0,0,0-1-1.44,6.74,6.74,0,0,1-.36-6.28c.81-1.86,2.34-3.12,3.75-4.49,1.81-1.75,4.39-3.81,7.05-3,1,.3,1.91,1.14,2.94,1.33a3.81,3.81,0,0,0,2.83-.34,3.29,3.29,0,0,0,1.26-3.59,4,4,0,0,0-1.71-2.45,6.68,6.68,0,0,0-3.9-1,9.12,9.12,0,0,0-4.64,1.76c-2.62,1.82-4.59,4.4-6.58,6.85-.35.44-.79.79-1.11,1.26-.14-1.14,1.34-2.43.59-3.61-.51-.81-1.8-.88-2.63-.77l-3.36.42a2.39,2.39,0,0,0-1.88.86c-.41.72,0,1.6.4,2.35a12.83,12.83,0,0,1,1.29,5.13,13.52,13.52,0,0,1-1.21,6.17c-.32.69-1,1.61-.49,2.37a1.24,1.24,0,0,0,.28.28A5.2,5.2,0,0,0,242.83,109.54Z"/><path class="cls-2" d="M257.65,109.91a7.31,7.31,0,0,0,3.63-.94,8.24,8.24,0,0,0,2.35-2.16,1.06,1.06,0,0,0,.2-.57s0-.08,0-.19a.58.58,0,0,0-.23-.35.72.72,0,0,0-.5-.2h-.18a.64.64,0,0,0-.38.26,6.25,6.25,0,0,1-2.14,1.69,4,4,0,0,1-1.66.39,3.14,3.14,0,0,1-.68-.07,3.25,3.25,0,0,1-1.82-1.19,5.41,5.41,0,0,1-1-2l.55-.19c.82-.27,1.76-.62,2.8-1.05a12.73,12.73,0,0,0,2.84-1.61,4.67,4.67,0,0,0,1.72-2.31,2.83,2.83,0,0,0,.09-.68,2.93,2.93,0,0,0-.62-1.67,4.94,4.94,0,0,0-2.09-1.53,8.28,8.28,0,0,0-3.4-.66,8.62,8.62,0,0,0-5.22,1.66,6.84,6.84,0,0,0-2.48,3.75,7.67,7.67,0,0,0-.25,2,9.71,9.71,0,0,0,.57,3,6.76,6.76,0,0,0,2.61,3.19A8.8,8.8,0,0,0,257.65,109.91Zm-2-7.59a4.12,4.12,0,0,1-.79.58c0-.38-.09-.74-.13-1.12-.16-1.66.12-3.66,1.57-4.72a1.6,1.6,0,0,1,1.18-.37,1.38,1.38,0,0,1,1,.64,1.84,1.84,0,0,1,.23.89,2.1,2.1,0,0,1-.13.71,7.6,7.6,0,0,1-1.83,2.44C256.42,101.69,256.06,102,255.69,102.32Z"/><path class="cls-2" d="M224.57,141.42a5.87,5.87,0,0,1,1.23-.23l.53,0a8.72,8.72,0,0,1,2,.3,2.31,2.31,0,0,0,.61.09,1.43,1.43,0,0,0,.92-.3,1.62,1.62,0,0,0,.52-1.37v-.25c-.06-.72-.09-1.5-.09-2.35l0-1.24a25.12,25.12,0,0,0-.16-2.9,6,6,0,0,0-1.06-3,3.57,3.57,0,0,0-2.93-1.25l-1.91,0h-3.36a.9.9,0,0,0-.61.25,1,1,0,0,0-.27.76l0,3.88q0,.36.27.36a.5.5,0,0,0,.48-.34,4.53,4.53,0,0,1,1.18-1.48,2.55,2.55,0,0,1,1.7-.71h0a1.25,1.25,0,0,1,.95,1.2,13.08,13.08,0,0,1,.14,1.56,9.48,9.48,0,0,1-.23,2c-.31,1.36-.91,2.05-1.78,2.05a4.15,4.15,0,0,1-1.65-.44,9.57,9.57,0,0,1-3.76-3.1,14,14,0,0,1-2.28-4.46,15.33,15.33,0,0,1-.7-4.39,8.71,8.71,0,0,1,1.65-5.41,6.53,6.53,0,0,1,4.15-2.37,3.43,3.43,0,0,1,2.93,1.11,4.12,4.12,0,0,1,.79,2.48,8.4,8.4,0,0,1-.36,2.59,1.67,1.67,0,0,0-.07.47c0,.69.58,1.19,1.74,1.49a3.77,3.77,0,0,0,.83.09,5,5,0,0,0,1.78-.36,3.83,3.83,0,0,0,2-1.53,3.72,3.72,0,0,0,.6-1.9,5.23,5.23,0,0,0-.32-1.73,6.71,6.71,0,0,0-4.08-4,14,14,0,0,0-4.82-.85h-.61a13.06,13.06,0,0,0-6.4,1.58,12.16,12.16,0,0,0-4.65,4.49,12.31,12.31,0,0,0-1.69,6.42v.24a14,14,0,0,0,1.68,6.42,12,12,0,0,0,4.66,4.68,13.32,13.32,0,0,0,6.85,1.89A14,14,0,0,0,224.57,141.42Z"/><path class="cls-2" d="M239.92,141.53a.71.71,0,0,0,.49-.24.84.84,0,0,0,.24-.62,1.06,1.06,0,0,0-.11-.51.91.91,0,0,0-.41-.48v0q-1.27-1-1.78-5.57a18.66,18.66,0,0,1-.14-2.37c0-.52,0-1.32.09-2.41a20.86,20.86,0,0,1,.9-4.41,3.76,3.76,0,0,0,.14-.86q0-.53-.36-.54l-.22,0q-.22,0-7.29,1.1a.5.5,0,0,0-.2.09,1.13,1.13,0,0,0-.29.29,1,1,0,0,0-.14.57.91.91,0,0,0,.65.88c.63.14,1.11.8,1.43,2a10.79,10.79,0,0,1,.31,2.91c0,.83,0,1.77-.14,2.84-.3,3.06-.84,4.85-1.6,5.37a2.26,2.26,0,0,0-.45.53,1,1,0,0,0-.2.61.83.83,0,0,0,.3.66.8.8,0,0,0,.51.2Zm-5.25-18.14a4.37,4.37,0,0,0,1.74-.39,3.92,3.92,0,0,0,2-1.91,3.05,3.05,0,0,0,.31-1.29,2.84,2.84,0,0,0-.26-1.17,2.93,2.93,0,0,0-1.9-1.56,3.35,3.35,0,0,0-1-.15,4.39,4.39,0,0,0-1.74.4,3.91,3.91,0,0,0-2,1.9,3,3,0,0,0-.31,1.3,3.08,3.08,0,0,0,.25,1.17,3,3,0,0,0,1.89,1.56A3.38,3.38,0,0,0,234.67,123.39Z"/><path class="cls-2" d="M264.33,141.57a8.25,8.25,0,0,0,2.7-.47,5.5,5.5,0,0,0,2.28-1.51.92.92,0,0,0,.21-.61,1.24,1.24,0,0,0-.19-.67.94.94,0,0,0-.83-.45,1.18,1.18,0,0,0-.63.21,3.71,3.71,0,0,0-.63.51,2.87,2.87,0,0,1-1.11.76,3.5,3.5,0,0,1-.54,0,1.89,1.89,0,0,1-1.64-1q-1.09-1.69-1.09-6.18l0-1.65c0-1.3.2-3.12.49-5.47a21.79,21.79,0,0,0,6.2-1.08,24.33,24.33,0,0,0,6.54-3.12,11.12,11.12,0,0,0,4.17-4.87,5.49,5.49,0,0,0,.34-1.75c0-1.84-.51-3.11-1.54-3.79a2.9,2.9,0,0,0-1.66-.47,3.29,3.29,0,0,0-2.48,1.08,3.21,3.21,0,0,0-.9,1.76,12.38,12.38,0,0,1-3.56,7.84,9.28,9.28,0,0,1-6.54,2.61h-.39q.12-1.28.27-2.43c.09-.81.16-1.5.19-2.07a.53.53,0,0,0-.21-.37,1.12,1.12,0,0,0-.74-.24,1.3,1.3,0,0,0-.88.33,16.73,16.73,0,0,0-2,2,14.65,14.65,0,0,1-1.53,1.61,5.85,5.85,0,0,1-2,1.14,11.81,11.81,0,0,1-1.92.23,1.26,1.26,0,0,0-.31.09.82.82,0,0,0-.48.79.93.93,0,0,0,.18.58.8.8,0,0,0,.34.26.93.93,0,0,0,.25.06,5.63,5.63,0,0,1,1.57.23,1.84,1.84,0,0,1,1.15,1,7,7,0,0,1,.44,2.39c0,1,0,2-.08,2.78s-.08,1.66-.08,2.53a8.91,8.91,0,0,0,.2,1.92,8,8,0,0,0,2,3.75A6.18,6.18,0,0,0,264.33,141.57Zm15.31-.11a.71.71,0,0,0,.5-.24.86.86,0,0,0,.24-.62,1.16,1.16,0,0,0-.11-.51,1.14,1.14,0,0,0-.24-.34c-.09-.08-.14-.13-.16-.13l0,0a4.09,4.09,0,0,1-1.09-2,20.36,20.36,0,0,1-.67-3.57,17,17,0,0,1-.14-2.38q0-.76.09-2.4a20.72,20.72,0,0,1,.89-4.41,3.37,3.37,0,0,0,.15-.86,1.07,1.07,0,0,0-.07-.34c0-.15-.21-.22-.51-.22s-2.59.37-7.31,1.1l-.18.07a.93.93,0,0,0-.43.88.89.89,0,0,0,.18.55.9.9,0,0,0,.46.33c.64.13,1.12.8,1.44,2a11.88,11.88,0,0,1,.29,2.93c0,.82,0,1.76-.13,2.82q-.48,4.54-1.6,5.37a3.11,3.11,0,0,0-.45.52,1,1,0,0,0-.19.62.83.83,0,0,0,.3.66.8.8,0,0,0,.51.2Z"/><path class="cls-2" d="M220.09,105.62c-2.33,4.65-8.38,3.94-12.68,4.06-1.6,0-3.92-.08-4.68-1.78-.91-2.07.57-4.42,1.36-6.25a23.34,23.34,0,0,0,2.31-7.5,7.52,7.52,0,0,0-4.76,6.59c0,1,.13,2,.11,3a4.07,4.07,0,0,1-.9,2.75,2.72,2.72,0,0,1-2.65.74c-1.74-.49-2.3-2.48-2.17-4.08a9.15,9.15,0,0,1,2.1-5A24.53,24.53,0,0,1,204,93.37a12.12,12.12,0,0,1-8.9-3.82,5.73,5.73,0,0,1-1.72-3.44,2.84,2.84,0,0,1,2-3,3.27,3.27,0,0,1,3.08,1.66c.69,1,1.06,2.23,1.69,3.3a7.58,7.58,0,0,0,2.43,2.48c.48.3,2.94,1.58,3.22,1,.2-.44-.15-1.19-.27-1.62-.23-.75-.38-1.52-.57-2.29l-.79-3.19a15.63,15.63,0,0,1-.83-4.11,2.85,2.85,0,0,1,.24-1.19c1.43-2.89,5.18-1.33,7.28-.34A17.68,17.68,0,0,1,217,83.67a6.53,6.53,0,0,1,1.79,4.77,5.36,5.36,0,0,1-3.76,4.06,16,16,0,0,1-5.78.52,26,26,0,0,1,6,2.13,10.43,10.43,0,0,1,5.3,6.35A6.07,6.07,0,0,1,220.09,105.62ZM208.9,91.83a7,7,0,0,0,3.15-.94,4.15,4.15,0,0,0,2-3.66,4.29,4.29,0,0,0-1.73-3.47c-1-.65-2.59-1.14-3.28.16a11.56,11.56,0,0,0-.88,3.43c-.15,1-.26,2-.32,2.93a3.14,3.14,0,0,0,0,1.33.44.44,0,0,0,.16.17A1.59,1.59,0,0,0,208.9,91.83Zm7.18,9.81a5.82,5.82,0,0,0-.15-2.12,6.46,6.46,0,0,0-1.85-3.1,10.06,10.06,0,0,0-4.61-2.15c-.35-.09-1-.28-1.29,0a1.24,1.24,0,0,0-.23.94c0,.65.09,1.3.16,2a34.83,34.83,0,0,0,.58,3.66,7.6,7.6,0,0,0,1.36,3,3.6,3.6,0,0,0,1.87,1.29,3.36,3.36,0,0,0,3.44-1.47l.06-.09A4.73,4.73,0,0,0,216.08,101.64Z"/><path class="cls-2" d="M16.77,109.55a.69.69,0,0,0,.49-.24.85.85,0,0,0,.25-.62,1.12,1.12,0,0,0-.11-.5.91.91,0,0,0-.42-.49v0q-1.29-1-1.81-5.87C15,100.15,15,98.47,15,96.75l0-1.11V94.2H19a.86.86,0,0,0,.52-.32.87.87,0,0,0,.2-.58.89.89,0,0,0-.72-.89H15l0-1.5c0-.49,0-1.1.05-1.83a7.26,7.26,0,0,1,.46-2.17,1.76,1.76,0,0,1,1.37-1.23H17a.81.81,0,0,1,.54.17.65.65,0,0,1,.2.49,1.41,1.41,0,0,1-.21.58,5.94,5.94,0,0,0-.39.87,3.63,3.63,0,0,0-.21,1,2.67,2.67,0,0,0,.66,1.68,2.27,2.27,0,0,0,1.84.82h.1a2.39,2.39,0,0,0,1.78-1,2.92,2.92,0,0,0,.58-1.85v-.19a4.39,4.39,0,0,0-1.47-3.2,5.57,5.57,0,0,0-3.53-1.26l-.61,0a8.9,8.9,0,0,0-3.65.7,4.39,4.39,0,0,0-2.3,2.52,7.87,7.87,0,0,0-.45,2.82l0,.57a6.49,6.49,0,0,1,.07.78c.06.6.09,1,.09,1.15l-2.3,0a.93.93,0,0,0-.53.31.85.85,0,0,0-.2.58.87.87,0,0,0,.2.58,1,1,0,0,0,.53.32h2.39c0,.52,0,1.24,0,2.16,0,.31,0,.9,0,1.77s-.08,2.07-.23,3.6l0,.45c-.3,3-.83,4.83-1.58,5.38a1.45,1.45,0,0,0-.65,1.17.79.79,0,0,0,.31.62.65.65,0,0,0,.48.2Z"/><path class="cls-2" d="M17.65,101.55c0,5.1,3.31,8.28,8.28,8.28s8.25-3.18,8.25-8.28-3.3-8.31-8.25-8.31S17.65,96.42,17.65,101.55Zm6.12,1c-2.29-4.39-2.29-6.55-1.15-7.17s3.1.71,5.47,5.31c2.2,4.27,2.26,6.46,1.12,7.08S26.12,107,23.77,102.51Z"/><path class="cls-2" d="M34.89,101.55c0,5.1,3.31,8.28,8.29,8.28s8.25-3.18,8.25-8.28-3.31-8.31-8.25-8.31S34.89,96.42,34.89,101.55Zm6.12,1c-2.28-4.39-2.28-6.55-1.14-7.17s3.09.71,5.47,5.31c2.2,4.27,2.26,6.46,1.11,7.08S43.36,107,41,102.51Z"/><path class="cls-2" d="M-14.95,109.54l3.86,0A2.25,2.25,0,0,0-9.22,109a1.64,1.64,0,0,0,.07-1.66,11.27,11.27,0,0,0-1-1.44,6.74,6.74,0,0,1-.36-6.28c.81-1.86,2.35-3.12,3.76-4.49,1.8-1.75,4.38-3.81,7-3,1,.3,1.92,1.14,2.94,1.33a3.81,3.81,0,0,0,2.83-.34,3.31,3.31,0,0,0,1.27-3.59,4,4,0,0,0-1.72-2.45,6.66,6.66,0,0,0-3.9-1,9.12,9.12,0,0,0-4.64,1.76c-2.62,1.82-4.59,4.4-6.58,6.85-.35.44-.79.79-1.11,1.26-.14-1.14,1.34-2.43.59-3.61-.5-.81-1.79-.88-2.63-.77L-16,92a2.35,2.35,0,0,0-1.87.86c-.41.72,0,1.6.39,2.35a12.83,12.83,0,0,1,1.29,5.13,13.39,13.39,0,0,1-1.21,6.17c-.32.69-1,1.61-.49,2.37a1.48,1.48,0,0,0,.28.28A5.24,5.24,0,0,0-14.95,109.54Z"/><path class="cls-2" d="M-.13,109.91A7.3,7.3,0,0,0,3.49,109a8,8,0,0,0,2.35-2.16,1,1,0,0,0,.2-.57s0-.08,0-.19a.58.58,0,0,0-.23-.35.71.71,0,0,0-.49-.2H5.12a.67.67,0,0,0-.38.26,6.25,6.25,0,0,1-2.14,1.69,4,4,0,0,1-1.66.39,3.21,3.21,0,0,1-.68-.07,3.32,3.32,0,0,1-1.82-1.19,5.41,5.41,0,0,1-1-2l.55-.19c.83-.27,1.76-.62,2.8-1.05a12.8,12.8,0,0,0,2.85-1.61,4.7,4.7,0,0,0,1.71-2.31,2.83,2.83,0,0,0,.09-.68,3,3,0,0,0-.61-1.67,5,5,0,0,0-2.1-1.53,8.25,8.25,0,0,0-3.4-.66,8.66,8.66,0,0,0-5.22,1.66,6.89,6.89,0,0,0-2.48,3.75,7.67,7.67,0,0,0-.25,2,9.47,9.47,0,0,0,.58,3,6.73,6.73,0,0,0,2.6,3.19A8.83,8.83,0,0,0-.13,109.91Zm-2-7.59a4.46,4.46,0,0,1-.79.58c0-.38-.1-.74-.13-1.12-.16-1.66.12-3.66,1.56-4.72a1.61,1.61,0,0,1,1.19-.37,1.36,1.36,0,0,1,1,.64,1.74,1.74,0,0,1,.23.89,2.1,2.1,0,0,1-.13.71A7.56,7.56,0,0,1-1,101.37C-1.37,101.69-1.72,102-2.09,102.32Z"/><path class="cls-2" d="M59.36,109.86a7.93,7.93,0,0,0,2.62-.47,5.45,5.45,0,0,0,2.25-1.49.93.93,0,0,0,.22-.61,1.3,1.3,0,0,0-.18-.68,1,1,0,0,0-.81-.45,1.22,1.22,0,0,0-.66.21,5,5,0,0,0-.64.52,2.56,2.56,0,0,1-1.11.74,2.59,2.59,0,0,1-.54.05,1.91,1.91,0,0,1-1.64-1q-1.09-1.7-1.09-6.19a44.48,44.48,0,0,1,.27-4.65q.16-1.73.27-2.46h3.52a.94.94,0,0,0,.74-.92.84.84,0,0,0-.24-.62.75.75,0,0,0-.5-.26H58.5c.07-.85.15-1.66.25-2.43s.17-1.52.2-2.08a.61.61,0,0,0-.24-.39.93.93,0,0,0-.68-.22c-.66,0-1.62.78-2.88,2.35a14.25,14.25,0,0,1-1.52,1.58,5.21,5.21,0,0,1-3.36,1.35,3.08,3.08,0,0,0-.89.13.79.79,0,0,0-.48.8.86.86,0,0,0,.5.83.79.79,0,0,0,.25.07,6,6,0,0,1,1.57.22c1,.31,1.57,1.44,1.6,3.4l0,.68c0,.68,0,1.39-.09,2.12s-.09,1.65-.09,2.5a8.31,8.31,0,0,0,.21,1.92,7.93,7.93,0,0,0,2,3.77,6.06,6.06,0,0,0,4.43,1.66Z"/><path class="cls-2" d="M6.54,141.57a8.25,8.25,0,0,0,2.7-.47,5.38,5.38,0,0,0,2.28-1.51.93.93,0,0,0,.22-.61,1.25,1.25,0,0,0-.2-.67.93.93,0,0,0-.83-.45,1.18,1.18,0,0,0-.63.21,4.7,4.7,0,0,0-.63.51,2.8,2.8,0,0,1-1.11.76,3.5,3.5,0,0,1-.54,0,1.9,1.9,0,0,1-1.64-1q-1.1-1.69-1.09-6.18l0-1.65c0-1.3.2-3.12.49-5.47a21.79,21.79,0,0,0,6.2-1.08,24.33,24.33,0,0,0,6.54-3.12A11.12,11.12,0,0,0,22.5,116a5.49,5.49,0,0,0,.34-1.75c0-1.84-.51-3.11-1.54-3.79a2.88,2.88,0,0,0-1.65-.47,3.31,3.31,0,0,0-2.49,1.08,3.13,3.13,0,0,0-.89,1.76,12.43,12.43,0,0,1-3.56,7.84,9.31,9.31,0,0,1-6.55,2.61H5.77q.12-1.28.27-2.43c.09-.81.16-1.5.2-2.07a.55.55,0,0,0-.22-.37,1.12,1.12,0,0,0-.74-.24,1.32,1.32,0,0,0-.88.33,17.53,17.53,0,0,0-2,2,14.57,14.57,0,0,1-1.52,1.61,5.94,5.94,0,0,1-2,1.14A12.13,12.13,0,0,1-3,123.5a1.21,1.21,0,0,0-.3.09.81.81,0,0,0-.49.79.93.93,0,0,0,.18.58.8.8,0,0,0,.34.26,1,1,0,0,0,.25.06,5.63,5.63,0,0,1,1.57.23,1.82,1.82,0,0,1,1.15,1,7.26,7.26,0,0,1,.45,2.39c0,1,0,2-.08,2.78S0,133.35,0,134.22a8.93,8.93,0,0,0,.19,1.92,8,8,0,0,0,2,3.75A6.18,6.18,0,0,0,6.54,141.57Zm15.32-.11a.71.71,0,0,0,.49-.24.86.86,0,0,0,.24-.62,1,1,0,0,0-.11-.51,1.14,1.14,0,0,0-.24-.34c-.09-.08-.14-.13-.16-.13s0,0,0,0a4,4,0,0,1-1.08-2,20.28,20.28,0,0,1-.68-3.57,18.71,18.71,0,0,1-.14-2.38q0-.76.09-2.4a20.86,20.86,0,0,1,.9-4.41,3.76,3.76,0,0,0,.14-.86,1.35,1.35,0,0,0-.06-.34c0-.15-.22-.22-.51-.22s-2.6.37-7.32,1.1l-.18.07a.93.93,0,0,0-.43.88.91.91,0,0,0,.65.88c.63.13,1.11.8,1.43,2a11.41,11.41,0,0,1,.29,2.93q0,1.23-.12,2.82-.49,4.54-1.6,5.37A2.4,2.4,0,0,0,13,140a1,1,0,0,0-.2.62.83.83,0,0,0,.3.66.8.8,0,0,0,.51.2Z"/><path class="cls-2" d="M43.66,141.53a.67.67,0,0,0,.51-.26.81.81,0,0,0,.23-.53,1.29,1.29,0,0,0-.54-1.13c-.73-.55-1.1-1.83-1.1-3.83,0-.83,0-1.72.11-2.66.05-.62.07-1.14.07-1.55a12.32,12.32,0,0,0-.84-5A5.24,5.24,0,0,0,39.94,124a4.65,4.65,0,0,0-2.32-.61c-.19,0-.6,0-1.23.1a6.41,6.41,0,0,0-2.45,1,9.87,9.87,0,0,0-2.66,2.31l-.08.09A1.12,1.12,0,0,1,31,127l.49-1.69a6.54,6.54,0,0,0,.27-1.29,1.63,1.63,0,0,0-.07-.33c-.05-.15-.22-.23-.51-.23l-7.3,1a.41.41,0,0,0-.19.08.8.8,0,0,0-.29.29,1,1,0,0,0-.14.58.91.91,0,0,0,.18.55.78.78,0,0,0,.46.31,2.33,2.33,0,0,1,1.31,1.85,14.53,14.53,0,0,1,.38,3.24,24.66,24.66,0,0,1-.11,2.73c-.3,3.06-.82,4.85-1.58,5.37a2.86,2.86,0,0,0-.45.53,1,1,0,0,0-.19.61.83.83,0,0,0,.3.66.78.78,0,0,0,.5.2h8.25a.7.7,0,0,0,.5-.23,1,1,0,0,0,.26-.54,1.27,1.27,0,0,0-.36-.94.54.54,0,0,0-.18-.14v0a4.21,4.21,0,0,1-1.13-2.08,17.42,17.42,0,0,1-.74-5c0-.22,0-.43,0-.61a5.67,5.67,0,0,1,1.14-3,3.62,3.62,0,0,1,2.08-1.41,2,2,0,0,1,.48-.06,2.34,2.34,0,0,1,1.65.79q1,1,1,3.78a20.34,20.34,0,0,1-.55,4.63A5.1,5.1,0,0,1,35,139.73a.71.71,0,0,0-.12.14,1.41,1.41,0,0,0-.22.35,1,1,0,0,0-.11.46.84.84,0,0,0,.24.61.71.71,0,0,0,.54.24Z"/><path class="cls-2" d="M44.06,130c0,4,2.86,6.75,8.19,6.75a10,10,0,0,0,1.13,0c-3.74,2.36-9.47,2.54-9.47,7.4,0,3.91,3.67,6.12,8.6,6.12,5.18,0,8.66-2.5,8.66-6.45,0-3.19-2.28-6-6.09-5-2.1.55-3.12,1.85-3.08,3.59a2.72,2.72,0,0,0,4.75,2c1.19-1.13,2.94-1.31,2.94.25s-2.07,2.9-4.43,2.9a4.65,4.65,0,0,1-5-4.93c0-3.26,2.29-4.13,6.46-6.74A6.11,6.11,0,0,0,60.41,130a6.21,6.21,0,0,0-4.79-6.31c.22-.65.8-1.08,2-.69a2.45,2.45,0,0,0,3.23-3.26c-.72-1.7-2.9-1.3-4.2-.47a5.53,5.53,0,0,0-2.22,4.17,13.45,13.45,0,0,0-2.21-.18C46.92,123.23,44.06,125.91,44.06,130Zm6.42.91c-1.82-3.45-1.82-5.15-.91-5.62s2.46.54,4.31,4.13c1.71,3.34,1.74,5.08.87,5.55S52.29,134.32,50.48,130.88Z"/><path class="cls-2" d="M272,24c6.78,1.54,7.76,9.61,9.28,15.14.57,2.07,1.15,5.11-.82,6.63-2.38,1.83-5.9.66-8.53.21-3.43-.58-7-1.2-10.44-.6a10,10,0,0,0,10,4.07c1.29-.27,2.51-.79,3.79-1.09a5.48,5.48,0,0,1,3.85.3,3.64,3.64,0,0,1,1.8,3.21c-.09,2.41-2.49,3.76-4.59,4.1a12.18,12.18,0,0,1-7.1-1.15c-3-1.43-5.57-3.75-8-6a16.24,16.24,0,0,1-2.14,12.75,7.56,7.56,0,0,1-3.91,3.31,3.76,3.76,0,0,1-4.48-1.71c-.67-1.51.06-3.31,1.17-4.52s2.56-2.08,3.74-3.23a10.16,10.16,0,0,0,2.45-4c.24-.7,1.11-4.3.23-4.47-.63-.12-1.5.57-2,.86-.9.53-1.85,1-2.79,1.47l-3.88,2c-1.67.87-3.19,2-5.06,2.38a3.7,3.7,0,0,1-1.62.06c-4.21-.94-3.37-6.29-2.75-9.32a23.47,23.47,0,0,1,4.33-9.53c1.41-1.85,3.29-3.59,5.61-3.84,2.58-.28,5.05,1.41,6.46,3.59a21.24,21.24,0,0,1,2.5,7.33,34.7,34.7,0,0,1,.86-8.45c.91-3.54,3.26-7.24,6.55-8.89A8,8,0,0,1,272,24ZM257.68,42.85a9.5,9.5,0,0,0-2.22-3.79,5.57,5.57,0,0,0-5.38-1.44,5.67,5.67,0,0,0-4,3.34c-.54,1.47-.66,3.72,1.25,4.19a14.94,14.94,0,0,0,4.72.06c1.31-.12,2.61-.28,3.89-.52a4.24,4.24,0,0,0,1.74-.41.52.52,0,0,0,.15-.27A2.11,2.11,0,0,0,257.68,42.85Zm10.43-12.41a7.67,7.67,0,0,0-2.71.86A8.72,8.72,0,0,0,262,34.67a13.39,13.39,0,0,0-1.33,6.66c0,.49,0,1.37.42,1.67a1.69,1.69,0,0,0,1.29,0c.84-.26,1.67-.53,2.49-.83a44.26,44.26,0,0,0,4.55-1.92,9.84,9.84,0,0,0,3.44-2.7,4.67,4.67,0,0,0,1.08-2.83,4.46,4.46,0,0,0-3-4l-.13,0A6.13,6.13,0,0,0,268.11,30.44Z"/><path class="cls-2" d="M258.1,74.34l-.47,0-.12,1a.6.6,0,0,1-.17.38.44.44,0,0,1-.34.12c-.25,0-.36-.23-.33-.55l.12-1.09-.48,0-.13,1.17c-.05.51.11.86.55.91a.73.73,0,0,0,.75-.38l0,.41.45,0Z"/><path class="cls-2" d="M254.75,75.94c.5.09.87-.11.94-.53a.61.61,0,0,0-.16-.57.42.42,0,0,0,.4-.32.38.38,0,0,0-.25-.44.49.49,0,0,0,.42-.42c.07-.37-.2-.66-.75-.76s-1.08.12-1.16.57.23.75.76.84l.37.07c.15,0,.22.09.2.2a.16.16,0,0,1-.16.13,1.07,1.07,0,0,0-.37-.12.73.73,0,0,0-.94.53.61.61,0,0,0,.09.46.57.57,0,0,1-.41.06l-.07.41a.67.67,0,0,0,.66-.28A1,1,0,0,0,254.75,75.94Zm.18-1a.37.37,0,0,1,.34.43.37.37,0,0,1-.46.3.39.39,0,0,1-.34-.44A.37.37,0,0,1,254.93,74.9Zm-.26-1.36c0-.22.25-.3.57-.25s.48.2.44.42-.24.29-.55.24S254.63,73.75,254.67,73.54Z"/><path class="cls-2" d="M252.45,73.38l-.35-.1-.77,1L251.22,73l-.35-.1-1.29,1.68.46.14.8-1.16.1,1.42.32.09.81-1.16.08,1.42.51.15Z"/><path class="cls-2" d="M249.14,74.77l-.45-.16-.19.53.45.16Zm.79-2.17-.45-.17-.67,1.86.45.16Z"/><path class="cls-2" d="M247.89,74.69c.2-.48.3-.63.5-.55l.09,0,.15-.37-.22-.09.3-.75a1,1,0,0,0,.09-.56.62.62,0,0,0-.42-.45c-.4-.16-.73.06-.91.51l.35.14c.09-.23.23-.33.37-.28s.18.21.07.46l-.3.75-.72-.3-.15.37.72.3-.26.64Z"/><path class="cls-2" d="M247.49,71.64l-.43-.21-.46.95a.57.57,0,0,1-.29.3.36.36,0,0,1-.35,0c-.23-.1-.27-.34-.13-.63l.47-1-.43-.21-.51,1.06c-.22.46-.19.85.21,1a.73.73,0,0,0,.79-.07l-.61,1.27.43.21Z"/><path class="cls-2" d="M244.31,71.11a1,1,0,0,0,.13-.79,1.32,1.32,0,0,0-1.32-.83.82.82,0,0,0-.57.41c-.54.89.91,1.41.59,1.93a.38.38,0,0,1-.56.08.44.44,0,0,1-.19-.62L242,71a.8.8,0,0,0-.1.67,1,1,0,0,0,.47.58,1,1,0,0,0,.72.17.72.72,0,0,0,.55-.38.65.65,0,0,0,.11-.39,1.2,1.2,0,0,0-.34-.67c-.25-.31-.53-.58-.36-.86a.42.42,0,0,1,.62-.09.53.53,0,0,1,.2.78Z"/><path class="cls-2" d="M241.59,70.32a1.11,1.11,0,0,0,.65-.45,1,1,0,0,0,.2-.76.88.88,0,0,0-.4-.65.9.9,0,0,0-.74-.16,1,1,0,0,0-.65.45,1.08,1.08,0,0,0-.21.76,1,1,0,0,0,1.15.81Zm-.69-.84a.75.75,0,0,1,.16-.44.71.71,0,0,1,.36-.29.37.37,0,0,1,.38,0,.38.38,0,0,1,.18.34.71.71,0,0,1-.15.44.69.69,0,0,1-.37.3.39.39,0,0,1-.38,0A.4.4,0,0,1,240.9,69.48Z"/><path class="cls-2" d="M239.32,67.66c.23-.28.51-.38.73-.2s.2.38,0,.64l-.7.86.37.31.74-.92c.32-.39.37-.79,0-1.09a.67.67,0,0,0-.77-.08l.24-.29-.36-.29-1.24,1.53.37.31Z"/><path class="cls-2" d="M236.82,68.2l.36.32,2-2.25-.36-.32Z"/><path class="cls-2" d="M238.49,65.62l-.34-.33-.39.41.34.33Z"/><path class="cls-2" d="M234.54,63.81l.8.9.32-.29-.49-.54,0,0a.65.65,0,0,1,1,0,.68.68,0,0,1,.17.6,1.2,1.2,0,0,1-.41.66,1.28,1.28,0,0,1-.72.35.67.67,0,0,1-.58-.23.54.54,0,0,1-.15-.44.66.66,0,0,1,.19-.39l-.33-.37a1,1,0,0,0-.36.72,1.07,1.07,0,0,0,.29.79,1.18,1.18,0,0,0,1,.42,1.71,1.71,0,0,0,1.09-.47,1.52,1.52,0,0,0,.55-1,1.19,1.19,0,0,0-.3-.92.92.92,0,0,0-.89-.34L236,63l-.23-.26Z"/><path class="cls-2" d="M233.63,63.77l-.3-.38-.43.35.29.38Zm1.82-1.44-.3-.37-1.55,1.22.3.38Z"/><path class="cls-2" d="M234.5,61.09l-1.27.93-.4-.54-.32.24.4.54-.28.2c-.19.14-.32.15-.4,0s0-.23.16-.37l-.22-.3c-.38.27-.5.61-.25.94s.59.37,1,.07l.26-.19.14.19.32-.24-.14-.19,1.27-.93Z"/><path class="cls-2" d="M231.64,61.68c.44-.29.6-.35.72-.18l0,.08.33-.22-.13-.2.67-.44a1,1,0,0,0,.4-.41.6.6,0,0,0-.1-.61c-.23-.36-.63-.36-1-.1l.21.31c.2-.13.38-.14.46,0s0,.27-.2.42l-.67.44-.43-.65-.33.22L232,61l-.59.38Z"/><path class="cls-2" d="M231.06,60.11l-.25-.41-.48.29.25.41Zm2-1.19-.25-.42-1.69,1,.25.41Z"/><path class="cls-2" d="M232.54,58.09l-.23-.42-.93.5a.59.59,0,0,1-.41.06.38.38,0,0,1-.29-.2c-.12-.22,0-.43.27-.59l1-.51-.22-.43-1,.56c-.45.24-.65.58-.44,1a.73.73,0,0,0,.73.4l-.35.19.21.41Z"/><path class="cls-2" d="M229.33,56.22c.21.47.58.66,1,.48a.6.6,0,0,0,.38-.45.4.4,0,0,0,.49.14.36.36,0,0,0,.22-.44.51.51,0,0,0,.59.11c.34-.15.43-.54.2-1.05s-.7-.82-1.12-.64-.5.62-.27,1.11l.15.34c.07.14.05.23-.05.28a.16.16,0,0,1-.2-.07,1.36,1.36,0,0,0-.1-.37.73.73,0,0,0-1-.47.61.61,0,0,0-.33.32.55.55,0,0,1-.28-.3l-.38.17a.7.7,0,0,0,.61.4A1,1,0,0,0,229.33,56.22Zm1-.43a.37.37,0,1,1-.5-.21A.37.37,0,0,1,230.29,55.79Zm1-1c.2-.09.39,0,.53.33s.1.51-.1.6-.38,0-.51-.33S231.07,54.89,231.27,54.81Z"/><path class="cls-2" d="M230.15,52.88l-.12-.34-1.3,0,1-.83-.11-.34-2.12-.13.15.46h1.41l-1.12.89.11.31,1.41,0-1.13.86.17.51Z"/><path class="cls-2" d="M227.13,50.93l-.12-.47-.54.14.12.47Zm2.24-.58-.12-.47-1.91.5.12.46Z"/><path class="cls-2" d="M226.5,49.85c.51-.11.69-.11.73.1l0,.09.39-.08,0-.24.79-.16a1.06,1.06,0,0,0,.52-.25.59.59,0,0,0,.13-.6c-.09-.42-.46-.56-.93-.46l.08.36c.24,0,.4,0,.43.15s-.07.27-.34.32l-.78.17-.16-.76-.39.09.16.76-.68.14Z"/><path class="cls-2" d="M228.79,47.8l-.07-.48-1,.16a.58.58,0,0,1-.41-.08.36.36,0,0,1-.2-.29c0-.24.12-.41.44-.46l1.09-.16-.08-.48-1.16.18c-.5.07-.81.32-.74.76a.72.72,0,0,0,.5.61l-1.39.21.07.48Z"/><path class="cls-2" d="M227.43,44.87a1,1,0,0,0,.74-.34,1.23,1.23,0,0,0,.22-.81,1.16,1.16,0,0,0-.29-.75.84.84,0,0,0-.65-.24c-1,.06-.66,1.55-1.27,1.58-.22,0-.36-.16-.38-.42a.43.43,0,0,1,.41-.5l0-.49a.81.81,0,0,0-.61.29,1,1,0,0,0-.21.72,1,1,0,0,0,.26.69.71.71,0,0,0,.62.24.65.65,0,0,0,.39-.13,1.16,1.16,0,0,0,.36-.66c.11-.38.18-.76.51-.78s.4.17.42.47a.52.52,0,0,1-.52.6Z"/><path class="cls-2" d="M226.55,42.17a1.15,1.15,0,0,0,1.49,0,1,1,0,0,0,0-1.4,1,1,0,0,0-.73-.28,1.07,1.07,0,0,0-.75.25.94.94,0,0,0-.31.7A.91.91,0,0,0,226.55,42.17Zm.31-1a.72.72,0,0,1,.45-.12.77.77,0,0,1,.45.13.41.41,0,0,1,.18.35.43.43,0,0,1-.19.34.72.72,0,0,1-.45.12.81.81,0,0,1-.46-.13.44.44,0,0,1-.17-.35A.41.41,0,0,1,226.86,41.14Z"/><path class="cls-2" d="M227.47,38.81c.36,0,.6.21.58.49s-.2.37-.54.35l-1.1-.1,0,.48,1.17.1c.5,0,.86-.15.9-.62a.67.67,0,0,0-.37-.68l.37,0,0-.45-2-.17,0,.48Z"/><path class="cls-2" d="M225.61,37.05l-.07.47,3,.4.06-.47Z"/><path class="cls-2" d="M228.68,37l.08-.48-.56-.09-.07.48Z"/><path class="cls-2" d="M227.94,32.68l-.29,1.17.42.1.18-.71h.05a.64.64,0,0,1,.52.81.68.68,0,0,1-.4.49,1.13,1.13,0,0,1-.78,0,1.23,1.23,0,0,1-.68-.39.66.66,0,0,1-.14-.61.54.54,0,0,1,.27-.38.59.59,0,0,1,.43-.05l.12-.49a1.06,1.06,0,0,0-.8.11,1,1,0,0,0-.48.69,1.18,1.18,0,0,0,.19,1,1.7,1.7,0,0,0,1,.63,1.52,1.52,0,0,0,1.13-.11,1.15,1.15,0,0,0,.59-.77.91.91,0,0,0-.23-.93l.39.1.08-.34Z"/><path class="cls-2" d="M227.47,31.92l.14-.46-.53-.17-.14.46Zm2.21.69.14-.46-1.88-.59-.14.46Z"/><path class="cls-2" d="M230.17,31.12l-1.48-.52.22-.64-.38-.13-.22.63-.33-.11c-.21-.08-.29-.18-.25-.31s.18-.15.39-.07l.13-.36c-.44-.16-.78-.06-.92.33s0,.7.52.87l.3.11-.08.22.37.13.08-.22,1.49.53Z"/><path class="cls-2" d="M228.08,29.09c.48.2.63.3.55.5l0,.08.37.15.09-.22.74.31a1,1,0,0,0,.57.09q.28,0,.45-.42c.16-.4-.06-.73-.51-.91l-.14.35c.23.09.33.23.28.37s-.21.18-.46.07l-.75-.3.3-.72-.37-.15-.3.72-.64-.27Z"/><path class="cls-2" d="M229,27.72l.21-.43-.51-.24-.2.44Zm2.11,1,.2-.44-1.79-.82-.21.44Z"/><path class="cls-2" d="M231.55,27.81l.22-.43-.93-.49a.6.6,0,0,1-.29-.3.39.39,0,0,1,0-.35c.11-.23.35-.26.63-.11l1,.5.23-.42-1-.55c-.45-.23-.84-.21-1.05.18a.74.74,0,0,0,.08.84l-.36-.19-.21.4Z"/><path class="cls-2" d="M231.29,24.1a.73.73,0,0,0,.15,1.08.63.63,0,0,0,.59.05.4.4,0,0,0,.16.49.37.37,0,0,0,.49-.07.51.51,0,0,0,.23.55c.33.19.7.05,1-.43s.28-1-.11-1.28-.78-.07-1.06.39l-.2.32c-.08.14-.16.17-.25.12a.15.15,0,0,1-.06-.2,1.37,1.37,0,0,0,.24-.29.72.72,0,0,0-.16-1.08.6.6,0,0,0-.45-.09.6.6,0,0,1,.09-.4l-.35-.21a.67.67,0,0,0,0,.71A1.27,1.27,0,0,0,231.29,24.1Zm.9.55a.37.37,0,1,1-.63-.38.37.37,0,1,1,.63.38Zm1.36.25c.19.12.19.35,0,.63s-.36.37-.55.25-.17-.33,0-.6S233.37,24.79,233.55,24.9Z"/><path class="cls-2" d="M234.52,22.89l.22-.28L234,21.5l1.26.38.22-.29-1.09-1.82-.29.39.78,1.17-1.36-.43-.2.26.78,1.18-1.35-.44-.32.42Z"/><path class="cls-2" d="M234.43,19.31l.31-.36-.42-.37-.31.36Zm1.74,1.52.31-.36L235,19.17l-.32.36Z"/><path class="cls-2" d="M235,18.17c.38.36.48.51.33.67l-.06.06.29.28.16-.17.58.55a1,1,0,0,0,.5.29.59.59,0,0,0,.57-.23c.3-.31.2-.7-.14-1l-.26.27c.18.17.22.34.12.45s-.25.09-.45-.1l-.58-.55.53-.57-.29-.27-.53.56-.51-.48Z"/><path class="cls-2" d="M238,18.92l.35-.33-.72-.77a.66.66,0,0,1-.17-.38.41.41,0,0,1,.12-.34c.19-.17.42-.12.64.11l.75.8.35-.33-.8-.86c-.35-.37-.73-.48-1.05-.17a.7.7,0,0,0-.22.76l-1-1-.35.33Z"/><path class="cls-2" d="M239.6,16.14a.93.93,0,0,0,.69.41,1.32,1.32,0,0,0,1.25-.93.82.82,0,0,0-.17-.68c-.64-.83-1.65.34-2-.15a.39.39,0,0,1,.13-.55.44.44,0,0,1,.65,0l.39-.29a.86.86,0,0,0-.59-.34,1,1,0,0,0-.71.23,1.06,1.06,0,0,0-.42.61.74.74,0,0,0,.15.65.73.73,0,0,0,.33.25,1.24,1.24,0,0,0,.75-.08c.37-.12.73-.29.93,0s.09.43-.15.61a.53.53,0,0,1-.79-.09Z"/><path class="cls-2" d="M241.32,13.89a1,1,0,0,0,.19.77,1,1,0,0,0,.63.47.89.89,0,0,0,.75-.14.9.9,0,0,0,.42-.63,1.19,1.19,0,0,0-.82-1.24.93.93,0,0,0-.75.15A.92.92,0,0,0,241.32,13.89Zm1-.33a.73.73,0,0,1,.35.31.78.78,0,0,1,.15.44.42.42,0,0,1-.58.38.76.76,0,0,1-.35-.3.86.86,0,0,1-.15-.45.41.41,0,0,1,.19-.34A.39.39,0,0,1,242.35,13.56Z"/><path class="cls-2" d="M244.63,12.75c.18.31.16.61-.08.75s-.43,0-.59-.25l-.55-1-.42.23.58,1c.25.45.61.63,1,.4a.65.65,0,0,0,.36-.68l.18.32.39-.23-1-1.71-.41.23Z"/><path class="cls-2" d="M245,10.22l-.43.22,1.36,2.7.43-.21Z"/><path class="cls-2" d="M246.81,12.72l.44-.2L247,12l-.43.2Z"/><path class="cls-2" d="M250,9.69l-1.13.42.15.4.68-.25,0,.05a.64.64,0,0,1-.37.89.7.7,0,0,1-.63-.06,1.17,1.17,0,0,1-.47-.63,1.29,1.29,0,0,1-.06-.79.7.7,0,0,1,.43-.46.56.56,0,0,1,.46,0,.62.62,0,0,1,.29.33l.47-.18a1.1,1.1,0,0,0-.54-.6,1,1,0,0,0-.84,0,1.14,1.14,0,0,0-.74.74,1.72,1.72,0,0,0,0,1.18,1.49,1.49,0,0,0,.73.88,1.17,1.17,0,0,0,1,.06,1,1,0,0,0,.64-.72l.13.37.33-.12Z"/><path class="cls-2" d="M250.32,8.87l.46-.15-.17-.53-.46.14Zm.67,2.21.46-.14-.57-1.89-.46.14Z"/><path class="cls-2" d="M252.49,10.65l-.4-1.52.65-.17-.1-.39-.65.17-.09-.33c-.06-.22,0-.35.11-.38s.23.06.29.28l.36-.1c-.12-.45-.39-.68-.79-.58s-.56.42-.43.93l.08.3-.23.06.11.39.23-.06.4,1.52Z"/><path class="cls-2" d="M253,7.78c.11.51.11.69-.1.73l-.09,0,.08.39.24-.05.16.78a1.05,1.05,0,0,0,.24.52.57.57,0,0,0,.6.14c.42-.09.57-.46.47-.93l-.37.08c.05.24,0,.4-.15.43s-.26-.07-.32-.33l-.16-.79.76-.16-.09-.39-.76.16-.14-.68Z"/><path class="cls-2" d="M254.67,7.8l.48-.08-.09-.55-.48.08Zm.39,2.29.47-.08-.32-1.95-.48.08Z"/><path class="cls-2" d="M256,9.92l.48-.05-.13-1a.68.68,0,0,1,.09-.4.4.4,0,0,1,.3-.2c.25,0,.41.14.45.46l.13,1.09.47-.06-.13-1.16c-.06-.51-.3-.82-.74-.77a.74.74,0,0,0-.65.53l0-.4-.45.06Z"/><path class="cls-2" d="M145.66,32.05a.71.71,0,0,0,.5-.24.84.84,0,0,0,.24-.62,1.12,1.12,0,0,0-.11-.5,1,1,0,0,0-.41-.49v0q-1.29-1-1.82-5.87c-.14-1.66-.21-3.34-.21-5.06l0-1.11V16.7h4.06a.89.89,0,0,0,.52-.32.93.93,0,0,0,.2-.58.91.91,0,0,0-.2-.58.88.88,0,0,0-.52-.31h-4.08l0-1.5q0-.73.06-1.83a7,7,0,0,1,.45-2.17,1.75,1.75,0,0,1,1.38-1.23h.21a.81.81,0,0,1,.54.17.65.65,0,0,1,.2.49,1.41,1.41,0,0,1-.21.58,7.28,7.28,0,0,0-.38.87,4,4,0,0,0-.22,1.05,2.63,2.63,0,0,0,.67,1.68,2.24,2.24,0,0,0,1.83.82h.11a2.39,2.39,0,0,0,1.78-1A3,3,0,0,0,150.8,11v-.19a4.35,4.35,0,0,0-1.47-3.2,5.54,5.54,0,0,0-3.52-1.26l-.61,0a8.87,8.87,0,0,0-3.65.7,4.32,4.32,0,0,0-2.3,2.52,7.87,7.87,0,0,0-.45,2.82V13a5.7,5.7,0,0,1,.08.78c.06.6.09,1,.09,1.15l-2.3,0a.9.9,0,0,0-.74.89.93.93,0,0,0,.74.9h2.39q0,.78,0,2.16c0,.31,0,.9,0,1.77s-.08,2.07-.22,3.6l0,.45c-.3,3-.82,4.83-1.58,5.38a1.45,1.45,0,0,0-.65,1.17.82.82,0,0,0,.31.62.65.65,0,0,0,.48.2Z"/><path class="cls-2" d="M121.76,64a.69.69,0,0,0,.49-.24.81.81,0,0,0,.25-.62,1.12,1.12,0,0,0-.11-.5,1,1,0,0,0-.41-.49v0c-.87-.68-1.47-2.64-1.82-5.87-.14-1.66-.22-3.34-.22-5.05l0-1.12V48.67H124a.87.87,0,0,0,.53-.32,1,1,0,0,0,0-1.16.9.9,0,0,0-.53-.31h-4.08l0-1.5c0-.49,0-1.1,0-1.83a7.14,7.14,0,0,1,.46-2.16,1.75,1.75,0,0,1,1.38-1.24H122a.77.77,0,0,1,.54.18.63.63,0,0,1,.2.48,1.41,1.41,0,0,1-.21.58,5,5,0,0,0-.38.87,3.64,3.64,0,0,0-.22,1A2.65,2.65,0,0,0,122.6,45a2.24,2.24,0,0,0,1.84.82h.11a2.4,2.4,0,0,0,1.78-.95A3,3,0,0,0,126.9,43V42.8a4.37,4.37,0,0,0-1.47-3.2,5.57,5.57,0,0,0-3.53-1.26l-.61,0a8.9,8.9,0,0,0-3.65.7,4.39,4.39,0,0,0-2.3,2.52,7.87,7.87,0,0,0-.45,2.82l0,.58a4.51,4.51,0,0,1,.07.77c.06.6.09,1,.09,1.15l-2.3,0a.93.93,0,0,0-.53.31.94.94,0,0,0,0,1.16.89.89,0,0,0,.53.32h2.39c0,.52,0,1.24,0,2.16,0,.31,0,.9,0,1.77s-.08,2.07-.22,3.6l0,.45q-.45,4.56-1.58,5.38a1.45,1.45,0,0,0-.65,1.17.8.8,0,0,0,.31.63.68.68,0,0,0,.48.19Z"/><path class="cls-2" d="M146.54,24.05c0,5.1,3.31,8.28,8.29,8.28s8.25-3.18,8.25-8.28-3.31-8.31-8.25-8.31S146.54,18.92,146.54,24.05Zm6.12,1c-2.29-4.39-2.29-6.55-1.14-7.17s3.09.71,5.47,5.31c2.19,4.27,2.25,6.46,1.11,7.08S155,29.46,152.66,25Z"/><path class="cls-2" d="M163.79,24.05c0,5.1,3.31,8.28,8.28,8.28s8.25-3.18,8.25-8.28-3.3-8.31-8.25-8.31S163.79,18.92,163.79,24.05Zm6.12,1c-2.29-4.39-2.29-6.55-1.15-7.17s3.1.71,5.47,5.31c2.2,4.27,2.26,6.46,1.12,7.08S172.26,29.46,169.91,25Z"/><path class="cls-2" d="M97.09,32.45A8,8,0,0,0,99.68,32a18.17,18.17,0,0,0,3.07-1.42,2.65,2.65,0,0,0,1.94,1.64,5.36,5.36,0,0,0,1,.09,11.28,11.28,0,0,0,3.93-1,1.09,1.09,0,0,0,.78-1,1.27,1.27,0,0,0-.15-.56.65.65,0,0,0-.63-.31,1.41,1.41,0,0,1-1-.35,2.13,2.13,0,0,1-.48-1.26c-.09-1-.13-2-.13-3.1,0-.7,0-1.41.05-2.12s0-1.32,0-1.85a6.41,6.41,0,0,0-2-4.8,8.24,8.24,0,0,0-5.93-2q-5.53,0-6.94,3.85a2.69,2.69,0,0,0,.28,2.3,2.24,2.24,0,0,0,1.66,1,2.56,2.56,0,0,0,.47,0,3.58,3.58,0,0,0,1.9-.59,2.24,2.24,0,0,0,1-1.8,5.26,5.26,0,0,0-.07-.89,4.73,4.73,0,0,1-.07-.8,4.5,4.5,0,0,1,0-.46,1,1,0,0,1,.44-.62,2.2,2.2,0,0,1,1.22-.25h.22a2.34,2.34,0,0,1,1.74.74,3,3,0,0,1,.6,1.63c0,.41,0,.84,0,1.28l0,.81a27.07,27.07,0,0,1-2.76,1,29.59,29.59,0,0,0-3.59,1.29,8,8,0,0,0-2.92,2.12,5.06,5.06,0,0,0-1.06,3.35v.27A4.66,4.66,0,0,0,93.47,31,4.06,4.06,0,0,0,96,32.39,10,10,0,0,0,97.09,32.45Zm3.7-3.08a1.78,1.78,0,0,1-1.28-.56,3.29,3.29,0,0,1-.64-2.21,3.71,3.71,0,0,1,1-2.51A10.72,10.72,0,0,1,102.61,22l0,3.13,0,1.06a8.92,8.92,0,0,1-.22,2,1.42,1.42,0,0,1-1.27,1.14Z"/><path class="cls-2" d="M113.94,32l3.86,0a2.27,2.27,0,0,0,1.88-.55,1.64,1.64,0,0,0,.07-1.66,11.27,11.27,0,0,0-1-1.44,6.71,6.71,0,0,1-.36-6.28c.81-1.86,2.34-3.12,3.75-4.49,1.8-1.75,4.38-3.81,7-3,1,.3,1.91,1.14,2.93,1.33a3.81,3.81,0,0,0,2.83-.34A3.28,3.28,0,0,0,136.26,12a4,4,0,0,0-1.71-2.45,6.71,6.71,0,0,0-3.91-1A9.15,9.15,0,0,0,126,10.36c-2.62,1.82-4.59,4.4-6.57,6.85-.36.44-.79.79-1.11,1.26-.14-1.14,1.34-2.43.59-3.61-.51-.81-1.8-.88-2.64-.77l-3.35.42a2.37,2.37,0,0,0-1.88.86c-.41.72,0,1.6.4,2.35a12.82,12.82,0,0,1,1.28,5.13A13.39,13.39,0,0,1,111.51,29c-.31.69-1,1.61-.48,2.37a1.07,1.07,0,0,0,.28.28A5.19,5.19,0,0,0,113.94,32Z"/><path class="cls-2" d="M128.76,32.41a7.31,7.31,0,0,0,3.63-.94,8.07,8.07,0,0,0,2.34-2.16,1,1,0,0,0,.21-.57s0-.08,0-.19a.53.53,0,0,0-.23-.35.7.7,0,0,0-.49-.2H134a.66.66,0,0,0-.37.26A6.28,6.28,0,0,1,131.49,30a4,4,0,0,1-1.65.39,3.08,3.08,0,0,1-.68-.07,3.31,3.31,0,0,1-1.83-1.19,5.41,5.41,0,0,1-1-2l.55-.19c.83-.27,1.76-.62,2.8-1.05a12.8,12.8,0,0,0,2.85-1.61A4.59,4.59,0,0,0,134.24,22a2.83,2.83,0,0,0,.09-.68,2.92,2.92,0,0,0-.61-1.67,5,5,0,0,0-2.09-1.53,8.28,8.28,0,0,0-3.4-.66A8.62,8.62,0,0,0,123,19.08a6.91,6.91,0,0,0-2.49,3.75,8.15,8.15,0,0,0-.25,2,9.76,9.76,0,0,0,.58,3,6.73,6.73,0,0,0,2.6,3.19A8.83,8.83,0,0,0,128.76,32.41Zm-2-7.59a4.46,4.46,0,0,1-.79.58c0-.38-.09-.74-.13-1.12-.16-1.66.12-3.66,1.57-4.72a1.6,1.6,0,0,1,1.18-.37,1.34,1.34,0,0,1,1,.64,1.75,1.75,0,0,1,.24.89,2.38,2.38,0,0,1-.13.71,7.74,7.74,0,0,1-1.83,2.44C127.53,24.19,127.17,24.51,126.8,24.82Z"/><path class="cls-2" d="M188.25,32.36a7.84,7.84,0,0,0,2.62-.47,5.45,5.45,0,0,0,2.25-1.49.88.88,0,0,0,.22-.61,1.3,1.3,0,0,0-.18-.68.93.93,0,0,0-.81-.45,1.22,1.22,0,0,0-.65.21,3.94,3.94,0,0,0-.64.52,2.65,2.65,0,0,1-1.12.74,2.59,2.59,0,0,1-.54.05,1.89,1.89,0,0,1-1.63-1q-1.1-1.69-1.1-6.19a44.48,44.48,0,0,1,.27-4.65q.17-1.72.27-2.46h3.52a.93.93,0,0,0,.74-.92.88.88,0,0,0-.23-.62.79.79,0,0,0-.51-.26h-3.34c.07-.85.16-1.66.25-2.43s.18-1.52.2-2.08a.63.63,0,0,0-.23-.39,1,1,0,0,0-.69-.22c-.66,0-1.61.78-2.87,2.35a14.33,14.33,0,0,1-1.53,1.58,5.17,5.17,0,0,1-3.36,1.35,3,3,0,0,0-.88.13.79.79,0,0,0-.49.8.86.86,0,0,0,.51.83.73.73,0,0,0,.25.07,5.88,5.88,0,0,1,1.56.22c1,.31,1.58,1.44,1.6,3.4l0,.68c0,.68,0,1.39-.09,2.12s-.09,1.65-.09,2.5a8.53,8.53,0,0,0,2.18,5.69,6.08,6.08,0,0,0,4.43,1.66Z"/><path class="cls-2" d="M95.67,63.92a6.1,6.1,0,0,1,1.23-.23l.53,0a8.79,8.79,0,0,1,2,.3,2.31,2.31,0,0,0,.61.09,1.43,1.43,0,0,0,.92-.3,1.62,1.62,0,0,0,.52-1.37v-.25c-.06-.72-.09-1.5-.09-2.35l0-1.24a27.57,27.57,0,0,0-.16-2.9,6,6,0,0,0-1.07-3,3.53,3.53,0,0,0-2.92-1.25l-1.91,0H92a.9.9,0,0,0-.61.25,1,1,0,0,0-.27.76l0,3.88q0,.36.27.36a.51.51,0,0,0,.48-.34,4.4,4.4,0,0,1,1.18-1.48,2.53,2.53,0,0,1,1.7-.71h0a1.26,1.26,0,0,1,1,1.2,13.08,13.08,0,0,1,.14,1.56,9.48,9.48,0,0,1-.23,2c-.32,1.36-.91,2-1.78,2a4.23,4.23,0,0,1-1.66-.44,9.54,9.54,0,0,1-3.75-3.1,14,14,0,0,1-2.29-4.46,15.68,15.68,0,0,1-.7-4.39,8.65,8.65,0,0,1,1.66-5.41,6.51,6.51,0,0,1,4.15-2.37,3.44,3.44,0,0,1,2.93,1.11A4.19,4.19,0,0,1,95,44.36,8.4,8.4,0,0,1,94.65,47a1.67,1.67,0,0,0-.07.47c0,.69.58,1.19,1.74,1.49a3.7,3.7,0,0,0,.83.09,5,5,0,0,0,1.78-.36,3.87,3.87,0,0,0,2-1.53,3.72,3.72,0,0,0,.6-1.9,5.5,5.5,0,0,0-.32-1.73,6.76,6.76,0,0,0-4.08-4,14,14,0,0,0-4.82-.85h-.61a13.06,13.06,0,0,0-6.4,1.58,12,12,0,0,0-4.65,4.49A12.31,12.31,0,0,0,79,51.12v.24a14,14,0,0,0,1.68,6.42,12,12,0,0,0,4.66,4.68,13.32,13.32,0,0,0,6.85,1.89A13.81,13.81,0,0,0,95.67,63.92Z"/><path class="cls-2" d="M111,64a.73.73,0,0,0,.5-.24.84.84,0,0,0,.24-.62,1.19,1.19,0,0,0-.11-.51,1,1,0,0,0-.41-.48v0c-.85-.66-1.45-2.52-1.78-5.57a16.88,16.88,0,0,1-.15-2.37c0-.52,0-1.32.09-2.41a20.86,20.86,0,0,1,.9-4.41,3.37,3.37,0,0,0,.15-.86q0-.52-.36-.54l-.22,0c-.15,0-2.59.37-7.3,1.1a.48.48,0,0,0-.19.09,1,1,0,0,0-.29.29.92.92,0,0,0-.15.57.89.89,0,0,0,.18.55.92.92,0,0,0,.47.33c.64.14,1.12.8,1.44,2a11.22,11.22,0,0,1,.31,2.91c0,.83,0,1.77-.15,2.84q-.45,4.59-1.6,5.37a2.86,2.86,0,0,0-.45.53,1,1,0,0,0-.2.61.83.83,0,0,0,.31.66.78.78,0,0,0,.5.2Zm-5.25-18.14a4.37,4.37,0,0,0,1.75-.39,4,4,0,0,0,2-1.91,3,3,0,0,0,.3-1.29,2.83,2.83,0,0,0-.25-1.17,2.94,2.94,0,0,0-1.91-1.56,3.28,3.28,0,0,0-1-.15,4.39,4.39,0,0,0-1.75.4,4,4,0,0,0-2,1.9,3.11,3.11,0,0,0-.3,1.3,2.9,2.9,0,0,0,.25,1.17,2.93,2.93,0,0,0,1.89,1.56A3.36,3.36,0,0,0,105.77,45.89Z"/><path class="cls-2" d="M135.44,64.07a8.24,8.24,0,0,0,2.69-.47,5.38,5.38,0,0,0,2.28-1.51.88.88,0,0,0,.22-.61,1.25,1.25,0,0,0-.2-.67.91.91,0,0,0-.82-.45,1.13,1.13,0,0,0-.63.21,3.71,3.71,0,0,0-.63.51,2.9,2.9,0,0,1-1.12.76,3.5,3.5,0,0,1-.54,0,1.88,1.88,0,0,1-1.63-1Q134,59.19,134,54.7l0-1.65c0-1.3.2-3.12.48-5.47a21.79,21.79,0,0,0,6.2-1.08,24.25,24.25,0,0,0,6.55-3.12,11.12,11.12,0,0,0,4.17-4.87,5.78,5.78,0,0,0,.34-1.75c0-1.84-.52-3.11-1.55-3.79a2.84,2.84,0,0,0-1.65-.47,3.29,3.29,0,0,0-2.48,1.08,3.09,3.09,0,0,0-.9,1.76,12.43,12.43,0,0,1-3.56,7.84,9.3,9.3,0,0,1-6.54,2.61h-.4q.14-1.27.27-2.43c.1-.81.16-1.5.2-2.07a.51.51,0,0,0-.22-.37,1.09,1.09,0,0,0-.73-.24,1.28,1.28,0,0,0-.88.33,16,16,0,0,0-2,2,14.65,14.65,0,0,1-1.53,1.61,5.94,5.94,0,0,1-2,1.14,12,12,0,0,1-1.92.23,1.15,1.15,0,0,0-.31.09.82.82,0,0,0-.48.79,1,1,0,0,0,.17.58.82.82,0,0,0,.35.26.93.93,0,0,0,.25.06,5.51,5.51,0,0,1,1.56.23,1.8,1.8,0,0,1,1.15,1,6.78,6.78,0,0,1,.45,2.39c0,1,0,2-.08,2.78s-.08,1.66-.08,2.53a8.91,8.91,0,0,0,.2,1.92,7.92,7.92,0,0,0,2,3.75A6.19,6.19,0,0,0,135.44,64.07ZM150.75,64a.69.69,0,0,0,.49-.24.83.83,0,0,0,.25-.62,1.16,1.16,0,0,0-.11-.51,1.14,1.14,0,0,0-.24-.34.63.63,0,0,0-.17-.13l0,0a4,4,0,0,1-1.09-2,20.36,20.36,0,0,1-.67-3.57,16.93,16.93,0,0,1-.15-2.38q0-.77.09-2.4a20.86,20.86,0,0,1,.9-4.41,3.28,3.28,0,0,0,.14-.86,1.35,1.35,0,0,0-.06-.34c0-.15-.21-.22-.51-.22s-2.6.37-7.32,1.1l-.18.07a1,1,0,0,0-.43.88.89.89,0,0,0,.18.55.92.92,0,0,0,.47.33c.63.13,1.11.8,1.44,2a11.88,11.88,0,0,1,.29,2.93c0,.82-.05,1.76-.13,2.82-.32,3-.86,4.82-1.6,5.37a3.11,3.11,0,0,0-.45.52,1,1,0,0,0-.2.62.81.81,0,0,0,.31.66.76.76,0,0,0,.5.2Z"/><path class="cls-2" d="M172.55,64a.69.69,0,0,0,.52-.26.79.79,0,0,0,.22-.53,1.29,1.29,0,0,0-.54-1.13c-.73-.55-1.1-1.83-1.1-3.83,0-.83,0-1.72.11-2.66.05-.62.07-1.14.07-1.55a12.34,12.34,0,0,0-.83-5,5.3,5.3,0,0,0-2.17-2.58,4.65,4.65,0,0,0-2.32-.61c-.19,0-.6,0-1.23.1a6.31,6.31,0,0,0-2.44,1,10.06,10.06,0,0,0-2.67,2.31l-.07.09-.16.19.48-1.69a6.54,6.54,0,0,0,.27-1.29,1.13,1.13,0,0,0-.07-.33c-.05-.15-.22-.23-.5-.23l-7.3,1a.44.44,0,0,0-.2.08.88.88,0,0,0-.29.29,1,1,0,0,0-.14.58.91.91,0,0,0,.18.55.8.8,0,0,0,.47.31,2.35,2.35,0,0,1,1.31,1.85,15.14,15.14,0,0,1,.38,3.24c0,1.15,0,2.06-.11,2.73Q154,61.25,152.84,62a2.26,2.26,0,0,0-.45.53,1,1,0,0,0-.2.61.83.83,0,0,0,.3.66.8.8,0,0,0,.51.2h8.25a.68.68,0,0,0,.49-.23.91.91,0,0,0,.26-.54,1.27,1.27,0,0,0-.36-.94.54.54,0,0,0-.18-.14v0a4.29,4.29,0,0,1-1.13-2.08,17.42,17.42,0,0,1-.74-4.95c0-.22,0-.43,0-.61a5.84,5.84,0,0,1,1.14-3,3.62,3.62,0,0,1,2.08-1.41,2.1,2.1,0,0,1,.48-.06,2.38,2.38,0,0,1,1.66.79c.63.64.95,1.9.95,3.78a19.79,19.79,0,0,1-.55,4.63,5.1,5.1,0,0,1-1.44,2.95s-.06.05-.13.14a2.41,2.41,0,0,0-.22.35,1,1,0,0,0-.1.46.83.83,0,0,0,.23.61.75.75,0,0,0,.54.24Z"/><path class="cls-2" d="M173,52.47c0,4,2.87,6.75,8.2,6.75a9.84,9.84,0,0,0,1.12,0c-3.73,2.36-9.46,2.54-9.46,7.4,0,3.91,3.66,6.12,8.59,6.12,5.18,0,8.67-2.5,8.67-6.45,0-3.19-2.29-6-6.1-5-2.1.55-3.11,1.85-3.08,3.59a2.72,2.72,0,0,0,4.75,2c1.2-1.13,2.94-1.31,2.94.25s-2.07,2.9-4.42,2.9a4.65,4.65,0,0,1-5-4.93c0-3.26,2.28-4.13,6.45-6.74a6.11,6.11,0,0,0,3.66-5.88,6.21,6.21,0,0,0-4.78-6.31c.22-.65.8-1.08,2-.69a2.45,2.45,0,0,0,3.23-3.26c-.73-1.7-2.91-1.3-4.21-.47a5.52,5.52,0,0,0-2.21,4.17,13.54,13.54,0,0,0-2.21-.18C175.82,45.73,173,48.41,173,52.47Zm6.42.91c-1.81-3.45-1.81-5.15-.91-5.62s2.47.54,4.32,4.13c1.7,3.34,1.74,5.08.87,5.55S181.18,56.82,179.37,53.38Z"/><path class="cls-2" d="M91.2,28.12c-2.34,4.65-8.38,3.94-12.68,4.06-1.61,0-3.93-.08-4.68-1.78-.91-2.07.56-4.42,1.36-6.25a23.07,23.07,0,0,0,2.3-7.5,7.5,7.5,0,0,0-4.75,6.59c0,1,.12,2,.11,3A4.07,4.07,0,0,1,72,29a2.74,2.74,0,0,1-2.66.74c-1.74-.49-2.29-2.48-2.17-4.08a9.23,9.23,0,0,1,2.1-5,24.94,24.94,0,0,1,5.83-4.78,12.11,12.11,0,0,1-8.89-3.82,5.68,5.68,0,0,1-1.72-3.44,2.82,2.82,0,0,1,2-3,3.28,3.28,0,0,1,3.08,1.66c.69,1,1,2.23,1.68,3.3a7.51,7.51,0,0,0,2.44,2.48c.47.3,2.93,1.58,3.21,1,.2-.44-.14-1.19-.27-1.62-.22-.75-.38-1.52-.57-2.29L75.29,7a15.24,15.24,0,0,1-.83-4.11,2.85,2.85,0,0,1,.24-1.19C76.13-1.23,79.88.33,82,1.32a17.62,17.62,0,0,1,6.18,4.85,6.57,6.57,0,0,1,1.79,4.77A5.39,5.39,0,0,1,86.17,15a16,16,0,0,1-5.78.52,25.66,25.66,0,0,1,6,2.13A10.42,10.42,0,0,1,91.7,24,6.07,6.07,0,0,1,91.2,28.12ZM80,14.33a7,7,0,0,0,3.16-.94,4.16,4.16,0,0,0,2-3.66,4.25,4.25,0,0,0-1.72-3.47c-1-.65-2.6-1.14-3.28.16a11.26,11.26,0,0,0-.88,3.43c-.15,1-.26,2-.32,2.93a3.14,3.14,0,0,0,0,1.33.33.33,0,0,0,.16.17A1.56,1.56,0,0,0,80,14.33Zm7.18,9.81A5.61,5.61,0,0,0,87,22a6.54,6.54,0,0,0-1.85-3.1,10.1,10.1,0,0,0-4.61-2.15c-.36-.09-1-.28-1.29,0a1.29,1.29,0,0,0-.24.94c0,.65.1,1.3.16,2a34.86,34.86,0,0,0,.59,3.66,7.58,7.58,0,0,0,1.35,3A3.62,3.62,0,0,0,83,27.61a3.34,3.34,0,0,0,3.43-1.47l.06-.09A4.45,4.45,0,0,0,87.18,24.14Z"/><path class="cls-2" d="M143.1,101.48c6.77,1.54,7.76,9.61,9.28,15.14.56,2.07,1.15,5.11-.83,6.63-2.38,1.83-5.89.66-8.52.21-3.43-.58-7-1.2-10.45-.6a10,10,0,0,0,10,4.07c1.29-.27,2.51-.79,3.8-1.09a5.45,5.45,0,0,1,3.84.3,3.6,3.6,0,0,1,1.8,3.21c-.08,2.41-2.48,3.76-4.59,4.1a12.16,12.16,0,0,1-7.09-1.15,32.78,32.78,0,0,1-8-6A16.19,16.19,0,0,1,130.21,139a7.55,7.55,0,0,1-3.92,3.31,3.76,3.76,0,0,1-4.47-1.71c-.68-1.51.05-3.31,1.16-4.52s2.57-2.08,3.74-3.23a10.06,10.06,0,0,0,2.46-4c.23-.7,1.11-4.3.23-4.47-.64-.12-1.5.57-2,.86-.9.53-1.86,1-2.79,1.47l-3.88,2c-1.67.87-3.19,2-5.07,2.38a3.65,3.65,0,0,1-1.61.06c-4.21-.94-3.38-6.29-2.76-9.32a23.61,23.61,0,0,1,4.33-9.53c1.42-1.85,3.3-3.59,5.61-3.84,2.58-.28,5.06,1.41,6.47,3.59a21.23,21.23,0,0,1,2.49,7.33,35.72,35.72,0,0,1,.86-8.45c.91-3.54,3.26-7.24,6.55-8.89A8.06,8.06,0,0,1,143.1,101.48Zm-14.32,18.87a9.5,9.5,0,0,0-2.22-3.79,5.55,5.55,0,0,0-5.37-1.44,5.68,5.68,0,0,0-4,3.34c-.53,1.47-.65,3.72,1.25,4.19a15,15,0,0,0,4.73.06c1.3-.12,2.6-.28,3.89-.52.46-.08,1.37-.09,1.73-.41a.63.63,0,0,0,.16-.27A2.11,2.11,0,0,0,128.78,120.35Zm10.44-12.41a7.61,7.61,0,0,0-2.71.86,8.66,8.66,0,0,0-3.42,3.37,13.39,13.39,0,0,0-1.33,6.66c0,.49,0,1.37.42,1.67a1.69,1.69,0,0,0,1.29,0c.84-.26,1.66-.53,2.49-.83a44.26,44.26,0,0,0,4.55-1.92,9.93,9.93,0,0,0,3.44-2.7,4.8,4.8,0,0,0,1.08-2.83,4.47,4.47,0,0,0-3-4l-.14,0A6.08,6.08,0,0,0,139.22,107.94Z"/><path class="cls-2" d="M136.25,85.74l-1.2-.12,0,.43.73.07v0a.64.64,0,0,1-.72.64.7.7,0,0,1-.54-.32,1.17,1.17,0,0,1-.15-.77,1.28,1.28,0,0,1,.29-.74.69.69,0,0,1,.58-.23.58.58,0,0,1,.41.22.64.64,0,0,1,.12.42l.5,0a1,1,0,0,0-1-1.16,1.2,1.2,0,0,0-1,.35,1.69,1.69,0,0,0-.47,1.08,1.52,1.52,0,0,0,.27,1.11,1.15,1.15,0,0,0,.85.47.89.89,0,0,0,.88-.36l0,.39.34,0Z"/><path class="cls-2" d="M136.58,87.44l.47.08.3-2-.47-.07Zm.35-2.28.48.07.08-.55-.47-.07Z"/><path class="cls-2" d="M138.12,87.71l.3-1.55.66.13.07-.39-.65-.13.06-.34c.05-.22.14-.32.27-.29s.17.15.13.37l.37.08c.09-.46-.05-.79-.46-.87s-.69.14-.79.65l-.06.31-.23-.05-.08.4.24,0-.3,1.55Z"/><path class="cls-2" d="M139.83,85.34c-.13.51-.21.67-.42.62l-.09,0-.09.38.23.06-.19.78a.93.93,0,0,0,0,.57.56.56,0,0,0,.48.38c.42.11.71-.16.82-.63l-.36-.09c-.06.24-.18.37-.33.33s-.2-.18-.14-.45l.2-.77.75.18.1-.38-.76-.19.17-.68Z"/><path class="cls-2" d="M140.66,88.32l.47.13.55-1.89-.46-.13Zm.65-2.22.46.13.16-.53-.46-.14Z"/><path class="cls-2" d="M141.59,88.59l.46.15.34-1a.63.63,0,0,1,.26-.32.41.41,0,0,1,.35,0c.24.08.31.31.2.62l-.35,1,.45.16.38-1.11c.17-.49.09-.87-.33-1a.73.73,0,0,0-.81.2l.13-.38-.43-.15Z"/><path class="cls-2" d="M145.22,87.78a.72.72,0,0,0-1,.31.59.59,0,0,0,0,.59.42.42,0,0,0-.47.23.38.38,0,0,0,.15.48.49.49,0,0,0-.51.31c-.15.35.05.69.56.91s1.08.13,1.26-.3-.05-.78-.55-1l-.34-.15c-.15-.06-.2-.14-.16-.23a.15.15,0,0,1,.19-.09,1.7,1.7,0,0,0,.33.2.73.73,0,0,0,1-.32.67.67,0,0,0,0-.46.59.59,0,0,1,.41,0l.16-.38a.67.67,0,0,0-.71.12A1.07,1.07,0,0,0,145.22,87.78Zm-.46,2.36c-.09.2-.32.24-.61.11s-.43-.3-.34-.51.31-.22.59-.1S144.84,89.94,144.76,90.14Zm.05-1.39a.37.37,0,1,1,.28-.68.37.37,0,1,1-.28.68Z"/><path class="cls-2" d="M146.89,90.8l.32.17,1-.85-.19,1.3.32.18L150,90.26l-.43-.24-1,.94.22-1.4-.28-.16-1.06.95.24-1.4-.46-.26Z"/><path class="cls-2" d="M149.17,92.13l.4.26,1.07-1.66-.4-.26Zm1.25-1.95.41.26.3-.47-.4-.26Z"/><path class="cls-2" d="M151.63,90.55c-.3.43-.44.55-.61.42l-.07,0-.23.33.19.13-.46.66a1,1,0,0,0-.22.53.6.6,0,0,0,.31.53c.35.25.72.1,1-.29l-.31-.21c-.14.19-.3.27-.42.18s-.13-.24,0-.46l.46-.66.64.45.23-.33-.64-.44.41-.58Z"/><path class="cls-2" d="M151.32,93.61l.38.3.66-.83a.57.57,0,0,1,.35-.22.43.43,0,0,1,.35.07c.19.16.18.4,0,.65l-.68.85.37.3.74-.91c.32-.4.37-.79,0-1.07a.72.72,0,0,0-.78-.1l.88-1.11-.38-.3Z"/><path class="cls-2" d="M154.32,94.84a.92.92,0,0,0-.3.75,1.18,1.18,0,0,0,.38.74,1.11,1.11,0,0,0,.72.35.76.76,0,0,0,.64-.26c.73-.75-.57-1.59-.14-2a.38.38,0,0,1,.56,0,.44.44,0,0,1,0,.65l.34.34a.82.82,0,0,0,.25-.63,1,1,0,0,0-.33-.67,1.07,1.07,0,0,0-.66-.33.74.74,0,0,0-.62.24.65.65,0,0,0-.2.36,1.09,1.09,0,0,0,.19.73c.17.36.38.68.15.92s-.41.15-.62,0a.53.53,0,0,1,0-.8Z"/><path class="cls-2" d="M156.79,96.21a1.06,1.06,0,0,0-.73.3,1,1,0,0,0-.37.69,1,1,0,0,0,.93,1,1.07,1.07,0,0,0,.73-.3,1.09,1.09,0,0,0,.38-.69.91.91,0,0,0-.26-.72A.94.94,0,0,0,156.79,96.21Zm.49,1a.86.86,0,0,1-.26.4.8.8,0,0,1-.42.21.43.43,0,0,1-.46-.52.71.71,0,0,1,.25-.39.7.7,0,0,1,.42-.21.4.4,0,0,1,.37.14A.41.41,0,0,1,157.28,97.18Z"/><path class="cls-2" d="M158.41,99.32c-.28.22-.58.25-.75,0s-.11-.42.15-.62l.88-.68-.3-.38-.93.72c-.4.31-.53.69-.24,1.06a.66.66,0,0,0,.73.26l-.29.22.28.36,1.55-1.21-.29-.38Z"/><path class="cls-2" d="M161,99.34l-.28-.39-2.48,1.74.28.39Z"/><path class="cls-2" d="M158.76,101.48l.27.4.47-.31-.27-.4Z"/><path class="cls-2" d="M162.21,104.13l-.58-1-.37.2.35.64,0,0a.64.64,0,0,1-.94-.24.68.68,0,0,1,0-.62,1.12,1.12,0,0,1,.54-.56,1.29,1.29,0,0,1,.77-.18.69.69,0,0,1,.52.36.51.51,0,0,1,0,.46.6.6,0,0,1-.27.33l.24.44a1.11,1.11,0,0,0,.51-.62,1.06,1.06,0,0,0-.11-.84,1.18,1.18,0,0,0-.84-.62,1.73,1.73,0,0,0-1.17.22,1.5,1.5,0,0,0-.76.84,1.17,1.17,0,0,0,.09,1,.92.92,0,0,0,.8.53l-.35.19.17.31Z"/><path class="cls-2" d="M161,105.38l.21.43L163,105l-.21-.43Zm2.09-1,.21.44.5-.24-.21-.44Z"/><path class="cls-2" d="M161.64,106.79l1.45-.62.26.61.37-.16-.27-.61.32-.14q.31-.14.39.06c.06.12,0,.23-.23.32l.14.35c.43-.19.62-.49.46-.87s-.5-.49-1-.29l-.29.13-.09-.22-.37.16.1.21-1.45.63Z"/><path class="cls-2" d="M164.56,106.87c-.49.19-.67.21-.74,0l0-.09-.38.14.09.23-.75.27a1,1,0,0,0-.48.32.58.58,0,0,0-.05.61c.15.41.54.49,1,.33l-.13-.35c-.23.08-.41,0-.46-.09s0-.27.29-.36l.75-.28.27.72.38-.13-.27-.73.65-.25Z"/><path class="cls-2" d="M162.57,109.24l.15.46,1.88-.61-.15-.46Zm2.2-.71.15.45.53-.17-.15-.46Z"/><path class="cls-2" d="M162.88,110.15l.12.47,1-.28a.58.58,0,0,1,.41,0,.37.37,0,0,1,.24.26c.07.24-.08.43-.39.51l-1.06.29.13.47,1.13-.31c.5-.14.77-.42.65-.85a.72.72,0,0,0-.62-.56l.39-.1-.12-.44Z"/><path class="cls-2" d="M165.58,112.7c-.1-.5-.42-.77-.84-.69a.59.59,0,0,0-.47.36.39.39,0,0,0-.44-.25.37.37,0,0,0-.32.38.48.48,0,0,0-.54-.24c-.37.07-.55.43-.44,1s.5,1,.95.87.62-.48.51-1l-.07-.37c0-.15,0-.24.11-.26s.14,0,.18.11a1.25,1.25,0,0,0,0,.38c.1.49.43.76.84.68a.62.62,0,0,0,.4-.24.58.58,0,0,1,.2.36l.41-.09a.67.67,0,0,0-.5-.51A1.19,1.19,0,0,0,165.58,112.7Zm-2.2.94c-.23,0-.38-.13-.45-.45s0-.51.24-.56.35.13.41.44S163.58,113.6,163.38,113.64Zm1.17-.74a.36.36,0,0,1,.28-.47.4.4,0,0,1,.16.79A.37.37,0,0,1,164.55,112.9Z"/><path class="cls-2" d="M164,115.78l0,.35,1.27.35-1.19.57,0,.36,2,.6,0-.48-1.37-.33,1.28-.61,0-.33-1.38-.33,1.29-.59,0-.53Z"/><path class="cls-2" d="M164.22,118.41v.48l2,0v-.48Zm2.31-.06v.48h.56v-.48Z"/><path class="cls-2" d="M166.91,119.55c-.53,0-.7,0-.69-.27v-.09h-.4v.24l-.8,0a1.08,1.08,0,0,0-.56.12.6.6,0,0,0-.26.56c0,.43.32.65.8.66v-.38c-.24,0-.39-.09-.39-.24s.13-.24.41-.24l.8,0,0,.77h.4l0-.78h.69Z"/><path class="cls-2" d="M164.21,121l0,.48,1,.08a.57.57,0,0,1,.38.16.41.41,0,0,1,.14.33c0,.25-.22.37-.54.35l-1.1-.08,0,.48,1.17.09c.51,0,.86-.14.89-.59a.7.7,0,0,0-.35-.7l1.41.1,0-.48Z"/><path class="cls-2" d="M164.89,124.2a.92.92,0,0,0-.79.17,1.17,1.17,0,0,0-.4.73,1.15,1.15,0,0,0,.12.8.8.8,0,0,0,.58.38c1,.18,1-1.36,1.58-1.26.22,0,.32.24.28.5a.44.44,0,0,1-.51.4l-.09.47a.8.8,0,0,0,.66-.14,1,1,0,0,0,.37-.65,1.13,1.13,0,0,0-.1-.74.74.74,0,0,0-.56-.37.6.6,0,0,0-.4,0,1.15,1.15,0,0,0-.5.56c-.2.35-.35.71-.67.65s-.36-.25-.31-.55a.53.53,0,0,1,.65-.47Z"/><path class="cls-2" d="M165.15,127a1.07,1.07,0,0,0-.66-.44,1,1,0,0,0-.78.09.88.88,0,0,0-.46.6.92.92,0,0,0,.12.76,1,1,0,0,0,.66.43,1,1,0,0,0,.78-.08,1,1,0,0,0,.34-1.36Zm-.53.95a.89.89,0,0,1-.88-.22.43.43,0,0,1-.09-.38.39.39,0,0,1,.25-.29.74.74,0,0,1,.47,0,.79.79,0,0,1,.42.24.41.41,0,0,1,.09.37A.43.43,0,0,1,164.62,128Z"/><path class="cls-2" d="M163.5,130.1c-.35-.11-.54-.34-.45-.61s.28-.32.6-.22l1.06.34.14-.46-1.12-.36c-.48-.15-.87,0-1,.4a.67.67,0,0,0,.21.75l-.36-.11-.14.43,1.88.6.15-.45Z"/><path class="cls-2" d="M164.92,132.23l.17-.45-2.84-1.07-.17.45Z"/><path class="cls-2" d="M161.91,131.6l-.19.45.53.21.18-.44Z"/><path class="cls-2" d="M161.66,135.94l.55-1.07-.38-.19-.33.65-.05,0a.64.64,0,0,1-.33-.91.67.67,0,0,1,.5-.37,1.1,1.1,0,0,1,.76.14,1.14,1.14,0,0,1,.58.54.62.62,0,0,1,0,.62.54.54,0,0,1-.35.3.58.58,0,0,1-.43,0L162,136a1.09,1.09,0,0,0,.81.07,1,1,0,0,0,.62-.56,1.18,1.18,0,0,0,.05-1,1.7,1.7,0,0,0-.84-.83,1.5,1.5,0,0,0-1.13-.16,1.19,1.19,0,0,0-.75.62.94.94,0,0,0,0,1l-.35-.18-.16.31Z"/><path class="cls-2" d="M160,135.63l-.24.42,1.7,1,.24-.42Zm2,1.17-.25.42.49.28.24-.42Z"/><path class="cls-2" d="M159.14,137l1.33.85-.37.56.34.22.36-.57.29.19q.28.18.18.36c-.07.11-.21.1-.4,0l-.2.32c.39.25.75.24,1-.11s.13-.69-.31-1l-.27-.17.13-.2-.34-.22-.13.2-1.32-.84Z"/><path class="cls-2" d="M160.72,139.43c-.43-.31-.55-.44-.43-.62l.06-.07-.33-.23-.14.19-.65-.46a1.1,1.1,0,0,0-.53-.22.6.6,0,0,0-.53.31c-.25.35-.11.72.28,1l.22-.31c-.2-.14-.27-.3-.18-.42s.24-.13.46,0l.66.47-.45.63.32.23.45-.63.57.4Z"/><path class="cls-2" d="M157.64,139.12l-.3.38,1.57,1.21.29-.38Zm1.83,1.41-.29.39.44.34.29-.38Z"/><path class="cls-2" d="M157.05,139.89l-.31.36.8.69a.54.54,0,0,1,.21.35.38.38,0,0,1-.08.35c-.17.19-.4.17-.65,0l-.83-.71-.31.37.89.76c.39.33.78.4,1.07.06a.74.74,0,0,0,.11-.83l.31.26.29-.34Z"/><path class="cls-2" d="M156.48,143.56c.35-.37.4-.79.09-1.09a.6.6,0,0,0-.56-.18.42.42,0,0,0,0-.51.37.37,0,0,0-.5,0,.51.51,0,0,0-.11-.59c-.27-.26-.66-.21-1.05.19s-.51,1-.18,1.28.74.24,1.12-.15l.26-.27c.11-.11.2-.13.28,0s.06.12,0,.21a1,1,0,0,0-.3.23.72.72,0,0,0-.09,1.08.67.67,0,0,0,.42.19.53.53,0,0,1-.17.37l.29.29a.66.66,0,0,0,.15-.7A1.17,1.17,0,0,0,156.48,143.56Zm-2-1.29c-.16-.16-.11-.38.12-.62s.43-.28.6-.12.09.36-.13.59S154.6,142.42,154.45,142.27Zm1.28.55a.35.35,0,0,1,.54,0,.36.36,0,0,1,0,.54.37.37,0,0,1-.54,0A.36.36,0,0,1,155.73,142.82Z"/><path class="cls-2" d="M153.06,144l-.27.22.43,1.24-1.14-.65-.28.23.65,2,.38-.31-.5-1.32,1.22.72.26-.21-.5-1.33,1.21.74.41-.34Z"/><path class="cls-2" d="M151,145.65l-.39.29,1.15,1.6.39-.29Zm1.35,1.88-.39.28.33.45.39-.28Z"/><path class="cls-2" d="M151.58,148.52c-.3-.44-.36-.6-.18-.72l.08-.05-.22-.33-.2.13-.45-.67a1,1,0,0,0-.41-.4.62.62,0,0,0-.61.1c-.36.24-.36.64-.09,1l.31-.21c-.13-.2-.14-.38,0-.46s.27,0,.42.2l.45.66-.65.43.22.34.65-.43.38.58Z"/><path class="cls-2" d="M148.83,147.13l-.42.24.53.92a.53.53,0,0,1,.08.4.38.38,0,0,1-.19.3c-.22.13-.43,0-.6-.25l-.55-1-.41.25.59,1c.25.44.6.63,1,.41a.73.73,0,0,0,.39-.69l.71,1.22.41-.24Z"/><path class="cls-2" d="M146.6,149.47a1,1,0,0,0-.58-.56,1.26,1.26,0,0,0-.84.09,1.14,1.14,0,0,0-.59.55.83.83,0,0,0,0,.69c.44.95,1.69,0,1.94.6.09.2,0,.4-.26.51a.44.44,0,0,1-.61-.2l-.45.2a.81.81,0,0,0,.5.46,1,1,0,0,0,.74-.06,1.09,1.09,0,0,0,.55-.5.75.75,0,0,0,0-.67.63.63,0,0,0-.27-.31,1.15,1.15,0,0,0-.74-.1c-.4,0-.78.12-.91-.18s0-.44.27-.57a.54.54,0,0,1,.76.27Z"/><path class="cls-2" d="M144.41,151.27a1.16,1.16,0,0,0-.52-1.39,1,1,0,0,0-1.31.49,1.16,1.16,0,0,0,.52,1.39.91.91,0,0,0,.76,0A.89.89,0,0,0,144.41,151.27Zm-1.08.1a.73.73,0,0,1-.27-.38.68.68,0,0,1,0-.46.38.38,0,0,1,.26-.29.4.4,0,0,1,.38,0,.81.81,0,0,1,.28.38.78.78,0,0,1,0,.47.42.42,0,0,1-.26.29A.42.42,0,0,1,143.33,151.37Z"/><path class="cls-2" d="M140.94,151.64c-.1-.34,0-.63.25-.71s.42,0,.52.37l.31,1.07.47-.14-.34-1.13c-.14-.48-.45-.75-.9-.61a.66.66,0,0,0-.51.59l-.1-.36-.44.13.56,1.89.46-.13Z"/><path class="cls-2" d="M140,154l.47-.11-.71-2.95-.47.11Z"/><path class="cls-2" d="M138.8,151.18l-.47.1.11.55.47-.1Z"/><path class="cls-2" d="M135.07,153.43l1.19-.16,0-.42-.73.09v-.05a.64.64,0,0,1,.56-.79.72.72,0,0,1,.6.2,1.14,1.14,0,0,1,.31.71,1.24,1.24,0,0,1-.12.79.67.67,0,0,1-.51.35.57.57,0,0,1-.45-.12.63.63,0,0,1-.21-.38l-.5.06a1.09,1.09,0,0,0,.4.71,1,1,0,0,0,.81.2,1.15,1.15,0,0,0,.89-.56,1.66,1.66,0,0,0,.22-1.16,1.52,1.52,0,0,0-.51-1,1.2,1.2,0,0,0-.93-.27.9.9,0,0,0-.78.55l0-.39-.35,0Z"/><path class="cls-2" d="M134.36,151.84l-.48,0,.14,2,.47,0Zm.16,2.3-.48,0,0,.55.48,0Z"/><path class="cls-2" d="M132.79,151.92l.06,1.57-.67,0v.4l.67,0v.35c0,.22-.06.34-.2.35s-.2-.11-.21-.34h-.38c0,.46.23.75.64.74s.65-.28.63-.81v-.31h.24l0-.4h-.23l-.05-1.58Z"/><path class="cls-2" d="M131.66,154.61c0-.53.06-.7.27-.7H132v-.4h-.24v-.8a.91.91,0,0,0-.12-.56.57.57,0,0,0-.55-.26c-.43,0-.66.32-.66.79h.37c0-.24.1-.39.25-.39s.24.13.23.4v.8h-.78v.4h.78v.7Z"/><path class="cls-2" d="M130.05,154.2l-.48,0,0,.56.48,0Zm.13-2.31-.48,0-.11,2,.48,0Z"/><path class="cls-2" d="M129.21,151.84l-.48-.05-.11,1.05a.68.68,0,0,1-.18.38.41.41,0,0,1-.33.12c-.25,0-.37-.23-.33-.55l.11-1.09-.47,0-.13,1.17c-.05.51.11.86.55.91a.74.74,0,0,0,.75-.38l0,.41.45,0Z"/><path class="cls-2" d="M125.85,153.44c.51.09.88-.11,1-.53a.59.59,0,0,0-.17-.57.4.4,0,0,0,.4-.32.38.38,0,0,0-.24-.44.5.5,0,0,0,.42-.42c.07-.37-.2-.66-.75-.76s-1.08.12-1.16.57.23.75.76.84l.37.07c.15,0,.22.09.2.2a.18.18,0,0,1-.17.13,1,1,0,0,0-.36-.12c-.5-.09-.87.12-.94.53a.65.65,0,0,0,.08.46.57.57,0,0,1-.41.06l-.07.41a.66.66,0,0,0,.66-.28A1.08,1.08,0,0,0,125.85,153.44Zm.19-1a.37.37,0,1,1-.13.73.37.37,0,1,1,.13-.73Zm-.26-1.36c0-.22.25-.3.57-.25s.48.2.44.42-.25.29-.56.24S125.74,151.25,125.78,151Z"/><path class="cls-2" d="M123.55,150.88l-.34-.1-.78,1.05-.1-1.31-.35-.1-1.3,1.68.47.14.8-1.16.1,1.42.32.09.81-1.16.08,1.42.51.15Z"/><path class="cls-2" d="M120.25,152.27l-.45-.16-.19.53.45.16Zm.79-2.17-.46-.17-.67,1.86.46.16Z"/><path class="cls-2" d="M119,152.19c.2-.48.3-.63.5-.55l.08,0,.15-.37-.22-.09.3-.75a1.06,1.06,0,0,0,.1-.56.62.62,0,0,0-.42-.45c-.4-.16-.73.06-.91.51l.34.14c.1-.23.24-.33.37-.28s.18.21.08.46l-.3.75-.72-.3-.15.37.72.3-.27.64Z"/><path class="cls-2" d="M118.6,149.14l-.43-.21-.46.95a.61.61,0,0,1-.29.3.38.38,0,0,1-.36,0c-.22-.1-.27-.34-.13-.63l.48-1-.44-.21-.51,1.06c-.22.46-.18.85.22,1a.73.73,0,0,0,.79-.07l-.62,1.27.44.21Z"/><path class="cls-2" d="M115.41,148.61a.93.93,0,0,0,.13-.79,1.14,1.14,0,0,0-.54-.64,1.12,1.12,0,0,0-.78-.19.8.8,0,0,0-.56.41c-.55.89.9,1.41.59,1.93-.11.19-.34.21-.57.08a.44.44,0,0,1-.18-.62l-.42-.26a.84.84,0,0,0-.1.67,1.15,1.15,0,0,0,1.2.75.74.74,0,0,0,.55-.38.72.72,0,0,0,.11-.39,1.22,1.22,0,0,0-.35-.67c-.25-.31-.53-.58-.36-.86s.37-.24.63-.09a.54.54,0,0,1,.2.78Z"/><path class="cls-2" d="M112.69,147.82a1.08,1.08,0,0,0,.65-.45,1,1,0,0,0,.21-.76.91.91,0,0,0-.4-.65.93.93,0,0,0-.75-.16,1,1,0,0,0-.64.45,1,1,0,0,0-.21.76.89.89,0,0,0,.4.64A.93.93,0,0,0,112.69,147.82ZM112,147a.82.82,0,0,1,.16-.44.8.8,0,0,1,.36-.29.39.39,0,0,1,.39.05.38.38,0,0,1,.18.34.72.72,0,0,1-.16.44.64.64,0,0,1-.36.3.42.42,0,0,1-.39,0A.4.4,0,0,1,112,147Z"/><path class="cls-2" d="M110.43,145.16c.23-.28.51-.38.73-.2s.2.38,0,.64l-.7.86.38.31.74-.92c.32-.39.36-.79,0-1.09a.67.67,0,0,0-.77-.08l.23-.29-.35-.29-1.25,1.53.38.31Z"/><path class="cls-2" d="M107.92,145.7l.36.32,2-2.25-.36-.32Z"/><path class="cls-2" d="M109.6,143.12l-.35-.33-.39.41.35.33Z"/><path class="cls-2" d="M105.64,141.31l.8.9.32-.29-.48-.54,0,0a.64.64,0,0,1,1,0,.68.68,0,0,1,.17.6,1.09,1.09,0,0,1-.41.66,1.22,1.22,0,0,1-.71.35.66.66,0,0,1-.58-.23.54.54,0,0,1-.15-.44.61.61,0,0,1,.19-.39l-.33-.37a1,1,0,0,0-.36.72,1,1,0,0,0,.29.79,1.16,1.16,0,0,0,1,.42,1.69,1.69,0,0,0,1.08-.47,1.49,1.49,0,0,0,.56-1,1.19,1.19,0,0,0-.3-.92.93.93,0,0,0-.9-.34l.3-.26-.24-.26Z"/><path class="cls-2" d="M104.74,141.27l-.3-.38-.44.35.3.38Zm1.81-1.44-.3-.37-1.54,1.22.3.38Z"/><path class="cls-2" d="M105.6,138.59l-1.27.93-.39-.54-.32.24.39.54-.28.2c-.18.14-.31.15-.39,0s0-.23.16-.37l-.23-.3c-.37.27-.49.61-.25.94s.6.37,1,.07l.26-.19.14.19.32-.24-.14-.19,1.27-.93Z"/><path class="cls-2" d="M102.74,139.18c.44-.29.61-.35.73-.18l0,.08.33-.22-.13-.2.67-.44a1.19,1.19,0,0,0,.4-.41.62.62,0,0,0-.1-.61c-.24-.36-.64-.36-1-.1l.2.31c.21-.13.38-.14.46,0s0,.27-.2.42l-.66.44-.43-.65-.34.22.43.65-.58.38Z"/><path class="cls-2" d="M102.16,137.61l-.25-.41-.47.29.24.41Zm2-1.19-.25-.42-1.69,1,.25.41Z"/><path class="cls-2" d="M103.65,135.59l-.23-.42-.93.5a.6.6,0,0,1-.41.06.37.37,0,0,1-.29-.2c-.12-.22,0-.43.27-.59l1-.51-.23-.43-1,.56c-.45.24-.65.58-.44,1a.72.72,0,0,0,.73.4l-.36.19.22.41Z"/><path class="cls-2" d="M100.44,133.72c.21.47.58.66,1,.48a.6.6,0,0,0,.38-.45.4.4,0,0,0,.49.14.36.36,0,0,0,.22-.44.5.5,0,0,0,.58.11c.35-.15.44-.54.21-1.05s-.71-.82-1.13-.64-.49.62-.27,1.11l.16.34c.06.14,0,.23,0,.28a.16.16,0,0,1-.2-.07,1.4,1.4,0,0,0-.11-.37.72.72,0,0,0-1-.47.61.61,0,0,0-.33.32.52.52,0,0,1-.28-.3l-.38.17a.68.68,0,0,0,.6.4A1.06,1.06,0,0,0,100.44,133.72Zm1-.43a.37.37,0,1,1-.5-.21A.37.37,0,0,1,101.4,133.29Zm1-1c.21-.09.4,0,.53.33s.11.51-.1.6-.37,0-.5-.33S102.18,132.39,102.37,132.31Z"/><path class="cls-2" d="M101.25,130.38l-.11-.34-1.31,0,1-.83-.12-.34-2.11-.13.15.46h1.4l-1.11.89.1.31,1.42,0-1.13.86.17.51Z"/><path class="cls-2" d="M98.24,128.43l-.12-.47-.54.14.12.47Zm2.24-.58-.12-.47-1.91.5.12.46Z"/><path class="cls-2" d="M97.6,127.35c.52-.11.69-.11.74.1l0,.09.39-.08,0-.24.78-.16a1,1,0,0,0,.52-.25.59.59,0,0,0,.13-.6c-.09-.42-.46-.56-.92-.46l.07.36c.24,0,.41,0,.44.15s-.07.27-.34.32l-.78.17-.17-.76-.39.09.17.76-.69.14Z"/><path class="cls-2" d="M99.9,125.3l-.07-.48-1,.16a.55.55,0,0,1-.4-.08.39.39,0,0,1-.21-.29c0-.24.13-.41.45-.46L99.7,124l-.07-.48-1.16.18c-.51.07-.81.32-.74.76a.71.71,0,0,0,.5.61l-1.4.21.07.48Z"/><path class="cls-2" d="M98.54,122.37a.93.93,0,0,0,.73-.34,1.13,1.13,0,0,0,.22-.81,1.11,1.11,0,0,0-.28-.75.84.84,0,0,0-.65-.24c-1,.06-.66,1.55-1.27,1.58-.22,0-.37-.16-.38-.42a.43.43,0,0,1,.41-.5l0-.49a.83.83,0,0,0-.61.29,1.06,1.06,0,0,0-.21.72,1,1,0,0,0,.27.69.71.71,0,0,0,.62.24.65.65,0,0,0,.39-.13,1.16,1.16,0,0,0,.36-.66c.11-.38.17-.76.5-.78s.41.17.43.47a.53.53,0,0,1-.53.6Z"/><path class="cls-2" d="M97.66,119.67a1.15,1.15,0,0,0,1.49,0,.87.87,0,0,0,.3-.69.9.9,0,0,0-.28-.71,1,1,0,0,0-.74-.28,1.08,1.08,0,0,0-.75.25,1,1,0,0,0-.3.7A.91.91,0,0,0,97.66,119.67Zm.3-1a.75.75,0,0,1,.46-.12.8.8,0,0,1,.45.13A.43.43,0,0,1,99,119a.39.39,0,0,1-.18.34.72.72,0,0,1-.45.12.81.81,0,0,1-.46-.13.41.41,0,0,1-.17-.35A.38.38,0,0,1,98,118.64Z"/><path class="cls-2" d="M98.58,116.31c.36,0,.6.21.57.49s-.2.37-.53.35l-1.11-.1,0,.48,1.17.1c.51,0,.86-.15.9-.62a.65.65,0,0,0-.36-.68l.37,0,0-.45-2-.17,0,.48Z"/><path class="cls-2" d="M96.71,114.55l-.06.47,3,.4.07-.47Z"/><path class="cls-2" d="M99.79,114.48l.07-.48-.55-.09-.08.48Z"/><path class="cls-2" d="M99.05,110.18l-.29,1.17.42.1.17-.71h.05a.64.64,0,0,1,.53.81.7.7,0,0,1-.4.49,1.13,1.13,0,0,1-.78,0,1.26,1.26,0,0,1-.69-.39.69.69,0,0,1-.14-.61.56.56,0,0,1,.28-.38.59.59,0,0,1,.43,0l.12-.49a1,1,0,0,0-1.29.8,1.18,1.18,0,0,0,.2,1,1.68,1.68,0,0,0,1,.63,1.52,1.52,0,0,0,1.13-.11,1.19,1.19,0,0,0,.6-.77.94.94,0,0,0-.23-.93l.38.1.09-.34Z"/><path class="cls-2" d="M98.58,109.42l.14-.46-.53-.17-.15.46Zm2.21.69.14-.46-1.88-.59-.15.46Z"/><path class="cls-2" d="M101.27,108.62l-1.48-.52.23-.64-.38-.13-.22.63-.33-.11c-.21-.08-.3-.18-.25-.31s.17-.15.39-.07l.13-.36c-.44-.16-.79-.06-.93.33s0,.7.53.87l.3.11-.08.22.37.13.08-.22,1.48.53Z"/><path class="cls-2" d="M99.18,106.59c.49.2.63.3.55.5l0,.08.37.15.09-.22.74.31a1,1,0,0,0,.56.09.57.57,0,0,0,.45-.42c.17-.4-.06-.73-.5-.91l-.14.35c.22.09.33.23.27.37s-.2.18-.46.07l-.74-.3.3-.72-.37-.15-.3.72-.65-.27Z"/><path class="cls-2" d="M100.15,105.22l.2-.43-.51-.24-.2.44Zm2.1,1,.2-.44-1.79-.82-.2.44Z"/><path class="cls-2" d="M102.66,105.31l.22-.43-.94-.49a.63.63,0,0,1-.28-.3.39.39,0,0,1,0-.35c.12-.23.35-.26.64-.11l1,.5.22-.42-1-.55c-.45-.23-.84-.21-1,.18a.74.74,0,0,0,.08.84l-.36-.19-.21.4Z"/><path class="cls-2" d="M102.4,101.6a.72.72,0,0,0,.15,1.08.62.62,0,0,0,.59,0,.41.41,0,0,0,.15.49.39.39,0,0,0,.5-.07.51.51,0,0,0,.23.55c.32.19.7,0,1-.43s.28-1-.11-1.28-.78-.07-1.06.39l-.2.32c-.08.14-.17.17-.26.12a.16.16,0,0,1-.06-.2,1.41,1.41,0,0,0,.25-.29.73.73,0,0,0-.16-1.08.62.62,0,0,0-.45-.09.55.55,0,0,1,.09-.4l-.35-.21a.65.65,0,0,0,0,.71A1.27,1.27,0,0,0,102.4,101.6Zm.89.55a.36.36,0,0,1-.52.16.37.37,0,0,1-.1-.54.36.36,0,0,1,.52-.15A.35.35,0,0,1,103.29,102.15Zm1.37.25c.19.12.19.35,0,.63s-.36.37-.55.25-.18-.33,0-.6S104.48,102.29,104.66,102.4Z"/><path class="cls-2" d="M105.63,100.39l.21-.28L105.15,99l1.26.38.22-.29-1.09-1.82-.3.39.78,1.17-1.35-.43-.2.26.78,1.18-1.35-.44-.32.42Z"/><path class="cls-2" d="M105.53,96.81l.32-.36-.42-.37-.32.36Zm1.74,1.52.32-.36-1.48-1.3-.32.36Z"/><path class="cls-2" d="M106.07,95.67c.38.36.48.51.33.67l-.06.06.29.28.16-.17.58.55a1,1,0,0,0,.49.29.58.58,0,0,0,.57-.23c.3-.31.21-.7-.13-1l-.26.27c.17.17.22.34.12.45s-.26.09-.46-.1l-.58-.55.54-.57-.29-.27-.54.56-.5-.48Z"/><path class="cls-2" d="M109.05,96.42l.36-.33-.72-.77a.6.6,0,0,1-.17-.38.41.41,0,0,1,.12-.34c.18-.17.41-.12.64.11l.74.8.35-.33-.8-.86c-.35-.37-.72-.48-1-.17a.74.74,0,0,0-.22.76l-1-1-.35.33Z"/><path class="cls-2" d="M110.71,93.64a.91.91,0,0,0,.69.41,1.15,1.15,0,0,0,.79-.27,1.12,1.12,0,0,0,.45-.66.84.84,0,0,0-.16-.68c-.64-.83-1.65.34-2-.15-.14-.17-.07-.39.13-.55a.44.44,0,0,1,.65.05l.38-.29a.84.84,0,0,0-.58-.34,1,1,0,0,0-.71.23,1.06,1.06,0,0,0-.42.61.71.71,0,0,0,.15.65.76.76,0,0,0,.32.25,1.23,1.23,0,0,0,.75-.08c.38-.12.73-.29.93,0a.42.42,0,0,1-.14.61.53.53,0,0,1-.79-.09Z"/><path class="cls-2" d="M112.43,91.39a1.08,1.08,0,0,0,.18.77,1.06,1.06,0,0,0,.64.47.87.87,0,0,0,.74-.14,1,1,0,0,0,.43-.63,1,1,0,0,0-.19-.76,1.05,1.05,0,0,0-.63-.48.93.93,0,0,0-.75.15A.88.88,0,0,0,112.43,91.39Zm1-.33a.73.73,0,0,1,.35.31.7.7,0,0,1,.14.44.38.38,0,0,1-.18.34.41.41,0,0,1-.39,0,.88.88,0,0,1-.5-.75.41.41,0,0,1,.19-.34A.39.39,0,0,1,113.46,91.06Z"/><path class="cls-2" d="M115.74,90.25c.17.31.16.61-.09.75s-.42,0-.59-.25l-.54-1-.42.23.58,1c.25.45.6.63,1,.4a.65.65,0,0,0,.36-.68l.18.32.4-.23-1-1.71-.42.23Z"/><path class="cls-2" d="M116.13,87.72l-.43.22,1.36,2.7.43-.21Z"/><path class="cls-2" d="M117.92,90.22l.44-.2-.24-.51-.44.2Z"/><path class="cls-2" d="M121.05,87.19l-1.13.42.15.4.69-.25,0,0a.65.65,0,0,1-.38.89.68.68,0,0,1-.62-.06,1.17,1.17,0,0,1-.47-.63,1.22,1.22,0,0,1-.06-.79.68.68,0,0,1,.43-.46.56.56,0,0,1,.46,0,.66.66,0,0,1,.29.33l.47-.18a1.14,1.14,0,0,0-.54-.6,1,1,0,0,0-.85,0,1.18,1.18,0,0,0-.74.74,1.73,1.73,0,0,0,0,1.18,1.51,1.51,0,0,0,.72.88,1.18,1.18,0,0,0,1,.06.92.92,0,0,0,.64-.72l.14.37.33-.12Z"/><path class="cls-2" d="M121.42,86.37l.46-.15-.16-.53-.46.14Zm.68,2.21.46-.14L122,86.55l-.46.14Z"/><path class="cls-2" d="M123.6,88.15l-.4-1.52.65-.17-.11-.39-.64.17-.09-.33c-.06-.22,0-.35.11-.38s.22.06.28.28l.37-.1c-.12-.45-.39-.68-.79-.58s-.56.42-.43.93l.08.3-.23.06.1.39.23-.06.4,1.52Z"/><path class="cls-2" d="M124.1,85.28c.11.51.11.69-.1.73l-.09,0,.08.39.23,0,.17.78a1,1,0,0,0,.24.52.57.57,0,0,0,.6.14c.42-.09.57-.46.47-.93l-.37.08c0,.24,0,.4-.15.43s-.26-.07-.32-.33l-.17-.79.76-.16-.08-.39-.76.16-.14-.68Z"/><path class="cls-2" d="M125.78,85.3l.48-.08-.1-.55-.47.08Zm.39,2.29.47-.08-.33-2-.47.08Z"/><path class="cls-2" d="M127.11,87.42l.47,0-.12-1.05a.56.56,0,0,1,.09-.4.37.37,0,0,1,.3-.2c.25,0,.41.14.44.46l.13,1.09.48-.06-.14-1.16c-.06-.51-.3-.82-.74-.77a.74.74,0,0,0-.64.53l0-.4-.45.06Z"/><path class="cls-2" d="M130,85.12c-.51,0-.82.31-.8.73a.59.59,0,0,0,.29.52.4.4,0,0,0-.32.4.37.37,0,0,0,.34.37.51.51,0,0,0-.33.5c0,.38.35.61.91.58s1-.35,1-.81-.39-.68-.92-.66l-.38,0q-.23,0-.24-.15a.16.16,0,0,1,.13-.16,1.58,1.58,0,0,0,.38,0c.51,0,.82-.31.8-.74a.62.62,0,0,0-.18-.42.55.55,0,0,1,.38-.16l0-.41a.67.67,0,0,0-.58.42A1,1,0,0,0,130,85.12Zm.61,2.32c0,.23-.18.36-.5.37s-.51-.08-.52-.31.17-.33.48-.35S130.62,87.23,130.63,87.44Zm-.56-1.27a.36.36,0,0,1-.42-.34.4.4,0,1,1,.42.34Z"/><path class="cls-2" d="M14.2,24C21,25.52,22,33.59,23.49,39.12c.56,2.07,1.14,5.11-.83,6.63-2.38,1.83-5.9.66-8.53.21-3.42-.58-7-1.2-10.44-.6a10,10,0,0,0,10.05,4.07c1.29-.27,2.51-.79,3.79-1.09a5.48,5.48,0,0,1,3.85.3,3.62,3.62,0,0,1,1.8,3.21c-.08,2.41-2.48,3.76-4.59,4.1a12.2,12.2,0,0,1-7.1-1.15c-3.05-1.43-5.57-3.75-8-6A16.23,16.23,0,0,1,1.32,61.51,7.59,7.59,0,0,1-2.6,64.82a3.77,3.77,0,0,1-4.48-1.71c-.67-1.51.06-3.31,1.17-4.52s2.56-2.08,3.74-3.23a10,10,0,0,0,2.45-4c.24-.7,1.11-4.3.23-4.47-.63-.12-1.49.57-2,.86-.91.53-1.86,1-2.79,1.47l-3.89,2c-1.67.87-3.19,2-5.06,2.38a3.66,3.66,0,0,1-1.61.06c-4.21-.94-3.38-6.29-2.76-9.32a23.47,23.47,0,0,1,4.33-9.53C-11.86,33-10,31.3-7.66,31.05c2.58-.28,5.05,1.41,6.46,3.59A21.24,21.24,0,0,1,1.3,42a35.2,35.2,0,0,1,.86-8.45c.91-3.54,3.26-7.24,6.55-8.89A8,8,0,0,1,14.2,24ZM-.11,42.85a9.5,9.5,0,0,0-2.22-3.79,5.57,5.57,0,0,0-5.38-1.44A5.67,5.67,0,0,0-11.66,41c-.54,1.47-.65,3.72,1.25,4.19a15,15,0,0,0,4.73.06c1.3-.12,2.6-.28,3.89-.52.46-.08,1.37-.09,1.73-.41A.63.63,0,0,0,.1,44,2.21,2.21,0,0,0-.11,42.85ZM10.33,30.44a7.61,7.61,0,0,0-2.71.86A8.6,8.6,0,0,0,4.2,34.67a13.39,13.39,0,0,0-1.33,6.66c0,.49-.06,1.37.41,1.67a1.72,1.72,0,0,0,1.3,0c.83-.26,1.66-.53,2.48-.83a44.26,44.26,0,0,0,4.55-1.92,9.87,9.87,0,0,0,3.45-2.7,4.72,4.72,0,0,0,1.07-2.83,4.46,4.46,0,0,0-3-4l-.13,0A6.1,6.1,0,0,0,10.33,30.44Z"/><path class="cls-2" d="M7.35,8.24l-1.2-.12,0,.43.73.07v.05a.64.64,0,0,1-.73.64A.7.7,0,0,1,5.58,9a1.17,1.17,0,0,1-.15-.77,1.21,1.21,0,0,1,.29-.74.68.68,0,0,1,.58-.23.58.58,0,0,1,.41.22.64.64,0,0,1,.12.42l.5.05a1.11,1.11,0,0,0-.23-.78,1,1,0,0,0-.75-.38,1.2,1.2,0,0,0-1,.35,1.69,1.69,0,0,0-.47,1.08,1.48,1.48,0,0,0,.26,1.11A1.19,1.19,0,0,0,6,9.79a.89.89,0,0,0,.88-.36l0,.39.35,0Z"/><path class="cls-2" d="M7.69,9.94l.47.08.3-1.95L8,8ZM8,7.66l.47.07.09-.55-.48-.07Z"/><path class="cls-2" d="M9.22,10.21l.31-1.55.65.13.08-.39L9.6,8.27l.07-.34c0-.22.13-.32.27-.29s.17.15.13.37l.37.08c.09-.46-.06-.79-.46-.87s-.69.14-.79.65l-.06.31-.23,0-.08.4.23,0-.3,1.55Z"/><path class="cls-2" d="M10.93,7.84c-.12.51-.2.67-.41.62l-.09,0-.1.38.24.06-.2.78a1.11,1.11,0,0,0,0,.57.59.59,0,0,0,.48.38c.42.11.71-.16.83-.63l-.36-.09c-.06.24-.19.37-.33.33s-.21-.18-.14-.45L11,9l.76.18.09-.38-.75-.19.17-.68Z"/><path class="cls-2" d="M11.77,10.82l.46.13.56-1.89-.47-.13Zm.65-2.22.46.13L13,8.2l-.46-.14Z"/><path class="cls-2" d="M12.7,11.09l.46.15.34-1a.63.63,0,0,1,.26-.32.4.4,0,0,1,.35-.05c.24.08.31.31.2.62l-.36,1,.46.16.38-1.11c.17-.49.09-.87-.33-1a.73.73,0,0,0-.81.2l.13-.38-.43-.15Z"/><path class="cls-2" d="M16.33,10.28a.72.72,0,0,0-1,.31.62.62,0,0,0,0,.59.41.41,0,0,0-.46.23.38.38,0,0,0,.14.48.47.47,0,0,0-.5.31c-.15.35,0,.69.56.91s1.08.13,1.26-.3-.06-.78-.55-1l-.35-.15c-.14-.06-.19-.14-.15-.23s.09-.11.19-.09a2,2,0,0,0,.32.2.73.73,0,0,0,1-.32.57.57,0,0,0,0-.46.62.62,0,0,1,.42,0l.16-.38a.67.67,0,0,0-.71.12A1.16,1.16,0,0,0,16.33,10.28Zm-.46,2.36c-.09.2-.32.24-.62.11s-.42-.3-.33-.51.3-.22.59-.1S16,12.44,15.87,12.64Zm0-1.39a.37.37,0,1,1,.29-.68.37.37,0,1,1-.29.68Z"/><path class="cls-2" d="M18,13.3l.31.17,1-.85-.19,1.3.31.18,1.64-1.34-.42-.24-1,.94.22-1.4-.29-.16-1.05.95.24-1.4-.46-.26Z"/><path class="cls-2" d="M20.28,14.63l.4.26,1.07-1.66-.4-.26Zm1.25-2,.41.26.3-.47-.41-.26Z"/><path class="cls-2" d="M22.74,13.05c-.31.43-.44.55-.61.42l-.08-.05-.23.33.2.13-.46.66a.93.93,0,0,0-.22.53.58.58,0,0,0,.31.53c.35.25.72.1,1-.29l-.31-.21c-.14.19-.3.27-.42.18s-.13-.24,0-.46l.46-.66.64.45.22-.33-.63-.44.4-.58Z"/><path class="cls-2" d="M22.43,16.11l.38.3.66-.83a.57.57,0,0,1,.35-.22.4.4,0,0,1,.34.07c.2.16.19.4,0,.65l-.69.85.38.3.73-.91c.32-.4.37-.79,0-1.07a.73.73,0,0,0-.79-.1L24.7,14l-.38-.3Z"/><path class="cls-2" d="M25.43,17.34a.94.94,0,0,0-.31.75,1.15,1.15,0,0,0,.39.74,1.11,1.11,0,0,0,.72.35.77.77,0,0,0,.64-.26c.73-.75-.57-1.59-.15-2a.39.39,0,0,1,.57.05.44.44,0,0,1,0,.65l.35.34a.86.86,0,0,0,.25-.63,1,1,0,0,0-.33-.67,1.09,1.09,0,0,0-.67-.33.75.75,0,0,0-.62.24.7.7,0,0,0-.19.36,1.14,1.14,0,0,0,.18.73c.18.36.39.68.16.92s-.41.15-.63,0a.53.53,0,0,1,0-.8Z"/><path class="cls-2" d="M27.9,18.71a1.08,1.08,0,0,0-.74.3,1,1,0,0,0-.37.69.89.89,0,0,0,.25.72.88.88,0,0,0,.69.33,1.09,1.09,0,0,0,.73-.3,1.08,1.08,0,0,0,.37-.69.91.91,0,0,0-.25-.72A.94.94,0,0,0,27.9,18.71Zm.48,1a.79.79,0,0,1-.26.4.77.77,0,0,1-.41.21.43.43,0,0,1-.37-.14.43.43,0,0,1-.1-.38.79.79,0,0,1,.26-.39.68.68,0,0,1,.42-.21.37.37,0,0,1,.36.14A.39.39,0,0,1,28.38,19.68Z"/><path class="cls-2" d="M29.51,21.82c-.28.22-.58.25-.75,0s-.11-.42.16-.62l.87-.68-.29-.38-.93.72c-.4.31-.53.69-.24,1.06a.66.66,0,0,0,.73.26l-.29.22.28.36,1.55-1.21-.3-.38Z"/><path class="cls-2" d="M32.08,21.84l-.28-.39-2.48,1.74.28.39Z"/><path class="cls-2" d="M29.87,24l.26.4.47-.31-.26-.4Z"/><path class="cls-2" d="M33.32,26.63l-.58-1.05-.37.2.35.64,0,0a.64.64,0,0,1-.94-.24.68.68,0,0,1,0-.62,1.14,1.14,0,0,1,.55-.56,1.28,1.28,0,0,1,.77-.18.69.69,0,0,1,.52.36.54.54,0,0,1,.05.46.61.61,0,0,1-.28.33l.24.44a1.09,1.09,0,0,0,.52-.62A1.06,1.06,0,0,0,34,25a1.14,1.14,0,0,0-.84-.62,1.71,1.71,0,0,0-1.16.22,1.5,1.5,0,0,0-.76.84,1.17,1.17,0,0,0,.09,1,.91.91,0,0,0,.8.53l-.35.19.17.31Z"/><path class="cls-2" d="M32.1,27.88l.21.43,1.78-.85-.2-.43Zm2.09-1,.21.44.51-.24-.21-.44Z"/><path class="cls-2" d="M32.75,29.29l1.44-.62.27.61.36-.16-.26-.61.32-.14c.2-.09.34-.07.39.06s0,.23-.24.32l.15.35c.43-.19.62-.49.46-.87s-.5-.49-1-.29l-.29.13-.1-.22-.36.16.09.21-1.44.63Z"/><path class="cls-2" d="M35.67,29.37c-.49.19-.67.21-.74,0l0-.09-.37.14.08.23-.75.27a1.07,1.07,0,0,0-.48.32.58.58,0,0,0,0,.61c.15.41.54.49,1,.33l-.13-.35c-.22.08-.4.05-.45-.09s0-.27.29-.36l.75-.28.27.72.38-.13L35.14,30l.66-.25Z"/><path class="cls-2" d="M33.68,31.74l.15.46,1.87-.61-.14-.46Zm2.2-.71.15.45.53-.17-.15-.46Z"/><path class="cls-2" d="M34,32.65l.13.47,1-.28a.58.58,0,0,1,.41,0,.37.37,0,0,1,.24.26c.06.24-.08.43-.4.51l-1.05.29.12.47,1.14-.31c.49-.14.76-.42.65-.85a.75.75,0,0,0-.62-.56l.39-.1-.12-.44Z"/><path class="cls-2" d="M36.69,35.2c-.1-.5-.42-.77-.84-.69a.58.58,0,0,0-.47.36.4.4,0,0,0-.45-.25.37.37,0,0,0-.31.38.49.49,0,0,0-.55-.24c-.37.07-.54.43-.44,1s.51,1,1,.87.61-.48.51-1L35,35.23c0-.15,0-.24.11-.26s.14,0,.18.11a1,1,0,0,0,0,.38c.09.49.42.76.84.68a.57.57,0,0,0,.39-.24.55.55,0,0,1,.21.36l.4-.09a.64.64,0,0,0-.49-.51A1.19,1.19,0,0,0,36.69,35.2Zm-2.21.94c-.22,0-.38-.13-.44-.45s0-.51.23-.56.36.13.42.44S34.69,36.1,34.48,36.14Zm1.17-.74a.37.37,0,0,1,.28-.47.4.4,0,0,1,.16.79A.37.37,0,0,1,35.65,35.4Z"/><path class="cls-2" d="M35.14,38.28l0,.35,1.26.35-1.18.57,0,.36,2,.6,0-.48-1.36-.33,1.28-.61,0-.33-1.37-.33,1.29-.59,0-.53Z"/><path class="cls-2" d="M35.32,40.91l0,.48,2,0v-.48Zm2.32-.06v.48h.56v-.48Z"/><path class="cls-2" d="M38,42.05c-.53,0-.7,0-.7-.27v-.09h-.39v.24l-.8,0a1.08,1.08,0,0,0-.56.12.6.6,0,0,0-.27.56c0,.43.33.65.8.66v-.38c-.24,0-.39-.09-.39-.24s.13-.24.4-.24l.8,0v.77h.4v-.78H38Z"/><path class="cls-2" d="M35.32,43.53l0,.48,1.06.08a.59.59,0,0,1,.38.16.4.4,0,0,1,.13.33c0,.25-.21.37-.54.35l-1.09-.08,0,.48,1.17.09c.51,0,.86-.14.89-.59a.73.73,0,0,0-.36-.7l1.41.1,0-.48Z"/><path class="cls-2" d="M36,46.7a.92.92,0,0,0-.79.17,1.21,1.21,0,0,0-.39.73,1.1,1.1,0,0,0,.11.8.82.82,0,0,0,.58.38c1,.18,1-1.36,1.59-1.26.21,0,.32.24.28.5a.45.45,0,0,1-.52.4l-.08.47a.8.8,0,0,0,.66-.14,1,1,0,0,0,.36-.65,1.07,1.07,0,0,0-.1-.74.73.73,0,0,0-.55-.37.63.63,0,0,0-.41,0,1.19,1.19,0,0,0-.5.56c-.19.35-.34.71-.66.65s-.36-.25-.31-.55a.52.52,0,0,1,.64-.47Z"/><path class="cls-2" d="M36.25,49.51a1.14,1.14,0,0,0-1.44-.35.9.9,0,0,0-.45.6.92.92,0,0,0,.12.76,1,1,0,0,0,.65.43,1,1,0,0,0,.79-.08.92.92,0,0,0,.45-.61A.89.89,0,0,0,36.25,49.51Zm-.52,1a.89.89,0,0,1-.88-.22.41.41,0,0,1-.09-.38.37.37,0,0,1,.25-.29.74.74,0,0,1,.47,0,.73.73,0,0,1,.41.24.36.36,0,0,1,.09.37A.42.42,0,0,1,35.73,50.46Z"/><path class="cls-2" d="M34.6,52.6c-.34-.11-.53-.34-.45-.61s.28-.32.6-.22l1.06.34.15-.46-1.12-.36c-.49-.15-.87,0-1,.4a.66.66,0,0,0,.2.75l-.35-.11-.14.43,1.88.6.15-.45Z"/><path class="cls-2" d="M36,54.73l.17-.45-2.83-1.07-.17.45Z"/><path class="cls-2" d="M33,54.1l-.18.45.52.21.18-.44Z"/><path class="cls-2" d="M32.77,58.44l.54-1.07-.38-.19-.33.65-.05,0a.64.64,0,0,1-.33-.91.69.69,0,0,1,.5-.37,1.12,1.12,0,0,1,.77.14,1.23,1.23,0,0,1,.58.54.68.68,0,0,1,0,.62.54.54,0,0,1-.35.3.61.61,0,0,1-.44,0l-.22.45a1.06,1.06,0,0,0,.8.07,1,1,0,0,0,.63-.56,1.18,1.18,0,0,0,0-1,1.66,1.66,0,0,0-.84-.83A1.48,1.48,0,0,0,32.57,56a1.19,1.19,0,0,0-.75.62.92.92,0,0,0,0,1l-.35-.18-.16.31Z"/><path class="cls-2" d="M31.06,58.13l-.25.42,1.71,1,.24-.42Zm2,1.17-.24.42.48.28.25-.42Z"/><path class="cls-2" d="M30.24,59.47l1.33.85-.36.56.34.22.36-.57.29.19q.28.18.18.36c-.08.11-.21.1-.4,0l-.21.32c.39.25.75.24,1-.11s.12-.69-.32-1l-.26-.17.13-.2L32,59.71l-.13.2-1.33-.84Z"/><path class="cls-2" d="M31.82,61.93c-.43-.31-.54-.44-.42-.62l.05-.07L31.13,61,31,61.2l-.65-.46a1.18,1.18,0,0,0-.53-.22.61.61,0,0,0-.54.31c-.24.35-.1.72.29,1l.22-.31c-.2-.14-.27-.3-.19-.42s.24-.13.47,0l.65.47-.45.63.33.23.45-.63.57.4Z"/><path class="cls-2" d="M28.75,61.62l-.3.38L30,63.21l.3-.38ZM30.58,63l-.3.39.45.34.29-.38Z"/><path class="cls-2" d="M28.16,62.39l-.31.36.8.69a.64.64,0,0,1,.21.35.42.42,0,0,1-.09.35c-.16.19-.39.17-.64,0l-.83-.71-.31.37.89.76c.39.33.77.4,1.06.06a.74.74,0,0,0,.12-.83l.3.26.3-.34Z"/><path class="cls-2" d="M27.58,66.06a.73.73,0,0,0,.1-1.09.62.62,0,0,0-.57-.18.39.39,0,0,0,0-.51.37.37,0,0,0-.5,0,.5.5,0,0,0-.1-.59c-.27-.26-.67-.21-1.06.19s-.51,1-.18,1.28.75.24,1.13-.15l.26-.27c.11-.11.2-.13.28,0a.16.16,0,0,1,0,.21,1.08,1.08,0,0,0-.31.23.73.73,0,0,0-.08,1.08.63.63,0,0,0,.42.19.54.54,0,0,1-.18.37l.3.29a.68.68,0,0,0,.14-.7A1.08,1.08,0,0,0,27.58,66.06Zm-2-1.29c-.16-.16-.11-.38.12-.62s.43-.28.59-.12.1.36-.12.59S25.71,64.92,25.56,64.77Zm1.27.55a.37.37,0,1,1,.53.51.38.38,0,0,1-.55,0A.37.37,0,0,1,26.83,65.32Z"/><path class="cls-2" d="M24.17,66.52l-.28.22L24.33,68l-1.15-.65-.28.23.66,2,.37-.31L23.43,68l1.23.72.25-.21-.5-1.33,1.22.74.41-.34Z"/><path class="cls-2" d="M22.1,68.15l-.39.29L22.87,70l.39-.29ZM23.46,70l-.39.28.33.45.39-.28Z"/><path class="cls-2" d="M22.68,71c-.29-.44-.35-.6-.17-.72l.07,0-.22-.33-.2.13-.44-.67a1.06,1.06,0,0,0-.42-.4.6.6,0,0,0-.6.1c-.36.24-.36.64-.1,1l.32-.21c-.14-.2-.15-.38,0-.46s.27,0,.42.2l.44.66-.64.43.22.34.64-.43.39.58Z"/><path class="cls-2" d="M19.94,69.63l-.42.24.53.92a.57.57,0,0,1,.08.4.4.4,0,0,1-.19.3c-.22.13-.44,0-.6-.25l-.55-.95-.42.25.59,1c.26.44.6.63,1,.41a.72.72,0,0,0,.38-.69L21,72.49l.42-.24Z"/><path class="cls-2" d="M17.7,72a.92.92,0,0,0-.58-.56,1.23,1.23,0,0,0-.83.09,1.14,1.14,0,0,0-.59.55.8.8,0,0,0,0,.69c.44,1,1.68.05,1.94.6.09.2,0,.4-.26.51a.45.45,0,0,1-.62-.2l-.44.2a.81.81,0,0,0,.5.46,1,1,0,0,0,.74-.06,1.13,1.13,0,0,0,.55-.5.79.79,0,0,0,0-.67.75.75,0,0,0-.27-.31,1.18,1.18,0,0,0-.75-.1c-.39,0-.77.12-.91-.18s0-.44.28-.57a.52.52,0,0,1,.75.27Z"/><path class="cls-2" d="M15.52,73.77a1.08,1.08,0,0,0,0-.79,1.09,1.09,0,0,0-.51-.6.91.91,0,0,0-.76,0,.93.93,0,0,0-.56.52,1.13,1.13,0,0,0,0,.79,1.09,1.09,0,0,0,.51.6,1,1,0,0,0,1.32-.49Zm-1.08.1a.81.81,0,0,1-.28-.38.83.83,0,0,1,0-.46.4.4,0,0,1,.26-.29.41.41,0,0,1,.39,0,.81.81,0,0,1,.28.38.86.86,0,0,1,0,.47.41.41,0,0,1-.27.29A.4.4,0,0,1,14.44,73.87Z"/><path class="cls-2" d="M12.05,74.14c-.11-.34,0-.63.24-.71s.43,0,.53.37l.31,1.07.46-.14-.33-1.13c-.15-.48-.45-.75-.91-.61a.66.66,0,0,0-.5.59l-.1-.36-.44.13.56,1.89.46-.13Z"/><path class="cls-2" d="M11.08,76.52l.47-.11-.72-3-.46.11Z"/><path class="cls-2" d="M9.9,73.68l-.47.1.12.55.47-.1Z"/><path class="cls-2" d="M6.18,75.93l1.19-.16,0-.42-.73.09v0a.65.65,0,0,1,.57-.79.7.7,0,0,1,.59.2,1.15,1.15,0,0,1,.32.71,1.24,1.24,0,0,1-.12.79.68.68,0,0,1-.52.35A.54.54,0,0,1,7,76.53a.71.71,0,0,1-.22-.38l-.49.06a1,1,0,0,0,1.21.91,1.15,1.15,0,0,0,.89-.56,1.71,1.71,0,0,0,.22-1.16,1.52,1.52,0,0,0-.51-1,1.21,1.21,0,0,0-.93-.27.91.91,0,0,0-.79.55l-.05-.39-.34,0Z"/><path class="cls-2" d="M5.46,74.34l-.48,0,.14,2,.48,0Zm.16,2.3-.47,0,0,.55.48,0Z"/><path class="cls-2" d="M3.9,74.42,4,76l-.67,0v.4l.67,0,0,.35c0,.22-.06.34-.2.35s-.2-.11-.21-.34H3.19c0,.46.23.75.64.74s.64-.28.63-.81v-.31h.23V76H4.43l0-1.58Z"/><path class="cls-2" d="M2.77,77.11c0-.53,0-.7.27-.7h.09V76H2.9v-.8a1.08,1.08,0,0,0-.12-.56.57.57,0,0,0-.55-.26c-.44,0-.66.32-.67.79H2c0-.24.09-.39.24-.39s.24.13.24.4l0,.8H1.64v.4h.78v.7Z"/><path class="cls-2" d="M1.16,76.7l-.48,0,0,.56.48,0Zm.13-2.31-.48,0-.12,2,.49,0Z"/><path class="cls-2" d="M.32,74.34l-.48,0-.11,1a.68.68,0,0,1-.18.38.43.43,0,0,1-.33.12c-.25,0-.37-.23-.34-.55L-1,74.2l-.48,0-.12,1.17c-.06.51.11.86.55.91a.72.72,0,0,0,.74-.38l0,.41.46,0Z"/><path class="cls-2" d="M-1.79,9.92l.48-.05-.12-1a.56.56,0,0,1,.09-.4A.37.37,0,0,1-1,8.22c.25,0,.41.14.45.46l.13,1.09L0,9.71-.13,8.55c-.06-.51-.3-.82-.74-.77a.75.75,0,0,0-.65.53l0-.4L-2,8Z"/><path class="cls-2" d="M1.13,7.62c-.51,0-.83.31-.81.73a.63.63,0,0,0,.29.52.4.4,0,0,0-.31.4.37.37,0,0,0,.33.37.51.51,0,0,0-.32.5c0,.38.35.61.91.58s1-.35,1-.81-.39-.68-.93-.66l-.37,0q-.24,0-.24-.15C.67,9,.71,9,.81,9a1.48,1.48,0,0,0,.38,0c.5,0,.82-.31.8-.74a.62.62,0,0,0-.18-.42.53.53,0,0,1,.38-.16l0-.41a.7.7,0,0,0-.59.42A.93.93,0,0,0,1.13,7.62Zm.61,2.32c0,.23-.18.36-.51.37S.72,10.23.71,10s.18-.33.49-.35S1.73,9.73,1.74,9.94ZM1.18,8.67a.35.35,0,0,1-.42-.34.36.36,0,0,1,.38-.39.37.37,0,0,1,.42.35A.36.36,0,0,1,1.18,8.67Z"/></pattern></defs><title>Artboard 1 copy 14</title><rect class="cls-3" x="7" y="-0.37" width="1239" height="1255.37"/></svg>