<svg id="Layer_1" data-name="Layer 1" xmlns="http://www.w3.org/2000/svg" xmlns:xlink="http://www.w3.org/1999/xlink" viewBox="0 0 1232 1215"><defs><style>.cls-1{fill:none;}.cls-2{fill:#c93535;}.cls-3{fill:#dd4040;}.cls-4{fill:#4d4d4d;}.cls-5{fill:#111;}.cls-6{fill:#f2c538;}.cls-7{fill:#ffd744;}.cls-8{fill:url(#New_Pattern_2);}</style><pattern id="New_Pattern_2" data-name="New Pattern 2" width="380.94" height="482.06" patternUnits="userSpaceOnUse" viewBox="0 0 380.94 482.06"><rect class="cls-1" width="380.94" height="482.06"/><path class="cls-2" d="M300,552.47a.87.87,0,0,0,1.41-1c-2.43-5.28-3-11.28-3.93-16.58-4.26-27.53.57-55.22-10-82.83a19.94,19.94,0,0,0-4.11-5c.85.93,1.67,1.86,2.45,2.78-6-2.78-12-1.42-17.55,0,5.79,12.13,6.79,27.06,7.42,37.36.61,16.15-2.11,37.4,4.29,52.81a.79.79,0,0,0,1.51-.22,23.45,23.45,0,0,1,.5-3,11.59,11.59,0,0,1,2.09-4.38C286.1,536.43,294,546.28,300,552.47Z"/><path class="cls-2" d="M186.64,451.42c-2.18-5.19-8.29-20.84-7.24-36.25,1.6-23.35-1.84-35.48-4.64-41.55a2.92,2.92,0,0,0-5-.54,38.54,38.54,0,0,1-3.45,3.86c-2.58-.91-9.83-7.65-14.21-11.93a1,1,0,0,0-1.58,1.06,117.65,117.65,0,0,1,6.15,19.18c2.82,14.49.68,24.6,2.38,39.85.62,5.64,1.67,12.61,4.36,18.48,0,.09.07.17.12.26C170.86,452,178.83,453.1,186.64,451.42Z"/><path class="cls-3" d="M268.31,450l-3.46.91c-24.07,6.49-44.65,22.48-71.28,22.47-10.48-1.76-24.15-20-29.95-29.34a1.3,1.3,0,0,1-.08-.17h0c7.31,8.11,15.28,9.26,23.09,7.58,9.55-2.05,18.87-8.35,26.48-11.38,10.2-4.41,20.66-9.32,32-11.69a29.38,29.38,0,0,1,23.8,5.46,110.31,110.31,0,0,1,14.52,13.32c.85.93,1.67,1.86,2.45,2.78C279.82,447.13,273.83,448.49,268.31,450Zm-69.87-2.68h0Zm49.12-7.77s0,0,0,0h0s0,0,0,0,0,0,0,0h0Z"/><polygon class="cls-4" points="198.44 447.28 198.44 447.28 198.44 447.27 198.44 447.28"/><path class="cls-4" d="M247.56,439.5s0,0,0,0,0,0,0,0Z"/><path class="cls-4" d="M247.54,439.5h0s0,0,0,0Z"/><path class="cls-5" d="M163.63,444c10.38,13.15,28.14,7.55,40.81,1.52,18.72-8.9,38.48-20.82,60-14.8a.67.67,0,0,0,.36-1.3c-16.69-4.68-33.08,1.34-48.06,8.58-14.66,7.1-38.57,22.19-52.12,5.05-.54-.68-1.49.28-1,.95Z"/><path class="cls-5" d="M192.22,474.22c16.74,1.3,32.07-5.41,46.85-12.44.79-.37.1-1.54-.68-1.17-14.59,6.94-29.65,13.54-46.17,12.26-.87-.07-.87,1.28,0,1.35Z"/><path class="cls-5" d="M284.72,450.25c5.7,7.11,6.44,17.29,8.12,25.92.16.86,1.47.49,1.3-.36-1.75-9-2.53-19.11-8.46-26.51-.55-.68-1.5.28-1,.95Z"/><path class="cls-6" d="M415.49,358.66q3.43,0,6.86.37a90,90,0,0,1,12.33,2.11q2.7.64,5.36,1.44c1.37.41,3.37,1.08,3.75-1a2.76,2.76,0,0,0-.27-1.74c-.68-1.36-2-2.12-3-3.18a3.77,3.77,0,0,1-1.23-2.72,3.25,3.25,0,0,1,2-2.56,8.14,8.14,0,0,1,3.32-.58,9.94,9.94,0,0,0,4.45-.68,3.32,3.32,0,0,0,1.58-1.6c.77-1.75-.56-2.77-2-3.43-1.8-.85-3.62-1.65-5.48-2.37-6.43-2.49-23.59-7.65-50.33-2.42a121.86,121.86,0,0,0-43.2,17.37A103.48,103.48,0,0,1,354,386.05C374.7,366.73,401.45,358.55,415.49,358.66Z"/><path class="cls-6" d="M303.06,322.15c-6.77-.65-14.25,2-19.22,6-11.8,9.45-19,17-28.78,28.5,0,0,0,0,0,0-26.5,34.2-48.16,29.27-56.81,25.11a2.46,2.46,0,0,0-3.52,2.48l.54,4.88a5.16,5.16,0,0,1-4,5.59l-5.38,1.17a2.13,2.13,0,0,0-.4,4c10.88,4.66,23.49,6.33,34.72,4.17,15.22-2.93,25.9-7.95,40.82-21.48,11.46-10.4,20.61-20.85,32.42-30.75A91.88,91.88,0,0,1,310.14,341l2.07-1a138.16,138.16,0,0,0-9.43-17.75Z"/><path class="cls-6" d="M322.4,383.45l-.15.22L322,384c-.16.24-.31.49-.47.74s-.25.38-.37.58l-.21.33c-.65,1-1.27,2.08-1.88,3.14-.08.14-.16.27-.24.42s-.17.3-.26.45c-.4.72-.8,1.45-1.19,2.19-.26.51-.52,1-.79,1.53s-.53,1.08-.79,1.62c-.17.34-.34.68-.49,1s-.3.63-.45,1c-.44.94-.86,1.89-1.27,2.84-.54,1.26-1.07,2.54-1.57,3.83-.05.1-.09.2-.13.3-.13.34-.27.69-.4,1-.07.2-.16.41-.23.61s-.24.61-.35.92-.26.72-.4,1.08-.36,1-.55,1.54c0,0,0,0,0,0-.1.29-.21.59-.31.89,0,.12-.08.23-.13.35-.1.29-.19.58-.29.88s-.12.34-.17.52-.11.32-.16.48a.58.58,0,0,0-.05.14c-.08.26-.17.53-.26.81s-.1.35-.16.52-.19.61-.27.93c-.17.54-.33,1.09-.48,1.66-.2.74-.4,1.48-.57,2.23s-.35,1.51-.51,2.27c-.09.45-.17.89-.25,1.32,0,.15-.05.29-.07.43a50.18,50.18,0,0,0-.68,6.25c0,.63,0,1.27,0,1.91,0,.21,0,.45,0,.7s0,.52,0,.79v.38c0,.14,0,.27,0,.4s0,.46,0,.7,0,.59,0,.9c0,.52,0,1.05,0,1.57s.06,1,.08,1.27c0,.14,0,.26,0,.35a1.3,1.3,0,0,0,0,.18v.1c.23,2,.71,3.8,1.74,4.59a6.8,6.8,0,0,0,1.16.69C310,441,323.72,417.11,322.4,383.45Z"/><path class="cls-7" d="M328.9,446.63a20.19,20.19,0,0,0,17.88-13.9c5.82-17.64,7.89-33.1,7.68-46.4a103.52,103.52,0,0,0-4.28-28.39,91.65,91.65,0,0,0-5.66-14.33,39.06,39.06,0,0,0-34.93-21.67c-3.4,0-5.78.15-6.53.21l-.28,0a138.16,138.16,0,0,1,9.43,17.75,119.21,119.21,0,0,1,10.19,43.53C323.72,417.11,310,441,308.6,443.4l-.12.2C316.88,446.31,323.64,447,328.9,446.63Z"/><path class="cls-5" d="M340,337.22A103.45,103.45,0,0,1,352.76,405c-.11.69.94,1,1.05.29A104.61,104.61,0,0,0,341,336.67a.54.54,0,0,0-.94.55Z"/><path class="cls-5" d="M321.94,383.07a131,131,0,0,1-13.24,59.64c-.3.63.64,1.19.95.55A132.18,132.18,0,0,0,323,383.07a.55.55,0,0,0-1.09,0Z"/><path class="cls-5" d="M301.29,322.36l10.9,18a.55.55,0,0,0,.95-.55l-10.91-18a.54.54,0,0,0-.94.55Z"/><path class="cls-7" d="M466.52,533.18A20.21,20.21,0,0,0,461.78,511c-13.36-12.92-26.38-21.5-38.46-27.09a103,103,0,0,0-27.42-8.48,91.58,91.58,0,0,0-15.36-1.14,39.08,39.08,0,0,0-34.71,22c-1.48,3.06-2.37,5.26-2.65,6l-.1.26a137.12,137.12,0,0,1,20.09-.77,119,119,0,0,1,43.63,9.74c30.88,13.44,46.45,36.16,48,38.49a1.47,1.47,0,0,1,.13.2C461,543.86,464.52,538.05,466.52,533.18Z"/><path class="cls-5" d="M372.78,475.61a103.53,103.53,0,0,1,66.73,18.05c.58.4,1.13-.54.55-.94a104.48,104.48,0,0,0-67.28-18.2c-.7.05-.71,1.14,0,1.09Z"/><path class="cls-2" d="M229,587.32a.87.87,0,0,0,1.41-1c-2.42-5.28-3-11.27-3.92-16.58-4.27-27.52.56-55.21-10-82.82a19.76,19.76,0,0,0-4.11-5c.85.93,1.67,1.86,2.45,2.79-6-2.79-12-1.43-17.55,0,5.79,12.13,6.8,27.06,7.42,37.36.61,16.15-2.1,37.4,4.3,52.81a.78.78,0,0,0,1.5-.21,23.68,23.68,0,0,1,.51-3,11.42,11.42,0,0,1,2.09-4.37C215,571.27,223,581.12,229,587.32Z"/><path class="cls-2" d="M115.58,486.26c-2.17-5.18-8.29-20.84-7.23-36.24,1.59-23.36-1.85-35.49-4.64-41.56a2.92,2.92,0,0,0-5-.54,37.93,37.93,0,0,1-3.46,3.86c-2.58-.91-9.83-7.65-14.21-11.93a1,1,0,0,0-1.57,1.06,118.63,118.63,0,0,1,6.15,19.18c2.82,14.49.68,24.6,2.37,39.85.63,5.64,1.67,12.61,4.36,18.48l.12.26C99.81,486.79,107.77,487.94,115.58,486.26Z"/><path class="cls-3" d="M197.25,484.8c-1.17.31-2.33.63-3.46.91-24.06,6.49-44.65,22.48-71.28,22.47-10.47-1.76-24.15-20-29.94-29.34a.7.7,0,0,1-.09-.17h0c7.32,8.11,15.28,9.26,23.09,7.58,9.56-2.05,18.88-8.35,26.49-11.38,10.2-4.4,20.65-9.32,32-11.69a29.38,29.38,0,0,1,23.8,5.46A110.37,110.37,0,0,1,212.35,482c.85.93,1.67,1.86,2.45,2.79C208.76,482,202.77,483.33,197.25,484.8Zm-69.87-2.68h0Zm49.12-7.76h0Z"/><path class="cls-4" d="M176.5,474.35h0Z"/><path class="cls-4" d="M176.49,474.35h0Z"/><path class="cls-5" d="M92.57,478.85c10.39,13.15,28.14,7.54,40.82,1.51,18.71-8.9,38.47-20.82,60-14.8a.67.67,0,0,0,.36-1.3c-16.7-4.68-33.09,1.34-48.06,8.59-14.67,7.09-38.58,22.19-52.13,5-.54-.68-1.49.28-1,1Z"/><path class="cls-6" d="M34.56,358.66q3.44,0,6.86.37a90.51,90.51,0,0,1,12.33,2.11q2.7.64,5.35,1.44c1.38.41,3.37,1.08,3.75-1a2.75,2.75,0,0,0-.26-1.74c-.69-1.36-2-2.12-3-3.18a3.72,3.72,0,0,1-1.22-2.72,3.24,3.24,0,0,1,2-2.56,8.14,8.14,0,0,1,3.32-.58,10,10,0,0,0,4.46-.68,3.3,3.3,0,0,0,1.57-1.6c.78-1.75-.55-2.77-2-3.43-1.8-.85-3.63-1.65-5.48-2.37-6.43-2.49-23.6-7.65-50.33-2.42a121.85,121.85,0,0,0-43.21,17.37A103.48,103.48,0,0,1-27,386.05C-6.23,366.73,20.51,358.55,34.56,358.66Z"/><path class="cls-5" d="M56.83,340A109.57,109.57,0,0,0,.65,341.78a.55.55,0,0,0,.29,1.05A108.43,108.43,0,0,1,56.54,341c.68.15,1-.9.29-1Z"/><path class="cls-5" d="M10.89,364.39c7.71-2.51,15.39-4.85,23.58-4.73a.55.55,0,0,0,0-1.1c-8.3-.12-16.06,2.23-23.87,4.78-.67.21-.38,1.27.29,1.05Z"/><path class="cls-6" d="M44,416.94c1-2.05,2.12-4.06,3.32-6a89.7,89.7,0,0,1,7.26-10.19q1.76-2.14,3.63-4.19c1-1.06,2.43-2.57.72-3.82a2.76,2.76,0,0,0-1.68-.51c-1.53,0-2.77.86-4.16,1.31a3.76,3.76,0,0,1-3-.09,3.25,3.25,0,0,1-1.45-2.89,8.3,8.3,0,0,1,.92-3.24A9.79,9.79,0,0,0,50.91,383a3.34,3.34,0,0,0-.76-2.12c-1.24-1.45-2.74-.7-3.95.28-1.54,1.26-3.05,2.55-4.51,3.91-5,4.71-17.14,17.93-24.06,44.27a122,122,0,0,0-3.14,46.46,103.54,103.54,0,0,1,27.43,8.48C33.54,457.19,37.8,429.55,44,416.94Z"/><path class="cls-7" d="M85.58,533.18A20.18,20.18,0,0,0,80.84,511c-13.36-12.92-26.38-21.5-38.45-27.09A103.22,103.22,0,0,0,15,475.46,91.69,91.69,0,0,0-.4,474.32a39.05,39.05,0,0,0-34.7,22c-1.48,3.06-2.38,5.26-2.65,6-.07.15-.11.26-.11.26a137.17,137.17,0,0,1,20.09-.77,119,119,0,0,1,43.63,9.74c30.89,13.44,46.46,36.16,48,38.49l.13.2C80.07,543.86,83.59,538.05,85.58,533.18Z"/><path class="cls-5" d="M36.87,388.74a109.4,109.4,0,0,0-22.8,51.35c-.11.69.94,1,1,.29a108.31,108.31,0,0,1,22.53-50.87c.43-.54-.34-1.32-.78-.77Z"/><path class="cls-5" d="M38.86,440.8c1.09-8,2.3-16,6-23.3.32-.63-.63-1.18-.94-.55-3.72,7.4-5,15.43-6.09,23.56-.09.69,1,1,1,.29Z"/><path class="cls-5" d="M-8.16,475.61a103.57,103.57,0,0,1,66.74,18.05c.58.4,1.12-.54.55-.94a104.53,104.53,0,0,0-67.29-18.2c-.7.05-.7,1.14,0,1.09Z"/><path class="cls-2" d="M377.11,210.39c-2.18-5.19-8.29-20.84-7.24-36.25,1.6-23.35-1.84-35.48-4.64-41.55a2.92,2.92,0,0,0-5-.54,38.54,38.54,0,0,1-3.45,3.86c-2.58-.91-9.83-7.65-14.21-11.93A1,1,0,0,0,341,125a118.32,118.32,0,0,1,6.15,19.18c2.82,14.49.68,24.6,2.38,39.85.62,5.64,1.67,12.61,4.36,18.48l.11.26C361.33,210.92,369.3,212.07,377.11,210.39Z"/><path class="cls-3" d="M458.78,208.93l-3.46.91c-24.07,6.49-44.66,22.48-71.29,22.47-10.47-1.77-24.15-20-29.94-29.35l-.09-.16h0c7.32,8.11,15.29,9.26,23.1,7.58,9.55-2,18.87-8.35,26.48-11.38,10.2-4.41,20.66-9.32,32-11.69a29.36,29.36,0,0,1,23.79,5.46,109.79,109.79,0,0,1,14.53,13.32c.85.93,1.67,1.86,2.44,2.78C470.29,206.1,464.3,207.46,458.78,208.93Zm-69.87-2.68h0ZM438,198.48h0Z"/><path class="cls-5" d="M354.09,203c10.39,13.15,28.14,7.55,40.82,1.52,18.72-8.9,38.48-20.82,60-14.8a.67.67,0,0,0,.36-1.3c-16.69-4.68-33.08,1.33-48.06,8.58-14.66,7.1-38.58,22.19-52.12,5.05-.54-.69-1.49.28-1,.95Z"/><path class="cls-6" d="M493.53,81.11c-6.78-.64-14.25,2-19.22,6-11.8,9.45-19,17-28.78,28.5,0,0,0,0,0,0-26.51,34.2-48.16,29.27-56.81,25.11a2.46,2.46,0,0,0-3.52,2.48l.54,4.88a5.16,5.16,0,0,1-4,5.59l-5.38,1.17a2.12,2.12,0,0,0-.4,4c10.88,4.67,23.49,6.34,34.72,4.18,15.22-2.94,25.9-8,40.82-21.49,11.45-10.39,20.6-20.84,32.42-30.74a91.88,91.88,0,0,1,16.72-10.92l2.07-1a138.16,138.16,0,0,0-9.43-17.75Z"/><path class="cls-2" d="M109.56,311.44a.87.87,0,0,0,1.41-1c-2.43-5.28-3-11.28-3.92-16.58-4.27-27.53.56-55.22-10-82.83a19.72,19.72,0,0,0-4.11-5c.85.93,1.67,1.86,2.45,2.78-6-2.78-12-1.42-17.55.05,5.79,12.13,6.8,27.06,7.42,37.36.61,16.15-2.1,37.4,4.3,52.81a.78.78,0,0,0,1.5-.22,22.29,22.29,0,0,1,.51-3,11.49,11.49,0,0,1,2.08-4.37C95.63,295.4,103.55,305.24,109.56,311.44Z"/><path class="cls-2" d="M-3.83,210.39c-2.17-5.19-8.29-20.84-7.24-36.25,1.6-23.35-1.84-35.48-4.63-41.55a2.92,2.92,0,0,0-5-.54,37.93,37.93,0,0,1-3.46,3.86C-26.72,135-34,128.26-38.35,124A1,1,0,0,0-39.92,125a117.26,117.26,0,0,1,6.14,19.18c2.83,14.49.69,24.6,2.38,39.85.63,5.64,1.67,12.61,4.36,18.48,0,.09.07.17.12.26C-19.61,210.92-11.64,212.07-3.83,210.39Z"/><path class="cls-3" d="M77.84,208.93l-3.46.91c-24.06,6.49-44.65,22.48-71.28,22.47C-7.37,230.54-21,212.28-26.84,203a.51.51,0,0,1-.09-.16h0c7.31,8.11,15.28,9.26,23.09,7.58,9.56-2,18.88-8.35,26.48-11.38,10.21-4.41,20.66-9.32,32-11.69a29.38,29.38,0,0,1,23.8,5.46A109.68,109.68,0,0,1,92.94,206.1c.85.93,1.67,1.86,2.45,2.78C89.35,206.1,83.36,207.46,77.84,208.93ZM8,206.25H8Zm49.12-7.77h0s0,0,0,0h0Z"/><polygon class="cls-4" points="7.97 206.25 7.97 206.25 7.97 206.24 7.97 206.25"/><path class="cls-4" d="M57.09,198.47h0Z"/><path class="cls-4" d="M57.07,198.47h0s0,0,0,0Z"/><path class="cls-5" d="M-26.84,203c10.38,13.15,28.14,7.55,40.82,1.52,18.71-8.9,38.47-20.82,60-14.8a.67.67,0,0,0,.36-1.3c-16.7-4.68-33.09,1.33-48.06,8.58-14.67,7.1-38.58,22.19-52.13,5.05-.54-.69-1.49.28-.95.95Z"/><path class="cls-5" d="M1.75,233.19c16.74,1.3,32.07-5.41,46.85-12.44.79-.38.1-1.54-.68-1.17-14.59,6.94-29.65,13.54-46.17,12.26-.87-.07-.87,1.28,0,1.35Z"/><path class="cls-5" d="M94.25,209.22c5.7,7.11,6.44,17.29,8.12,25.92.17.85,1.47.49,1.3-.36-1.75-9-2.53-19.11-8.46-26.51-.55-.68-1.5.28-1,.95Z"/><path class="cls-5" d="M103.46,246.17a78.18,78.18,0,0,0,.78,12.88c.12.86,1.42.5,1.3-.36a75.92,75.92,0,0,1-.73-12.52.68.68,0,0,0-1.35,0Z"/><path class="cls-2" d="M419.44,346.29a.87.87,0,0,0,1.41-1c-2.43-5.28-3-11.27-3.93-16.58-4.26-27.53.57-55.21-10-82.83a19.9,19.9,0,0,0-4.11-5c.85.93,1.67,1.86,2.45,2.79-6-2.79-12-1.43-17.55,0,5.79,12.13,6.79,27.06,7.42,37.36.61,16.15-2.11,37.4,4.29,52.81a.79.79,0,0,0,1.51-.21,22,22,0,0,1,.51-3,11.59,11.59,0,0,1,2.08-4.38C405.51,330.24,413.43,340.09,419.44,346.29Z"/><path class="cls-2" d="M306.05,245.23c-2.18-5.18-8.29-20.84-7.24-36.24,1.6-23.36-1.84-35.49-4.63-41.56a2.93,2.93,0,0,0-5-.54,38.54,38.54,0,0,1-3.45,3.86c-2.58-.91-9.83-7.65-14.21-11.93a1,1,0,0,0-1.58,1.06,117.65,117.65,0,0,1,6.15,19.18c2.82,14.49.68,24.6,2.38,39.85.63,5.64,1.67,12.61,4.36,18.48,0,.09.07.17.12.26C290.27,245.76,298.24,246.91,306.05,245.23Z"/><path class="cls-3" d="M387.72,243.77c-1.18.31-2.33.63-3.46.91-24.06,6.49-44.65,22.48-71.28,22.47-10.47-1.76-24.15-20-29.94-29.34a.7.7,0,0,1-.09-.17h0c7.31,8.11,15.28,9.26,23.09,7.58,9.55-2,18.87-8.35,26.48-11.38,10.2-4.4,20.66-9.32,32-11.69a29.38,29.38,0,0,1,23.8,5.46,111,111,0,0,1,14.52,13.32c.85.93,1.67,1.86,2.45,2.79C399.23,240.94,393.24,242.3,387.72,243.77Zm-69.87-2.68h0ZM367,233.33h0Z"/><polygon class="cls-4" points="317.85 241.09 317.85 241.09 317.85 241.08 317.85 241.09"/><path class="cls-4" d="M367,233.32h0Z"/><path class="cls-4" d="M367,233.32h0Z"/><path class="cls-5" d="M283,237.82c10.38,13.14,28.14,7.54,40.81,1.51,18.72-8.9,38.48-20.82,60-14.8a.67.67,0,0,0,.36-1.3c-16.69-4.68-33.08,1.34-48.06,8.58-14.66,7.1-38.57,22.19-52.12,5.05-.54-.68-1.49.28-.95,1Z"/><path class="cls-5" d="M311.63,268c16.74,1.3,32.07-5.41,46.85-12.44.79-.37.1-1.54-.68-1.17-14.59,6.94-29.65,13.54-46.17,12.26-.87-.07-.87,1.28,0,1.35Z"/><path class="cls-5" d="M404.13,244.07c5.7,7.1,6.44,17.28,8.12,25.91.16.86,1.47.5,1.3-.36-1.75-9-2.53-19.11-8.46-26.51-.55-.68-1.5.28-1,1Z"/><path class="cls-5" d="M413.33,281a78.24,78.24,0,0,0,.79,12.89c.12.85,1.42.49,1.3-.36a76.11,76.11,0,0,1-.73-12.53.68.68,0,0,0-1.36,0Z"/><path class="cls-6" d="M225,117.63c2.29,0,4.58.14,6.85.37a90,90,0,0,1,12.33,2.11q2.7.65,5.36,1.44c1.38.41,3.37,1.07,3.75-1a2.76,2.76,0,0,0-.27-1.74c-.68-1.37-2-2.13-3-3.18a3.74,3.74,0,0,1-1.22-2.72,3.21,3.21,0,0,1,2-2.56,8.14,8.14,0,0,1,3.32-.58,10,10,0,0,0,4.46-.68,3.32,3.32,0,0,0,1.57-1.61c.78-1.75-.56-2.77-2-3.43-1.81-.84-3.63-1.64-5.49-2.36-6.43-2.49-23.59-7.65-50.33-2.43a122,122,0,0,0-43.2,17.38A103.42,103.42,0,0,1,163.48,145C184.23,125.69,211,117.52,225,117.63Z"/><path class="cls-6" d="M112.59,81.11c-6.77-.64-14.25,2-19.21,6-11.81,9.45-19,17-28.78,28.5l0,0c-26.5,34.2-48.15,29.27-56.81,25.11a2.47,2.47,0,0,0-3.52,2.48l.54,4.88a5.15,5.15,0,0,1-4,5.59l-5.39,1.17a2.12,2.12,0,0,0-.4,4c10.88,4.67,23.5,6.34,34.72,4.18,15.23-2.94,25.9-8,40.83-21.49C82,131.2,91.14,120.75,103,110.85a92.23,92.23,0,0,1,16.72-10.92l2.07-1a138.16,138.16,0,0,0-9.43-17.75Z"/><path class="cls-6" d="M131.93,142.42l-.14.22-.23.33c-.16.24-.31.49-.47.74s-.25.38-.37.58a2.63,2.63,0,0,0-.2.33c-.66,1-1.28,2.08-1.89,3.14-.08.14-.16.27-.23.41l-.27.46c-.4.72-.8,1.45-1.19,2.19-.26.51-.52,1-.79,1.53s-.53,1.08-.79,1.62c-.16.34-.34.68-.49,1s-.3.63-.45,1c-.43.94-.85,1.88-1.27,2.84-.54,1.26-1.07,2.54-1.57,3.83,0,.1-.09.2-.13.3-.13.34-.27.69-.4,1-.07.2-.15.41-.23.61s-.23.61-.34.92l-.41,1.08c-.18.51-.36,1-.55,1.54,0,0,0,0,0,0l-.31.88-.12.35c-.11.3-.2.59-.3.89s-.12.34-.17.52-.11.32-.16.47a1,1,0,0,0,0,.14c-.09.27-.18.54-.26.81s-.11.36-.17.53l-.27.93c-.16.54-.32,1.09-.47,1.66-.21.74-.4,1.48-.58,2.23s-.35,1.51-.51,2.27c-.08.44-.17.89-.25,1.32,0,.15-.05.29-.07.43a48.34,48.34,0,0,0-.67,6.25c0,.63,0,1.27,0,1.91,0,.21,0,.45,0,.7s0,.52,0,.79v.38c0,.14,0,.27,0,.4s0,.46,0,.69v.91c0,.52,0,1,0,1.57s.06,1,.08,1.27c0,.14,0,.26,0,.35a1.3,1.3,0,0,0,0,.18v.1c.23,2,.71,3.8,1.75,4.58a6.22,6.22,0,0,0,1.15.7C119.56,200,133.25,176.08,131.93,142.42Z"/><path class="cls-7" d="M138.43,205.6a20.19,20.19,0,0,0,17.88-13.9c5.83-17.64,7.89-33.1,7.68-46.41a103.5,103.5,0,0,0-4.28-28.38,91.65,91.65,0,0,0-5.66-14.33,39.06,39.06,0,0,0-34.93-21.67c-3.4,0-5.77.15-6.53.2l-.28,0a138.16,138.16,0,0,1,9.43,17.75,119.21,119.21,0,0,1,10.19,43.53c1.32,33.66-12.37,57.56-13.8,60l-.12.2C126.41,205.28,133.17,205.92,138.43,205.6Z"/><path class="cls-5" d="M247.29,98.94a109.64,109.64,0,0,0-56.17,1.8.55.55,0,0,0,.29,1.06A108.4,108.4,0,0,1,247,100c.69.15,1-.9.29-1Z"/><path class="cls-5" d="M201.36,123.36c7.7-2.51,15.38-4.85,23.58-4.74a.55.55,0,0,0,0-1.09c-8.3-.12-16.06,2.23-23.87,4.78-.67.21-.38,1.27.29,1Z"/><path class="cls-5" d="M149.54,96.19A103.45,103.45,0,0,1,162.29,164c-.11.69.94,1,1.05.29a104.6,104.6,0,0,0-12.86-68.65.54.54,0,0,0-.94.55Z"/><path class="cls-5" d="M131.48,142a131.17,131.17,0,0,1-13.24,59.65c-.31.63.63,1.18.94.55A132.33,132.33,0,0,0,132.57,142a.55.55,0,0,0-1.09,0Z"/><path class="cls-5" d="M110.82,81.33l10.91,18a.54.54,0,0,0,.94-.55l-10.9-18a.55.55,0,0,0-1,.56Z"/><path class="cls-6" d="M234.47,175.91c1-2,2.12-4.06,3.32-6a88.82,88.82,0,0,1,7.26-10.19q1.75-2.15,3.63-4.2c1-1,2.43-2.56.72-3.81a2.8,2.8,0,0,0-1.68-.51c-1.53,0-2.77.86-4.16,1.31a3.76,3.76,0,0,1-3-.09,3.23,3.23,0,0,1-1.45-2.89,8.14,8.14,0,0,1,.92-3.24,9.92,9.92,0,0,0,1.33-4.31,3.35,3.35,0,0,0-.77-2.12c-1.24-1.45-2.73-.7-3.94.28-1.54,1.26-3.06,2.55-4.51,3.91-5,4.71-17.15,17.93-24.06,44.27A122,122,0,0,0,205,234.77a103.37,103.37,0,0,1,27.42,8.48C224,216.16,228.27,188.52,234.47,175.91Z"/><path class="cls-6" d="M152.71,261.3c-3.52,5.82-4.37,13.71-3,19.91,3.38,14.74,7.07,24.49,13.16,38.31l0,0c19.28,38.74,5.42,56.1-2.08,62.08a2.46,2.46,0,0,0,.7,4.25l4.63,1.64a5.13,5.13,0,0,1,3.29,6c-.4,1.66-.85,3.58-1.28,5.36a2.12,2.12,0,0,0,3.45,2.11c8.93-7.77,15.91-18.41,18.85-29.46,4-15,4.1-26.78-1.6-46.1-4.38-14.83-9.82-27.61-13.6-42.56a91.08,91.08,0,0,1-2.56-19.8c0-.8,0-1.56,0-2.31a137.17,137.17,0,0,0-20.09.77Z"/><path class="cls-6" d="M216.33,270.53l.13.23.2.34c.15.25.31.49.46.75l.36.58.21.33c.65,1,1.33,2.05,2,3.06.1.13.18.26.27.4l.3.43c.48.68,1,1.35,1.45,2l1,1.38,1.11,1.42c.24.29.47.6.71.89s.45.54.68.82c.65.8,1.32,1.59,2,2.38.9,1,1.82,2.06,2.77,3.08l.22.24.76.82.45.47c.23.24.44.48.67.71l.81.83,1.14,1.17,0,0,.66.67.26.26.67.65.39.38.36.36.11.1.62.58c.14.12.27.25.4.38l.71.65,1.29,1.14c.58.51,1.17,1,1.77,1.49s1.21,1,1.82,1.44l1.08.81.36.25a48.49,48.49,0,0,0,5.33,3.32c.55.31,1.13.6,1.7.88l.63.31.71.36.33.17.36.18.62.3.82.41,1.43.65,1.17.47.32.13.18.05.09,0c1.92.67,3.74,1,4.89.42a7.13,7.13,0,0,0,1.13-.74C262.78,306.69,247.22,284,216.33,270.53Z"/><path class="cls-7" d="M276.05,292.15A20.19,20.19,0,0,0,271.31,270c-13.36-12.92-26.38-21.5-38.45-27.1a103.49,103.49,0,0,0-27.43-8.47,91.5,91.5,0,0,0-15.36-1.14,39.05,39.05,0,0,0-34.7,22c-1.48,3.06-2.38,5.26-2.66,6l-.1.26a137.17,137.17,0,0,1,20.09-.77,119,119,0,0,1,43.63,9.74c30.89,13.44,46.45,36.16,48,38.49l.13.2C270.54,302.83,274.06,297,276.05,292.15Z"/><path class="cls-5" d="M227.34,147.71a109.3,109.3,0,0,0-22.8,51.35c-.11.69.94,1,1.05.29a108.3,108.3,0,0,1,22.52-50.87c.44-.54-.33-1.32-.77-.77Z"/><path class="cls-5" d="M229.33,199.77c1.09-8,2.3-16,6-23.3.31-.63-.63-1.18-.94-.55-3.72,7.4-5,15.43-6.09,23.56-.09.69,1,1,1.05.29Z"/><path class="cls-5" d="M182.31,234.58a103.57,103.57,0,0,1,66.74,18c.57.4,1.12-.54.55-.94a104.6,104.6,0,0,0-67.29-18.21c-.7.06-.7,1.15,0,1.1Z"/><path class="cls-5" d="M215.75,270.75a131.22,131.22,0,0,1,48.06,38c.44.55,1.2-.23.77-.77a131.71,131.71,0,0,0-48.28-38.13c-.64-.29-1.19.65-.55.94Z"/><path class="cls-5" d="M152.09,263,173,261c.69-.07.7-1.16,0-1.1l-20.92,2c-.69.07-.7,1.16,0,1.09Z"/><path class="cls-2" d="M38.5,346.29a.87.87,0,0,0,1.41-1C37.49,340,36.89,334,36,328.73c-4.27-27.53.57-55.21-10-82.83a19.85,19.85,0,0,0-4.1-5c.84.93,1.67,1.86,2.44,2.79-6-2.79-12-1.43-17.54,0,5.78,12.13,6.79,27.06,7.41,37.36.61,16.15-2.1,37.4,4.3,52.81a.79.79,0,0,0,1.51-.21,23.59,23.59,0,0,1,.5-3,11.52,11.52,0,0,1,2.09-4.38C24.57,330.24,32.5,340.09,38.5,346.29Z"/><path class="cls-3" d="M6.79,243.77c-1.18.31-2.34.63-3.47.91-24.06,6.49-44.65,22.48-71.28,22.47-10.47-1.76-24.15-20-29.94-29.34a1.4,1.4,0,0,1-.09-.17h0c7.32,8.11,15.28,9.26,23.1,7.58,9.55-2,18.87-8.35,26.48-11.38,10.2-4.4,20.65-9.32,32-11.69a29.36,29.36,0,0,1,23.79,5.46,110.47,110.47,0,0,1,14.53,13.32c.84.93,1.67,1.86,2.44,2.79C18.29,240.94,12.3,242.3,6.79,243.77Zm-69.88-2.68h0ZM-14,233.33a0,0,0,0,1,0,0h0s0,0,0,0h0S-14,233.32-14,233.33Z"/><path class="cls-5" d="M-97.9,237.82c10.39,13.14,28.14,7.54,40.82,1.51,18.72-8.9,38.48-20.82,60-14.8a.67.67,0,0,0,.36-1.3c-16.7-4.68-33.08,1.34-48.06,8.58-14.67,7.1-38.58,22.19-52.12,5.05-.54-.68-1.49.28-1,1Z"/><path class="cls-5" d="M23.19,244.07c5.7,7.1,6.44,17.28,8.12,25.91.17.86,1.47.5,1.31-.36-1.76-9-2.54-19.11-8.47-26.51-.54-.68-1.5.28-1,1Z"/><path class="cls-5" d="M32.4,281a78.24,78.24,0,0,0,.78,12.89c.12.85,1.43.49,1.31-.36A76.11,76.11,0,0,1,33.75,281a.68.68,0,0,0-1.35,0Z"/><path class="cls-2" d="M300,70.41a.87.87,0,0,0,1.41-1c-2.43-5.29-3-11.28-3.93-16.58-4.26-27.53.57-55.22-10-82.83a19.94,19.94,0,0,0-4.11-5c.85.93,1.67,1.86,2.45,2.78-6-2.78-12-1.42-17.55,0C274.1-20,275.1-5,275.73,5.26c.61,16.14-2.11,37.4,4.29,52.81a.79.79,0,0,0,1.51-.22,23.88,23.88,0,0,1,.5-3,11.59,11.59,0,0,1,2.09-4.37C286.1,54.37,294,64.21,300,70.41Z"/><path class="cls-5" d="M293.92,5.14A77.11,77.11,0,0,0,294.71,18c.12.86,1.42.5,1.3-.36a75.92,75.92,0,0,1-.73-12.52.68.68,0,0,0-1.36,0Z"/><path class="cls-6" d="M343.18,20.26c-3.53,5.83-4.37,13.72-2.95,19.92,3.38,14.74,7.07,24.49,13.16,38.31,0,0,0,0,0,0,19.27,38.74,5.42,56.1-2.08,62.08a2.46,2.46,0,0,0,.7,4.25l4.63,1.64a5.14,5.14,0,0,1,3.29,6c-.4,1.66-.85,3.58-1.28,5.36a2.12,2.12,0,0,0,3.44,2.11c8.94-7.77,15.92-18.41,18.85-29.46,4-15,4.11-26.78-1.6-46.1-4.37-14.83-9.81-27.61-13.6-42.56a92.41,92.41,0,0,1-2.56-19.8c0-.8,0-1.56,0-2.32a138.58,138.58,0,0,0-20.09.78Z"/><path class="cls-7" d="M466.52,51.11A20.2,20.2,0,0,0,461.78,29c-13.36-12.92-26.38-21.5-38.46-27.1A103.32,103.32,0,0,0,395.9-6.6a91.58,91.58,0,0,0-15.36-1.14,39.08,39.08,0,0,0-34.71,22c-1.48,3.06-2.37,5.26-2.65,6l-.1.27a138.58,138.58,0,0,1,20.09-.78A119.23,119.23,0,0,1,406.8,29.5c30.88,13.44,46.45,36.16,48,38.49a2.07,2.07,0,0,1,.13.19C461,61.79,464.52,56,466.52,51.11Z"/><path class="cls-5" d="M372.78-6.46A103.6,103.6,0,0,1,439.51,11.6c.58.4,1.13-.55.55-.94A104.55,104.55,0,0,0,372.78-7.55c-.7.06-.71,1.15,0,1.09Z"/><path class="cls-5" d="M342.56,22l20.92-2c.69-.06.7-1.15,0-1.09l-20.92,2c-.69.07-.7,1.16,0,1.09Z"/><path class="cls-2" d="M229,105.25a.87.87,0,0,0,1.41-1C228,99,227.36,93,226.46,87.7c-4.27-27.53.56-55.21-10-82.83a19.9,19.9,0,0,0-4.11-5c.85.93,1.67,1.86,2.45,2.78-6-2.78-12-1.42-17.55.05,5.79,12.13,6.8,27.06,7.42,37.36.61,16.15-2.1,37.4,4.3,52.81a.78.78,0,0,0,1.5-.21,23.68,23.68,0,0,1,.51-3,11.52,11.52,0,0,1,2.09-4.38C215,89.21,223,99.06,229,105.25Z"/><path class="cls-2" d="M115.58,4.2C113.41-1,107.29-16.64,108.35-32c1.59-23.36-1.85-35.49-4.64-41.56a2.92,2.92,0,0,0-5-.54,37.93,37.93,0,0,1-3.46,3.86c-2.58-.91-9.83-7.65-14.21-11.93a1,1,0,0,0-1.57,1.06A118.63,118.63,0,0,1,85.64-62c2.82,14.49.68,24.6,2.37,39.85.63,5.64,1.67,12.61,4.36,18.48l.12.26C99.81,4.73,107.77,5.88,115.58,4.2Z"/><path class="cls-3" d="M197.25,2.74c-1.17.31-2.33.63-3.46.91-24.06,6.49-44.65,22.48-71.28,22.47C112,24.36,98.36,6.09,92.57-3.22a.7.7,0,0,1-.09-.17h0c7.32,8.11,15.28,9.26,23.09,7.58,9.56-2.05,18.88-8.35,26.49-11.38,10.2-4.41,20.65-9.32,32-11.69a29.38,29.38,0,0,1,23.8,5.46A109.68,109.68,0,0,1,212.35-.09c.85.93,1.67,1.86,2.45,2.78C208.76-.09,202.77,1.27,197.25,2.74ZM127.38.06h0ZM176.5-7.7v0h0s0,0,0,0h0S176.49-7.71,176.5-7.7Z"/><polygon class="cls-4" points="127.38 0.06 127.38 0.06 127.38 0.05 127.38 0.06"/><path class="cls-5" d="M92.57-3.21C103,9.93,120.71,4.33,133.39-1.7c18.71-8.9,38.47-20.82,60-14.8a.67.67,0,0,0,.36-1.3c-16.7-4.68-33.09,1.34-48.06,8.58C131-2.12,107.07,13,93.52-4.17c-.54-.68-1.49.28-1,1Z"/><path class="cls-5" d="M121.16,27c16.74,1.3,32.07-5.41,46.85-12.44.79-.37.1-1.54-.68-1.17-14.59,6.94-29.65,13.54-46.17,12.26-.87-.07-.87,1.28,0,1.35Z"/><path class="cls-5" d="M213.66,3c5.7,7.11,6.44,17.29,8.12,25.92.17.86,1.47.5,1.3-.36-1.75-9-2.53-19.11-8.46-26.51-.55-.68-1.5.28-1,.95Z"/><path class="cls-5" d="M222.87,40a78.11,78.11,0,0,0,.78,12.88c.12.86,1.43.5,1.3-.35A76.11,76.11,0,0,1,224.22,40a.68.68,0,0,0-1.35,0Z"/><path class="cls-6" d="M44-65.12c1-2,2.12-4.06,3.32-6a88.82,88.82,0,0,1,7.26-10.19q1.76-2.15,3.63-4.2c1-1.06,2.43-2.56.72-3.81a2.7,2.7,0,0,0-1.68-.51c-1.53,0-2.77.86-4.16,1.3a3.72,3.72,0,0,1-3-.08,3.25,3.25,0,0,1-1.45-2.89,8.25,8.25,0,0,1,.92-3.24,9.87,9.87,0,0,0,1.33-4.31,3.34,3.34,0,0,0-.76-2.12c-1.24-1.45-2.74-.7-3.95.28-1.54,1.26-3.05,2.55-4.51,3.91-5,4.71-17.14,17.93-24.06,44.27A122,122,0,0,0,14.49-6.26,103.54,103.54,0,0,1,41.92,2.22C33.54-24.87,37.8-52.52,44-65.12Z"/><path class="cls-6" d="M-37.75,20.26a28.17,28.17,0,0,0-3,19.92c3.37,14.74,7.06,24.49,13.15,38.31l0,0c19.28,38.74,5.43,56.1-2.08,62.08a2.46,2.46,0,0,0,.71,4.25l4.62,1.64a5.13,5.13,0,0,1,3.29,6c-.39,1.66-.85,3.58-1.28,5.36A2.13,2.13,0,0,0-18.82,160C-9.89,152.22-2.91,141.58,0,130.53c4-15,4.1-26.78-1.6-46.1-4.38-14.83-9.81-27.61-13.6-42.56a91.78,91.78,0,0,1-2.56-19.8c0-.8,0-1.56,0-2.32a138.63,138.63,0,0,0-20.09.78S-37.82,20.42-37.75,20.26Z"/><path class="cls-6" d="M25.86,29.5a2.53,2.53,0,0,1,.13.22c.08.12.13.24.2.35s.31.49.46.75.24.39.37.58.13.22.2.33c.65,1,1.33,2.05,2,3.06.09.13.17.26.27.39s.19.29.29.44c.48.68,1,1.35,1.45,2l1,1.38c.36.48.73.95,1.11,1.42.23.29.46.6.71.88s.44.55.67.83c.65.8,1.33,1.59,2,2.38.91,1,1.82,2.06,2.77,3.08l.22.24.76.81.45.48c.23.23.45.48.67.71l.81.83,1.14,1.17,0,0,.66.67.27.26.66.65c.14.13.26.26.4.38l.36.35.1.1.62.59.4.37.72.66L49.12,57c.57.51,1.16,1,1.76,1.49s1.21,1,1.82,1.44l1.08.81.36.25a49.45,49.45,0,0,0,5.33,3.32c.56.31,1.13.59,1.7.88.2.08.41.2.63.31l.71.35.34.18.35.18.62.3.82.4,1.43.66,1.18.47.32.13a.62.62,0,0,0,.18.05l.08,0c1.92.66,3.74,1,4.89.42A7.13,7.13,0,0,0,73.85,68C72.32,65.66,56.75,42.94,25.86,29.5Z"/><path class="cls-7" d="M85.58,51.11A20.16,20.16,0,0,0,80.84,29C67.48,16.05,54.46,7.47,42.39,1.87A103.54,103.54,0,0,0,15-6.6,91.69,91.69,0,0,0-.4-7.74a39.05,39.05,0,0,0-34.7,22c-1.48,3.06-2.38,5.26-2.65,6-.07.16-.11.27-.11.27a138.63,138.63,0,0,1,20.09-.78A119.18,119.18,0,0,1,25.86,29.5C56.75,42.94,72.32,65.66,73.85,68l.13.19C80.07,61.79,83.59,56,85.58,51.11Z"/><path class="cls-5" d="M-8.16-6.46A103.64,103.64,0,0,1,58.58,11.6c.58.4,1.12-.55.55-.94A104.6,104.6,0,0,0-8.16-7.55c-.7.06-.7,1.15,0,1.09Z"/><path class="cls-5" d="M25.28,29.72a131.12,131.12,0,0,1,48.06,38c.44.55,1.21-.23.78-.78A131.83,131.83,0,0,0,25.83,28.78c-.63-.29-1.19.65-.55.94Z"/></pattern></defs><title>Artboard 1 copy 13</title><rect class="cls-8" x="-14.5" y="-0.5" width="1262" height="1226"/></svg>