<svg id="Layer_1" data-name="Layer 1" xmlns="http://www.w3.org/2000/svg" viewBox="0 0 1232 1215"><defs><style>.cls-1{fill:#ffd744;}</style></defs><title>Artboard 1 copy 8</title><path class="cls-1" d="M648.53,508.49c-18.61,9.29-31.9,30.24-37,50.27-4,15.54-4.71,31.73-4.86,47.78-3-14.37-6.14-29.12-14.11-41.44s-22-21.89-36.57-20.3c-13.11,1.42-23.74,11.21-31.74,21.69a133.13,133.13,0,0,0-24.48,53.94c-3.51,17.14-8.22,47.4,15.58,52.69a21.34,21.34,0,0,0,9.13-.35c10.6-2.33,19.21-8.51,28.65-13.45l22-11.49c5.27-2.76,10.66-5.3,15.79-8.29,2.87-1.68,7.75-5.54,11.33-4.86,5,1,.05,21.28-1.3,25.27A56.69,56.69,0,0,1,587,682.27c-6.67,6.53-14.89,11.36-21.16,18.26s-10.42,17.06-6.61,25.57c4,9,15.87,12.53,25.33,9.7s16.72-10.49,22.15-18.74A91.67,91.67,0,0,0,618.78,645c14,12.94,28.25,26.08,45.49,34.17,12.35,5.79,26.56,8.73,40.14,6.49,11.92-2,25.49-9.57,26-23.2a20.4,20.4,0,0,0-10.2-18.13c-6.49-3.64-14.49-3.37-21.74-1.7s-14.17,4.64-21.46,6.14c-21.23,4.38-44.65-5.12-56.84-23,19.64-3.38,39.68.12,59.08,3.44,14.87,2.54,34.75,9.16,48.22-1.22,11.17-8.61,7.87-25.8,4.66-37.48-8.58-31.31-14.18-76.93-52.49-85.66A45.44,45.44,0,0,0,648.53,508.49ZM599.82,618.1a3,3,0,0,1-.9,1.49c-2,1.82-7.2,1.9-9.8,2.37-7.28,1.32-14.63,2.26-22,2.9-8.42.74-18.45,1.76-26.73-.3-10.77-2.67-10.11-15.41-7.07-23.73,3.52-9.65,12.69-16.32,22.37-18.89,11.41-3,21.73.21,30.4,8.16,6.4,5.86,9.5,13.56,12.57,21.43C599.33,613.28,600.37,616.08,599.82,618.1Zm73-75.36.77.28c9.37,3.48,16.93,12.55,16.9,22.56,0,5.81-2.5,11.43-6.09,16A56.35,56.35,0,0,1,665,596.88a251.47,251.47,0,0,1-25.73,10.86c-4.67,1.67-9.34,3.23-14.08,4.68-2.09.64-5.31,1.27-7.31,0-2.65-1.72-2.38-6.67-2.36-9.44.12-13,1-26.14,7.53-37.67a49.29,49.29,0,0,1,19.35-19.1,43.73,43.73,0,0,1,15.32-4.86A34.55,34.55,0,0,1,672.85,542.74Z"/><path class="cls-1" d="M640,424.9l-2-.19.21-2.22a5.19,5.19,0,0,1-5,2.05,6.66,6.66,0,0,1-4.81-2.68,8.42,8.42,0,0,1-1.52-6.24,9.69,9.69,0,0,1,2.67-6.15,6.68,6.68,0,0,1,5.6-1.94,5.86,5.86,0,0,1,4.26,2.13,6.16,6.16,0,0,1,1.29,4.4l-2.83-.27a3.59,3.59,0,0,0-.68-2.36,3.06,3.06,0,0,0-2.31-1.24,3.81,3.81,0,0,0-3.3,1.3,7,7,0,0,0-1.64,4.16,6.56,6.56,0,0,0,.85,4.34,3.93,3.93,0,0,0,3,1.85,3.65,3.65,0,0,0,4.1-3.63l0-.3-4.12-.39.23-2.41,6.78.64Z"/><path class="cls-1" d="M644.44,414.38l2.69.42-1.71,11-2.68-.42Zm.77-5,2.69.42-.48,3.12-2.69-.42Z"/><path class="cls-1" d="M648.77,426.38l1.7-8.74-1.32-.26.43-2.21,1.33.25.34-1.75c.56-2.9,2.06-4.13,4.46-3.66s3.1,2.31,2.6,4.89l-2.1-.41c.25-1.28,0-2-.75-2.14s-1.26.42-1.51,1.68l-.37,1.91,3.72.73-.43,2.21-3.72-.72-1.71,8.74Z"/><path class="cls-1" d="M663.16,414l-.95,3.83,4.27,1.06-.54,2.19L661.67,420l-1.09,4.41c-.37,1.51-.23,2.27.79,2.52.81.2,1.52-.52,1.85-1.85l2,.51c-.65,2.62-2.29,4.15-4.67,3.57a3.39,3.39,0,0,1-2.72-2.16,5.82,5.82,0,0,1,.06-3.25l1.09-4.4-1.31-.32.54-2.19.49.12c1.18.29,1.64-.6,2.35-3.49Z"/><path class="cls-1" d="M669,419.64l2.61.76-3.12,10.71-2.61-.76Zm1.43-4.89,2.61.76-.89,3-2.61-.76Z"/><path class="cls-1" d="M674.76,421.32l2.44.84-.75,2.15A4.14,4.14,0,0,1,681,423.2c2.37.82,2.83,3,1.88,5.72l-2.17,6.28-2.57-.89,2-5.84c.6-1.74.21-3-1.13-3.47a2.24,2.24,0,0,0-2,.27,3.33,3.33,0,0,0-1.45,1.83l-2,5.65-2.57-.89Z"/><path class="cls-1" d="M693.78,428.78a3.76,3.76,0,0,1,4-.68l-.91,2.14a3.23,3.23,0,0,0-2.33-.16,3.49,3.49,0,0,1-.12,2.61c-.93,2.2-3.24,2.89-5.88,1.78a7.06,7.06,0,0,1-1.84-1.14.88.88,0,0,0-1.07.51c-.24.55,0,1,.86,1.35l2,.82c2.81,1.19,4.13,3.19,3.11,5.61s-3.66,3.15-7.1,1.69c-2.92-1.23-4-3.19-3.2-5.16a2.83,2.83,0,0,1,2.87-1.77,2.12,2.12,0,0,1-.8-2.71,2.29,2.29,0,0,1,2.61-1.27,3.41,3.41,0,0,1-.2-3.34c.94-2.23,3.24-2.87,5.89-1.75A6,6,0,0,1,693.78,428.78ZM687,437.83c-1.63-.69-2.88-.54-3.35.57s.13,2.13,1.89,2.87,3,.53,3.48-.64S688.82,438.6,687,437.83Zm5.19-6.06A2.11,2.11,0,0,0,690.9,429a2.09,2.09,0,1,0,1.29,2.82Z"/><path class="cls-1" d="M702.59,432.44l2.62,1.47-1.37,7.91,6-5.35,1.62.91-1.24,7.93,5.89-5.33,2.39,1.34-9.28,7.59-1.79-1,1.08-7.36-5.62,4.82-1.77-1Z"/><path class="cls-1" d="M720,442.51l2.29,1.48-6,9.38L714,451.89Zm2.77-4.28,2.28,1.48-1.71,2.65-2.29-1.47Z"/><path class="cls-1" d="M729.6,444.19l-2.28,3.23,3.59,2.53-1.3,1.84L726,449.26l-2.61,3.7c-.89,1.28-1,2-.17,2.63.68.49,1.59.08,2.38-1l1.73,1.22c-1.55,2.2-3.64,3-5.64,1.62a3.36,3.36,0,0,1-1.75-3,5.77,5.77,0,0,1,1.23-3l2.61-3.71-1.1-.77,1.3-1.85.41.3c1,.69,1.74,0,3.46-2.4Z"/><path class="cls-1" d="M736.83,446.88l2.13,1.7-5,6.24a4.12,4.12,0,0,1,4.43.6c2,1.57,1.66,3.77-.14,6l-4.15,5.19-2.13-1.7,3.86-4.83c1.15-1.43,1.2-2.76.09-3.64a2.2,2.2,0,0,0-2-.41,3.37,3.37,0,0,0-2,1.24L728.26,462l-2.12-1.7Z"/><path class="cls-1" d="M745.24,469.33a3,3,0,0,0,.15,4.52c1.2,1.16,2.55,1.31,3.54.29,1.3-1.33.1-3.17-.9-5.18-.68-1.4-1.3-2.66-1-4.13a3.89,3.89,0,0,1,1.1-2,4.26,4.26,0,0,1,3.51-1.38,6.09,6.09,0,0,1,3.76,1.87,5.61,5.61,0,0,1,1.88,3.77,4.66,4.66,0,0,1-1.41,3.55l-2-1.91a2.47,2.47,0,0,0-.23-3.66c-1-1-2.35-1.18-3.21-.3-2.4,2.47,5,7.18.82,11.43a4.5,4.5,0,0,1-3.62,1.5,6.28,6.28,0,0,1-4.08-2,6.55,6.55,0,0,1-2.18-4.19,5.31,5.31,0,0,1,1.73-4.22Z"/><path class="cls-1" d="M760.92,476.86a5.15,5.15,0,0,1,1.42,4.06,6.58,6.58,0,0,1-6.25,5.6,5.15,5.15,0,0,1-3.9-1.85,5.09,5.09,0,0,1-1.39-4.06,5.85,5.85,0,0,1,2.1-3.93,6,6,0,0,1,4.16-1.67A5.1,5.1,0,0,1,760.92,476.86Zm-1.68,1.5a2.29,2.29,0,0,0-2-.79,4.33,4.33,0,0,0-2.4,1.19,4.17,4.17,0,0,0-1.42,2.24,2.25,2.25,0,0,0,.56,2.12,2.3,2.3,0,0,0,2.06.78,5.08,5.08,0,0,0,3.81-3.42A2.26,2.26,0,0,0,759.24,478.36Z"/><path class="cls-1" d="M770.67,489.08l1.68,2.15-8.8,6.86-1.58-2,1.65-1.28a3.73,3.73,0,0,1-4.13-1.44c-1.64-2.11-.9-4.25,1.37-6l5.24-4.09,1.67,2.15-4.94,3.85c-1.5,1.17-1.8,2.35-.88,3.52s2.66,1.07,4.25-.17Z"/><path class="cls-1" d="M766.67,502.55l-1.57-2.22,14-9.87,1.56,2.23Z"/><path class="cls-1" d="M770.86,503.05l1.5,2.27-2.66,1.76-1.5-2.27Z"/><path class="cls-1" d="M779.7,524.23l-1-1.73,2-1.08a5.17,5.17,0,0,1-4.5-3,6.65,6.65,0,0,1-.51-5.48,8.45,8.45,0,0,1,4.3-4.76,9.69,9.69,0,0,1,6.58-1.27,6.69,6.69,0,0,1,4.76,3.53,5.88,5.88,0,0,1,.64,4.72,6.12,6.12,0,0,1-2.91,3.54l-1.37-2.48a3.57,3.57,0,0,0,1.56-1.89,3.07,3.07,0,0,0-.27-2.62,3.85,3.85,0,0,0-2.93-2,7.06,7.06,0,0,0-4.36,1,6.46,6.46,0,0,0-3.1,3.14,3.93,3.93,0,0,0,.17,3.54,3.67,3.67,0,0,0,5.31,1.35l.27-.15-2-3.62,2.12-1.17,3.29,6Z"/><path class="cls-1" d="M790.93,522l1.17,2.45L782,529.29l-1.17-2.45Zm4.6-2.19,1.17,2.45-2.85,1.36-1.17-2.45Z"/><path class="cls-1" d="M783.41,532.31l8.18-3.51-.53-1.24,2.07-.88.53,1.23,1.64-.7c2.72-1.16,4.57-.62,5.53,1.62s-.16,3.87-2.58,4.9l-.84-2c1.2-.52,1.65-1.11,1.35-1.82s-1.06-.81-2.23-.31l-1.8.77,1.5,3.48-2.07.89-1.5-3.48-8.18,3.51Z"/><path class="cls-1" d="M801.76,537.28l-3.71,1.38,1.53,4.12-2.11.79-1.53-4.12L791.68,541c-1.46.55-2,1.1-1.63,2.08.29.78,1.27,1,2.56.48l.74,2c-2.53.94-4.73.44-5.58-1.85a3.4,3.4,0,0,1,.25-3.47,5.86,5.86,0,0,1,2.72-1.78L795,536.9l-.47-1.27,2.11-.78.18.47c.42,1.14,1.42,1,4.21,0Z"/><path class="cls-1" d="M800.37,545.25l.84,2.59-10.6,3.45-.84-2.59Zm4.84-1.57.84,2.58-3,1-.84-2.59Z"/><path class="cls-1" d="M802.25,550.92l.67,2.5-2.2.59a4.14,4.14,0,0,1,3.51,3.17c.66,2.43-.88,4-3.66,4.78l-6.42,1.75-.72-2.63,6-1.62c1.77-.48,2.59-1.53,2.22-2.9a2.25,2.25,0,0,0-1.34-1.49,3.35,3.35,0,0,0-2.34-.16l-5.76,1.57-.72-2.63Z"/><path class="cls-1" d="M806.78,570.84a3.8,3.8,0,0,1,2.81,2.93l-2.28.45a3.17,3.17,0,0,0-1.19-2,3.44,3.44,0,0,1-2.21,1.36c-2.35.47-4.22-1.05-4.78-3.86a6.92,6.92,0,0,1-.1-2.16.89.89,0,0,0-1-.6c-.59.12-.8.61-.63,1.48l.41,2.07c.6,3-.31,5.21-2.89,5.72s-4.66-1.25-5.39-4.92c-.62-3.1.38-5.12,2.48-5.54a2.8,2.8,0,0,1,3.07,1.38,2.1,2.1,0,0,1,1.79-2.19,2.28,2.28,0,0,1,2.52,1.44,3.42,3.42,0,0,1,2.65-2c2.37-.47,4.19,1.06,4.76,3.89A6.15,6.15,0,0,1,806.78,570.84Zm-11.3-.52c-.34-1.73-1.17-2.68-2.36-2.44s-1.68,1.31-1.31,3.18,1.24,2.76,2.49,2.51S795.87,572.26,795.48,570.32Zm7.93.89a2.11,2.11,0,0,0,1.61-2.65,2.08,2.08,0,0,0-2.5-1.82,2.06,2.06,0,0,0-1.58,2.64A2.08,2.08,0,0,0,803.41,571.21Z"/><path class="cls-1" d="M808.73,580.18l.26,3-7.31,3.34,7.78,1.89.16,1.86-7.25,3.44,7.73,1.86.24,2.73-11.51-3.38-.18-2,6.69-3.26-7.15-1.93-.18-2Z"/><path class="cls-1" d="M810.22,600.27l.07,2.72-11.16.3-.07-2.72Zm5.09-.13.08,2.72-3.17.08-.07-2.72Z"/><path class="cls-1" d="M814.26,609.12l-4-.06-.07,4.39-2.26,0,.07-4.39-4.53-.08c-1.56,0-2.26.29-2.28,1.34,0,.83.84,1.36,2.21,1.38l0,2.12c-2.7,0-4.56-1.31-4.52-3.75a3.36,3.36,0,0,1,1.49-3.14,5.83,5.83,0,0,1,3.18-.67l4.53.08,0-1.35,2.26,0v.51c0,1.21,1,1.46,3.93,1.51Z"/><path class="cls-1" d="M816.12,616.63l-.2,2.71-8-.58a4.08,4.08,0,0,1,2,4c-.19,2.51-2.17,3.5-5.05,3.29l-6.63-.49.2-2.71,6.17.45c1.83.14,3-.57,3.06-2a2.23,2.23,0,0,0-.77-1.85,3.39,3.39,0,0,0-2.15-.93l-6-.44.2-2.71Z"/><path class="cls-1" d="M802.33,636.26a3,3,0,0,0-3.64,2.67c-.29,1.65.35,2.84,1.75,3.08,1.83.32,2.68-1.7,3.77-3.66.78-1.35,1.46-2.58,2.82-3.19a3.85,3.85,0,0,1,2.3-.24,4.26,4.26,0,0,1,3.13,2.12,6.12,6.12,0,0,1,.58,4.16,5.63,5.63,0,0,1-2.06,3.68,4.69,4.69,0,0,1-3.73.84l.47-2.71a2.47,2.47,0,0,0,2.89-2.25c.25-1.45-.35-2.61-1.56-2.82-3.39-.59-3.13,8.14-9,7.12a4.52,4.52,0,0,1-3.29-2.15,6.25,6.25,0,0,1-.63-4.49,6.55,6.55,0,0,1,2.23-4.17,5.31,5.31,0,0,1,4.45-1Z"/><path class="cls-1" d="M805,653.43a5.23,5.23,0,0,1-2.55,3.47,6.07,6.07,0,0,1-4.45.46,5.93,5.93,0,0,1-3.7-2.46,5.14,5.14,0,0,1-.68-4.26,5,5,0,0,1,2.57-3.44,5.82,5.82,0,0,1,4.43-.49,6,6,0,0,1,3.72,2.49A5.12,5.12,0,0,1,805,653.43Zm-2.19-.54a2.28,2.28,0,0,0-.51-2.13,4.92,4.92,0,0,0-5-1.23,2.39,2.39,0,0,0-.9,3.8,4.32,4.32,0,0,0,2.29,1.28,4.44,4.44,0,0,0,2.67-.06A2.28,2.28,0,0,0,802.79,652.89Z"/><path class="cls-1" d="M800.38,668.4l-.83,2.59-10.63-3.4.79-2.46,2,.64a3.74,3.74,0,0,1-1.14-4.23c.82-2.55,3-3.14,5.76-2.26l6.34,2-.83,2.59-6-1.91q-2.73-.88-3.4,1.25c-.49,1.51.61,2.81,2.54,3.43Z"/><path class="cls-1" d="M787,672.69l1-2.55,16.05,6-1,2.55Z"/><path class="cls-1" d="M789,676.38l-1,2.52L785,677.69l1-2.52Z"/><path class="cls-1" d="M776.42,695.57l.9-1.76,2,1a5.17,5.17,0,0,1-.08-5.41,6.71,6.71,0,0,1,4.26-3.5,8.42,8.42,0,0,1,6.35.88,9.65,9.65,0,0,1,4.75,4.73,6.68,6.68,0,0,1-.24,5.92,5.87,5.87,0,0,1-3.54,3.18,6.13,6.13,0,0,1-4.57-.41l1.29-2.53a3.57,3.57,0,0,0,2.44.23,3.11,3.11,0,0,0,2-1.7,3.82,3.82,0,0,0,0-3.54,7,7,0,0,0-3.27-3,6.49,6.49,0,0,0-4.35-.79,3.9,3.9,0,0,0-2.83,2.13,3.66,3.66,0,0,0,1.88,5.15l.27.14,1.87-3.69,2.15,1.09-3.08,6.08Z"/><path class="cls-1" d="M784.56,703.61,783.18,706l-9.63-5.64,1.38-2.34Zm4.39,2.57-1.37,2.35-2.73-1.6,1.37-2.35Z"/><path class="cls-1" d="M771.79,703.25l7.52,4.79.72-1.14,1.9,1.22-.72,1.13,1.51,1c2.49,1.59,3.08,3.43,1.77,5.49s-3.29,2-5.51.62l1.15-1.8c1.1.7,1.85.74,2.26.09s.08-1.33-1-2l-1.65-1.05-2,3.19-1.9-1.21,2-3.2-7.51-4.79Z"/><path class="cls-1" d="M778,721.15l-3.22-2.28-2.54,3.58-1.85-1.3,2.55-3.59-3.7-2.62c-1.27-.9-2-1-2.63-.19-.49.69-.08,1.6,1,2.4l-1.23,1.72c-2.2-1.56-3-3.65-1.61-5.64a3.36,3.36,0,0,1,3-1.75,5.79,5.79,0,0,1,3,1.24l3.7,2.62.78-1.1,1.84,1.31-.3.42c-.7,1,0,1.74,2.39,3.46Z"/><path class="cls-1" d="M770.69,724.51,769,726.67l-8.84-6.83,1.67-2.16Zm4,3.12-1.67,2.15-2.5-1.93,1.66-2.16Z"/><path class="cls-1" d="M767,729.27l-1.68,2-1.73-1.48a4.13,4.13,0,0,1-.64,4.69c-1.63,1.9-3.82,1.53-6-.34l-5.05-4.32,1.76-2.06,4.7,4c1.4,1.19,2.73,1.29,3.65.21a2.25,2.25,0,0,0,.47-2,3.4,3.4,0,0,0-1.18-2l-4.54-3.88,1.76-2.06Z"/><path class="cls-1" d="M753.13,744.26a3.76,3.76,0,0,1-.82,4l-1.66-1.62a3.22,3.22,0,0,0,1-2.12,3.41,3.41,0,0,1-2.38-1.06c-1.71-1.67-1.51-4.08.49-6.12a6.81,6.81,0,0,1,1.73-1.31.9.9,0,0,0-.08-1.18c-.44-.42-1-.32-1.58.31l-1.48,1.52c-2.13,2.18-4.48,2.68-6.36.85s-1.6-4.56,1-7.24c2.21-2.26,4.45-2.58,6-1.09a2.84,2.84,0,0,1,.6,3.32,2.1,2.1,0,0,1,2.81.25,2.27,2.27,0,0,1,.23,2.89,3.43,3.43,0,0,1,3.19,1c1.73,1.69,1.5,4.06-.52,6.13A6.16,6.16,0,0,1,753.13,744.26Zm-6-9.62c1.24-1.27,1.55-2.49.69-3.33s-2-.65-3.37.71-1.58,2.59-.66,3.48S745.8,736.05,747.18,734.64Zm3.75,7.05a2.29,2.29,0,0,0,3.19-3.27,2.06,2.06,0,0,0-3.07.19A2.09,2.09,0,0,0,750.93,741.69Z"/><path class="cls-1" d="M746.55,751.11,744.24,753l-6.89-4.14,2.83,7.49-1.43,1.18-7-4,2.84,7.42-2.11,1.75-3.72-11.4,1.58-1.31,6.47,3.68-2.45-7,1.56-1.29Z"/><path class="cls-1" d="M730.83,763.7l-2.2,1.59-6.55-9,2.2-1.59Zm3,4.12-2.21,1.6-1.85-2.56,2.2-1.6Z"/><path class="cls-1" d="M725.8,772l-2.19-3.29L720,771.18l-1.25-1.88,3.66-2.43-2.51-3.78c-.86-1.3-1.52-1.7-2.39-1.12-.7.46-.65,1.46.11,2.61l-1.76,1.17c-1.49-2.25-1.51-4.5.53-5.86a3.36,3.36,0,0,1,3.43-.54,5.77,5.77,0,0,1,2.35,2.23l2.51,3.78,1.12-.74L727,766.5l-.42.28c-1,.67-.66,1.61,1,4.09Z"/><path class="cls-1" d="M720.64,777.83l-2.36,1.36-4-6.92a4.12,4.12,0,0,1-2.17,3.92c-2.17,1.26-4.12.18-5.56-2.31l-3.34-5.76,2.35-1.37,3.11,5.36c.92,1.59,2.14,2.12,3.37,1.4a2.23,2.23,0,0,0,1.09-1.68,3.37,3.37,0,0,0-.44-2.3l-3-5.17L712,763Z"/><path class="cls-1" d="M696.68,777.48a3,3,0,0,0-4.26-1.51c-1.53.7-2.15,1.9-1.57,3.19.78,1.7,2.92,1.25,5.16,1.05,1.55-.12,3-.24,4.23.53a4,4,0,0,1,1.49,1.77,4.23,4.23,0,0,1,0,3.78,6.1,6.1,0,0,1-3.11,2.82,5.62,5.62,0,0,1-4.19.38,4.68,4.68,0,0,1-2.8-2.61l2.49-1.14a2.48,2.48,0,0,0,3.5,1.12c1.33-.61,2-1.76,1.45-2.88-1.43-3.14-8.49,2-11-3.4a4.53,4.53,0,0,1-.08-3.92,6.3,6.3,0,0,1,3.36-3.06,6.48,6.48,0,0,1,4.7-.51,5.29,5.29,0,0,1,3.3,3.15Z"/><path class="cls-1" d="M683.9,789.36a5.19,5.19,0,0,1-4.3-.16,6.05,6.05,0,0,1-2.89-3.41,6,6,0,0,1,0-4.45,5.53,5.53,0,0,1,7.42-2.77A5.89,5.89,0,0,1,687,782a6,6,0,0,1,0,4.47A5.1,5.1,0,0,1,683.9,789.36Zm-.79-2.11a2.3,2.3,0,0,0,1.48-1.62,4.27,4.27,0,0,0-.23-2.67,4.17,4.17,0,0,0-1.56-2.14,2.38,2.38,0,0,0-3.65,1.39,4.3,4.3,0,0,0,.23,2.61,4.44,4.44,0,0,0,1.55,2.18A2.3,2.3,0,0,0,683.11,787.25Z"/><path class="cls-1" d="M669,794l-2.61.77L663.23,784l2.47-.73.6,2a3.71,3.71,0,0,1,2.85-3.31c2.56-.76,4.28.71,5.1,3.48l1.89,6.37-2.6.77-1.79-6q-.81-2.75-3-2.11c-1.52.45-2,2.09-1.4,4Z"/><path class="cls-1" d="M657.9,785.31l2.65-.64,4,16.66-2.65.64Z"/><path class="cls-1" d="M655.94,789l-2.66.56-.66-3.11,2.66-.56Z"/><path class="cls-1" d="M633,789.5l2-.26.29,2.21a5.18,5.18,0,0,1,4.43-3.1,6.62,6.62,0,0,1,5.28,1.54,8.37,8.37,0,0,1,2.86,5.74,9.63,9.63,0,0,1-1.23,6.59,6.67,6.67,0,0,1-5,3.14,5.87,5.87,0,0,1-4.62-1.13,6.16,6.16,0,0,1-2.24-4l2.82-.37a3.55,3.55,0,0,0,1.19,2.14,3,3,0,0,0,2.53.71,3.85,3.85,0,0,0,2.93-2,7,7,0,0,0,.66-4.43,6.44,6.44,0,0,0-1.78-4,4,4,0,0,0-3.37-1.14,3.66,3.66,0,0,0-3.19,4.45l0,.3,4.1-.53.31,2.4-6.75.87Z"/><path class="cls-1" d="M631,800.74l-2.72.19-.77-11.13,2.71-.19Zm.35,5.08-2.71.19-.22-3.15,2.71-.19Z"/><path class="cls-1" d="M624.05,790l.29,8.91,1.35,0,.07,2.26-1.35,0,.06,1.79c.09,2.95-1.09,4.48-3.54,4.56s-3.54-1.56-3.62-4.19l2.14-.07c0,1.3.43,1.94,1.2,1.92s1.14-.69,1.1-2l-.06-2-3.79.12-.07-2.26,3.79-.12-.29-8.9Z"/><path class="cls-1" d="M612.82,805.26l.07-4-4.4-.07,0-2.26,4.39.07.08-4.53c0-1.56-.29-2.26-1.34-2.28-.83,0-1.36.84-1.38,2.21l-2.12,0c.05-2.69,1.31-4.56,3.75-4.52a3.38,3.38,0,0,1,3.14,1.5,5.8,5.8,0,0,1,.67,3.17l-.08,4.54,1.35,0,0,2.26h-.51c-1.21,0-1.45,1-1.5,3.93Z"/><path class="cls-1" d="M605.62,806.17l-2.71-.15.18-3.16,2.72.15Zm.3-5.08-2.72-.16.63-11.14,2.72.15Z"/><path class="cls-1" d="M599.87,800.75l-2.57-.28.24-2.26a4.15,4.15,0,0,1-4.23,2.12c-2.49-.27-3.42-2.29-3.11-5.16l.71-6.61,2.7.29L593,795c-.2,1.83.48,3,1.89,3.13a2.24,2.24,0,0,0,1.87-.71,3.34,3.34,0,0,0,1-2.12l.64-5.94,2.71.29Z"/><path class="cls-1" d="M579.64,797.74a3.77,3.77,0,0,1-3.74,1.56l.4-2.29a3.19,3.19,0,0,0,2.31-.37,3.46,3.46,0,0,1-.47-2.56c.42-2.36,2.51-3.55,5.33-3.05a6.78,6.78,0,0,1,2,.69c.55-.05.86-.3.93-.74.11-.59-.28-1-1.14-1.12l-2.09-.37c-3-.52-4.74-2.18-4.28-4.76s2.85-3.89,6.54-3.24c3.11.55,4.64,2.21,4.27,4.31a2.81,2.81,0,0,1-2.4,2.37,2.09,2.09,0,0,1,1.38,2.46,2.25,2.25,0,0,1-2.25,1.82,3.42,3.42,0,0,1,.94,3.21c-.42,2.39-2.51,3.53-5.35,3A6.16,6.16,0,0,1,579.64,797.74Zm.89-3.27a2.1,2.1,0,0,0,1.88,2.46,2.09,2.09,0,1,0-1.88-2.46Zm3.7-7.06c1.74.3,2.92-.13,3.13-1.32s-.61-2-2.49-2.37-3,.15-3.24,1.41S582.28,787.06,584.23,787.41Z"/><path class="cls-1" d="M570.27,796.18l-2.88-.84-.45-8-4.59,6.56-1.79-.52-.57-8-4.54,6.53-2.63-.77,7.33-9.49,2,.57.61,7.42,4.39-6,1.94.56Z"/><path class="cls-1" d="M549.3,795.07l-2.56-.92,1.08-3,2.56.93Zm1.73-4.79-2.55-.92,3.79-10.5,2.56.93Z"/><path class="cls-1" d="M541.34,790.84l1.49-3.66-4.07-1.66.85-2.09,4.07,1.66,1.71-4.2c.59-1.45.55-2.21-.42-2.61-.78-.32-1.57.29-2.09,1.56l-2-.8c1-2.5,2.87-3.78,5.13-2.86a3.4,3.4,0,0,1,2.39,2.53,5.82,5.82,0,0,1-.53,3.2l-1.71,4.21,1.25.5-.85,2.09-.47-.19c-1.12-.46-1.71.36-2.83,3.12Z"/><path class="cls-1" d="M533.63,789.81l-2.46-1.18,3.47-7.21a4.12,4.12,0,0,1-4.46.42c-2.26-1.09-2.47-3.3-1.22-5.9l2.88-6,2.45,1.18-2.67,5.58c-.8,1.65-.55,3,.73,3.57a2.26,2.26,0,0,0,2,0,3.4,3.4,0,0,0,1.64-1.66l2.59-5.39,2.45,1.18Z"/><path class="cls-1" d="M520.45,769.82a3,3,0,0,0-1.15-4.37c-1.43-.87-2.78-.71-3.51.5-1,1.59.61,3.12,2,4.85,1,1.22,1.86,2.31,1.94,3.79a4,4,0,0,1-.62,2.24A4.25,4.25,0,0,1,516,779a6.1,6.1,0,0,1-4.08-1,5.62,5.62,0,0,1-2.67-3.26,4.67,4.67,0,0,1,.58-3.78l2.34,1.42a2.48,2.48,0,0,0,1,3.52c1.25.76,2.55.63,3.19-.42,1.79-2.94-6.43-5.89-3.35-11a4.53,4.53,0,0,1,3.2-2.27,6.3,6.3,0,0,1,4.42,1,6.54,6.54,0,0,1,3.06,3.6,5.3,5.3,0,0,1-.74,4.5Z"/><path class="cls-1" d="M503.44,766a5.19,5.19,0,0,1-2.29-3.64,6.08,6.08,0,0,1,1.19-4.31,6,6,0,0,1,3.65-2.55,5.16,5.16,0,0,1,4.22.93,5.05,5.05,0,0,1,2.26,3.65,5.89,5.89,0,0,1-1.16,4.3,6,6,0,0,1-3.68,2.56A5.16,5.16,0,0,1,503.44,766Zm1.3-1.84a2.3,2.3,0,0,0,2.18.31,4.34,4.34,0,0,0,2.08-1.69,4.24,4.24,0,0,0,.88-2.51,2.39,2.39,0,0,0-3.2-2.23,4.3,4.3,0,0,0-2,1.67,4.39,4.39,0,0,0-.92,2.51A2.29,2.29,0,0,0,504.74,764.12Z"/><path class="cls-1" d="M491.25,756.25l-2.11-1.72,7-8.65,2,1.63-1.32,1.62a3.72,3.72,0,0,1,4.35.48c2.07,1.68,1.83,3.94,0,6.18L497,760.94l-2.11-1.71,4-4.87c1.2-1.48,1.23-2.69.07-3.63s-2.83-.45-4.11,1.12Z"/><path class="cls-1" d="M492.12,742.18l2,1.82-11.45,12.74-2-1.82Z"/><path class="cls-1" d="M487.93,742.64l-2-1.88,2.2-2.3,2,1.88Z"/><path class="cls-1" d="M474.6,724l1.32,1.47-1.66,1.49a5.17,5.17,0,0,1,5.06,1.9,6.71,6.71,0,0,1,1.71,5.24,8.47,8.47,0,0,1-3.14,5.6,9.66,9.66,0,0,1-6.13,2.7,6.71,6.71,0,0,1-5.43-2.39,5.88,5.88,0,0,1-1.67-4.46,6.14,6.14,0,0,1,2-4.1l1.89,2.12a3.58,3.58,0,0,0-1.1,2.19,3.07,3.07,0,0,0,.85,2.49,3.83,3.83,0,0,0,3.3,1.29,7,7,0,0,0,4-1.94,6.55,6.55,0,0,0,2.33-3.76,3.91,3.91,0,0,0-1-3.41,3.66,3.66,0,0,0-5.48-.13l-.23.2,2.76,3.09-1.8,1.61-4.54-5.09Z"/><path class="cls-1" d="M460.17,731.82l-1.69-2.13,2.47-2,1.69,2.14Zm4-3.16-1.69-2.13,8.74-6.94,1.69,2.13Z"/><path class="cls-1" d="M469.15,716.91,462,722.17l.79,1.09-1.82,1.34-.79-1.09-1.45,1c-2.38,1.75-4.31,1.63-5.75-.34s-.71-3.8,1.41-5.35l1.26,1.72c-1.05.77-1.36,1.46-.9,2.08s1.21.55,2.24-.21l1.58-1.15-2.24-3.06,1.82-1.33,2.24,3.06,7.19-5.26Z"/><path class="cls-1" d="M450.2,716.24l3.3-2.17-2.42-3.67,1.88-1.24,2.42,3.67,3.79-2.5c1.3-.86,1.7-1.51,1.12-2.39-.46-.7-1.46-.65-2.6.1l-1.17-1.76c2.25-1.49,4.51-1.5,5.85.54a3.38,3.38,0,0,1,.54,3.44,5.91,5.91,0,0,1-2.24,2.34l-3.79,2.5.74,1.12-1.88,1.25-.28-.43c-.67-1-1.61-.67-4.1,1Z"/><path class="cls-1" d="M445.36,710.78l-1.4-2.33,2.71-1.63,1.4,2.33Zm4.37-2.62-1.41-2.34,9.57-5.75,1.4,2.33Z"/><path class="cls-1" d="M446.63,703l-1.22-2.28,2-1.07a4.15,4.15,0,0,1-4.14-2.3c-1.19-2.21,0-4.11,2.49-5.48l5.86-3.14,1.29,2.39-5.45,2.93c-1.62.87-2.19,2.07-1.52,3.32a2.28,2.28,0,0,0,1.65,1.15,3.42,3.42,0,0,0,2.31-.37l5.26-2.83,1.29,2.4Z"/><path class="cls-1" d="M437.72,684.63a3.78,3.78,0,0,1-3.4-2.21l2.12-1a3.16,3.16,0,0,0,1.61,1.7,3.42,3.42,0,0,1,1.85-1.83c2.18-1,4.35.07,5.52,2.68a7,7,0,0,1,.59,2.08.89.89,0,0,0,1.13.36c.55-.25.64-.78.28-1.58l-.87-1.93c-1.26-2.78-.87-5.14,1.52-6.23s4.82.17,6.37,3.58c1.3,2.88.79,5.08-1.16,6a2.81,2.81,0,0,1-3.31-.65,2.1,2.1,0,0,1-1.25,2.53,2.27,2.27,0,0,1-2.78-.83,3.41,3.41,0,0,1-2.12,2.59c-2.2,1-4.33-.09-5.51-2.71A6,6,0,0,1,437.72,684.63Zm3.2-1.11a2.1,2.1,0,0,0-1,2.94,2.09,2.09,0,1,0,1-2.94Zm7.92-.93c.73,1.61,1.75,2.35,2.85,1.85s1.35-1.65.56-3.39-1.83-2.41-3-1.89S448,680.79,448.84,682.59Z"/><path class="cls-1" d="M433.72,676l-.93-2.85,6.37-4.9-8-.1-.58-1.76,6.29-5-7.95-.06-.85-2.61,12,.71.64,1.94L434.89,666l7.4.27.63,1.92Z"/><path class="cls-1" d="M422.82,658l-.68-2.63,3.06-.79.68,2.63Zm4.93-1.27-.68-2.63,10.8-2.79.68,2.64Z"/><path class="cls-1" d="M421.83,649l3.87-.83-.92-4.29,2.2-.48.92,4.3,4.44-1c1.52-.32,2.14-.79,1.92-1.81-.18-.82-1.13-1.14-2.47-.85l-.44-2.07c2.63-.57,4.74.24,5.25,2.63a3.39,3.39,0,0,1-.75,3.4,5.88,5.88,0,0,1-2.94,1.36l-4.44.95.29,1.32-2.21.47-.11-.5c-.25-1.18-1.25-1.2-4.16-.58Z"/><path class="cls-1" d="M418.33,642.07l-.41-2.69,7.91-1.2a4.11,4.11,0,0,1-2.85-3.45c-.38-2.48,1.34-3.89,4.19-4.33l6.58-1,.41,2.69L428,633c-1.82.28-2.76,1.22-2.54,2.62a2.22,2.22,0,0,0,1.16,1.64,3.37,3.37,0,0,0,2.3.43l5.91-.9.41,2.69Z"/><path class="cls-1" d="M427.43,620a3,3,0,0,0,3-3.42c-.09-1.67-1-2.69-2.4-2.62-1.85.1-2.23,2.26-2.86,4.41-.46,1.5-.85,2.84-2,3.74a3.89,3.89,0,0,1-2.19.75,4.25,4.25,0,0,1-3.52-1.38,6,6,0,0,1-1.49-3.92,5.63,5.63,0,0,1,1.18-4,4.73,4.73,0,0,1,3.45-1.65l.15,2.74a2.49,2.49,0,0,0-2.32,2.85c.08,1.46.92,2.47,2.15,2.4,3.44-.18,1.25-8.63,7.17-8.95a4.55,4.55,0,0,1,3.68,1.37,6.23,6.23,0,0,1,1.62,4.25,6.53,6.53,0,0,1-1.25,4.56,5.26,5.26,0,0,1-4.13,1.91Z"/><path class="cls-1" d="M421,603.73a5.17,5.17,0,0,1,1.71-4,6.09,6.09,0,0,1,4.24-1.45,6,6,0,0,1,4.16,1.59,5.16,5.16,0,0,1,1.61,4,5.1,5.1,0,0,1-1.74,3.93,5.9,5.9,0,0,1-4.21,1.46,6,6,0,0,1-4.19-1.6A5.14,5.14,0,0,1,421,603.73Zm2.25,0a2.28,2.28,0,0,0,1,2,4.92,4.92,0,0,0,5.14.09,2.28,2.28,0,0,0,1-1.94,2.31,2.31,0,0,0-1-2,4.35,4.35,0,0,0-2.52-.74,4.42,4.42,0,0,0-2.6.66A2.26,2.26,0,0,0,423.28,603.76Z"/><path class="cls-1" d="M422.16,588.18l.22-2.71,11.12.93-.22,2.57-2.08-.17a3.71,3.71,0,0,1,2.06,3.85c-.23,2.67-2.23,3.74-5.1,3.5l-6.62-.56.22-2.71,6.26.53c1.9.15,2.91-.51,3-2s-1.23-2.6-3.24-2.77Z"/><path class="cls-1" d="M434.24,581l-.36,2.69-17-2.25.35-2.7Z"/><path class="cls-1" d="M431.49,577.81l.44-2.69,3.14.51-.44,2.69Z"/><path class="cls-1" d="M439.38,556.19l-.47,1.92-2.17-.53a5.17,5.17,0,0,1,1.29,5.25,6.66,6.66,0,0,1-3.35,4.37,8.51,8.51,0,0,1-6.4.58,9.68,9.68,0,0,1-5.69-3.54,6.71,6.71,0,0,1-1.1-5.83,5.89,5.89,0,0,1,2.74-3.9,6.15,6.15,0,0,1,4.54-.63l-.68,2.76a3.57,3.57,0,0,0-2.43.33,3,3,0,0,0-1.58,2.1,3.86,3.86,0,0,0,.8,3.46,7,7,0,0,0,3.88,2.23,6.49,6.49,0,0,0,4.41-.21,3.89,3.89,0,0,0,2.28-2.72,3.66,3.66,0,0,0-3-4.59l-.3-.07-1,4-2.35-.58,1.64-6.62Z"/><path class="cls-1" d="M424.77,548.75l.81-2.59,3,.94-.81,2.59Zm4.86,1.52.81-2.6L441.09,551l-.81,2.6Z"/><path class="cls-1" d="M442.14,547.75l-8.39-3-.45,1.27-2.12-.76.45-1.27-1.69-.59c-2.78-1-3.77-2.65-3-4.95s2.75-2.72,5.22-1.85l-.71,2q-1.85-.66-2.22.42c-.26.72.22,1.31,1.43,1.74l1.84.65,1.26-3.57,2.13.76-1.27,3.57,8.39,3Z"/><path class="cls-1" d="M432,531.72l3.66,1.5,1.67-4.07,2.08.86-1.67,4.07,4.2,1.72c1.44.59,2.21.55,2.61-.41.32-.78-.29-1.58-1.56-2.1l.81-2c2.49,1,3.77,2.88,2.84,5.14a3.37,3.37,0,0,1-2.54,2.38,5.84,5.84,0,0,1-3.2-.53l-4.19-1.73-.51,1.25-2.09-.86.19-.47c.46-1.12-.35-1.71-3.11-2.84Z"/><path class="cls-1" d="M433.82,524.65l1.14-2.47,2.87,1.32L436.69,526Zm4.63,2.13,1.13-2.47L449.72,529l-1.13,2.47Z"/><path class="cls-1" d="M441,521.27l1.2-2.28,2,1a4.13,4.13,0,0,1-.43-4.71c1.17-2.22,3.38-2.35,5.94-1l5.89,3.08-1.26,2.41-5.48-2.87c-1.63-.85-2.94-.64-3.6.61a2.25,2.25,0,0,0,0,2,3.37,3.37,0,0,0,1.6,1.71l5.29,2.76-1.26,2.41Z"/><path class="cls-1" d="M451.17,503.56a3.78,3.78,0,0,1-.08-4.05l2,1.21a3.16,3.16,0,0,0-.49,2.28,3.46,3.46,0,0,1,2.55.5c2,1.25,2.38,3.64.89,6.08a6.87,6.87,0,0,1-1.39,1.65.89.89,0,0,0,.34,1.14c.51.31,1,.09,1.46-.66l1.11-1.8c1.59-2.6,3.76-3.62,6-2.25s2.57,4.08.62,7.28c-1.65,2.69-3.75,3.51-5.58,2.39a2.82,2.82,0,0,1-1.32-3.1,2.1,2.1,0,0,1-2.8.39,2.29,2.29,0,0,1-.87-2.77,3.41,3.41,0,0,1-3.33-.29c-2.06-1.26-2.36-3.62-.86-6.08A6,6,0,0,1,451.17,503.56Zm2.72,2a2.1,2.1,0,0,0-3,.85,2.09,2.09,0,1,0,3-.85Zm5.23,6c-.93,1.5-1,2.76.07,3.39s2.12.18,3.12-1.44,1-2.87-.13-3.54S460.15,509.92,459.12,511.61Z"/><path class="cls-1" d="M456.06,495.4l1.83-2.37,7.64,2.51-4.43-6.67,1.14-1.48,7.67,2.39-4.42-6.6,1.67-2.18,6.16,10.29-1.25,1.63-7.13-2.15,3.95,6.27-1.23,1.6Z"/><path class="cls-1" d="M464.76,476.29l1.79-2,2.38,2.08-1.79,2.05Zm3.83,3.36,1.79-2,8.39,7.36L477,487Z"/><path class="cls-1" d="M471.63,470.41l2.86,2.72,3-3.18,1.63,1.56-3,3.18,3.28,3.12c1.12,1.08,1.86,1.32,2.58.57.57-.61.3-1.57-.69-2.52l1.46-1.53c1.95,1.86,2.47,4.05.78,5.82a3.36,3.36,0,0,1-3.22,1.29,5.76,5.76,0,0,1-2.79-1.66l-3.28-3.12-.93,1-1.63-1.55.35-.37c.83-.88.29-1.72-1.87-3.77Z"/><path class="cls-1" d="M475.36,463.62l2-1.85,5.46,5.84a4.09,4.09,0,0,1,1.23-4.3c1.84-1.71,4-1.1,5.94,1l4.54,4.86-2,1.86-4.22-4.52c-1.26-1.34-2.57-1.59-3.6-.62a2.23,2.23,0,0,0-.69,1.89,3.34,3.34,0,0,0,.94,2.13l4.08,4.37-2,1.86Z"/><path class="cls-1" d="M498.77,458.62a3,3,0,0,0,4.49.51c1.33-1,1.67-2.33.81-3.46-1.14-1.47-3.13-.56-5.26.14-1.49.46-2.82.9-4.24.43a4,4,0,0,1-1.85-1.39,4.24,4.24,0,0,1-.85-3.68,6,6,0,0,1,2.39-3.44,5.63,5.63,0,0,1,4-1.31,4.67,4.67,0,0,1,3.3,1.91L499.4,450a2.48,2.48,0,0,0-3.66-.3c-1.16.89-1.51,2.15-.76,3.13,2.09,2.73,7.82-3.85,11.42.85a4.55,4.55,0,0,1,1,3.81,6.22,6.22,0,0,1-2.58,3.73,6.53,6.53,0,0,1-4.46,1.55,5.27,5.27,0,0,1-3.92-2.33Z"/><path class="cls-1" d="M508.53,444.19a5.21,5.21,0,0,1,4.22-.81,6.06,6.06,0,0,1,3.58,2.68,5.92,5.92,0,0,1,1,4.32,5.52,5.52,0,0,1-6.61,4.36,5.92,5.92,0,0,1-3.58-2.64,6,6,0,0,1-1-4.35A5.11,5.11,0,0,1,508.53,444.19Zm1.24,1.88a2.3,2.3,0,0,0-1.08,1.91,4.37,4.37,0,0,0,.82,2.55,4.28,4.28,0,0,0,2,1.74,2.4,2.4,0,0,0,3.25-2.18,4.41,4.41,0,0,0-.82-2.49,4.5,4.5,0,0,0-2-1.77A2.29,2.29,0,0,0,509.77,446.07Z"/><path class="cls-1" d="M522.05,436.32l2.36-1.34,5.5,9.71L527.66,446l-1-1.82a3.71,3.71,0,0,1-2,3.87c-2.33,1.32-4.34.27-5.76-2.24L515.58,440l2.36-1.34,3.09,5.46q1.41,2.49,3.35,1.39c1.38-.78,1.46-2.48.46-4.24Z"/><path class="cls-1" d="M534.77,442.27l-2.43,1.22-7.7-15.31,2.43-1.22Z"/><path class="cls-1" d="M535.86,438.21l2.46-1.15,1.34,2.89-2.46,1.14Z"/><path class="cls-1" d="M558.12,432.58l-1.85.69-.78-2.09a5.19,5.19,0,0,1-3.62,4,6.66,6.66,0,0,1-5.5-.32,8.41,8.41,0,0,1-4.07-5,9.66,9.66,0,0,1-.28-6.69,6.68,6.68,0,0,1,4.2-4.19,5.86,5.86,0,0,1,4.76.07,6.09,6.09,0,0,1,3.07,3.4l-2.66,1a3.58,3.58,0,0,0-1.64-1.82,3.06,3.06,0,0,0-2.62-.12,3.83,3.83,0,0,0-2.41,2.61,7,7,0,0,0,.34,4.46,6.51,6.51,0,0,0,2.65,3.53,3.93,3.93,0,0,0,3.53.36,3.67,3.67,0,0,0,2.12-5.06l-.1-.28-3.89,1.44-.84-2.27,6.39-2.37Z"/><path class="cls-1" d="M556.09,416.28l2.6-.79.93,3-2.6.79Zm1.49,4.87,2.6-.8L563.45,431l-2.6.79Z"/><path class="cls-1" d="M566.68,430.08l-2.26-8.61-1.31.35-.57-2.18,1.3-.35-.45-1.73c-.75-2.85.06-4.6,2.42-5.22s3.8.73,4.47,3.27l-2.07.54c-.33-1.26-.86-1.79-1.6-1.6s-1,.93-.63,2.16l.49,1.89,3.67-1,.57,2.18-3.66,1,2.26,8.61Z"/><path class="cls-1" d="M574.23,412.7l.81,3.86,4.3-.9.47,2.2-4.3.91.94,4.43c.32,1.53.78,2.14,1.81,1.93.82-.18,1.14-1.12.85-2.47l2.07-.43c.56,2.64-.25,4.73-2.64,5.24a3.36,3.36,0,0,1-3.39-.76,5.79,5.79,0,0,1-1.36-2.94l-.94-4.44-1.32.28-.46-2.2.5-.11c1.18-.25,1.2-1.25.59-4.16Z"/><path class="cls-1" d="M581.13,410.19l2.69-.46.52,3.12-2.68.45Zm.85,5,2.69-.46,1.85,11-2.68.45Z"/><path class="cls-1" d="M587.86,414.21l2.56-.3.27,2.26a4.13,4.13,0,0,1,3.65-3c2.49-.29,3.85,1.47,4.18,4.33l.78,6.61-2.7.31-.72-6.14c-.22-1.82-1.13-2.79-2.54-2.63a2.24,2.24,0,0,0-1.67,1.11,3.38,3.38,0,0,0-.5,2.28l.69,5.94-2.7.32Z"/><path class="cls-1" d="M608.23,412.65a3.76,3.76,0,0,1,3.3-2.35l.12,2.32a3.21,3.21,0,0,0-2.17.88,3.49,3.49,0,0,1,1,2.39c.12,2.39-1.67,4-4.52,4.16a6.9,6.9,0,0,1-2.16-.22.89.89,0,0,0-.74.92c0,.61.49.89,1.37.84l2.11-.1c3-.15,5.11,1.07,5.24,3.69s-1.92,4.43-5.66,4.62c-3.16.16-5-1.13-5.12-3.26a2.81,2.81,0,0,1,1.81-2.84,2.11,2.11,0,0,1-1.9-2.09,2.28,2.28,0,0,1,1.8-2.28,3.43,3.43,0,0,1-1.64-2.92c-.12-2.42,1.67-4,4.55-4.14A6,6,0,0,1,608.23,412.65Zm-2.17,11.1c-1.77.09-2.83.77-2.77,2s1.05,1.85,3,1.76,2.92-.82,2.85-2.1S608,423.65,606.06,423.75Zm2-7.71a2.1,2.1,0,0,0-2.38-2,2.09,2.09,0,1,0,2.38,2Z"/></svg>