<?xml version="1.0" encoding="UTF-8"?>
<svg id="Layer_1" xmlns="http://www.w3.org/2000/svg" version="1.1" viewBox="0 0 1232 1215">
  <!-- Generator: Adobe Illustrator 30.3.0, SVG Export Plug-In . SVG Version: 2.1.3 Build 182)  -->
  <defs>
    <style>
      .st0 {
        fill: #dd4040;
      }
    </style>
  </defs>
  <path class="st0" d="M647.1,566.9c-.9,0-1.8-.4-2.4-1-1-.8-1.5-1.9-1.5-3.2,0-2.4,1.3-4.5,3.2-5.9,3.8-2.8,6.4-11.7,7.9-26.9l.2-2.3c.7-7.7,1.1-13.7,1.1-18.1,0-4.4,0-7.3,0-8.9,0-4.6,0-8.2-.2-10.8h-12c-1-.2-2-.8-2.7-1.6-1.4-1.7-1.4-4.1,0-5.8.7-.8,1.6-1.4,2.7-1.6h11.6c0-.9-.1-2.9-.5-5.9,0-1.3-.2-2.6-.4-3.9v-2.9c-.2-4.8.6-9.6,2.2-14.1,2.4-6.1,6.2-10.3,11.5-12.6,5.8-2.4,12-3.6,18.3-3.5h3.1c7.3.4,13.1,2.5,17.7,6.4,4.5,3.9,7,9.2,7.4,16v1c.1,3.3-.9,6.6-2.9,9.3-2.1,2.8-5.4,4.6-8.9,4.8h-.5c-3.5.2-6.9-1.4-9.2-4.1-2.1-2.3-3.2-5.3-3.3-8.4.1-1.8.5-3.6,1.1-5.3.5-1.5,1.2-3,1.9-4.4.5-.9.9-1.9,1-2.9,0-.9-.3-1.8-1-2.4-.8-.6-1.7-1-2.7-.9h-1.1c-3.2.6-5.5,2.7-6.9,6.3-1.3,3.5-2.1,7.1-2.3,10.9-.2,3.7-.3,6.7-.3,9.2l.2,7.5h20.5c2.5.6,4.1,3,3.5,5.5-.2.7-.5,1.3-.9,1.8-.6.8-1.6,1.4-2.6,1.6h-20.4v12.8c0,8.6.3,17,1,25.3,1.7,16.2,4.8,26,9.1,29.5h0c.9.6,1.7,1.5,2.1,2.5.4.8.6,1.6.5,2.5,0,1.2-.4,2.3-1.2,3.1-.6.7-1.5,1.2-2.5,1.2h-41.5Z"/>
  <path class="st0" d="M527.3,727.2c-.9,0-1.8-.4-2.4-1-1-.8-1.5-1.9-1.5-3.2,0-2.4,1.3-4.5,3.2-5.9,3.8-2.8,6.4-11.7,7.9-26.9l.2-2.2c.7-7.7,1.1-13.7,1.1-18.1,0-4.4,0-7.3,0-8.9,0-4.6,0-8.2-.2-10.8h-12c-1-.2-2-.8-2.7-1.6-1.4-1.7-1.4-4.1,0-5.8.7-.8,1.6-1.4,2.7-1.6h11.5c0-.9-.2-2.9-.5-5.9,0-1.3-.2-2.6-.4-3.9v-2.9c-.2-4.8.6-9.6,2.2-14.2,2.4-6.1,6.2-10.3,11.5-12.6,5.8-2.4,12-3.6,18.3-3.5h3.1c7.3.4,13.2,2.5,17.7,6.4,4.5,3.9,7,9.2,7.4,16v1c.1,3.3-.9,6.6-2.9,9.3-2.1,2.8-5.4,4.6-8.9,4.8h-.5c-3.5.2-6.9-1.4-9.2-4.1-2.1-2.3-3.3-5.3-3.3-8.4.1-1.8.5-3.6,1.1-5.3.5-1.5,1.2-3,1.9-4.4.5-.9.9-1.9,1-2.9,0-.9-.3-1.8-1-2.4-.8-.6-1.7-1-2.7-.9h-1.1c-3.2.6-5.5,2.7-6.9,6.3-1.3,3.5-2.1,7.1-2.3,10.8-.2,3.7-.3,6.7-.3,9.2l.2,7.5h20.5c2.5.6,4.1,3.1,3.5,5.6-.2.7-.5,1.3-.9,1.8-.7.8-1.6,1.4-2.6,1.6h-20.3v12.8c0,8.6.3,17,1,25.3,1.8,16.2,4.8,26,9.1,29.5h0c1,.6,1.7,1.5,2.1,2.5.4.8.6,1.7.5,2.5,0,1.2-.4,2.3-1.2,3.2-.6.7-1.5,1.2-2.5,1.2h-41.4Z"/>
  <path class="st0" d="M734.5,485.2c24.8,0,41.4,16,41.4,41.7s-16.6,41.5-41.4,41.5-41.5-16-41.5-41.5c0-25.7,16.6-41.7,41.5-41.7ZM750.9,557.8c5.7-3.1,5.4-14.1-5.6-35.5-11.9-23.1-21.5-29.9-27.4-26.6s-5.7,13.9,5.7,35.9c11.8,22.3,21.4,29.4,27.3,26.2Z"/>
  <path class="st0" d="M820.9,485.2c24.8,0,41.4,16,41.4,41.7s-16.6,41.5-41.4,41.5-41.5-16-41.5-41.5c0-25.7,16.6-41.7,41.5-41.7ZM837.3,557.8c5.7-3.1,5.4-14.1-5.6-35.5-11.9-23.1-21.5-29.9-27.4-26.6s-5.7,13.9,5.7,35.9c11.8,22.3,21.4,29.4,27.3,26.2h0Z"/>
  <path class="st0" d="M439.6,568.6c-4.9-.7-9.5-3.1-12.7-6.9-3.5-3.9-5.6-8.9-5.9-14.1v-1.4c0-6.9,1.8-12.5,5.3-16.8,4-4.6,9-8.3,14.7-10.6,5.9-2.6,11.9-4.7,18-6.5,4.7-1.4,9.3-3,13.9-4.9v-4c0-2.2,0-4.4-.2-6.4-.2-3-1.2-5.8-3-8.2-1.7-2.2-4.6-3.4-8.7-3.7h-1.1c-2.9,0-4.9.4-6.1,1.3-1.1.7-2,1.8-2.2,3.1,0,1-.1,1.8-.1,2.3,0,1.3.1,2.7.4,4,.2,1.5.4,3,.4,4.5-.2,3.7-2.1,7-5.3,9-2.8,1.9-6.1,2.9-9.5,3-.8,0-1.6,0-2.3-.2-4.1-.8-6.9-2.6-8.3-5.1-1.3-2.2-2-4.6-2.1-7.1,0-1.5.3-3,.7-4.4,4.7-12.8,16.3-19.3,34.8-19.3,12.7,0,22.6,3.4,29.7,10.2,6.6,6.2,10.3,14.9,10.2,24,0,2.7,0,5.8-.2,9.3-.2,3.5-.2,7.1-.2,10.6,0,5.3.2,10.4.6,15.5.4,3.1,1.2,5.2,2.4,6.3,1.4,1.3,3.3,1.9,5.2,1.8,1.2-.2,2.5.4,3.1,1.5.5.9.7,1.8.8,2.8,0,2.4-1.3,4.1-3.9,5.2-8.2,3.3-14.8,5-19.7,5-1.7,0-3.4-.1-5-.5-4.3-.8-7.5-3.5-9.7-8.2-4.9,2.8-10,5.2-15.4,7.1-4.2,1.4-8.6,2.1-13,2.1-1.7,0-3.5-.1-5.4-.3ZM465.1,553.4c3.6-.6,5.7-2.5,6.4-5.7.7-3.4,1.1-6.8,1.1-10.2v-5.3c0,0,0-15.7,0-15.7-5,2.8-9.6,6.3-13.5,10.5-3.5,3.9-5.2,8.1-5.2,12.6.2,5.5,1.3,9.2,3.2,11.1,1.7,1.8,4,2.8,6.4,2.8h1.5Z"/>
  <path class="st0" d="M516.3,565c-.6-.4-1-.8-1.4-1.4-2.6-3.8.8-8.5,2.4-11.9,4.4-9.7,6.5-20.3,6-30.9-.3-8.9-2.5-17.7-6.4-25.7-1.8-3.7-4-8.1-2-11.7,1.8-3.1,5.8-3.9,9.4-4.3l16.8-2.1c4.2-.5,10.7-.2,13.2,3.8,3.8,6-3.7,12.4-3,18.1,1.6-2.3,3.8-4.1,5.6-6.3,10-12.3,19.8-25.2,33-34.4,6.9-4.8,14.8-8.4,23.2-8.8,6.9-.4,13.7,1.3,19.6,4.9,4.3,2.8,7.4,7.2,8.6,12.3,1.5,6.7-.3,14.1-6.3,18-4.3,2.7-9.4,2.6-14.2,1.7-5.1-1-9.6-5.2-14.7-6.6-13.3-3.9-26.3,6.5-35.3,15.2-7.1,6.9-14.8,13.2-18.8,22.5-4.4,10-4.2,22.3,1.8,31.5,1.6,2.4,3.6,4.6,4.8,7.3s1.5,6-.3,8.3c-2.1,2.7-6,2.8-9.4,2.8l-19.4-.2c-3.6,0-9.8.5-13.2-1.9Z"/>
  <path class="st0" d="M577.2,561.3c-6.8-4.9-11.1-10.2-13-16-1.7-4.8-2.7-9.8-2.9-14.9,0-3.3.4-6.6,1.3-9.8,1.9-7.5,6.3-14.1,12.4-18.8,6.4-5.1,15.1-7.9,26.2-8.3,5.8-.1,11.6,1,17,3.3,4.9,2.2,8.4,4.7,10.5,7.7,1.9,2.4,2.9,5.3,3.1,8.4,0,1.2-.2,2.3-.4,3.4-1.6,4.7-4.6,8.7-8.6,11.6-4.4,3.3-9.2,6-14.2,8.1-5.2,2.1-9.9,3.9-14,5.2l-2.8,1c1,3.6,2.7,7,5,9.9,2.9,4,7.6,6.4,12.6,6.3,2.9,0,5.7-.7,8.3-2,4.2-2,7.8-4.9,10.7-8.5.4-.7,1.1-1.1,1.9-1.3h.9c.9,0,1.8.4,2.5,1,.6.4,1,1.1,1.2,1.8,0,.5,0,.9,0,1,0,1-.4,2-1,2.8-3.2,4.3-7.2,8-11.8,10.7-4.7,2.9-10.8,4.5-18.2,4.7-11,0-19.8-2.4-26.6-7.4ZM599.4,525.9c3.8-3.4,7-7.6,9.2-12.3.4-1.1.7-2.3.7-3.6,0-1.6-.4-3.1-1.2-4.4-1.1-1.7-2.8-2.9-4.9-3.2-2.1-.2-4.3.4-5.9,1.9-7.2,5.3-8.7,15.3-7.9,23.6.2,1.9.6,3.7.7,5.6,1.4-.8,2.8-1.8,4-3,1.8-1.5,3.6-3.1,5.4-4.7Z"/>
  <path class="st0" d="M901.6,568.5c-9.8-.3-17.2-3.1-22.2-8.3-5-5.3-8.4-11.8-9.9-18.9-.7-3.2-1.1-6.4-1.1-9.6,0-4.3.2-8.4.5-12.5.3-3.7.5-7.2.5-10.6v-3.4c-.2-9.8-2.9-15.5-8.1-17-2.5-.7-5.2-1.1-7.8-1.1-.4,0-.9-.2-1.3-.4-1.6-.7-2.4-2-2.5-4.1-.2-1.7.8-3.4,2.4-4.1,1.4-.4,2.9-.6,4.4-.6,6.2-.2,12.2-2.6,16.8-6.8,2.7-2.5,5.3-5.1,7.7-7.9,6.3-7.9,11.1-11.8,14.4-11.8,1.2,0,2.5.3,3.4,1.1.6.5,1,1.2,1.2,1.9-.1,2.8-.5,6.3-1,10.5-.5,3.8-.9,7.9-1.3,12.2h16.8c1,0,1.9.6,2.5,1.3.8.8,1.2,2,1.2,3.1,0,2.2-1.2,3.8-3.7,4.6h-17.7c-.4,2.5-.8,6.6-1.3,12.3-.9,7.8-1.3,15.5-1.3,23.3,0,15,1.8,25.3,5.5,31,2.2,3.3,4.9,5,8.2,5,.9,0,1.8,0,2.7-.3,2.1-.7,4.1-2,5.6-3.7,1-1,2-1.9,3.2-2.6,1-.7,2.1-1.1,3.3-1.1,1.6,0,3.1.9,4,2.2.6,1,.9,2.2.9,3.4,0,1.1-.4,2.2-1.1,3.1-3.1,3.4-7,6-11.3,7.5-4.2,1.5-8.6,2.3-13.1,2.3h-.4Z"/>
  <path class="st0" d="M420.4,728.8c-12.1,0-24-3.3-34.3-9.5-9.8-5.5-17.9-13.6-23.4-23.5-5.3-9.9-8.2-20.9-8.4-32.2v-1.2c-.2-11.3,2.8-22.4,8.5-32.2,5.6-9.5,13.7-17.2,23.3-22.5,9.8-5.4,20.9-8.1,32.1-7.9h3.1c8.2,0,16.4,1.4,24.1,4.2,9.5,3.3,16.9,10.7,20.5,20.1,1,2.8,1.6,5.7,1.6,8.7-.1,3.4-1.1,6.7-3,9.5-2,3.3-5.4,5.9-10.1,7.7-2.8,1.1-5.9,1.8-8.9,1.8-1.4,0-2.8-.1-4.1-.5-5.8-1.5-8.7-4-8.7-7.5,0-.8.1-1.6.4-2.3,1.3-4.2,1.9-8.6,1.8-13,0-4.5-1.4-8.8-4-12.4-2.7-3.7-7.6-5.5-14.7-5.6-9.2,1.8-16.2,5.8-20.8,11.9-5.5,7.3-8.3,16.3-8.3,27.1.1,7.5,1.3,14.9,3.5,22,2.5,8.1,6.3,15.7,11.5,22.4,4.8,6.7,11.3,12.1,18.8,15.5,2.6,1.3,5.4,2,8.3,2.2,4.4,0,7.3-3.4,8.9-10.3.8-3.3,1.2-6.7,1.2-10.1,0-2.6-.3-5.2-.7-7.8-.5-3.4-2.1-5.4-4.8-6h-.2c-3.2,0-6.2,1.4-8.5,3.6-2.5,2-4.5,4.6-5.9,7.4-.4,1-1.4,1.7-2.4,1.7-.9,0-1.3-.6-1.4-1.8v-19.5c-.2-1.4.3-2.8,1.3-3.8.8-.8,1.9-1.3,3.1-1.3h26.4c6.9,0,11.8,2.2,14.7,6.2,2.9,4,4.7,9.1,5.3,15.2.5,4.8.8,9.7.8,14.5v6.2c0,4.3,0,8.2.4,11.8v1.2c0,3.3-.9,5.5-2.6,6.8-1.3,1-2.9,1.6-4.6,1.5-1,0-2.1-.2-3.1-.5-3.3-.9-6.6-1.4-10-1.5-.3,0-1.2,0-2.6,0-2.1.2-4.2.6-6.2,1.2-5.7,1.5-11.6,2.2-17.6,2.2Z"/>
  <path class="st0" d="M473.5,727.2c-.9,0-1.8-.4-2.5-1-1-.8-1.6-2-1.5-3.3,0-1.1.3-2.2,1-3.1.6-1,1.4-1.9,2.2-2.6,3.9-2.7,6.5-11.6,8-26.9.5-5.3.7-10.1.7-14.2.1-4.9-.4-9.8-1.5-14.6-1.6-6-4-9.3-7.2-10-1.9-.6-3.2-2.4-3.2-4.4,0-1,.2-2,.7-2.9.4-.6.9-1.1,1.4-1.4.3-.2.6-.4,1-.5,23.6-3.7,35.8-5.5,36.6-5.5h1.1c1.2.2,1.8,1.1,1.8,2.8,0,1.5-.3,2.9-.7,4.3-2.7,9.3-4.2,16.6-4.5,22.1-.3,5.5-.5,9.5-.5,12.1,0,4,.2,8,.7,11.9,1.7,15.3,4.7,24.6,8.9,27.9h0c.9.6,1.7,1.5,2.1,2.5.4.8.6,1.6.5,2.5,0,1.2-.4,2.3-1.2,3.1-.6.7-1.5,1.2-2.5,1.2h-41.4ZM483.5,635.6c-4.1-1.1-7.6-4-9.5-7.8-.8-1.8-1.3-3.8-1.3-5.9,0-2.2.5-4.5,1.5-6.5,2-4.3,5.5-7.6,9.8-9.5,2.7-1.3,5.7-2,8.7-2,1.7,0,3.3.2,5,.7,4.2,1.1,7.7,3.9,9.5,7.8.8,1.8,1.3,3.8,1.3,5.9,0,2.3-.5,4.5-1.5,6.5-2,4.3-5.5,7.6-9.8,9.5-2.7,1.3-5.7,2-8.7,2-1.7,0-3.4-.2-5-.7Z"/>
  <path class="st0" d="M615.2,719c-5-5.2-8.4-11.7-10-18.8-.7-3.2-1-6.4-1-9.6,0-4.3.1-8.5.4-12.7s.4-8.8.4-13.9c0-4.1-.8-8.2-2.2-12-1.1-2.5-3.2-4.3-5.8-5.1-2.5-.7-5.2-1.1-7.8-1.1-.4,0-.9-.1-1.3-.3-.7-.3-1.3-.7-1.7-1.3-.6-.8-.9-1.8-.9-2.9-.1-1.7.9-3.3,2.4-4,.5-.2,1-.4,1.5-.5,3.2-.1,6.5-.5,9.6-1.2,3.8-1.2,7.2-3.1,10.2-5.7,2.8-2.5,5.3-5.2,7.7-8.1,3-3.6,6.3-7,9.8-10.1,1.2-1.1,2.8-1.6,4.4-1.6,1.3,0,2.6.4,3.7,1.2.6.5,1,1.1,1.1,1.9-.2,2.8-.5,6.3-1,10.4-.5,3.8-.9,7.9-1.3,12.2h2c12.2.1,24-4.6,32.8-13.1,9.8-9.2,15.7-22.3,17.8-39.3.5-3.4,2.1-6.5,4.5-8.8,3.2-3.5,7.7-5.5,12.5-5.4,2.9,0,5.8.7,8.3,2.3,5.2,3.4,7.8,9.8,7.8,19-.1,3-.7,5.9-1.7,8.7-4,9.5-11,17.6-20.9,24.4-10.1,6.8-21.1,12.1-32.8,15.6-11.9,3.6-22.2,5.5-31.1,5.5-1.4,11.8-2.2,20.9-2.4,27.4l-.2,8.3c0,14.9,1.8,25.3,5.5,31,2.2,3.3,4.9,5,8.2,5,.9,0,1.8,0,2.7-.3,2.1-.8,4.1-2.1,5.6-3.8,1-1,2-1.8,3.2-2.6.9-.6,2-1,3.2-1,1.7,0,3.3.8,4.1,2.2.7,1,1,2.1,1,3.3,0,1.1-.4,2.2-1.1,3.1-3.1,3.5-7,6.1-11.4,7.6-4.3,1.5-8.9,2.3-13.5,2.3-9.8-.3-17.2-3.1-22.2-8.4ZM672.6,726.9c-.9,0-1.8-.4-2.5-1-1-.8-1.6-2-1.5-3.3,0-1.1.3-2.2,1-3.1.6-1,1.4-1.8,2.2-2.6,3.7-2.8,6.4-11.7,8-26.9.4-5.3.6-10,.6-14.2.1-4.9-.3-9.9-1.4-14.7-1.6-6-4-9.3-7.2-10-1.9-.6-3.2-2.4-3.2-4.4,0-2.1.7-3.6,2.2-4.4l.9-.4c23.7-3.7,35.9-5.5,36.7-5.5,1.5,0,2.4.4,2.6,1.1.2.6.3,1.1.3,1.7,0,1.5-.3,2.9-.7,4.3-2.7,9.3-4.2,16.6-4.5,22.1-.3,5.5-.5,9.5-.5,12.1,0,4,.2,7.9.7,11.9.6,6.1,1.7,12.1,3.4,17.9,1.5,4.9,3.3,8.3,5.5,10,0,0,0,0,.1.1.3.2.6.4.8.7.5.5.9,1.1,1.2,1.7.4.8.6,1.6.5,2.5,0,1.2-.4,2.3-1.2,3.1-.6.7-1.5,1.2-2.5,1.2h-41.5Z"/>
  <path class="st0" d="M781.7,727.2c-1,0-2-.4-2.7-1.2-.8-.8-1.2-1.9-1.2-3,0-.8.2-1.6.5-2.3.3-.6.7-1.2,1.1-1.8.4-.5.6-.7.6-.7,3-2.2,5.4-7.1,7.2-14.8,1.8-7.6,2.7-15.4,2.8-23.2,0-9.4-1.6-15.7-4.8-18.9-2.7-2.7-5.4-4-8.3-4-.8,0-1.6,0-2.4.3-3.8.8-7.3,3.2-10.4,7.1s-5,8.8-5.7,14.9c0,.9,0,1.9,0,3.1,0,8.4,1.3,16.7,3.7,24.8,1.5,5,3.3,8.5,5.7,10.5h0c.3.3.6.5.9.8,1.2,1.2,1.9,2.9,1.8,4.7-.1,1-.6,2-1.3,2.7-.6.7-1.5,1.1-2.5,1.2h-41.4c-.9,0-1.8-.4-2.5-1-1-.8-1.6-2-1.5-3.3,0-1.1.3-2.2,1-3.1.6-1,1.4-1.9,2.2-2.6,3.8-2.7,6.4-11.6,7.9-26.9.4-4.6.6-9.1.5-13.7,0-5.5-.7-10.9-1.9-16.2-1.2-5-3.4-8.1-6.6-9.3-.9-.2-1.8-.8-2.3-1.6-.6-.8-.9-1.8-.9-2.8,0-1,.2-2,.7-2.9.4-.6.9-1.1,1.4-1.4.3-.2.6-.3,1-.4l36.6-5.1c1.4,0,2.3.4,2.5,1.1.2.5.3,1.1.4,1.7-.2,2.2-.7,4.4-1.4,6.5l-2.4,8.5c.3-.3.6-.6.8-1l.4-.5c3.7-4.6,8.3-8.5,13.4-11.6,5-3,9.1-4.6,12.2-5,3.2-.3,5.2-.5,6.2-.5,4.1,0,8.1,1.1,11.6,3.1,4.4,2.5,8.1,6.8,10.8,12.9s4.2,14.5,4.2,25.2-.1,4.6-.4,7.8c-.4,4.8-.5,9.2-.5,13.3,0,10,1.8,16.4,5.5,19.2,1.8,1.3,2.8,3.4,2.7,5.7,0,1-.4,1.9-1.1,2.7-.6.8-1.6,1.3-2.6,1.3h-41.7Z"/>
  <path class="st0" d="M866.4,635.5c3.7,0,7.4.3,11.1.9.7-7.8,4-16.2,11.1-20.9,6.5-4.2,17.5-6.2,21.1,2.4,3.6,8.4-2.5,20.5-16.2,16.3-6.2-2-9.1.2-10.2,3.5,15.8,4.7,24,16.2,24,31.6s-6.4,24-18.3,29.4c-20.9,13.1-32.3,17.5-32.3,33.8s11.1,24.7,24.9,24.7,22.2-6.2,22.2-14.5-8.7-6.9-14.7-1.3c-9.3,8.9-23.6,4.2-23.8-10-.2-8.7,4.9-15.3,15.4-18,19.1-5.3,30.5,8.9,30.5,24.9s-17.5,32.3-43.4,32.3c-24.7,0-43.1-11.1-43.1-30.7s28.7-25.3,47.4-37.1c-1.9.2-3.8.2-5.6.2-26.7,0-41.1-13.6-41.1-33.8,0-20.4,14.4-33.8,41.1-33.8ZM878.9,694.2c4.4-2.4,4.2-11.1-4.4-27.8-9.3-18-16.9-23.3-21.6-20.7-4.5,2.4-4.5,10.9,4.5,28.2s16.7,22.9,21.5,20.4Z"/>
  <path class="st0" d="M418,526.6c-3.1-13.5-14.5-25.4-26.6-31.8-9.4-5-19.7-8-30.1-10.7,9.7.3,19.8.6,29-2.6s17.6-10.7,18.9-20.4c1.1-8.7-3.5-17.1-9-23.9-8.4-10.3-18.9-18.6-30.9-24.3-10.5-5-29.3-12.8-36.5,1.7-.8,1.9-1.2,3.9-1.2,5.9-.2,7.2,2.5,13.7,4.2,20.6l4,16c1,3.8,1.7,7.7,2.9,11.5.6,2.1,2.4,5.9,1.4,8.1-1.4,3.1-13.7-3.3-16.1-4.8-5-3.1-9.2-7.4-12.2-12.5-3.2-5.3-5-11.4-8.4-16.5s-9.4-9.4-15.5-8.3c-6.5,1.2-10.6,8.3-10.2,14.8s4.1,12.5,8.6,17.2c11.6,12.3,27.7,19.2,44.6,19.2-10.5,7-21.3,14.1-29.2,24-5.7,7.1-9.8,15.8-10.5,24.9-.6,8,2.1,18,10.9,20.4,4.8,1.3,9.9-.1,13.3-3.7,3.4-3.6,4.5-8.8,4.5-13.8s-.8-9.9-.6-14.8c.8-14.7,10.1-27.6,23.8-33-.9,13.2-6.3,25.6-11.5,37.6-4,9.2-11.4,21-6.8,31.3,3.8,8.6,15.4,9.2,23.4,8.9,21.6-.6,51.9,3,63.6-20.4,3.2-6.4,4.1-13.8,2.4-20.7ZM355,477.8c-.3-.2-.6-.5-.8-.8-.9-1.6,0-5,0-6.7.3-4.9.9-9.8,1.6-14.6.9-5.6,1.8-12.2,4.4-17.2,3.4-6.5,11.5-4.1,16.4-.8,5.7,3.8,8.5,10.8,8.7,17.4.1,7.8-3.6,14-10.1,18.3-4.8,3.2-10.2,4-15.8,4.7-1.2.2-3.2.4-4.4-.3ZM392.1,536.8c-.1.2-.2.3-.3.5-3.7,5.5-10.8,9-17.2,7.3-3.8-1.1-7-3.3-9.4-6.5-3.3-4.4-5.7-9.6-6.8-15-1.3-6-2.3-12.2-2.9-18.3-.3-3.3-.6-6.5-.8-9.8,0-1.5,0-3.6,1.2-4.7,1.5-1.4,4.7-.5,6.5,0,8.3,2.1,16.7,4.8,23.1,10.8,4.5,4.2,7.7,9.6,9.3,15.5.9,3.5,1.1,7.1.7,10.7-.4,3.4-1.5,6.7-3.3,9.6h0Z"/>
  <path class="st0" d="M815.2,783.1l-1.4-1.4,1.5-1.5c-1.8.5-3.8-.1-5-1.6-1.4-1.3-2.1-3.1-2-5,.1-2.2,1.1-4.2,2.8-5.7,1.5-1.7,3.6-2.7,5.8-3,2-.2,4,.5,5.4,2,1.2,1.1,1.9,2.6,1.9,4.3,0,1.6-.7,3-1.8,4.1l-2-2c.6-.6.9-1.4,1-2.2,0-.9-.3-1.8-1-2.4-.9-.9-2.1-1.3-3.3-1.1-1.5.3-2.8,1-3.8,2.1-1.1,1-1.8,2.3-2.1,3.8-.2,1.2.3,2.4,1.1,3.3,1.4,1.4,3.6,1.5,5.1.1.1-.1.2-.2.3-.3l.2-.2-2.9-2.9,1.7-1.7,4.7,4.7-6.3,6.4Z"/>
  <path class="st0" d="M825.2,776.9l2.1,1.6-6.5,8.8-2.1-1.6,6.5-8.8ZM828.2,772.9l2.1,1.6-1.9,2.5-2.1-1.6,1.9-2.5Z"/>
  <path class="st0" d="M824.5,789.7l4.5-7.5-1.1-.7,1.1-1.9,1.1.7.9-1.5c1.5-2.5,3.3-3.1,5.3-1.9s2.1,3.2.8,5.4l-1.8-1.1c.7-1.1.7-1.8,0-2.2s-1.3,0-2,1l-1,1.6,3.2,1.9-1.1,1.9-3.2-1.9-4.5,7.5-2.2-1.3Z"/>
  <path class="st0" d="M841.2,782l-1.6,3.5,3.9,1.8-.9,2-3.9-1.7-1.8,4.1c-.6,1.4-.6,2.2.3,2.6.8.3,1.5-.2,2.1-1.5l1.9.8c-1.1,2.4-2.9,3.6-5.1,2.6-1.2-.4-2-1.3-2.2-2.5,0-1.1.1-2.2.6-3.1l1.8-4.1-1.2-.5.9-2,.5.2c1.1.5,1.7-.3,2.9-3l1.9.9Z"/>
  <path class="st0" d="M845.5,787.9l2.5.8-3.4,10.4-2.5-.8,3.4-10.4ZM847.1,783.2l2.5.8-1,2.9-2.5-.8,1-2.9Z"/>
  <path class="st0" d="M850.6,789.6l2.5.5-.4,2.2c.9-1.4,2.6-2.1,4.3-1.7,2.4.5,3.2,2.5,2.6,5.3l-1.2,6.4-2.6-.5,1.2-6c.3-1.8-.2-2.9-1.6-3.2-.7-.1-1.4,0-1.9.5-.6.5-1,1.2-1.2,2l-1.1,5.8-2.6-.5,2.1-10.7Z"/>
  <path class="st0" d="M869.7,792.1c.6-1.3,2-2.1,3.4-2.1v2.3c-.8,0-1.6.2-2.2.7.6.7.9,1.5.8,2.4,0,2.3-1.9,3.8-4.7,3.7-.7,0-1.4-.1-2.1-.4-.5.1-.8.4-.8.8,0,.6.4.9,1.3.9h2.1c3,0,4.9,1.4,4.8,4s-2.2,4.2-5.9,4.1c-3.1,0-4.8-1.5-4.8-3.5,0-1.2.8-2.3,2-2.6-1-.2-1.8-1.1-1.7-2.2,0-1.1.9-1.9,1.9-2.1-1-.7-1.5-1.8-1.4-3,0-2.4,1.9-3.8,4.7-3.7.9,0,1.7.2,2.5.6ZM866.8,802.8c-1.7,0-2.8.5-2.8,1.7s.9,1.9,2.8,1.9,2.9-.6,2.9-1.8-.9-1.8-2.8-1.8ZM869.4,795.4c0-1.1-.9-2.1-2-2.1,0,0,0,0-.1,0-1.1-.2-2.1.6-2.3,1.7,0,0,0,.2,0,.3,0,1.1.8,2,1.9,2.1,0,0,.2,0,.3,0,1.1.2,2.1-.6,2.3-1.7,0,0,0-.2,0-.3Z"/>
  <path class="st0" d="M878,791.9l2.8-.7,4.3,6.6.7-7.8,1.8-.4,4.5,6.5.6-7.8,2.6-.7-1.5,11.7-1.9.5-4.2-6-.8,7.2-1.9.5-6.9-9.5Z"/>
  <path class="st0" d="M894.3,782l2.5-1,1.2,2.8-2.4,1-1.2-2.9ZM896.3,786.6l2.5-1,4.3,10-2.5,1-4.3-10Z"/>
  <path class="st0" d="M901.7,779.7l1.9,3.4,3.8-2.1,1.1,1.9-3.8,2.1,2.2,3.9c.7,1.3,1.3,1.8,2.2,1.3.7-.4.8-1.4,0-2.5l1.8-1c1.3,2.3,1.1,4.5-1,5.7-1,.7-2.3.8-3.4.3-.9-.6-1.7-1.4-2.1-2.4l-2.2-3.9-1.2.6-1-1.9.4-.2c1-.6.8-1.5-.6-4.1l1.8-1Z"/>
  <path class="st0" d="M905.6,775.3l2.1-1.6,4.8,6.2c-.3-1.6.3-3.2,1.6-4.1,1.9-1.5,4-.7,5.7,1.5l4,5.2-2.1,1.6-3.7-4.8c-1.1-1.4-2.4-1.8-3.5-.9-.5.4-.9,1.1-.8,1.8,0,.8.2,1.6.7,2.2l3.6,4.6-2.1,1.6-10.3-13.3Z"/>
  <path class="st0" d="M928.1,770.3c1.2,1.1,3.1,1,4.1-.2,0-.1.2-.2.3-.4,1-1.3,1-2.6,0-3.5-1.4-1.1-3.1.2-5,1.4-1.3.8-2.5,1.5-3.9,1.4-.8,0-1.5-.4-2.1-.9-1.1-.8-1.7-2-1.7-3.3,0-1.4.5-2.8,1.4-3.8.8-1.2,2.1-2,3.5-2.2,1.3-.2,2.6.2,3.6,1l-1.6,2.1c-1.1-.8-2.6-.7-3.4.4,0,0,0,.1-.1.2-.9,1.1-.9,2.4,0,3.2,2.7,2.1,6.5-5.5,11.1-1.9,1.1.8,1.8,2,1.8,3.4,0,1.5-.5,3-1.6,4.2-.9,1.3-2.3,2.2-3.9,2.5-1.5.2-3.1-.2-4.3-1.3l1.8-2.3Z"/>
  <path class="st0" d="M932.1,754c.7-1.3,1.9-2.3,3.3-2.7,1.5-.3,3-.1,4.3.7,1.4.7,2.4,1.8,2.9,3.2.5,1.4.3,2.9-.4,4.2-.7,1.3-1.9,2.3-3.3,2.6-1.5.4-3,.1-4.3-.6-1.4-.7-2.4-1.9-2.9-3.3-.5-1.4-.3-2.9.4-4.2ZM934.1,755c-.4.7-.4,1.5,0,2.1.4.8,1.1,1.4,1.9,1.8.8.5,1.7.7,2.5.6.8,0,1.4-.5,1.8-1.2.4-.7.4-1.5,0-2.2-.4-.8-1.1-1.4-1.9-1.8-.8-.5-1.7-.7-2.5-.6-.8,0-1.4.5-1.8,1.2Z"/>
  <path class="st0" d="M938,740.8l.8-2.5,10.4,3.5-.8,2.4-2-.7c1.2,1,1.6,2.7,1.1,4.2-.8,2.5-3,3-5.7,2.1l-6.2-2.1.8-2.5,5.8,2c1.8.6,2.9.2,3.4-1.2s-.6-2.8-2.4-3.4l-5.2-1.8Z"/>
  <path class="st0" d="M950.6,735.1l-.5,2.6-16.4-3.3.5-2.6,16.4,3.3Z"/>
</svg>