<svg id="Layer_1" data-name="Layer 1" xmlns="http://www.w3.org/2000/svg" viewBox="0 0 1232 1215"><defs><style>.cls-1{fill:#ffe9d0;}</style></defs><title>Artboard 1 copy 4</title><path class="cls-1" d="M650.91,589.85a2.86,2.86,0,0,1-2-.82,3.34,3.34,0,0,1-1.25-2.58,6,6,0,0,1,2.65-4.8q4.65-3.39,6.5-22.06l.15-1.85c.59-6.29.89-11.23.92-14.79s0-6,0-7.27q0-5.68-.15-8.86H648a3.8,3.8,0,0,1-2.17-1.33,3.76,3.76,0,0,1,0-4.76,3.91,3.91,0,0,1,2.17-1.29l9.45-.07c0-.69-.12-2.27-.37-4.73a27.44,27.44,0,0,0-.29-3.17l-.08-2.36a32.34,32.34,0,0,1,1.85-11.59A17.84,17.84,0,0,1,668,487.19a36.66,36.66,0,0,1,15-2.88l2.51.07q8.94.38,14.47,5.17T706,502.69v.81a12.21,12.21,0,0,1-2.36,7.6,9.78,9.78,0,0,1-7.31,3.91h-.44a9.17,9.17,0,0,1-7.53-3.36,10.82,10.82,0,0,1-2.73-6.9,15.23,15.23,0,0,1,.89-4.31,25.84,25.84,0,0,1,1.58-3.58,5.57,5.57,0,0,0,.85-2.36,2.59,2.59,0,0,0-.81-2,3.17,3.17,0,0,0-2.21-.74l-.89.08c-2.66.44-4.54,2.13-5.64,5.05a29.11,29.11,0,0,0-1.89,8.9c-.14,3-.22,5.51-.22,7.52l.15,6.13h16.75a3.8,3.8,0,0,1,2.14,6,3.63,3.63,0,0,1-2.14,1.33H677.47v5.9l-.07,4.58q0,10.56.89,20.74,2.13,19.92,7.45,24.13v.07a4,4,0,0,1,1.7,2,4.63,4.63,0,0,1,.44,2.06,3.42,3.42,0,0,1-1,2.55,2.91,2.91,0,0,1-2,1Z"/><path class="cls-1" d="M552.76,721.12a2.87,2.87,0,0,1-2-.81,3.35,3.35,0,0,1-1.26-2.58,6,6,0,0,1,2.66-4.8q4.65-3.39,6.49-22.07l.15-1.84q.88-9.45.92-14.8t0-7.27q0-5.69-.15-8.85h-9.81a3.83,3.83,0,0,1-2.18-1.33,3.6,3.6,0,0,1-.85-2.36,3.54,3.54,0,0,1,.85-2.4,3.82,3.82,0,0,1,2.18-1.29l9.44-.08c0-.69-.12-2.26-.36-4.72a24.85,24.85,0,0,0-.3-3.18l-.07-2.36a32.34,32.34,0,0,1,1.84-11.58q3-7.45,9.45-10.34a36.79,36.79,0,0,1,15-2.87l2.51.07q8.93.38,14.46,5.17T607.82,634v.81a12.16,12.16,0,0,1-2.37,7.61,9.79,9.79,0,0,1-7.3,3.91h-.45a9.16,9.16,0,0,1-7.52-3.36,10.86,10.86,0,0,1-2.73-6.9,15.29,15.29,0,0,1,.88-4.32,25.69,25.69,0,0,1,1.59-3.58,5.67,5.67,0,0,0,.85-2.36,2.55,2.55,0,0,0-.81-2,3.2,3.2,0,0,0-2.22-.74l-.88.07c-2.66.45-4.54,2.13-5.65,5.06a29,29,0,0,0-1.88,8.89q-.23,4.5-.22,7.53l.14,6.13H596a3.65,3.65,0,0,1,3,3.69,3.73,3.73,0,0,1-.81,2.36A3.7,3.7,0,0,1,596,658.1H579.33V664l-.08,4.57q0,10.56.89,20.74,2.15,19.94,7.45,24.14v.07a3.89,3.89,0,0,1,1.7,2,4.51,4.51,0,0,1,.44,2.07,3.44,3.44,0,0,1-1,2.54,2.89,2.89,0,0,1-2,1Z"/><path class="cls-1" d="M722.48,522.86c20.3,0,33.88,13.07,33.88,34.13s-13.58,34-33.88,34-34-13.07-34-34S702,522.86,722.48,522.86Zm13.45,59.51c4.69-2.53,4.44-11.54-4.57-29.06-9.77-18.91-17.64-24.49-22.46-21.82s-4.7,11.42,4.69,29.44C723.24,579.2,731.11,585,735.93,582.37Z"/><path class="cls-1" d="M793.29,522.86c20.3,0,33.88,13.07,33.88,34.13s-13.58,34-33.88,34-34-13.07-34-34S772.86,522.86,793.29,522.86Zm13.45,59.51c4.7-2.53,4.44-11.54-4.57-29.06-9.77-18.91-17.64-24.49-22.46-21.82s-4.69,11.42,4.7,29.44C794.05,579.2,801.92,585,806.74,582.37Z"/><path class="cls-1" d="M481,591.24a16.62,16.62,0,0,1-10.4-5.68A19,19,0,0,1,465.7,574v-1.11q0-8.48,4.35-13.72a32.64,32.64,0,0,1,12-8.71,118.66,118.66,0,0,1,14.73-5.32,103.73,103.73,0,0,0,11.36-4l.08-3.32c0-1.82-.08-3.57-.22-5.24a12.41,12.41,0,0,0-2.48-6.72q-2.1-2.65-7.12-3h-.88q-3.56,0-5,1a3.78,3.78,0,0,0-1.81,2.55c-.07.86-.11,1.48-.11,1.88a21.24,21.24,0,0,0,.29,3.28,22.41,22.41,0,0,1,.3,3.66,9.21,9.21,0,0,1-4.32,7.38,14.53,14.53,0,0,1-7.78,2.43,12.42,12.42,0,0,1-1.92-.15c-3.4-.69-5.67-2.09-6.83-4.2a12.29,12.29,0,0,1-1.73-5.83,11.66,11.66,0,0,1,.59-3.62q5.74-15.79,28.48-15.79,15.64,0,24.36,8.34a26.35,26.35,0,0,1,8.41,19.7q0,3.25-.18,7.6t-.19,8.71q0,6.5.52,12.69c.34,2.51,1,4.25,2,5.21a5.88,5.88,0,0,0,4.28,1.44,2.58,2.58,0,0,1,2.55,1.25,5.3,5.3,0,0,1,.62,2.29c0,2-1,3.39-3.17,4.28Q526.73,591,520.68,591a21.9,21.9,0,0,1-4.06-.37q-5.24-1-8-6.72a76.64,76.64,0,0,1-12.58,5.83,33.53,33.53,0,0,1-10.67,1.7C484,591.46,482.5,591.39,481,591.24Zm20.89-12.47c2.9-.49,4.65-2.06,5.24-4.69a38.16,38.16,0,0,0,.89-8.37l-.08-4.36.15-12.84a44.11,44.11,0,0,0-11,8.63,15.21,15.21,0,0,0-4.32,10.34c.19,4.52,1.08,7.55,2.66,9.07a7.34,7.34,0,0,0,5.23,2.29Z"/><path class="cls-1" d="M543.79,588.28a4.79,4.79,0,0,1-1.15-1.14c-2.16-3.11.7-6.93,2-9.74a55.14,55.14,0,0,0,5-25.34A52.66,52.66,0,0,0,544.32,531c-1.5-3-3.31-6.66-1.63-9.61,1.46-2.56,4.79-3.19,7.71-3.55l13.77-1.74c3.45-.43,8.74-.15,10.83,3.15,3.07,4.89-3,10.17-2.43,14.84,1.31-1.91,3.11-3.36,4.56-5.15,8.16-10.06,16.25-20.68,27-28.15,5.63-3.91,12.11-6.84,19-7.2a27.2,27.2,0,0,1,16,4,16.41,16.41,0,0,1,7,10.06c1.26,5.51-.26,11.59-5.2,14.74-3.51,2.23-7.68,2.13-11.62,1.38-4.2-.8-7.89-4.23-12.07-5.45-10.93-3.19-21.52,5.3-28.93,12.48-5.79,5.61-12.09,10.8-15.4,18.43-3.57,8.22-3.47,18.28,1.48,25.76,1.31,2,2.94,3.79,3.93,5.95s1.19,4.92-.29,6.78c-1.72,2.18-4.91,2.33-7.69,2.3l-15.86-.2C551.66,589.75,546.59,590.23,543.79,588.28Z"/><path class="cls-1" d="M593.66,585.27q-8.32-6-10.69-13.11A39.29,39.29,0,0,1,580.6,560a31.91,31.91,0,0,1,1-8,28.29,28.29,0,0,1,10.19-15.42q7.89-6.31,21.43-6.8a34,34,0,0,1,14,2.7q6.07,2.71,8.59,6.29a12,12,0,0,1,2.52,6.86,11.61,11.61,0,0,1-.36,2.79,19.14,19.14,0,0,1-7,9.5,52.76,52.76,0,0,1-11.69,6.61q-6.4,2.65-11.5,4.28l-2.25.79a22.15,22.15,0,0,0,4.1,8.11,13.47,13.47,0,0,0,7.5,4.88,12.62,12.62,0,0,0,2.79.31,16.15,16.15,0,0,0,6.8-1.64,25.6,25.6,0,0,0,8.8-6.92c.61-.69,1.12-1,1.55-1.06l.76,0a3,3,0,0,1,2,.78,2.5,2.5,0,0,1,.94,1.46c0,.45.06.71.06.79a4,4,0,0,1-.85,2.31,32.77,32.77,0,0,1-9.62,8.89q-5.8,3.56-14.9,3.85Q602,591.31,593.66,585.27Zm18.18-29a31.24,31.24,0,0,0,7.49-10,8.44,8.44,0,0,0,.55-2.91,7.29,7.29,0,0,0-1-3.64,5.51,5.51,0,0,0-4-2.62,6.44,6.44,0,0,0-4.86,1.52c-5.94,4.33-7.09,12.55-6.44,19.37.15,1.56.48,3.05.54,4.62a16.84,16.84,0,0,0,3.25-2.42C608.92,558.89,610.39,557.58,611.84,556.26Z"/><path class="cls-1" d="M859.37,591.11q-12.11-.37-18.2-6.83a32.31,32.31,0,0,1-8.08-15.46,33.18,33.18,0,0,1-.88-7.9q0-5.24.37-10.25c.24-3,.37-5.91.37-8.71l-.08-2.81q-.15-12-6.57-13.95a23.73,23.73,0,0,0-6.42-.88,3.37,3.37,0,0,1-1-.3,3.53,3.53,0,0,1-2.07-3.39,3.31,3.31,0,0,1,2-3.32,12.93,12.93,0,0,1,3.61-.52,21.28,21.28,0,0,0,13.8-5.53,60.49,60.49,0,0,0,6.28-6.5q7.74-9.66,11.8-9.67a3.89,3.89,0,0,1,2.81.93,2.48,2.48,0,0,1,1,1.58q-.15,3.48-.81,8.56c-.4,3.15-.74,6.47-1,10h13.73A3.13,3.13,0,0,1,872,517.2a3.5,3.5,0,0,1,1,2.54q0,2.73-3,3.77H855.45c-.29,2-.66,5.38-1.1,10.11a182.83,182.83,0,0,0-1.11,19.11q0,18.45,4.5,25.39,2.65,4.07,6.72,4.06a11.73,11.73,0,0,0,2.21-.22,10.81,10.81,0,0,0,4.58-3,16.17,16.17,0,0,1,2.62-2.14,4.93,4.93,0,0,1,2.69-.88,3.83,3.83,0,0,1,3.32,1.84,5.46,5.46,0,0,1,.74,2.81,3.69,3.69,0,0,1-.88,2.5,22.47,22.47,0,0,1-9.27,6.13,32,32,0,0,1-10.73,1.92Z"/><path class="cls-1" d="M465.21,722.47a54.73,54.73,0,0,1-28.12-7.75,49.47,49.47,0,0,1-19.15-19.23,57.87,57.87,0,0,1-6.9-26.38v-1A50.8,50.8,0,0,1,418,641.76a49.77,49.77,0,0,1,19.12-18.41,53.31,53.31,0,0,1,26.27-6.49h2.51a58,58,0,0,1,19.78,3.47,27.71,27.71,0,0,1,16.75,16.45,21.69,21.69,0,0,1,1.33,7.09,15.2,15.2,0,0,1-2.47,7.78q-2.47,4.1-8.31,6.31a20.18,20.18,0,0,1-7.3,1.48,15.14,15.14,0,0,1-3.4-.37q-7.15-1.85-7.16-6.12a6.93,6.93,0,0,1,.3-1.92,34.81,34.81,0,0,0,1.48-10.63,17,17,0,0,0-3.25-10.19q-3.25-4.5-12-4.57-11.37,2.22-17,9.74-6.8,8.93-6.79,22.21a63.24,63.24,0,0,0,2.88,18A58.13,58.13,0,0,0,450,693.94a39.69,39.69,0,0,0,15.43,12.73,17.33,17.33,0,0,0,6.79,1.77q5.38,0,7.3-8.41a37.06,37.06,0,0,0,1-8.27,50.87,50.87,0,0,0-.59-6.42c-.39-2.8-1.7-4.45-3.91-4.94h-.15a10.56,10.56,0,0,0-7,2.91A18.84,18.84,0,0,0,464,689.4a2.12,2.12,0,0,1-2,1.41c-.74,0-1.11-.5-1.11-1.48l-.07-15.94a4,4,0,0,1,1.11-3.1,3.57,3.57,0,0,1,2.51-1h13.8l7.82-.08q8.42.23,12,5.13a24.59,24.59,0,0,1,4.35,12.44,103.06,103.06,0,0,1,.67,11.88l-.07,5.09c0,3.49.12,6.72.36,9.67v1q0,4-2.14,5.61a5.74,5.74,0,0,1-3.76,1.25,9.62,9.62,0,0,1-2.51-.36,35.26,35.26,0,0,0-8.19-1.26l-2.18.08a23.75,23.75,0,0,0-5,1A57,57,0,0,1,465.21,722.47Z"/><path class="cls-1" d="M508.67,721.15a3.15,3.15,0,0,1-2.07-.81,3.39,3.39,0,0,1-1.25-2.74,4.11,4.11,0,0,1,.81-2.5A10.34,10.34,0,0,1,508,713q4.72-3.26,6.57-22.07.6-6.57.59-11.66a45.82,45.82,0,0,0-1.25-12q-2-7.38-5.91-8.19a3.78,3.78,0,0,1-2.65-3.62,4,4,0,0,1,.59-2.36,4.38,4.38,0,0,1,1.18-1.18,2.09,2.09,0,0,1,.81-.37q29-4.5,30-4.5l.89.08c1,0,1.48.78,1.48,2.21a14.71,14.71,0,0,1-.59,3.54Q536.34,664.25,536,671t-.37,9.89a70.84,70.84,0,0,0,.59,9.74q2.06,18.82,7.3,22.88v.08a3.89,3.89,0,0,1,1.7,2,4.49,4.49,0,0,1,.44,2.06,3.45,3.45,0,0,1-1,2.55,2.89,2.89,0,0,1-2,1Zm8.26-75.06a12,12,0,0,1-7.74-6.42,11.83,11.83,0,0,1-1-4.8,12.29,12.29,0,0,1,1.26-5.31,16.17,16.17,0,0,1,8-7.82,17.79,17.79,0,0,1,7.16-1.63,14.34,14.34,0,0,1,4.06.59,12.1,12.1,0,0,1,7.82,6.43,11.81,11.81,0,0,1,1,4.79,12.35,12.35,0,0,1-1.25,5.32,16.25,16.25,0,0,1-8,7.82,17.81,17.81,0,0,1-7.16,1.62A14.29,14.29,0,0,1,516.93,646.09Z"/><path class="cls-1" d="M624.74,714.4A32.91,32.91,0,0,1,616.59,699a36.11,36.11,0,0,1-.81-7.9q0-5.31.33-10.37t.33-11.4a28.61,28.61,0,0,0-1.84-9.81,7.38,7.38,0,0,0-4.73-4.17,22.66,22.66,0,0,0-6.42-.93,3.77,3.77,0,0,1-1-.25,3.31,3.31,0,0,1-1.4-1.07,4,4,0,0,1-.74-2.37,3.32,3.32,0,0,1,2-3.24,5.47,5.47,0,0,1,1.26-.37,51.32,51.32,0,0,0,7.89-1,23.52,23.52,0,0,0,8.34-4.69,58.87,58.87,0,0,0,6.28-6.6,66,66,0,0,1,8-8.27,5.41,5.41,0,0,1,3.62-1.33,4.63,4.63,0,0,1,3,1,2.24,2.24,0,0,1,.89,1.55q-.23,3.47-.81,8.49-.6,4.72-1.11,10h1.62a38.2,38.2,0,0,0,26.87-10.7q12-11.29,14.61-32.18a12.8,12.8,0,0,1,3.69-7.23,13.53,13.53,0,0,1,10.18-4.43,11.72,11.72,0,0,1,6.79,1.92q6.34,4.21,6.35,15.57a23.33,23.33,0,0,1-1.4,7.16q-4.87,11.67-17.12,20a98.86,98.86,0,0,1-26.87,12.81q-14.61,4.46-25.46,4.46-1.77,14.48-2,22.44l-.15,6.79q0,18.38,4.5,25.38,2.66,4.14,6.72,4.14a12.62,12.62,0,0,0,2.21-.22,11.59,11.59,0,0,0,4.58-3.1,15.42,15.42,0,0,1,2.58-2.11,4.87,4.87,0,0,1,2.58-.85,3.81,3.81,0,0,1,3.4,1.85,5,5,0,0,1,.81,2.73,3.73,3.73,0,0,1-.88,2.51,22.16,22.16,0,0,1-9.38,6.2,33.59,33.59,0,0,1-11.07,1.92Q630.83,720.85,624.74,714.4Zm47,6.45a3.11,3.11,0,0,1-2.06-.81,3.36,3.36,0,0,1-1.26-2.73,4.16,4.16,0,0,1,.81-2.51,10.91,10.91,0,0,1,1.85-2.14q4.57-3.39,6.57-22.06.51-6.5.51-11.59A48.45,48.45,0,0,0,677,667q-2-7.38-5.9-8.19a3.8,3.8,0,0,1-2.66-3.62,3.83,3.83,0,0,1,1.77-3.61l.74-.3q29.09-4.5,30-4.5c1.23,0,1.93.29,2.1.88a5.46,5.46,0,0,1,.26,1.41,14.78,14.78,0,0,1-.59,3.54q-3.33,11.37-3.69,18.08c-.25,4.48-.37,7.77-.37,9.89a72.45,72.45,0,0,0,.59,9.74A84.39,84.39,0,0,0,702.09,705q1.8,6,4.46,8.19c0,.05,0,.09.11.11a3.92,3.92,0,0,1,.67.55,4.88,4.88,0,0,1,1,1.41,4.5,4.5,0,0,1,.45,2.06,3.47,3.47,0,0,1-1,2.55,2.9,2.9,0,0,1-2,1Z"/><path class="cls-1" d="M761.17,721.15a3,3,0,0,1-2.21-1,3.42,3.42,0,0,1-1-2.47,4.3,4.3,0,0,1,.44-1.92,8.22,8.22,0,0,1,.89-1.44c.29-.37.46-.55.51-.55q3.69-2.65,5.94-12.14a82.1,82.1,0,0,0,2.26-19q0-11.58-3.92-15.49-3.24-3.25-6.79-3.25a9.33,9.33,0,0,0-2,.22q-4.73,1-8.52,5.79a23.59,23.59,0,0,0-4.69,12.22c0,.73-.07,1.57-.07,2.51a71.18,71.18,0,0,0,3,20.29q1.77,6.14,4.65,8.56v.08a2.41,2.41,0,0,1,.74.59A5.19,5.19,0,0,1,752,718a3.81,3.81,0,0,1-1.07,2.22,2.78,2.78,0,0,1-2,1H715a3.13,3.13,0,0,1-2.06-.81,3.37,3.37,0,0,1-1.26-2.74,4.11,4.11,0,0,1,.81-2.5,10.35,10.35,0,0,1,1.85-2.14q4.65-3.26,6.49-22.07a109.3,109.3,0,0,0,.45-11.22,60.2,60.2,0,0,0-1.55-13.28q-1.49-6.21-5.39-7.6a3.32,3.32,0,0,1-1.92-1.3,3.68,3.68,0,0,1-.74-2.25,4.21,4.21,0,0,1,.59-2.4,4.1,4.1,0,0,1,1.18-1.18,2.25,2.25,0,0,1,.81-.33l30-4.2c1.18,0,1.87.3,2.06.92a5,5,0,0,1,.3,1.36,26.67,26.67,0,0,1-1.11,5.32l-2,6.93a5.15,5.15,0,0,0,.66-.81l.3-.37a41.86,41.86,0,0,1,11-9.48q6.17-3.66,10-4.06c2.58-.27,4.26-.41,5.05-.41A19.28,19.28,0,0,1,780,649q5.46,3,8.89,10.59t3.44,20.63q0,2.5-.3,6.35-.43,5.83-.44,10.92,0,12.33,4.5,15.72a5.28,5.28,0,0,1,2.21,4.65,3.32,3.32,0,0,1-.92,2.18,2.73,2.73,0,0,1-2.1,1.07Z"/><path class="cls-1" d="M830.55,646a56.74,56.74,0,0,1,9.08.74c.6-6.4,3.28-13.25,9.08-17.12,5.36-3.42,14.29-5.06,17.27,1.94s-2.08,16.82-13.25,13.4c-5.06-1.64-7.44.15-8.33,2.83,13,3.87,19.65,13.25,19.65,25.9,0,11-5.21,19.65-15,24.12-17.12,10.72-26.5,14.29-26.5,27.69s9.08,20.24,20.4,20.24c9.67,0,18.16-5.06,18.16-11.9,0-6.41-7.15-5.66-12.06-1.05-7.59,7.3-19.35,3.43-19.5-8.19-.15-7.14,4-12.5,12.65-14.73,15.63-4.32,25,7.29,25,20.39,0,16.23-14.29,26.5-35.58,26.5-20.24,0-35.28-9.08-35.28-25.16,0-20,23.52-20.69,38.86-30.37a44.54,44.54,0,0,1-4.62.15c-21.88,0-33.64-11.16-33.64-27.69S808.67,646,830.55,646Zm10.27,48.09c3.58-1.94,3.43-9.09-3.57-22.78-7.59-14.74-13.85-19.06-17.72-17-3.72,1.93-3.72,8.93,3.73,23.07S837,696.17,840.82,694.09Z"/><path class="cls-1" d="M463.27,556.77c-2.51-11-11.86-20.76-21.78-26.07-7.7-4.13-16.17-6.6-24.63-8.75,8,.27,16.18.52,23.73-2.1s14.41-8.79,15.46-16.71c.94-7.11-2.86-14-7.36-19.58a72.63,72.63,0,0,0-25.35-19.91c-8.6-4.07-24-10.47-29.86,1.42a11.58,11.58,0,0,0-1,4.87c-.14,5.91,2,11.26,3.4,16.88l3.24,13.1c.78,3.14,1.42,6.32,2.34,9.41.52,1.74,1.93,4.82,1.1,6.62-1.14,2.52-11.25-2.72-13.18-4a30.76,30.76,0,0,1-10-10.22c-2.59-4.36-4.08-9.33-6.92-13.54s-7.67-7.71-12.66-6.8c-5.28,1-8.67,6.77-8.4,12.14s3.38,10.19,7.05,14.13A49.82,49.82,0,0,0,395,523.4C386.33,529.12,377.54,535,371,543c-4.66,5.78-8.05,12.91-8.63,20.38-.51,6.55,1.76,14.71,8.91,16.73a11.11,11.11,0,0,0,10.9-3c2.76-3,3.66-7.23,3.71-11.27s-.62-8.09-.47-12.14A30.81,30.81,0,0,1,405,526.62c-.76,10.82-5.2,21-9.46,30.78-3.27,7.53-9.33,17.18-5.59,25.64,3.11,7,12.62,7.5,19.2,7.31,17.67-.49,42.5,2.45,52.07-16.67A24.79,24.79,0,0,0,463.27,556.77Zm-51.64-39.91a1.66,1.66,0,0,1-.67-.67c-.7-1.32-.07-4.05,0-5.48.24-4,.7-8,1.31-12,.7-4.55,1.46-10,3.62-14.09,2.8-5.35,9.45-3.35,13.45-.67,4.65,3.11,7,8.81,7.1,14.27.12,6.42-2.92,11.45-8.24,15-3.93,2.62-8.4,3.27-13,3.87A6.58,6.58,0,0,1,411.63,516.86ZM442,565.2c-.08.12-.16.25-.25.37-3,4.51-8.82,7.33-14.1,6A14.54,14.54,0,0,1,420,566.3,30.88,30.88,0,0,1,414.42,554,137.94,137.94,0,0,1,412,539c-.28-2.68-.5-5.35-.65-8-.07-1.19,0-3,1-3.86,1.25-1.18,3.83-.4,5.29,0,6.83,1.74,13.7,3.89,18.94,8.85a26.77,26.77,0,0,1,7.59,12.7,23.73,23.73,0,0,1,.59,8.72A18.73,18.73,0,0,1,442,565.2Z"/></svg>