<svg id="Layer_1" data-name="Layer 1" xmlns="http://www.w3.org/2000/svg" viewBox="0 0 1232 1215"><defs><style>.cls-1{fill:#ffd744;}</style></defs><title>Artboard 1 copy 2</title><path class="cls-1" d="M662.93,446.41c-26.85,13.39-46,43.61-53.45,72.51-5.76,22.43-6.79,45.78-7,68.93-4.31-20.73-8.85-42-20.35-59.79s-31.7-31.57-52.76-29.28c-18.9,2.05-34.24,16.18-45.78,31.29a192.23,192.23,0,0,0-35.33,77.82c-5.05,24.72-11.85,68.38,22.49,76,4.32,1,8.84.46,13.17-.5,15.29-3.37,27.71-12.28,41.32-19.4l31.69-16.58c7.6-4,15.38-7.64,22.77-12,4.15-2.42,11.18-8,16.35-7,7.21,1.37.07,30.7-1.87,36.45a81.7,81.7,0,0,1-20,32.2c-9.61,9.42-21.48,16.39-30.52,26.35s-15,24.61-9.54,36.89c5.83,13,22.89,18.07,36.54,14s24.13-15.12,32-27A132.17,132.17,0,0,0,620,643.3c20.16,18.66,40.76,37.62,65.63,49.28,17.83,8.36,38.32,12.6,57.92,9.38,17.18-2.82,36.77-13.81,37.47-33.48a29.46,29.46,0,0,0-14.72-26.15c-9.36-5.25-20.92-4.87-31.37-2.45s-20.45,6.68-30.95,8.86c-30.63,6.31-64.43-7.39-82-33.25,28.33-4.87,57.24.18,85.22,5,21.45,3.67,50.14,13.21,69.57-1.77,16.11-12.41,11.34-37.22,6.73-54.06-12.39-45.18-20.46-111-75.73-123.58A65.57,65.57,0,0,0,662.93,446.41ZM592.65,604.53a4.24,4.24,0,0,1-1.29,2.15c-3,2.62-10.39,2.73-14.14,3.42-10.5,1.91-21.11,3.25-31.74,4.19-12.16,1.06-26.63,2.53-38.58-.44-15.52-3.86-14.58-22.23-10.2-34.23C501.78,565.7,515,556.07,529,552.37c16.45-4.36,31.33.3,43.85,11.77,9.23,8.45,13.7,19.55,18.13,30.91C592,597.57,593.45,601.61,592.65,604.53ZM698,495.81c.37.14.74.26,1.11.41,13.53,5,24.43,18.1,24.38,32.54,0,8.39-3.61,16.5-8.77,23.12-7.33,9.36-17.56,16.86-28.11,22a363,363,0,0,1-37.12,15.66c-6.74,2.41-13.47,4.66-20.31,6.76-3,.92-7.67,1.82-10.55-.05-3.82-2.48-3.44-9.62-3.4-13.62.17-18.68,1.39-37.71,10.86-54.34A71,71,0,0,1,654,500.77a63.12,63.12,0,0,1,22.1-7A49.7,49.7,0,0,1,698,495.81Z"/></svg>